<svg width="365" height="99" viewBox="0 0 365 99" fill="none" xmlns="http://www.w3.org/2000/svg">
<mask id="mask0_401_183" style="mask-type:alpha" maskUnits="userSpaceOnUse" x="0" y="0" width="365" height="98">
<rect width="365" height="98" rx="5" fill="url(#paint0_linear_401_183)"/>
</mask>
<g mask="url(#mask0_401_183)">
<rect x="-5" width="370" height="98" rx="5" fill="url(#paint1_linear_401_183)"/>
<g opacity="0.5">
<path opacity="0.58" d="M365.105 -66C361.234 -63.7608 307.233 -32.6639 305.634 -31.7403C305.634 -28.3255 305.634 33.3925 305.634 36.7513C308.215 38.2347 362.384 69.4436 365.105 71.011C365.273 70.927 423.678 37.2831 424.575 36.7513C424.575 28.4662 424.575 -24.6588 424.575 -31.7403C421.91 -33.2797 366.76 -65.0204 365.105 -66ZM420.592 -30.4247L413.915 -29.2491V-34.2594L420.592 -30.4247ZM412.597 39.7182C411.363 38.2627 410.072 36.6953 408.922 35.3238L410.381 33.5884L412.597 33.9802V39.7182ZM412.597 32.6367L409.848 32.1609L408.053 34.3161C407.66 33.8403 407.492 33.6444 406.257 32.1609L403.508 32.6367V29.8657L401.068 28.4662C401.629 27.7945 402.218 27.0947 402.863 26.311L401.909 23.6799C403.733 23.372 404.041 23.3161 404.658 23.2041L405.612 20.601C406.846 21.3288 407.407 21.6367 408.025 22.0005L410.465 20.601C410.521 20.769 411.363 23.0921 411.447 23.3161C411.98 23.3161 411.503 23.2601 414.168 23.7359C413.635 25.1634 413.439 25.7512 413.214 26.367L415.01 28.5222L412.597 29.9217V32.6367ZM407.155 35.3518L403.48 39.7462V34.0362L405.696 33.6444C405.696 33.6164 406.538 34.596 407.155 35.3518ZM386.789 38.1787L387.743 32.7487L389.847 36.3874L393.073 35.8276C392.512 36.4993 391.81 37.339 390.969 38.3467L393.073 41.9854L387.883 40.1101L388.136 38.6826L386.789 38.1787ZM365.105 57.2119L362.664 58.6114C362.608 58.4435 361.767 56.1203 361.682 55.8964C361.149 55.8964 361.626 55.9524 358.933 55.4766C359.522 53.8811 359.635 53.5452 359.887 52.8455L358.092 50.7183L360.504 49.3188V46.5198C360.532 46.5198 361.71 46.7437 363.253 46.9956L365.049 44.8404C365.329 45.1762 365.974 45.932 366.844 46.9956L369.593 46.5198V49.2908L372.034 50.6903C371.473 51.334 371.164 51.7259 370.238 52.8455L371.192 55.4766C369.369 55.7844 369.06 55.8404 368.443 55.9524L367.489 58.5555C366.311 57.9117 365.75 57.5758 365.105 57.2119ZM367.068 59.871L365.105 65.2451C364.46 63.4537 363.758 61.5504 363.141 59.871L365.105 58.7234C365.638 59.0593 366.311 59.4511 367.068 59.871ZM345.188 48.4231L347.6 44.2526C348.666 44.4485 350.349 44.7284 351.471 44.9243L356.044 50.3544C353.463 51.8379 351.64 52.8735 349.901 53.8811L346.001 53.2094L345.188 48.675L345.216 48.647L345.188 48.4231ZM342.355 40.0821L337.193 41.9574L339.297 38.3187L337.193 35.7996L340.419 36.3594L342.523 32.7207L343.477 38.1228L342.102 38.6826L342.355 40.0821ZM326.758 39.7182C325.523 38.2627 324.233 36.6953 323.083 35.3238L324.541 33.5884L326.758 33.9802V39.7182ZM326.758 32.6367L324.008 32.1609L322.213 34.3161L320.418 32.1609L317.669 32.6367V29.8657L315.228 28.4662C315.789 27.7945 316.21 27.2906 317.023 26.311L316.07 23.6799C317.893 23.372 318.23 23.2881 318.819 23.2041L319.773 20.601C320.53 21.0209 321.428 21.5527 322.185 22.0005L324.626 20.601C324.654 20.713 325.551 23.1481 325.607 23.3161C326.14 23.3161 325.663 23.2601 328.356 23.7359C327.767 25.3873 327.655 25.6672 327.403 26.367L329.198 28.5222L326.786 29.9217V32.6367H326.758ZM317.584 -34.7352C318.819 -33.2797 320.109 -31.7123 321.259 -30.3408L319.801 -28.6054L317.584 -28.9972V-34.7352ZM317.584 -27.6257L320.334 -27.1499L322.129 -29.3051L323.924 -27.1499L326.673 -27.6257V-24.8547L329.114 -23.4552C328.441 -22.6715 327.824 -21.9158 327.319 -21.3L328.272 -18.6689C326.421 -18.333 326.309 -18.333 325.523 -18.1931L324.569 -15.59C323.391 -16.2618 322.774 -16.6257 322.157 -16.9895L319.716 -15.59C319.632 -15.786 318.791 -18.1091 318.735 -18.3051C318.202 -18.3051 318.679 -18.2491 315.986 -18.7249C316.49 -20.1244 316.715 -20.6842 316.939 -21.356L315.144 -23.4832L317.556 -24.8827V-27.6257H317.584ZM323.027 -30.3408L326.701 -34.7352V-29.0252L324.485 -28.6334L323.027 -30.3408ZM343.42 -33.1677L342.467 -27.7377L340.363 -31.4044L337.137 -30.8446C338.091 -31.9642 338.427 -32.356 339.241 -33.3637L337.137 -37.0024L342.326 -35.127L342.074 -33.6996L343.42 -33.1677ZM345.188 -43.664L346.001 -48.2264L349.872 -48.8981L356.044 -45.3434L351.5 -39.9413L347.628 -39.2696L345.216 -43.4681L345.188 -43.664ZM365.077 -52.2009L367.517 -53.6004C367.854 -52.6488 368.471 -51.0254 368.499 -50.8854C369.032 -50.8854 368.555 -50.9414 371.22 -50.4656C370.715 -49.0661 370.491 -48.5063 370.266 -47.8345L372.062 -45.7073L369.649 -44.3078V-41.5088C369.621 -41.5088 368.499 -41.7047 366.9 -41.9846L365.105 -39.8294L363.309 -41.9846L360.56 -41.5088V-44.2798L358.12 -45.6793C358.681 -46.351 359.382 -47.1627 359.915 -47.8345L358.961 -50.4656C360.785 -50.7734 361.121 -50.8574 361.71 -50.9414L362.664 -53.5445C363.45 -53.1246 364.263 -52.6488 365.077 -52.2009ZM363.113 -54.888L365.077 -60.2621C365.722 -58.4707 366.423 -56.5674 367.04 -54.888L365.077 -53.7404C364.544 -54.0483 363.87 -54.4401 363.113 -54.888ZM386.705 -25.7224L384.32 -21.5799L379.748 -22.8114L376.41 -26.1423L378.822 -30.3128L385.499 -32.7479L386.677 -26.0023L386.649 -25.9743L386.705 -25.7224ZM387.883 -35.0991L393.045 -36.9744L390.941 -33.3357L393.045 -30.8166L389.819 -31.3764L387.743 -27.7937L386.789 -33.1957L388.136 -33.6996L387.883 -35.0991ZM403.452 -34.7352C404.686 -33.2797 405.977 -31.7123 407.127 -30.3408L405.668 -28.6054L403.452 -28.9972V-34.7352ZM403.452 -27.6537L406.201 -27.1779L407.996 -29.3331L409.792 -27.1779L412.541 -27.6537V-24.8827L414.981 -23.4832C414.533 -22.9514 414.28 -22.6435 413.186 -21.328L414.14 -18.6969C412.317 -18.389 412.008 -18.333 411.391 -18.2211L410.437 -15.618C409.764 -16.0099 408.95 -16.4577 408.025 -17.0175L405.584 -15.618C404.406 -18.8649 404.995 -17.2694 404.602 -18.333C404.069 -18.333 404.546 -18.2771 401.881 -18.7529C402.582 -20.6842 402.526 -20.4883 402.835 -21.384L401.011 -23.4552L403.424 -24.8547V-27.6537H403.452ZM408.894 -30.3408L412.569 -34.7352V-29.0252L410.353 -28.6334L408.894 -30.3408ZM407.295 -6.94112L405.949 -3.24644H401.124L400.955 -3.38639H400.927L397.365 -6.35333C397.645 -7.16504 398.15 -8.48057 398.711 -10.048L398.823 -10.132L404.855 -13.6027C405.64 -11.5035 406.538 -9.04037 407.295 -6.94112ZM404.883 18.6137C402.442 17.2142 400.479 16.0667 398.739 15.087L397.393 11.3643L400.927 8.39739L401.096 8.25744H405.949C406.229 9.06915 406.734 10.3847 407.295 11.9521L404.883 18.6137ZM408.025 13.9114C408.67 15.7028 409.371 17.6061 409.988 19.2855L408.025 20.4331C407.492 20.1252 406.818 19.7333 406.061 19.3135L408.025 13.9114ZM370.996 44.9243V37.8429L373.52 34.8199L378.093 36.4714L380.505 40.6699C380.477 40.6978 379.075 42.3772 377.981 43.6928L370.996 44.9243ZM376.634 45.3162C374.558 47.7793 373.885 48.591 372.959 49.6826L370.996 48.535V46.2958L376.634 45.3162ZM373.1 33.2525L370.996 35.7716V32.4968L367.321 31.1533L370.996 30.1736V24.5196L373.829 29.4179L377.167 28.5222L374.727 30.9573L376.859 34.624L373.1 33.2525ZM365.105 42.7971C363.674 41.0897 361.991 39.0744 360.532 37.367C360.532 37.0032 360.532 34.1482 360.532 33.4204L365.105 31.769L369.677 33.4204V37.367L365.105 42.7971ZM369.649 39.4383V45.1482L367.433 45.5401C366.9 44.9243 366.507 44.4485 365.974 43.8047L369.649 39.4383ZM352.201 43.6928L349.676 40.6699L352.089 36.4714L356.661 34.8199L359.186 37.8429C359.186 38.7385 359.186 44.0566 359.186 44.9243C356.381 44.4485 354.361 44.0846 352.201 43.6928ZM359.186 46.2958V48.563L357.222 49.6826L353.547 45.2882C355.062 45.5681 355.539 45.6521 359.186 46.2958ZM357.082 33.2525L353.351 34.596L355.455 30.9293L353.042 28.5222L356.353 29.4179L359.186 24.5196V30.1736L362.861 31.1533L359.186 32.4968V35.7716L357.082 33.2525ZM322.914 11.9521L324.261 8.25744H329.114L329.282 8.39739L332.845 11.3643C332.564 12.176 332.059 13.4916 331.498 15.059L331.386 15.143L325.355 18.6137C324.569 16.5145 323.672 14.0514 322.914 11.9521ZM324.149 19.2855L322.185 20.4331C321.652 20.1252 320.979 19.7333 320.221 19.3135L322.185 13.9394C322.858 15.7028 323.532 17.6061 324.149 19.2855ZM325.299 -13.6027C327.234 -12.4831 329.479 -11.1956 331.442 -10.076L332.789 -6.35333L329.058 -3.24644H324.205C323.924 -4.05816 323.419 -5.37368 322.858 -6.94112L325.299 -13.6027ZM322.157 -8.90042C321.512 -10.6918 320.81 -12.5951 320.193 -14.2745L322.157 -15.4221C322.69 -15.1142 323.363 -14.7223 324.121 -14.3025L322.157 -8.90042ZM359.186 -39.9133V-32.8319L356.661 -29.8089L352.089 -31.4604L349.676 -35.6589C350.237 -36.3026 351.135 -37.3942 352.201 -38.6818L359.186 -39.9133ZM353.519 -40.3052L357.194 -44.6716L359.158 -43.552V-41.3128L353.519 -40.3052ZM357.054 -28.2415L359.158 -30.7606V-27.4858L362.833 -26.1423L359.186 -25.1626V-19.5086L356.353 -24.4069L353.014 -23.5112L355.455 -25.9463L353.323 -29.613L357.054 -28.2415ZM365.077 -37.7861C366.507 -36.0787 368.191 -34.0634 369.649 -32.356C369.649 -31.9922 369.649 -29.1372 369.649 -28.4094L365.077 -26.758L360.504 -28.4094V-32.356L365.077 -37.7861ZM360.532 -34.4553V-40.1652L362.748 -40.5571L364.207 -38.8217L360.532 -34.4553ZM377.981 -38.6818L380.505 -35.6589L378.093 -31.4604L373.52 -29.8089L370.996 -32.8319C370.996 -33.7275 370.996 -39.0456 370.996 -39.9133C373.969 -39.4095 376.129 -39.0177 377.981 -38.6818ZM370.996 -41.2848V-43.552L372.959 -44.6716L376.634 -40.2772C374.783 -40.6131 374.558 -40.6691 370.996 -41.2848ZM372.791 -28.6054L373.324 -29.0252L372.791 -28.6054L373.1 -28.2415L376.859 -29.613L374.727 -25.9463L377.139 -23.5392L373.829 -24.4349L370.996 -19.5366V-25.1906L367.321 -26.1702L370.968 -27.5138V-30.7886L372.791 -28.6054ZM388.108 -25.7504L390.52 -29.9209L394.391 -29.2491L398.964 -23.8191C396.327 -22.3076 394.475 -21.244 392.82 -20.2923L388.921 -20.9641L388.108 -25.4985L388.136 -25.5265L388.108 -25.7504ZM400.507 -18.9208L394.868 -19.9285C396.243 -20.7122 396.776 -21.0201 399.833 -22.7835L401.292 -21.0481C401.068 -20.4603 400.815 -19.7325 400.507 -18.9208ZM401.404 -17.3814L403.648 -16.9895C403.817 -16.5417 403.901 -16.2898 404.434 -14.8623L399.469 -12.0073L401.404 -17.3814ZM396.467 -28.8573C398.01 -28.5774 399.076 -28.4094 402.106 -27.8776V-25.6104L400.142 -24.4908L396.467 -28.8573ZM393.073 -18.8649L400.058 -17.6333L397.645 -10.9717C397.449 -10.8597 397.842 -11.0836 394.251 -9.01238L390.52 -12.1193L389.678 -16.8776C390.408 -17.3254 391.642 -18.0252 393.073 -18.8649ZM398.823 -3.38639H394.616L393.718 -0.0835724L392.82 -3.38639H387.154L392.063 -6.21338L391.081 -9.88007L394.083 -7.36097L396.916 -8.98439C396.102 -6.74519 396.018 -6.52127 395.794 -5.90549L398.823 -3.38639ZM396.944 14.0234C395.177 13.0157 394.784 12.7918 394.083 12.372L391.081 14.8911L392.063 11.2244L387.154 8.39739H392.82L393.718 5.09457L394.616 8.39739H398.851L395.822 10.9445L396.944 14.0234ZM365.105 14.3033L369.677 22.1965V29.166L365.133 30.3695H365.105H365.077L360.56 29.166V22.1685L365.105 14.3033ZM360.532 19.4814V11.9241L362.945 10.5526L364.319 12.9318L360.532 19.4814ZM365.89 12.9598L367.265 10.5806L369.677 11.9521V19.5094L365.89 12.9598ZM366.788 8.73327L365.105 11.6162L363.45 8.73327L360.56 10.4127V7.05387H357.222L358.905 4.17091L356.016 2.51949L358.905 0.840096L357.222 -2.04287H360.56V-5.37368L363.45 -3.69428L365.105 -6.57725L366.788 -3.69428L369.677 -5.37368V-2.04287H373.015L371.332 0.840096L374.222 2.51949L371.332 4.17091L373.015 7.05387H369.677V10.3847L366.788 8.73327ZM339.129 14.8911L336.127 12.372L333.294 13.9954C334.107 11.7842 334.191 11.5043 334.416 10.9165L331.386 8.36941H335.594L336.492 5.09457L337.389 8.39739H343.056L338.147 11.2244L339.129 14.8911ZM333.238 -9.04037C334.977 -8.03273 335.426 -7.78082 336.099 -7.38896L339.129 -9.93605L338.147 -6.24137L343.056 -3.41438H337.389L336.492 -0.111565L335.594 -3.41438H331.358L334.388 -5.96147L333.238 -9.04037ZM338.399 7.05387L337.165 2.4915L338.399 -2.07087H345.384L353.295 2.4915L345.384 7.05387H338.399ZM357.026 0.336273L354.641 1.70779L348.077 -2.07087H355.651L357.026 0.336273ZM352.65 -9.93605L359.214 -6.1574V-3.38639H356.437L352.65 -9.93605ZM354.641 3.27522L357.026 4.64673L355.651 7.05387H348.077L354.641 3.27522ZM356.437 8.39739H359.214V11.1684L352.65 14.9471L356.437 8.39739ZM365.105 -9.29228L360.532 -17.1855V-24.155L365.049 -25.3585H365.077L365.133 -25.3865L369.677 -24.183V-17.2134L365.105 -9.29228ZM369.677 -14.4984V-6.94112L367.265 -5.56961L365.89 -7.94876L369.677 -14.4984ZM364.319 -7.94876L362.945 -5.56961L360.532 -6.94112V-14.4984L364.319 -7.94876ZM373.773 -3.38639H370.996V-6.1574L377.56 -9.93605L373.773 -3.38639ZM374.558 -2.04287H382.132L375.568 1.73577L373.184 0.364265L374.558 -2.04287ZM371.024 8.39739H373.801L377.588 14.9471L371.024 11.1684V8.39739ZM373.184 4.64673L375.568 3.27522L382.132 7.05387H374.558L373.184 4.64673ZM376.915 2.4915L384.825 -2.07087H391.81L393.045 2.4915L391.81 7.05387H384.825L376.915 2.4915ZM390.492 -6.88514L384.461 -3.38639H375.344L379.916 -11.2796L385.948 -14.7503L389.258 -11.4475V-11.4195L389.286 -11.3915L390.492 -6.88514ZM378.906 -12.2592L370.996 -7.69685V-16.7936L374.474 -22.8114L379.047 -21.5799L382.385 -18.2491L378.906 -12.2592ZM369.649 -34.4273C368.415 -35.8828 367.125 -37.4502 365.974 -38.8217L367.433 -40.5571C368.724 -40.3332 368.695 -40.3332 369.649 -40.1652V-34.4273ZM355.707 -22.8394L359.186 -16.8216V-7.72484L351.303 -12.2592L347.825 -18.2771L351.163 -21.6079L355.707 -22.8394ZM354.866 -3.38639H345.749L339.718 -6.85715L340.952 -11.4195L344.29 -14.7503L350.321 -11.2796L354.866 -3.38639ZM339.69 -12.1193L335.959 -9.01238C335.201 -9.43223 333.967 -10.16 332.536 -10.9997L330.124 -17.6333C333.153 -18.1651 335.846 -18.6409 337.137 -18.8649L340.531 -16.9056L339.69 -12.1193ZM331.218 -23.8191C331.751 -24.4629 335.201 -28.5494 335.762 -29.2212L339.633 -29.8929L342.074 -25.6944L341.232 -20.9361L337.361 -20.2644L331.218 -23.8191ZM335.313 -19.9005C333.434 -19.5646 331.414 -19.2287 329.647 -18.8928L328.861 -21.0201C329.114 -21.3 329.647 -21.9438 330.32 -22.7555L335.313 -19.9005ZM330.713 -12.0353C329.058 -12.987 327.291 -13.9946 325.748 -14.8903L326.505 -16.9895C327.122 -17.1015 327.88 -17.2414 328.749 -17.3814L330.713 -12.0353ZM329.787 -2.04287H334.584L335.818 2.51949L334.584 7.08186H329.787L329.619 6.94192L324.373 2.54749L329.787 -2.04287ZM330.769 17.0183L328.805 22.3924L326.561 22.0005C326.365 21.4407 326.309 21.2728 325.776 19.8733L330.769 17.0183ZM329.675 23.9038L335.313 24.9115C333.939 25.6952 333.406 26.0031 330.348 27.7665L328.889 26.0311C329.114 25.4433 329.394 24.7156 329.675 23.9038ZM333.743 33.8683C332.003 33.5604 331.554 33.4764 328.104 32.8886V30.6214L330.068 29.5018L333.743 33.8683ZM331.246 28.8021C333.883 27.2906 335.734 26.227 337.389 25.2754L341.289 25.9471L342.13 30.7054L339.69 34.9039L335.818 34.2322L331.246 28.8021ZM337.137 23.8759L330.152 22.6443L332.564 15.9827C332.761 15.8707 332.368 16.0946 335.959 14.0234L339.69 17.1303L340.531 21.8886C339.802 22.3364 338.567 23.0362 337.137 23.8759ZM339.718 11.8682L345.749 8.39739H354.866L350.321 16.2906L344.29 19.7613L340.98 16.4305V16.4025H340.952L339.718 11.8682ZM351.303 17.2702L359.214 12.7079V21.8046L355.735 27.8224L351.163 26.5909L347.797 23.2881L351.303 17.2702ZM360.532 39.4383C361.767 40.8938 363.057 42.4612 364.207 43.8327L362.748 45.5681C361.43 45.3442 361.29 45.3162 360.532 45.1762V39.4383ZM374.502 27.8504L371.024 21.8326V12.7358L378.934 17.2982L382.413 23.3161L379.075 26.6469L374.502 27.8504ZM375.344 8.39739H384.461L390.492 11.8682L389.286 16.4025L389.258 16.4305V16.4585L385.948 19.7613L379.888 16.2906L375.344 8.39739ZM390.492 17.1303L394.223 14.0234C394.98 14.4432 396.215 15.171 397.645 16.0107L400.058 22.6443C397.842 23.0362 395.261 23.484 393.045 23.8759L389.65 21.9166L390.492 17.1303ZM398.964 28.8301C398.431 29.4739 394.98 33.5604 394.419 34.2322L390.548 34.9039L388.108 30.7054L388.949 25.9471C391.642 25.4713 388.837 25.9751 392.82 25.2754L398.964 28.8301ZM394.868 24.9115C396.748 24.5756 398.767 24.2397 400.535 23.9038L401.32 26.0311C400.927 26.4789 400.31 27.2347 399.861 27.7665L394.868 24.9115ZM399.469 17.0463C401.124 17.998 402.891 19.0056 404.434 19.9013L403.676 22.0005C403.059 22.1125 402.302 22.2524 401.432 22.3924L399.469 17.0463ZM400.619 6.91393L400.45 7.05387H395.654L394.419 2.4915L395.654 -2.07087H400.45L400.619 -1.93092H400.647L405.893 2.46352L400.619 6.91393ZM406.061 -14.2745L408.025 -15.4221C408.558 -15.1142 409.231 -14.7223 409.988 -14.3025L408.025 -8.92841C407.351 -10.6918 406.65 -12.5951 406.061 -14.2745ZM402.106 -29.2491C399.188 -29.753 397.028 -30.1448 395.121 -30.4807L392.596 -33.5036L395.008 -37.7021L399.581 -39.3535L402.106 -36.3306C402.106 -35.4349 402.106 -30.0888 402.106 -29.2491ZM387.07 -23.6791L387.771 -19.7885L390.997 -19.2287C388.977 -18.0811 388.697 -17.9132 388.164 -17.6053L388.837 -13.7707L386.144 -16.4577L381.235 -13.6307L384.068 -18.529L381.656 -20.9361L384.966 -20.0404L387.07 -23.6791ZM385.022 -35.4909L385.274 -34.0634L380.057 -32.1601L382.16 -35.7988L380.057 -38.3179L383.283 -37.7581L385.415 -41.4248L386.368 -35.9947L385.022 -35.4909ZM382.581 -39.2416L378.71 -39.9133L374.138 -45.3434C376.185 -46.519 378.486 -47.8625 380.281 -48.8701L384.18 -48.1984L385.022 -43.4401L382.581 -39.2416ZM373.268 -46.407L371.809 -48.1424C372.034 -48.7302 372.286 -49.4579 372.595 -50.2696L378.233 -49.262C376.662 -48.3663 375.708 -47.8065 373.268 -46.407ZM371.697 -51.7811L369.453 -52.1729C369.285 -52.5928 369.256 -52.7327 368.667 -54.3002L373.633 -57.1552L371.697 -51.7811ZM360.701 -52.1729C360.083 -52.061 359.326 -51.921 358.456 -51.7811L356.493 -57.1272C358.148 -56.1755 359.915 -55.1679 361.458 -54.2722L360.701 -52.1729ZM358.372 -48.1424C358.008 -47.6945 357.503 -47.1068 356.914 -46.407L351.92 -49.262C353.8 -49.5979 355.82 -49.9337 357.587 -50.2696L358.372 -48.1424ZM346.899 -37.7581L350.125 -38.3179C349.339 -37.3662 348.722 -36.6385 348.021 -35.7988L350.125 -32.1601L344.935 -34.0354L345.188 -35.4629L343.841 -35.9667L344.795 -41.3688L346.899 -37.7581ZM344.711 -32.7199L351.387 -30.2848L353.772 -26.1423L350.434 -22.8114L345.861 -21.5799L343.477 -25.7224L344.711 -32.7199ZM345.216 -20.0404L348.554 -20.9361L346.113 -18.501L348.947 -13.6027L344.038 -16.4297L341.317 -13.7147L341.99 -17.5773L339.157 -19.2007L342.383 -19.7605L343.084 -23.6791L345.216 -20.0404ZM337.586 -33.4756C337.025 -32.8319 336.127 -31.7403 335.061 -30.4527L328.076 -29.2212V-36.3306L330.601 -39.3535L335.173 -37.7021L337.586 -33.4756ZM328.048 -27.8776L333.686 -28.8573C331.639 -26.4501 331.106 -25.7784 330.012 -24.4908L328.048 -25.6104V-27.8776ZM316.238 -25.6104L314.274 -24.4908L310.6 -28.8853C312.114 -28.6054 312.591 -28.5214 316.238 -27.9056V-25.6104ZM315.424 -21.0201C315.2 -20.4323 314.948 -19.7046 314.639 -18.8928L309.001 -19.9005C310.319 -20.6562 310.992 -21.0481 313.966 -22.7555L315.424 -21.0201ZM315.537 -17.3814L317.781 -16.9895C317.949 -16.5137 318.005 -16.4017 318.566 -14.8623L313.601 -12.0073L315.537 -17.3814ZM319.015 -13.6027C319.773 -11.5035 320.67 -9.04037 321.456 -6.94112L320.109 -3.24644H315.312L315.116 -3.41438H315.06L311.525 -6.38132C311.806 -7.19303 312.311 -8.50856 312.872 -10.076L312.984 -10.16L319.015 -13.6027ZM321.035 -1.90292L322.157 -4.98182C322.942 -2.8266 323.055 -2.54669 323.279 -1.90292H327.515L323.307 1.62382L322.213 0.70015L321.119 1.62382L316.911 -1.90292H321.035ZM322.185 4.31085L323.279 3.38718L327.487 6.91393H323.307L322.185 9.99282C321.428 7.92156 321.259 7.47372 321.063 6.91393H316.883L321.091 3.38718L322.185 4.31085ZM320.137 8.25744C320.418 9.06915 320.923 10.3847 321.484 11.9521L319.043 18.6137C316.547 17.1583 313.517 15.4229 312.9 15.087L311.553 11.3643L315.088 8.39739L315.256 8.25744H320.137ZM318.566 19.9013L317.809 22.0005C317.192 22.1125 316.434 22.2524 315.565 22.3924L313.601 17.0463C315.284 17.998 317.051 19.0056 318.566 19.9013ZM315.481 26.0311C315.032 26.5629 314.583 27.1227 314.022 27.7665L309.057 24.9115C310.936 24.5756 312.956 24.2397 314.723 23.9038L315.481 26.0311ZM314.33 29.5018L316.294 30.6214V32.8606L310.656 33.8403C312.675 31.4611 313.236 30.7894 314.33 29.5018ZM321.315 35.3518L317.641 39.7462V34.0362L319.857 33.6444L321.315 35.3518ZM328.104 34.2322C331.47 34.8199 333.378 35.1558 335.089 35.4637L337.614 38.4866L335.201 42.6851L334.977 42.7691L330.629 44.3365L328.104 41.3136C328.104 40.4459 328.104 35.0998 328.104 34.2322ZM343.14 28.6901L342.439 24.7995L339.213 24.2397C341.345 23.0082 341.541 22.8962 342.046 22.6163L341.373 18.7817L344.066 21.4687L348.975 18.6417L346.142 23.54L348.554 25.9471L345.244 25.0514L343.14 28.6901ZM345.889 26.6189L350.462 27.8504L353.8 31.1812L351.415 35.3238L344.739 37.7589L343.505 30.7894L345.889 26.6189ZM345.216 40.4739L344.963 39.0464L350.125 37.1711L348.021 40.8098L350.125 43.3289C349.115 43.161 349.171 43.161 346.899 42.7691L344.823 46.3518L343.869 40.9498L345.216 40.4739ZM356.914 51.418L358.372 53.1534C358.148 53.7412 357.895 54.4689 357.587 55.2806L351.948 54.273C353.267 53.5173 353.856 53.1814 356.914 51.418ZM358.484 56.7921L360.729 57.1839C360.897 57.6598 360.981 57.8557 361.514 59.3112L356.549 62.1662L358.484 56.7921ZM369.481 57.1839C370.098 57.072 370.855 56.932 371.725 56.7921L373.689 62.1382C372.034 61.1865 370.266 60.1789 368.724 59.2832L369.481 57.1839ZM371.809 53.1254C372.567 52.2297 372.987 51.7259 373.268 51.39L378.233 54.245C376.354 54.5809 374.334 54.9447 372.567 55.2526L371.809 53.1254ZM374.166 50.3544C374.166 50.3544 376.746 47.2755 378.71 44.9523L382.581 44.2806L385.022 48.4791L384.18 53.2374L380.309 53.9091L374.166 50.3544ZM383.283 42.7691L380.057 43.3289C380.87 42.3772 380.842 42.4052 382.16 40.8098L380.057 37.1431L385.274 39.0464L385.022 40.4739L386.368 40.9777L385.415 46.4358L383.283 42.7691ZM385.499 37.7309L378.822 35.2958L376.438 31.1533L379.776 27.8224L384.349 26.5909L386.733 30.7334L385.499 37.7309ZM384.994 25.0514L381.656 25.9471L384.096 23.512L381.263 18.6137L386.172 21.4407L388.865 18.7537L388.192 22.5883L391.025 24.2117C388.584 24.6316 388.893 24.5756 387.799 24.7715L387.098 28.6901L384.994 25.0514ZM392.596 38.4866C393.157 37.8429 394.055 36.7513 395.121 35.4637L402.106 34.2322V41.3136L399.581 44.3365L395.008 42.6851L392.596 38.4866ZM402.134 32.8886L396.495 33.8683C398.543 31.4611 399.076 30.7894 400.17 29.5018L402.134 30.6214V32.8886ZM413.944 30.6214L415.907 29.5018L419.582 33.8963C417.815 33.5884 417.45 33.5324 413.944 32.9166V30.6214ZM414.757 26.0311C414.981 25.4433 415.234 24.7156 415.542 23.9038L421.181 24.9115C419.975 25.6112 418.095 26.6749 416.216 27.7665L414.757 26.0311ZM414.645 22.3924L412.401 22.0005C412.232 21.5247 412.148 21.3288 411.615 19.8733L416.58 17.0183L414.645 22.3924ZM411.166 18.6137C410.409 16.5145 409.511 14.0514 408.726 11.9521L410.072 8.25744H414.925L415.094 8.39739L418.628 11.3643C418.348 12.176 417.843 13.4916 417.282 15.059L417.17 15.143L411.166 18.6137ZM409.147 6.91393L408.025 9.99282C407.267 7.92156 407.099 7.47372 406.902 6.91393H402.723L406.931 3.38718L408.025 4.31085L409.119 3.38718L413.326 6.91393H409.147ZM408.053 0.70015L406.959 1.62382L402.751 -1.90292H406.902L408.025 -4.98182C408.81 -2.85458 408.95 -2.43473 409.147 -1.90292H413.354L409.147 1.62382L408.053 0.70015ZM410.072 -3.24644C409.792 -4.05816 409.287 -5.37368 408.726 -6.94112L411.166 -13.6027C413.102 -12.4831 415.346 -11.1956 417.31 -10.076L418.656 -6.35333L414.925 -3.24644H410.072ZM411.615 -14.8903L412.373 -16.9895C412.99 -17.1015 413.747 -17.2414 414.617 -17.3814L416.58 -12.0353C414.925 -12.987 413.158 -13.9946 411.615 -14.8903ZM414.729 -21.0201C415.206 -21.5799 415.627 -22.1117 416.188 -22.7555L421.153 -19.9005C419.273 -19.5646 417.254 -19.2007 415.486 -18.8928L414.729 -21.0201ZM415.879 -24.4908L413.915 -25.6384V-27.8776L419.554 -28.8853C417.226 -26.0863 416.721 -25.4985 415.879 -24.4908ZM411.559 -35.6029L408.025 -31.3764C406.594 -33.0838 404.911 -35.0991 403.452 -36.8064C403.452 -37.1143 403.452 -39.2136 403.452 -40.2772L411.559 -35.6029ZM402.106 -41.0609V-38.4019L400.002 -40.921L396.271 -39.5774L398.375 -43.2161L402.106 -41.0609ZM396.72 -43.0202L394.335 -38.8777L387.659 -36.4426L386.424 -43.4401L388.809 -47.5826C394.055 -46.1551 392.989 -46.7149 396.72 -43.0202ZM388.136 -49.094L386.032 -45.4274L385.33 -49.346L382.104 -49.9058C383.451 -50.6895 383.956 -50.9694 384.405 -51.2213L388.136 -49.094ZM383.058 -52.033C382.132 -51.5012 380.758 -50.7175 380.057 -50.2976L373.072 -51.5292L374.951 -56.7073L383.058 -52.033ZM372.567 -58.0788L368.219 -55.5877C367.489 -57.575 366.648 -59.8982 365.918 -61.9135L372.567 -58.0788ZM364.263 -61.8855L361.963 -55.5597C360.588 -56.3435 359.074 -57.2111 357.615 -58.0508L364.263 -61.8855ZM355.23 -56.7073L357.11 -51.5292C354.641 -51.0813 351.892 -50.6055 350.097 -50.2976L347.095 -52.033L355.23 -56.7073ZM345.777 -51.2493L348.049 -49.9337L344.823 -49.3739L344.122 -45.4833L342.018 -49.122L345.777 -51.2493ZM341.373 -47.5546L343.785 -43.4121L343.757 -43.1882L342.551 -36.4426L335.874 -38.8497L333.462 -43.0202C337.305 -46.8548 336.323 -46.2111 341.373 -47.5546ZM331.807 -43.2161L333.911 -39.5495L330.152 -40.921L328.048 -38.4019V-41.0329L331.807 -43.2161ZM326.701 -40.2772V-36.8064L322.129 -31.3764C321.007 -32.6919 319.773 -34.2034 318.594 -35.6029L326.701 -40.2772ZM316.238 -34.2314C316.238 -32.328 316.238 -29.8089 316.238 -29.2212C313.573 -29.697 311.637 -30.0329 309.59 -30.3967L316.238 -34.2314ZM308.776 -28.9413L313.096 -23.7911C311.497 -22.8674 310.123 -22.0837 308.776 -21.3V-28.9413ZM308.776 -18.585L314.19 -17.6333L311.778 -10.9717C311.609 -10.8597 311.918 -11.0557 308.804 -9.26429V-18.585H308.776ZM308.776 -7.69685L311.048 -9.01238C310.235 -6.77318 310.151 -6.54926 309.926 -5.93348L312.956 -3.38639H308.776V-7.69685ZM309.786 -2.04287H314.555L314.751 -1.87493H314.807L320.053 2.51949L314.807 6.91393L314.611 7.05387H309.786C308.383 1.81975 308.411 3.10728 309.786 -2.04287ZM308.776 8.39739H313.012L309.982 10.9445L311.104 14.0514C309.954 13.3796 309.337 13.0437 308.776 12.7079V8.39739ZM308.776 14.2473C309.534 14.6951 310.6 15.2829 311.806 15.9827L314.218 22.6163C312.507 22.9242 310.571 23.2601 308.748 23.568V14.2473H308.776ZM308.776 26.311L313.124 28.8301C312.619 29.4179 309.674 32.9166 308.776 34.0082V26.311ZM309.59 35.4077L316.266 34.2322V39.2704L309.59 35.4077ZM318.622 40.6139L322.185 36.3874C323.616 38.0948 325.299 40.1101 326.758 41.8174C326.758 42.1253 326.758 44.2246 326.758 45.3162L318.622 40.6139ZM328.104 46.0719V43.4129L330.208 45.932L333.939 44.5884L331.835 48.2551L328.104 46.0719ZM333.49 48.0312L335.903 43.8607L336.127 43.7767L342.579 41.4256L343.757 48.1712L343.729 48.1992L343.757 48.4231L341.373 52.5656C336.155 51.1661 337.277 51.7819 333.49 48.0312ZM342.074 54.133L344.178 50.4943L344.879 54.3849L348.105 54.9447C346.618 55.7844 346.198 56.0364 345.805 56.2603L342.074 54.133ZM347.123 57.044C347.881 56.6241 348.919 56.0084 350.125 55.3086L357.11 56.5402L355.23 61.7183L347.123 57.044ZM357.615 63.0898L361.963 60.5987C362.692 62.586 363.534 64.9092 364.263 66.9245L357.615 63.0898ZM365.918 66.8965L368.219 60.5427C369.593 61.3265 371.108 62.1942 372.567 63.0618L365.918 66.8965ZM374.951 61.7183L373.072 56.5402C375.288 56.1483 377.868 55.7005 380.085 55.3086L383.086 57.044L374.951 61.7183ZM384.405 56.2603L382.132 54.9447L385.358 54.3849L386.06 50.4384L388.164 54.105L384.405 56.2603ZM388.809 52.5656L386.396 48.3951L387.631 41.4256L394.307 43.8607L396.72 48.0312C392.904 51.8379 393.886 51.2221 388.809 52.5656ZM398.375 48.1992L396.271 44.5605L400.002 45.904L402.106 43.3849V46.0159L398.375 48.1992ZM403.48 45.2882V41.8174L408.053 36.3874C409.175 37.7029 410.409 39.2144 411.587 40.6139L403.48 45.2882ZM413.944 39.2424C413.944 37.339 413.944 34.8199 413.944 34.2322C416.749 34.736 418.46 35.0159 420.592 35.4077L413.944 39.2424ZM421.405 33.9523L417.085 28.8021C418.825 27.7945 420.143 27.0387 421.405 26.311V33.9523ZM421.405 23.596L415.991 22.6443L418.404 15.9827C418.572 15.8707 418.236 16.0666 421.377 14.2753V23.596H421.405ZM421.405 12.7079L419.133 14.0234C419.947 11.7842 420.031 11.5603 420.255 10.9445L417.226 8.39739H421.405V12.7079ZM420.424 7.05387H415.627L415.458 6.91393L410.213 2.51949L415.655 -2.04287H420.452C421.798 3.16326 421.77 1.98769 420.424 7.05387ZM421.405 -3.38639H417.198L420.227 -5.93348L419.105 -9.04037C420.283 -8.36861 420.929 -8.00474 421.405 -7.72484V-3.38639ZM421.405 -9.26429C420.648 -9.68414 419.582 -10.2999 418.376 -10.9997L415.963 -17.6333C417.674 -17.9412 419.582 -18.2771 421.405 -18.585V-9.26429ZM421.405 -21.328L417.057 -23.8191C417.927 -24.8267 418.628 -25.6944 421.405 -28.9692V-21.328Z" fill="url(#paint2_linear_401_183)"/>
<path opacity="0.58" d="M305.471 45.1167C301.599 47.3559 247.599 78.4528 246 79.3764C246 82.7912 246 144.509 246 147.868C248.581 149.351 302.749 180.56 305.471 182.128C305.639 182.044 364.043 148.4 364.941 147.868C364.941 139.583 364.941 86.4579 364.941 79.3764C362.276 77.837 307.126 46.0963 305.471 45.1167ZM360.958 80.692L354.281 81.8676V76.8573L360.958 80.692ZM352.963 150.835C351.728 149.379 350.438 147.812 349.288 146.44L350.747 144.705L352.963 145.097V150.835ZM352.963 143.753L350.214 143.278L348.418 145.433C348.026 144.957 347.857 144.761 346.623 143.278L343.874 143.753V140.982L341.433 139.583C341.994 138.911 342.583 138.211 343.229 137.428L342.275 134.797C344.098 134.489 344.407 134.433 345.024 134.321L345.978 131.718C347.212 132.445 347.773 132.753 348.39 133.117L350.831 131.718C350.887 131.886 351.728 134.209 351.813 134.433C352.346 134.433 351.869 134.377 354.534 134.853C354.001 136.28 353.804 136.868 353.58 137.484L355.375 139.639L352.963 141.038V143.753ZM347.521 146.468L343.846 150.863V145.153L346.062 144.761C346.062 144.733 346.903 145.713 347.521 146.468ZM327.155 149.295L328.109 143.865L330.212 147.504L333.438 146.944C332.877 147.616 332.176 148.456 331.335 149.463L333.438 153.102L328.249 151.227L328.501 149.799L327.155 149.295ZM305.471 168.329L303.03 169.728C302.974 169.56 302.132 167.237 302.048 167.013C301.515 167.013 301.992 167.069 299.299 166.593C299.888 164.998 300 164.662 300.253 163.962L298.457 161.835L300.87 160.435V157.636C300.898 157.636 302.076 157.86 303.619 158.112L305.414 155.957C305.695 156.293 306.34 157.049 307.21 158.112L309.959 157.636V160.407L312.399 161.807C311.838 162.451 311.53 162.843 310.604 163.962L311.558 166.593C309.734 166.901 309.426 166.957 308.809 167.069L307.855 169.672C306.677 169.028 306.116 168.693 305.471 168.329ZM307.434 170.988L305.471 176.362C304.825 174.57 304.124 172.667 303.507 170.988L305.471 169.84C306.003 170.176 306.677 170.568 307.434 170.988ZM285.553 159.54L287.966 155.369C289.032 155.565 290.715 155.845 291.837 156.041L296.41 161.471C293.829 162.955 292.005 163.99 290.266 164.998L286.367 164.326L285.553 159.792L285.582 159.764L285.553 159.54ZM282.72 151.199L277.559 153.074L279.663 149.435L277.559 146.916L280.785 147.476L282.889 143.837L283.842 149.239L282.468 149.799L282.72 151.199ZM267.123 150.835C265.889 149.379 264.599 147.812 263.448 146.44L264.907 144.705L267.123 145.097V150.835ZM267.123 143.753L264.374 143.278L262.579 145.433L260.783 143.278L258.034 143.753V140.982L255.594 139.583C256.155 138.911 256.576 138.407 257.389 137.428L256.435 134.797C258.259 134.489 258.595 134.405 259.184 134.321L260.138 131.718C260.896 132.138 261.793 132.669 262.551 133.117L264.991 131.718C265.019 131.83 265.917 134.265 265.973 134.433C266.506 134.433 266.029 134.377 268.722 134.853C268.133 136.504 268.021 136.784 267.768 137.484L269.564 139.639L267.151 141.038V143.753H267.123ZM257.95 76.3815C259.184 77.837 260.475 79.4044 261.625 80.7759L260.166 82.5113L257.95 82.1195V76.3815ZM257.95 83.491L260.699 83.9668L262.495 81.8116L264.29 83.9668L267.039 83.491V86.262L269.48 87.6615C268.806 88.4452 268.189 89.2009 267.684 89.8167L268.638 92.4478C266.787 92.7837 266.674 92.7837 265.889 92.9236L264.935 95.5267C263.757 94.8549 263.14 94.491 262.523 94.1272L260.082 95.5267C259.998 95.3307 259.156 93.0076 259.1 92.8116C258.567 92.8116 259.044 92.8676 256.351 92.3918C256.856 90.9923 257.081 90.4325 257.305 89.7607L255.51 87.6335L257.922 86.234V83.491H257.95ZM263.392 80.7759L267.067 76.3815V82.0915L264.851 82.4833L263.392 80.7759ZM283.786 77.949L282.832 83.379L280.729 79.7123L277.503 80.2721C278.456 79.1525 278.793 78.7607 279.606 77.753L277.503 74.1143L282.692 75.9897L282.44 77.4171L283.786 77.949ZM285.553 67.4527L286.367 62.8903L290.238 62.2186L296.41 65.7733L291.865 71.1754L287.994 71.8471L285.582 67.6486L285.553 67.4527ZM305.442 58.9158L307.883 57.5163C308.22 58.4679 308.837 60.0913 308.865 60.2313C309.398 60.2313 308.921 60.1753 311.586 60.6511C311.081 62.0506 310.857 62.6104 310.632 63.2822L312.427 65.4094L310.015 66.8089V69.6079C309.987 69.6079 308.865 69.412 307.266 69.1321L305.471 71.2873L303.675 69.1321L300.926 69.6079V66.8369L298.486 65.4374C299.047 64.7657 299.748 63.954 300.281 63.2822L299.327 60.6511C301.15 60.3433 301.487 60.2593 302.076 60.1753L303.03 57.5722C303.815 57.9921 304.629 58.4679 305.442 58.9158ZM303.479 56.2287L305.442 50.8546C306.088 52.646 306.789 54.5493 307.406 56.2287L305.442 57.3763C304.909 57.0684 304.236 56.6766 303.479 56.2287ZM327.071 85.3943L324.686 89.5368L320.114 88.3053L316.776 84.9744L319.188 80.8039L325.864 78.3688L327.043 85.1144L327.015 85.1424L327.071 85.3943ZM328.249 76.0176L333.41 74.1423L331.307 77.781L333.41 80.3001L330.184 79.7403L328.109 83.323L327.155 77.921L328.501 77.4171L328.249 76.0176ZM343.818 76.3815C345.052 77.837 346.342 79.4044 347.493 80.7759L346.034 82.5113L343.818 82.1195V76.3815ZM343.818 83.463L346.567 83.9388L348.362 81.7836L350.158 83.9388L352.907 83.463V86.234L355.347 87.6335C354.898 88.1653 354.646 88.4732 353.552 89.7887L354.506 92.4198C352.682 92.7277 352.374 92.7836 351.757 92.8956L350.803 95.4987C350.129 95.1068 349.316 94.659 348.39 94.0992L345.95 95.4987C344.772 92.2518 345.361 93.8473 344.968 92.7837C344.435 92.7837 344.912 92.8396 342.247 92.3638C342.948 90.4325 342.892 90.6284 343.201 89.7327L341.377 87.6615L343.79 86.262V83.463H343.818ZM349.26 80.7759L352.935 76.3815V82.0915L350.719 82.4833L349.26 80.7759ZM347.661 104.176L346.314 107.87H341.489L341.321 107.73H341.293L337.73 104.763C338.011 103.952 338.516 102.636 339.077 101.069L339.189 100.985L345.22 97.514C346.006 99.6132 346.903 102.076 347.661 104.176ZM345.248 129.73C342.808 128.331 340.844 127.183 339.105 126.204L337.758 122.481L341.293 119.514L341.461 119.374H346.314C346.595 120.186 347.1 121.501 347.661 123.069L345.248 129.73ZM348.39 125.028C349.035 126.819 349.737 128.723 350.354 130.402L348.39 131.55C347.857 131.242 347.184 130.85 346.427 130.43L348.39 125.028ZM311.361 156.041V148.96L313.886 145.937L318.459 147.588L320.871 151.787C320.843 151.815 319.44 153.494 318.346 154.809L311.361 156.041ZM317 156.433C314.924 158.896 314.251 159.708 313.325 160.799L311.361 159.652V157.413L317 156.433ZM313.465 144.369L311.361 146.888V143.613L307.687 142.27L311.361 141.29V135.636L314.195 140.535L317.533 139.639L315.092 142.074L317.224 145.741L313.465 144.369ZM305.471 153.914C304.04 152.206 302.357 150.191 300.898 148.484C300.898 148.12 300.898 145.265 300.898 144.537L305.471 142.886L310.043 144.537V148.484L305.471 153.914ZM310.015 150.555V156.265L307.799 156.657C307.266 156.041 306.873 155.565 306.34 154.921L310.015 150.555ZM292.567 154.809L290.042 151.787L292.454 147.588L297.027 145.937L299.552 148.96C299.552 149.855 299.552 155.173 299.552 156.041C296.746 155.565 294.727 155.201 292.567 154.809ZM299.552 157.413V159.68L297.588 160.799L293.913 156.405C295.428 156.685 295.905 156.769 299.552 157.413ZM297.448 144.369L293.717 145.713L295.821 142.046L293.408 139.639L296.718 140.535L299.552 135.636V141.29L303.226 142.27L299.552 143.613V146.888L297.448 144.369ZM263.28 123.069L264.627 119.374H269.48L269.648 119.514L273.211 122.481C272.93 123.293 272.425 124.608 271.864 126.176L271.752 126.26L265.721 129.73C264.935 127.631 264.038 125.168 263.28 123.069ZM264.514 130.402L262.551 131.55C262.018 131.242 261.345 130.85 260.587 130.43L262.551 125.056C263.224 126.819 263.897 128.723 264.514 130.402ZM265.665 97.514C267.6 98.6336 269.844 99.9211 271.808 101.041L273.154 104.763L269.424 107.87H264.571C264.29 107.059 263.785 105.743 263.224 104.176L265.665 97.514ZM262.523 102.216C261.878 100.425 261.176 98.5216 260.559 96.8422L262.523 95.6946C263.056 96.0025 263.729 96.3944 264.486 96.8142L262.523 102.216ZM299.552 71.2034V78.2848L297.027 81.3078L292.454 79.6563L290.042 75.4578C290.603 74.8141 291.501 73.7225 292.567 72.4349L299.552 71.2034ZM293.885 70.8115L297.56 66.4451L299.523 67.5647V69.8039L293.885 70.8115ZM297.42 82.8752L299.523 80.3561V83.6309L303.198 84.9744L299.552 85.9541V91.6081L296.718 86.7098L293.38 87.6055L295.821 85.1704L293.689 81.5037L297.42 82.8752ZM305.442 73.3306C306.873 75.038 308.556 77.0533 310.015 78.7607C310.015 79.1245 310.015 81.9795 310.015 82.7073L305.442 84.3587L300.87 82.7073V78.7607L305.442 73.3306ZM300.898 76.6614V70.9515L303.114 70.5596L304.573 72.295L300.898 76.6614ZM318.346 72.4349L320.871 75.4578L318.459 79.6563L313.886 81.3078L311.361 78.2848C311.361 77.3892 311.361 72.0711 311.361 71.2034C314.335 71.7072 316.495 72.099 318.346 72.4349ZM311.361 69.8319V67.5647L313.325 66.4451L317 70.8395C315.148 70.5036 314.924 70.4476 311.361 69.8319ZM313.157 82.5113L313.69 82.0915L313.157 82.5113L313.465 82.8752L317.224 81.5037L315.092 85.1704L317.505 87.5775L314.195 86.6818L311.361 91.5801V85.9261L307.687 84.9465L311.333 83.6029V80.3281L313.157 82.5113ZM328.473 85.3663L330.886 81.1958L334.757 81.8676L339.329 87.2976C336.693 88.8091 334.841 89.8727 333.186 90.8244L329.287 90.1526L328.473 85.6182L328.501 85.5902L328.473 85.3663ZM340.872 92.1959L335.234 91.1882C336.608 90.4045 337.141 90.0966 340.199 88.3332L341.658 90.0686C341.433 90.6564 341.181 91.3842 340.872 92.1959ZM341.77 93.7353L344.014 94.1272C344.182 94.575 344.267 94.8269 344.8 96.2544L339.834 99.1094L341.77 93.7353ZM336.833 82.2594C338.376 82.5393 339.442 82.7073 342.471 83.2391V85.5063L340.508 86.6259L336.833 82.2594ZM333.438 92.2518L340.423 93.4834L338.011 100.145C337.815 100.257 338.207 100.033 334.617 102.104L330.886 98.9974L330.044 94.2391C330.774 93.7913 332.008 93.0915 333.438 92.2518ZM339.189 107.73H334.981L334.084 111.033L333.186 107.73H327.519L332.429 104.903L331.447 101.237L334.448 103.756L337.282 102.132C336.468 104.372 336.384 104.595 336.16 105.211L339.189 107.73ZM337.31 125.14C335.542 124.132 335.15 123.909 334.448 123.489L331.447 126.008L332.429 122.341L327.519 119.514H333.186L334.084 116.211L334.981 119.514H339.217L336.188 122.061L337.31 125.14ZM305.471 125.42L310.043 133.313V140.283L305.499 141.486H305.471H305.442L300.926 140.283V133.285L305.471 125.42ZM300.898 130.598V123.041L303.31 121.669L304.685 124.048L300.898 130.598ZM306.256 124.076L307.631 121.697L310.043 123.069V130.626L306.256 124.076ZM307.154 119.85L305.471 122.733L303.815 119.85L300.926 121.529V118.171H297.588L299.271 115.288L296.382 113.636L299.271 111.957L297.588 109.074H300.926V105.743L303.815 107.422L305.471 104.539L307.154 107.422L310.043 105.743V109.074H313.381L311.698 111.957L314.587 113.636L311.698 115.288L313.381 118.171H310.043V121.501L307.154 119.85ZM279.494 126.008L276.493 123.489L273.659 125.112C274.473 122.901 274.557 122.621 274.781 122.033L271.752 119.486H275.96L276.857 116.211L277.755 119.514H283.422L278.512 122.341L279.494 126.008ZM273.603 102.076C275.343 103.084 275.791 103.336 276.465 103.728L279.494 101.181L278.512 104.875L283.422 107.702H277.755L276.857 111.005L275.96 107.702H271.724L274.753 105.155L273.603 102.076ZM278.765 118.171L277.531 113.608L278.765 109.046H285.75L293.661 113.608L285.75 118.171H278.765ZM297.391 111.453L295.007 112.824L288.443 109.046H296.017L297.391 111.453ZM293.015 101.181L299.58 104.959V107.73H296.802L293.015 101.181ZM295.007 114.392L297.391 115.763L296.017 118.171H288.443L295.007 114.392ZM296.802 119.514H299.58V122.285L293.015 126.064L296.802 119.514ZM305.471 101.824L300.898 93.9312V86.9617L305.414 85.7582H305.442L305.499 85.7302L310.043 86.9337V93.9033L305.471 101.824ZM310.043 96.6183V104.176L307.631 105.547L306.256 103.168L310.043 96.6183ZM304.685 103.168L303.31 105.547L300.898 104.176V96.6183L304.685 103.168ZM314.139 107.73H311.361V104.959L317.926 101.181L314.139 107.73ZM314.924 109.074H322.498L315.934 112.852L313.55 111.481L314.924 109.074ZM311.39 119.514H314.167L317.954 126.064L311.39 122.285V119.514ZM313.55 115.763L315.934 114.392L322.498 118.171H314.924L313.55 115.763ZM317.28 113.608L325.191 109.046H332.176L333.41 113.608L332.176 118.171H325.191L317.28 113.608ZM330.858 104.232L324.826 107.73H315.71L320.282 99.8371L326.313 96.3664L329.623 99.6692V99.6972L329.651 99.7252L330.858 104.232ZM319.272 98.8575L311.361 103.42V94.3231L314.84 88.3053L319.412 89.5368L322.751 92.8676L319.272 98.8575ZM310.015 76.6894C308.781 75.2339 307.49 73.6665 306.34 72.295L307.799 70.5596C309.089 70.7835 309.061 70.7835 310.015 70.9515V76.6894ZM296.073 88.2773L299.552 94.2951V103.392L291.669 98.8575L288.19 92.8396L291.529 89.5088L296.073 88.2773ZM295.231 107.73H286.115L280.083 104.26L281.318 99.6972L284.656 96.3664L290.687 99.8371L295.231 107.73ZM280.055 98.9974L276.324 102.104C275.567 101.684 274.333 100.957 272.902 100.117L270.49 93.4834C273.519 92.9516 276.212 92.4758 277.503 92.2518L280.897 94.2111L280.055 98.9974ZM271.584 87.2976C272.117 86.6538 275.567 82.5673 276.128 81.8955L279.999 81.2238L282.44 85.4223L281.598 90.1806L277.727 90.8523L271.584 87.2976ZM275.679 91.2162C273.8 91.5521 271.78 91.888 270.013 92.2239L269.227 90.0966C269.48 89.8167 270.013 89.1729 270.686 88.3612L275.679 91.2162ZM271.079 99.0814C269.424 98.1297 267.656 97.1221 266.113 96.2264L266.871 94.1272C267.488 94.0152 268.245 93.8753 269.115 93.7353L271.079 99.0814ZM270.153 109.074H274.95L276.184 113.636L274.95 118.199H270.153L269.985 118.059L264.739 113.664L270.153 109.074ZM271.135 128.135L269.171 133.509L266.927 133.117C266.731 132.557 266.674 132.389 266.141 130.99L271.135 128.135ZM270.041 135.021L275.679 136.028C274.305 136.812 273.772 137.12 270.714 138.883L269.255 137.148C269.48 136.56 269.76 135.832 270.041 135.021ZM274.108 144.985C272.369 144.677 271.92 144.593 268.47 144.005V141.738L270.433 140.619L274.108 144.985ZM271.612 139.919C274.248 138.407 276.1 137.344 277.755 136.392L281.654 137.064L282.496 141.822L280.055 146.021L276.184 145.349L271.612 139.919ZM277.503 134.993L270.518 133.761L272.93 127.099C273.126 126.987 272.734 127.211 276.324 125.14L280.055 128.247L280.897 133.005C280.167 133.453 278.933 134.153 277.503 134.993ZM280.083 122.985L286.115 119.514H295.231L290.687 127.407L284.656 130.878L281.346 127.547V127.519H281.318L280.083 122.985ZM291.669 128.387L299.58 123.825V132.921L296.101 138.939L291.529 137.708L288.162 134.405L291.669 128.387ZM300.898 150.555C302.132 152.01 303.423 153.578 304.573 154.949L303.114 156.685C301.796 156.461 301.655 156.433 300.898 156.293V150.555ZM314.868 138.967L311.39 132.949V123.853L319.3 128.415L322.779 134.433L319.44 137.764L314.868 138.967ZM315.71 119.514H324.826L330.858 122.985L329.651 127.519L329.623 127.547V127.575L326.313 130.878L320.254 127.407L315.71 119.514ZM330.858 128.247L334.589 125.14C335.346 125.56 336.58 126.288 338.011 127.127L340.423 133.761C338.207 134.153 335.627 134.601 333.41 134.993L330.016 133.033L330.858 128.247ZM339.329 139.947C338.796 140.591 335.346 144.677 334.785 145.349L330.914 146.021L328.473 141.822L329.315 137.064C332.008 136.588 329.203 137.092 333.186 136.392L339.329 139.947ZM335.234 136.028C337.113 135.692 339.133 135.356 340.9 135.021L341.686 137.148C341.293 137.596 340.676 138.351 340.227 138.883L335.234 136.028ZM339.834 128.163C341.489 129.115 343.257 130.122 344.8 131.018L344.042 133.117C343.425 133.229 342.668 133.369 341.798 133.509L339.834 128.163ZM340.984 118.031L340.816 118.171H336.019L334.785 113.608L336.019 109.046H340.816L340.984 109.186H341.013L346.258 113.58L340.984 118.031ZM346.427 96.8422L348.39 95.6946C348.923 96.0025 349.596 96.3944 350.354 96.8142L348.39 102.188C347.717 100.425 347.016 98.5216 346.427 96.8422ZM342.471 81.8676C339.554 81.3637 337.394 80.9719 335.486 80.636L332.962 77.6131L335.374 73.4146L339.947 71.7632L342.471 74.7861C342.471 75.6818 342.471 81.0279 342.471 81.8676ZM327.435 87.4376L328.137 91.3282L331.363 91.888C329.343 93.0356 329.062 93.2035 328.529 93.5114L329.203 97.346L326.51 94.659L321.6 97.486L324.434 92.5877L322.021 90.1806L325.331 91.0763L327.435 87.4376ZM325.388 75.6258L325.64 77.0533L320.422 78.9566L322.526 75.3179L320.422 72.7988L323.648 73.3586L325.78 69.6919L326.734 75.122L325.388 75.6258ZM322.947 71.8751L319.076 71.2034L314.503 65.7733C316.551 64.5977 318.851 63.2542 320.647 62.2466L324.546 62.9183L325.388 67.6766L322.947 71.8751ZM313.634 64.7097L312.175 62.9743C312.399 62.3865 312.652 61.6588 312.96 60.8471L318.599 61.8547C317.028 62.7504 316.074 63.3102 313.634 64.7097ZM312.063 59.3356L309.819 58.9438C309.65 58.5239 309.622 58.384 309.033 56.8165L313.998 53.9615L312.063 59.3356ZM301.066 58.9438C300.449 59.0557 299.692 59.1957 298.822 59.3356L296.859 53.9895C298.514 54.9412 300.281 55.9488 301.824 56.8445L301.066 58.9438ZM298.738 62.9743C298.373 63.4222 297.868 64.0099 297.279 64.7097L292.286 61.8547C294.165 61.5188 296.185 61.183 297.953 60.8471L298.738 62.9743ZM287.265 73.3586L290.491 72.7988C289.705 73.7505 289.088 74.4782 288.387 75.3179L290.491 78.9566L285.301 77.0813L285.553 75.6538L284.207 75.15L285.161 69.7479L287.265 73.3586ZM285.077 78.3968L291.753 80.8319L294.137 84.9744L290.799 88.3053L286.227 89.5368L283.842 85.3943L285.077 78.3968ZM285.582 91.0763L288.92 90.1806L286.479 92.6157L289.312 97.514L284.403 94.687L281.682 97.402L282.356 93.5394L279.522 91.916L282.748 91.3562L283.45 87.4376L285.582 91.0763ZM277.951 77.6411C277.39 78.2848 276.493 79.3764 275.427 80.664L268.442 81.8955V74.7861L270.966 71.7632L275.539 73.4146L277.951 77.6411ZM268.414 83.2391L274.052 82.2594C272.004 84.6666 271.471 85.3383 270.377 86.6259L268.414 85.5063V83.2391ZM256.604 85.5063L254.64 86.6259L250.965 82.2314C252.48 82.5113 252.957 82.5953 256.604 83.2111V85.5063ZM255.79 90.0966C255.566 90.6844 255.313 91.4121 255.005 92.2239L249.366 91.2162C250.685 90.4605 251.358 90.0686 254.331 88.3612L255.79 90.0966ZM255.902 93.7353L258.147 94.1272C258.315 94.603 258.371 94.715 258.932 96.2544L253.967 99.1094L255.902 93.7353ZM259.381 97.514C260.138 99.6132 261.036 102.076 261.821 104.176L260.475 107.87H255.678L255.482 107.702H255.426L251.891 104.735C252.171 103.924 252.676 102.608 253.237 101.041L253.35 100.957L259.381 97.514ZM261.401 109.214L262.523 106.135C263.308 108.29 263.42 108.57 263.645 109.214H267.881L263.673 112.741L262.579 111.817L261.485 112.741L257.277 109.214H261.401ZM262.551 115.428L263.645 114.504L267.853 118.031H263.673L262.551 121.11C261.793 119.038 261.625 118.59 261.429 118.031H257.249L261.457 114.504L262.551 115.428ZM260.503 119.374C260.783 120.186 261.288 121.501 261.849 123.069L259.409 129.73C256.912 128.275 253.883 126.54 253.266 126.204L251.919 122.481L255.454 119.514L255.622 119.374H260.503ZM258.932 131.018L258.175 133.117C257.557 133.229 256.8 133.369 255.93 133.509L253.967 128.163C255.65 129.115 257.417 130.122 258.932 131.018ZM255.846 137.148C255.397 137.68 254.949 138.239 254.388 138.883L249.422 136.028C251.302 135.692 253.322 135.356 255.089 135.021L255.846 137.148ZM254.696 140.619L256.66 141.738V143.977L251.021 144.957C253.041 142.578 253.602 141.906 254.696 140.619ZM261.681 146.468L258.006 150.863V145.153L260.222 144.761L261.681 146.468ZM268.47 145.349C271.836 145.937 273.744 146.273 275.455 146.58L277.979 149.603L275.567 153.802L275.343 153.886L270.994 155.453L268.47 152.43C268.47 151.563 268.47 146.217 268.47 145.349ZM283.506 139.807L282.804 135.916L279.578 135.356C281.71 134.125 281.907 134.013 282.412 133.733L281.738 129.898L284.431 132.585L289.341 129.758L286.507 134.657L288.92 137.064L285.61 136.168L283.506 139.807ZM286.255 137.736L290.827 138.967L294.165 142.298L291.781 146.44L285.105 148.876L283.87 141.906L286.255 137.736ZM285.582 151.591L285.329 150.163L290.491 148.288L288.387 151.926L290.491 154.446C289.481 154.278 289.537 154.278 287.265 153.886L285.189 157.469L284.235 152.066L285.582 151.591ZM297.279 162.535L298.738 164.27C298.514 164.858 298.261 165.586 297.953 166.397L292.314 165.39C293.633 164.634 294.222 164.298 297.279 162.535ZM298.85 167.909L301.094 168.301C301.263 168.776 301.347 168.972 301.88 170.428L296.915 173.283L298.85 167.909ZM309.847 168.301C310.464 168.189 311.221 168.049 312.091 167.909L314.054 173.255C312.399 172.303 310.632 171.296 309.089 170.4L309.847 168.301ZM312.175 164.242C312.932 163.346 313.353 162.843 313.634 162.507L318.599 165.362C316.719 165.698 314.7 166.061 312.932 166.369L312.175 164.242ZM314.531 161.471C314.531 161.471 317.112 158.392 319.076 156.069L322.947 155.397L325.388 159.596L324.546 164.354L320.675 165.026L314.531 161.471ZM323.648 153.886L320.422 154.446C321.236 153.494 321.208 153.522 322.526 151.926L320.422 148.26L325.64 150.163L325.388 151.591L326.734 152.094L325.78 157.552L323.648 153.886ZM325.864 148.848L319.188 146.412L316.804 142.27L320.142 138.939L324.714 137.708L327.099 141.85L325.864 148.848ZM325.359 136.168L322.021 137.064L324.462 134.629L321.629 129.73L326.538 132.557L329.231 129.87L328.557 133.705L331.391 135.328C328.95 135.748 329.259 135.692 328.165 135.888L327.463 139.807L325.359 136.168ZM332.962 149.603C333.523 148.96 334.42 147.868 335.486 146.58L342.471 145.349V152.43L339.947 155.453L335.374 153.802L332.962 149.603ZM342.499 144.005L336.861 144.985C338.909 142.578 339.442 141.906 340.536 140.619L342.499 141.738V144.005ZM354.309 141.738L356.273 140.619L359.948 145.013C358.18 144.705 357.816 144.649 354.309 144.033V141.738ZM355.123 137.148C355.347 136.56 355.6 135.832 355.908 135.021L361.547 136.028C360.34 136.728 358.461 137.792 356.581 138.883L355.123 137.148ZM355.011 133.509L352.766 133.117C352.598 132.641 352.514 132.445 351.981 130.99L356.946 128.135L355.011 133.509ZM351.532 129.73C350.775 127.631 349.877 125.168 349.092 123.069L350.438 119.374H355.291L355.459 119.514L358.994 122.481C358.713 123.293 358.208 124.608 357.647 126.176L357.535 126.26L351.532 129.73ZM349.512 118.031L348.39 121.11C347.633 119.038 347.465 118.59 347.268 118.031H343.088L347.296 114.504L348.39 115.428L349.484 114.504L353.692 118.031H349.512ZM348.418 111.817L347.324 112.741L343.116 109.214H347.268L348.39 106.135C349.176 108.262 349.316 108.682 349.512 109.214H353.72L349.512 112.741L348.418 111.817ZM350.438 107.87C350.158 107.059 349.653 105.743 349.092 104.176L351.532 97.514C353.468 98.6336 355.712 99.9211 357.676 101.041L359.022 104.763L355.291 107.87H350.438ZM351.981 96.2264L352.738 94.1272C353.355 94.0152 354.113 93.8753 354.983 93.7353L356.946 99.0814C355.291 98.1297 353.524 97.1221 351.981 96.2264ZM355.095 90.0966C355.572 89.5368 355.992 89.005 356.553 88.3612L361.519 91.2162C359.639 91.5521 357.619 91.916 355.852 92.2239L355.095 90.0966ZM356.245 86.6259L354.281 85.4783V83.2391L359.92 82.2314C357.591 85.0304 357.086 85.6182 356.245 86.6259ZM351.925 75.5138L348.39 79.7403C346.96 78.0329 345.276 76.0176 343.818 74.3103C343.818 74.0024 343.818 71.9031 343.818 70.8395L351.925 75.5138ZM342.471 70.0558V72.7148L340.367 70.1957L336.636 71.5392L338.74 67.9006L342.471 70.0558ZM337.085 68.0965L334.701 72.239L328.024 74.6741L326.79 67.6766L329.175 63.5341C334.42 64.9616 333.354 64.4018 337.085 68.0965ZM328.501 62.0227L326.397 65.6893L325.696 61.7707L322.47 61.2109C323.817 60.4272 324.322 60.1473 324.77 59.8954L328.501 62.0227ZM323.424 59.0837C322.498 59.6155 321.124 60.3992 320.422 60.8191L313.437 59.5875L315.317 54.4094L323.424 59.0837ZM312.932 53.0379L308.584 55.529C307.855 53.5417 307.013 51.2185 306.284 49.2032L312.932 53.0379ZM304.629 49.2312L302.329 55.557C300.954 54.7732 299.439 53.9056 297.981 53.0659L304.629 49.2312ZM295.596 54.4094L297.476 59.5875C295.007 60.0354 292.258 60.5112 290.463 60.8191L287.461 59.0837L295.596 54.4094ZM286.143 59.8674L288.415 61.183L285.189 61.7428L284.488 65.6334L282.384 61.9947L286.143 59.8674ZM281.738 63.5621L284.151 67.7046L284.123 67.9285L282.917 74.6741L276.24 72.267L273.828 68.0965C277.671 64.2619 276.689 64.9056 281.738 63.5621ZM272.173 67.9006L274.277 71.5672L270.518 70.1957L268.414 72.7148V70.0838L272.173 67.9006ZM267.067 70.8395V74.3103L262.495 79.7403C261.373 78.4248 260.138 76.9133 258.96 75.5138L267.067 70.8395ZM256.604 76.8853C256.604 78.7887 256.604 81.3078 256.604 81.8955C253.939 81.4197 252.003 81.0838 249.955 80.72L256.604 76.8853ZM249.142 82.1754L253.462 87.3256C251.863 88.2493 250.488 89.033 249.142 89.8167V82.1754ZM249.142 92.5317L254.556 93.4834L252.143 100.145C251.975 100.257 252.284 100.061 249.17 101.852V92.5317H249.142ZM249.142 103.42L251.414 102.104C250.601 104.344 250.516 104.567 250.292 105.183L253.322 107.73H249.142V103.42ZM250.152 109.074H254.921L255.117 109.242H255.173L260.419 113.636L255.173 118.031L254.977 118.171H250.152C248.749 112.936 248.777 114.224 250.152 109.074ZM249.142 119.514H253.378L250.348 122.061L251.47 125.168C250.32 124.496 249.703 124.16 249.142 123.825V119.514ZM249.142 125.364C249.899 125.812 250.965 126.4 252.171 127.099L254.584 133.733C252.873 134.041 250.937 134.377 249.114 134.685V125.364H249.142ZM249.142 137.428L253.49 139.947C252.985 140.535 250.04 144.033 249.142 145.125V137.428ZM249.955 146.524L256.632 145.349V150.387L249.955 146.524ZM258.988 151.731L262.551 147.504C263.981 149.211 265.665 151.227 267.123 152.934C267.123 153.242 267.123 155.341 267.123 156.433L258.988 151.731ZM268.47 157.189V154.53L270.574 157.049L274.305 155.705L272.201 159.372L268.47 157.189ZM273.856 159.148L276.268 154.977L276.493 154.893L282.945 152.542L284.123 159.288L284.095 159.316L284.123 159.54L281.738 163.682C276.521 162.283 277.643 162.899 273.856 159.148ZM282.44 165.25L284.544 161.611L285.245 165.502L288.471 166.061C286.984 166.901 286.563 167.153 286.171 167.377L282.44 165.25ZM287.489 168.161C288.246 167.741 289.284 167.125 290.491 166.425L297.476 167.657L295.596 172.835L287.489 168.161ZM297.981 174.207L302.329 171.715C303.058 173.703 303.9 176.026 304.629 178.041L297.981 174.207ZM306.284 178.013L308.584 171.659C309.959 172.443 311.474 173.311 312.932 174.179L306.284 178.013ZM315.317 172.835L313.437 167.657C315.653 167.265 318.234 166.817 320.45 166.425L323.452 168.161L315.317 172.835ZM324.77 167.377L322.498 166.061L325.724 165.502L326.425 161.555L328.529 165.222L324.77 167.377ZM329.175 163.682L326.762 159.512L327.996 152.542L334.673 154.977L337.085 159.148C333.27 162.955 334.252 162.339 329.175 163.682ZM338.74 159.316L336.636 155.677L340.367 157.021L342.471 154.502V157.133L338.74 159.316ZM343.846 156.405V152.934L348.418 147.504C349.54 148.82 350.775 150.331 351.953 151.731L343.846 156.405ZM354.309 150.359C354.309 148.456 354.309 145.937 354.309 145.349C357.114 145.853 358.826 146.133 360.958 146.524L354.309 150.359ZM361.771 145.069L357.451 139.919C359.19 138.911 360.509 138.155 361.771 137.428V145.069ZM361.771 134.713L356.357 133.761L358.77 127.099C358.938 126.987 358.601 127.183 361.743 125.392V134.713H361.771ZM361.771 123.825L359.499 125.14C360.312 122.901 360.397 122.677 360.621 122.061L357.591 119.514H361.771V123.825ZM360.789 118.171H355.992L355.824 118.031L350.578 113.636L356.02 109.074H360.817C362.164 114.28 362.136 113.104 360.789 118.171ZM361.771 107.73H357.563L360.593 105.183L359.471 102.076C360.649 102.748 361.294 103.112 361.771 103.392V107.73ZM361.771 101.852C361.014 101.433 359.948 100.817 358.741 100.117L356.329 93.4834C358.04 93.1755 359.948 92.8396 361.771 92.5317V101.852ZM361.771 89.7887L357.423 87.2976C358.293 86.29 358.994 85.4223 361.771 82.1475V89.7887Z" fill="url(#paint3_linear_401_183)"/>
<g opacity="0.76" filter="url(#filter0_d_401_183)">
<path d="M292.623 24.749H290.05L293.288 22.048L290.05 19.3343H292.61L293.736 16.2384C293.634 15.9581 292.7 13.41 291.804 10.9383L288.015 13.1169L289.512 9.02726L285.211 8.27557C286.171 7.72773 286.415 7.58758 289 6.09695L285.365 1.77793L282.101 1.20461L280.821 3.40871L280.091 -0.731943L276.097 0.733211L277.39 -1.49637L275.253 -4.01898C274.228 -4.19735 273.294 -4.36298 269.684 -5V-0.6555C268.071 -2.56657 267.444 -3.31826 266.868 -3.9935L264.065 -0.6555V-5L258.497 -4.01898C257.063 -2.3245 257.421 -2.74494 256.372 -1.49637L257.665 0.745951L253.684 -0.693722L252.941 3.47241L251.648 1.21735L248.384 1.79067C243.994 7.00152 245.799 4.84838 243.635 7.42196L244.224 9.04C244.403 9.52413 244.339 9.34577 244.506 9.82991L245.709 13.1169C243.533 11.8684 242.765 11.4225 241.933 10.9511L240 16.2384C240.307 17.0665 240.806 18.4425 241.126 19.3343H243.738L240.512 22.0353L243.751 24.7363H241.165L240.038 27.8322C240.678 29.5776 241.331 31.3613 241.971 33.1322L245.76 30.9536L244.263 35.0433L248.564 35.795C247.719 36.2791 247.578 36.3683 244.775 37.9736L248.41 42.2926C252.288 42.9679 248.858 42.3691 251.674 42.8659L252.967 40.6364L253.697 44.777L257.665 43.3373L256.372 45.5797L258.497 48.1023C259.559 48.2934 260.762 48.4972 264.065 49.0833V44.726C265.665 46.6244 266.19 47.2487 266.881 48.0641L269.684 44.7388V49.0833L275.253 48.1023C275.611 47.6691 276.046 47.1595 277.377 45.5797L276.072 43.3373L280.066 44.7898L280.795 40.6364L282.088 42.8659L285.352 42.2926C288.565 38.496 287.72 39.4897 288.987 37.9863L285.199 35.8077C287.733 35.3618 288.399 35.2471 289.512 35.056L288.027 30.9791C290.357 32.3168 290.908 32.6353 291.804 33.145L293.736 27.8449C293.48 27.0678 292.968 25.679 292.623 24.749ZM291.996 22.0353L288.757 24.7363L288.642 24.8254H285.685L284.93 22.0353L285.685 19.2451H288.629L288.744 19.3343H288.77L291.996 22.0353ZM280.424 38.1265L279.118 35.8842L277.07 36.432L278.568 34.9414L276.814 31.9346L279.835 33.6801L281.486 32.0365L281.064 34.3935L282.805 35.4L280.821 35.744L280.424 38.1265ZM263.246 42.4582L261.953 40.9166L259.662 41.7448L260.967 39.5025L259.47 38.0246L261.505 38.5724L263.258 35.5657V39.0438L265.511 39.6426L263.246 40.458V42.4582ZM252.928 35.7313L250.944 35.3873C252.365 34.5719 252.032 34.763 252.685 34.3808L252.263 32.0238L253.927 33.6801L256.948 31.9346L255.194 34.9414L256.692 36.4193L254.657 35.8714L253.351 38.1137L252.928 35.7313ZM246.131 25.6536H248.73L249.28 23.6151L249.831 25.6536H253.313L250.279 27.399L250.88 29.6541L249.037 28.1125L247.296 29.1062C247.795 27.7557 247.859 27.5774 247.988 27.2206L246.131 25.6536ZM253.338 5.94406L254.644 8.19913L256.705 7.65129L255.207 9.14192L256.961 12.1487L253.94 10.4032L252.25 12.0722L252.672 9.68976L250.932 8.68326L252.916 8.33927L253.338 5.94406ZM270.516 1.62504L271.809 3.1539L274.126 2.31303L272.82 4.56809L274.305 6.05873L272.27 5.51089L270.529 8.51764V5.05223L268.263 4.45343L270.516 3.63804V1.62504ZM280.834 8.35201L282.83 8.696C281.614 9.39673 281.41 9.51139 281.09 9.7025L281.512 12.0595L279.861 10.416L276.84 12.1614L278.593 9.15466L277.109 7.67677L279.144 8.22461L280.411 5.9568L280.834 8.35201ZM287.643 18.417H285.045L284.494 20.4427L283.944 18.417H280.45L283.47 16.6843L282.869 14.4292L284.712 15.9708L286.453 14.9771C285.954 16.3275 285.89 16.5314 285.762 16.8626L287.643 18.417ZM281.781 30.5714L281.768 30.5841V30.6096L279.733 32.6481L276.008 30.5077L273.204 25.6663H278.824L282.549 27.8067L281.781 30.5714ZM275.483 36.8524L272.68 37.6041L270.529 33.8966V28.3036L275.393 31.0937L277.544 34.8012L275.483 36.8524ZM266.881 39.133H266.868L264.078 38.394V34.126L266.881 29.2846L269.684 34.126V38.394L266.894 39.133H266.881ZM258.292 36.8524L256.231 34.8012L258.381 31.0937L263.246 28.3036V33.8966L261.095 37.6041L258.292 36.8524ZM252.007 30.5841L251.252 27.794L254.977 25.6536H260.596L257.793 30.4949L254.068 32.6353L252.02 30.5969L252.007 30.5841ZM254.746 19.2451L259.61 22.0353L254.746 24.8254H250.458L249.703 22.0353L250.458 19.2451C250.996 19.2451 254.209 19.2451 254.746 19.2451ZM252.007 13.4864L254.068 11.4352L257.793 13.5756C257.831 13.6393 260.519 18.2768 260.596 18.417H254.977L251.252 16.2766L252.007 13.4864ZM258.292 7.23085L261.095 6.47916L263.246 10.1866V15.767C260.353 14.1107 261.185 14.5821 258.381 12.9768L256.244 9.26933L258.292 7.23085ZM264.078 9.95731V5.67651L266.855 4.93757H266.868L266.894 4.92483L269.684 5.66377V9.93183L266.881 14.7732L264.078 9.95731ZM281.768 13.4864L281.781 13.4992L282.523 16.2766L278.798 18.417H273.179L275.982 13.5756L279.707 11.4352L281.742 13.4737L281.768 13.4864ZM271.758 24.8382H269.697V26.8894L267.918 25.8702L266.894 27.6411L265.87 25.8702L264.091 26.8894V24.8382H262.017L263.041 23.0673L261.262 22.048L263.041 21.0288L262.017 19.2579H264.078V17.2066L265.857 18.2259L266.881 16.4549L267.905 18.2259L269.684 17.2066V19.2579H271.745L270.721 21.0288L272.5 22.048L270.721 23.0673L271.758 24.8382ZM259.214 14.4037C260.89 15.372 260.11 14.9134 263.246 16.7225V18.417H261.543C260.993 17.4614 261.262 17.9201 259.214 14.4037ZM271.86 20.7103L272.718 19.2451H277.377L273.345 21.5639L271.86 20.7103ZM272.232 18.417H270.529V16.7225L274.561 14.4037L272.232 18.417ZM268.225 17.092L267.367 15.6268L269.697 11.6136V16.2511L268.225 17.092ZM264.078 11.6008L266.407 15.6141L265.55 17.0792L264.078 16.2256V11.6008ZM261.07 19.2451L261.927 20.7103L260.455 21.5639L256.423 19.2451H261.07ZM260.442 22.5194L261.914 23.373L261.057 24.8382H256.397L260.442 22.5194ZM261.543 25.6536H263.246V27.3608L259.214 29.6796L261.543 25.6536ZM264.078 27.8322L265.55 26.9786L266.407 28.4437L264.078 32.457V27.8322ZM267.367 28.4565L268.225 26.9913L269.697 27.8449V32.4825L267.367 28.4565ZM270.529 27.3608V25.6663H272.232L274.561 29.6796L270.529 27.3608ZM272.705 24.8382L271.848 23.373L273.32 22.5194L277.352 24.8382H272.705ZM274.164 22.0353L279.029 19.2451H283.317L284.072 22.0353L283.317 24.8254H279.029L274.164 22.0353ZM277.544 9.26933L275.393 12.9768L270.529 15.767V10.1739L272.68 6.47916L275.483 7.23085L277.544 9.26933ZM263.246 5.05223C263.246 5.37074 263.246 7.89335 263.246 8.53038L261.505 5.51089L259.444 6.05873L260.942 4.56809L259.636 2.31303L261.94 3.14116L263.246 1.59956V3.61256L265.511 4.42795L263.246 5.05223ZM253.313 18.417C252.992 18.417 250.458 18.417 249.818 18.417L249.268 20.4555L248.717 18.417H246.106L247.975 16.8626L247.283 14.9643C248.282 15.5376 248.564 15.7033 249.05 15.9708L250.919 14.4165L250.304 16.6843L253.313 18.417ZM270.529 39.0311V35.5529L272.283 38.5597L274.331 38.0118L272.833 39.5025L274.139 41.7575L271.822 40.9166L270.516 42.4582V40.4453L268.263 39.6299L270.529 39.0311ZM280.462 25.6536H283.957L284.507 23.6278L285.058 25.6536H287.669L285.8 27.2079L286.491 29.1062C285.493 28.5329 285.173 28.3545 284.725 28.0997L282.882 29.6541L283.483 27.399L280.462 25.6536ZM292.866 16.2384L292.034 18.5062H289.064L288.949 18.417H288.923L286.747 16.5951C286.927 16.0982 287.234 15.2828 287.579 14.3273L287.656 14.2891L291.368 12.1614C291.842 13.4482 292.392 14.9516 292.866 16.2384ZM286.914 13.7667C286.799 13.8304 287.029 13.703 284.827 14.9643L282.536 13.0532L282.011 10.1229C282.587 9.79168 283.509 9.25659 284.11 8.92533L288.411 9.67702L286.914 13.7667ZM282.536 2.13466L284.93 2.5551L287.746 5.8931C286.479 6.61931 285.058 7.4347 283.957 8.07172L281.563 7.65129L281.064 4.86112L281.077 4.84838L281.051 4.70824L282.536 2.13466ZM280.181 4.54261L280.168 4.55535L280.194 4.6955L278.721 7.23085L275.918 6.47916L273.857 4.42795L275.342 1.87985L279.451 0.389218L280.181 4.54261ZM274.817 -3.25456L276.379 -1.40719L274.881 1.16639L272.065 2.18562L270.504 0.338257V-4.01898C272.449 -3.67499 273.512 -3.49662 274.817 -3.25456ZM266.881 -2.69397C267.764 -1.63652 268.801 -0.413431 269.684 0.644028V3.06472L266.881 4.08395L264.078 3.06472V0.644028L266.881 -2.69397ZM258.932 -3.2673L263.233 -4.01898V0.325516L261.671 2.17288L258.855 1.15365L257.357 -1.41993C257.908 -2.03147 258.394 -2.61753 258.932 -3.2673ZM254.324 0.4147L258.433 1.89259L259.905 4.42795L257.844 6.47916L255.041 7.23085L253.569 4.6955L254.324 0.4147ZM248.82 2.5551L251.213 2.13466L252.711 4.70824L252.186 7.63855C246.4 8.65778 247.283 8.5049 245.043 8.88711L244.57 7.58758C246.451 5.358 243.943 8.33927 248.82 2.5551ZM249.652 8.92533L251.751 10.1357L251.226 13.066L248.935 14.9771C248.474 14.7095 247.719 14.2763 246.823 13.7667L245.338 9.68976C245.824 9.58784 249.191 9.00178 249.652 8.92533ZM240.883 16.2384L242.381 12.1487C243.533 12.8112 246.157 14.3146 246.157 14.3146L246.989 16.5951L244.698 18.5062H241.702C241.536 18.022 241.229 17.1939 240.883 16.2384ZM245.146 19.2451H248.09L248.845 22.0353L248.09 24.8254H245.146L241.792 22.0353L245.146 19.2451ZM240.909 27.8322L241.741 25.5644H244.723L244.839 25.6536L247.015 27.4755C246.835 27.9723 246.528 28.7877 246.183 29.7433C246.131 29.7687 242.458 31.8837 242.394 31.9219C241.933 30.6351 241.382 29.1317 240.909 27.8322ZM246.861 30.3166C246.912 30.2911 248.896 29.1445 248.948 29.119L251.239 31.03L251.764 33.9604C251.2 34.2789 250.176 34.8649 249.664 35.158L245.376 34.4063L246.861 30.3166ZM251.239 41.9486C250.394 41.7957 249.664 41.6683 248.845 41.5282L246.029 38.1902C247.693 37.2347 248.602 36.7123 249.818 36.0116L252.212 36.432L252.736 39.3623L251.239 41.9486ZM253.581 39.3878L255.053 36.8524L257.857 37.6041L259.918 39.6553L258.445 42.1907L254.349 43.6686L253.581 39.3878ZM263.246 48.1023C261.402 47.7838 260.353 47.5927 258.945 47.3506L257.383 45.5032L258.881 42.9296L261.697 41.9104L263.258 43.7578V48.1023H263.246ZM266.881 46.7773C265.998 45.7198 264.961 44.4967 264.065 43.4393V41.0186L266.868 39.9993L269.672 41.0186V43.4393L266.881 46.7773ZM274.817 47.3378L270.516 48.0895V43.745L272.078 41.8977L274.894 42.9169L276.392 45.4905C276.046 45.8982 275.483 46.5607 274.817 47.3378ZM279.438 43.6686L275.329 42.178L273.857 39.6426L275.918 37.5914L278.721 36.8397L280.194 39.3751L279.438 43.6686ZM284.943 41.5282L282.549 41.9486L281.051 39.3751L281.576 36.4447L283.957 36.0243L287.746 38.2029C287.157 38.8909 287.259 38.7763 284.943 41.5282ZM284.098 35.158L281.998 33.9476L282.523 31.0173L284.814 29.1062C285.275 29.3738 286.031 29.807 286.927 30.3166L288.411 34.3935C287.055 34.6483 285.467 34.9159 284.098 35.158ZM291.381 31.9346C290.191 31.2466 288.795 30.4567 287.605 29.7687L286.773 27.4882L288.949 25.6663L289.064 25.5771H292.047C292.226 26.074 292.533 26.8894 292.879 27.8449L291.381 31.9346Z" fill="url(#paint4_linear_401_183)"/>
</g>
</g>
</g>
<g opacity="0.22" filter="url(#filter1_b_401_183)">
<rect width="365" height="99" rx="5" fill="white" fill-opacity="0.01"/>
</g>
<g opacity="0.25">
<mask id="mask1_401_183" style="mask-type:alpha" maskUnits="userSpaceOnUse" x="0" y="10" width="44" height="78">
<rect y="10" width="44" height="78" fill="#D9D9D9"/>
</mask>
<g mask="url(#mask1_401_183)">
<path d="M0.5 10L41 26.7143V32.2857H35.6C35.6 33.0402 35.3117 33.6931 34.7352 34.2444C34.1586 34.7958 33.4766 35.0714 32.689 35.0714H-31.689C-32.4766 35.0714 -33.1586 34.7958 -33.7352 34.2444C-34.3117 33.6931 -34.6 33.0402 -34.6 32.2857H-40V26.7143L0.5 10ZM-29.2 37.8571H-18.4V71.2857H-13V37.8571H-2.19999V71.2857H3.19998V37.8571H14V71.2857H19.4V37.8571H30.2V71.2857H32.689C33.4766 71.2857 34.1586 71.5614 34.7352 72.1127C35.3117 72.6641 35.6 73.317 35.6 74.0714V76.8572H-34.6V74.0714C-34.6 73.317 -34.3117 72.6641 -33.7352 72.1127C-33.1586 71.5614 -32.4766 71.2857 -31.689 71.2857H-29.2V37.8571ZM38.0891 79.6429C38.8765 79.6429 39.5586 79.9185 40.1352 80.4698C40.7117 81.0212 41 81.6741 41 82.4286V88H-40V82.4286C-40 81.6741 -39.7117 81.0212 -39.1352 80.4698C-38.5586 79.9185 -37.8766 79.6429 -37.0891 79.6429H38.0891Z" fill="url(#paint5_linear_401_183)"/>
</g>
</g>
<defs>
<filter id="filter0_d_401_183" x="238.612" y="-5" width="56.5127" height="56.8598" filterUnits="userSpaceOnUse" color-interpolation-filters="sRGB">
<feFlood flood-opacity="0" result="BackgroundImageFix"/>
<feColorMatrix in="SourceAlpha" type="matrix" values="0 0 0 0 0 0 0 0 0 0 0 0 0 0 0 0 0 0 127 0" result="hardAlpha"/>
<feOffset dy="1.38814"/>
<feGaussianBlur stdDeviation="0.694069"/>
<feComposite in2="hardAlpha" operator="out"/>
<feColorMatrix type="matrix" values="0 0 0 0 0 0 0 0 0 0 0 0 0 0 0 0 0 0 0.25 0"/>
<feBlend mode="normal" in2="BackgroundImageFix" result="effect1_dropShadow_401_183"/>
<feBlend mode="normal" in="SourceGraphic" in2="effect1_dropShadow_401_183" result="shape"/>
</filter>
<filter id="filter1_b_401_183" x="-4" y="-4" width="373" height="107" filterUnits="userSpaceOnUse" color-interpolation-filters="sRGB">
<feFlood flood-opacity="0" result="BackgroundImageFix"/>
<feGaussianBlur in="BackgroundImageFix" stdDeviation="2"/>
<feComposite in2="SourceAlpha" operator="in" result="effect1_backgroundBlur_401_183"/>
<feBlend mode="normal" in="SourceGraphic" in2="effect1_backgroundBlur_401_183" result="shape"/>
</filter>
<linearGradient id="paint0_linear_401_183" x1="11.517" y1="1.91219" x2="60.8974" y2="189.517" gradientUnits="userSpaceOnUse">
<stop stop-color="#003649"/>
<stop offset="1" stop-color="#00212D"/>
</linearGradient>
<linearGradient id="paint1_linear_401_183" x1="6.67476" y1="1.91219" x2="55.4727" y2="189.844" gradientUnits="userSpaceOnUse">
<stop stop-color="#003649"/>
<stop offset="1" stop-color="#00212D"/>
</linearGradient>
<linearGradient id="paint2_linear_401_183" x1="308.58" y1="-38.01" x2="399.257" y2="57.3568" gradientUnits="userSpaceOnUse">
<stop stop-color="#FFDC5D"/>
<stop offset="1" stop-color="#BD912D"/>
</linearGradient>
<linearGradient id="paint3_linear_401_183" x1="248.945" y1="73.1067" x2="339.623" y2="168.473" gradientUnits="userSpaceOnUse">
<stop stop-color="#FFDC5D"/>
<stop offset="0.169792" stop-color="#FFDC5D" stop-opacity="0.61"/>
<stop offset="1" stop-color="#BD912D"/>
</linearGradient>
<linearGradient id="paint4_linear_401_183" x1="251.584" y1="-1.17786" x2="290.225" y2="65.4853" gradientUnits="userSpaceOnUse">
<stop stop-color="#FFDC5D"/>
<stop offset="1" stop-color="#D69D2F"/>
</linearGradient>
<linearGradient id="paint5_linear_401_183" x1="-65.7727" y1="-21.5714" x2="44.238" y2="84.6464" gradientUnits="userSpaceOnUse">
<stop stop-color="#FFDC5D"/>
<stop offset="1" stop-color="#D69D2F"/>
</linearGradient>
</defs>
</svg>
