<svg width="239" height="160" viewBox="0 0 239 160" fill="none" xmlns="http://www.w3.org/2000/svg">
<rect x="-1.16589" y="-79" width="240.166" height="239" fill="url(#paint0_linear_401_10)"/>
<mask id="mask0_401_10" style="mask-type:alpha" maskUnits="userSpaceOnUse" x="-2" y="-79" width="241" height="239">
<rect x="-1.16589" y="-79" width="240.166" height="239" fill="url(#paint1_linear_401_10)"/>
</mask>
<g mask="url(#mask0_401_10)">
</g>
<mask id="mask1_401_10" style="mask-type:alpha" maskUnits="userSpaceOnUse" x="-2" y="-79" width="241" height="239">
<rect x="-1.16589" y="-79" width="240.166" height="239" fill="url(#paint2_linear_401_10)"/>
</mask>
<g mask="url(#mask1_401_10)">
<g opacity="0.65">
<path opacity="0.58" d="M198.899 -119.714C192.397 -115.953 101.69 -63.718 99.0043 -62.1665C99.0043 -56.4305 99.0043 47.2394 99.0043 52.8813C103.339 55.3731 194.328 107.796 198.899 110.429C199.182 110.288 297.286 53.7746 298.794 52.8813C298.794 38.9646 298.794 -50.2715 298.794 -62.1665C294.318 -64.7523 201.679 -118.068 198.899 -119.714ZM292.103 -59.9567L280.888 -57.9821V-66.3979L292.103 -59.9567ZM278.674 57.865C276.6 55.4202 274.433 52.7873 272.501 50.4835L274.951 47.5685L278.674 48.2267V57.865ZM278.674 45.97L274.056 45.1707L271.04 48.7909C270.38 47.9916 270.098 47.6625 268.024 45.1707L263.407 45.97V41.3154L259.307 38.9646C260.25 37.8362 261.239 36.6608 262.323 35.3444L260.721 30.9249C263.784 30.4077 264.302 30.3137 265.339 30.1256L266.941 25.7531C269.014 26.9756 269.956 27.4927 270.993 28.1039L275.092 25.7531C275.187 26.0352 276.6 29.9376 276.742 30.3137C277.637 30.3137 276.836 30.2197 281.312 31.0189C280.417 33.4167 280.087 34.4041 279.71 35.4384L282.726 39.0586L278.674 41.4094V45.97ZM269.532 50.5305L263.36 57.912V48.3208L267.082 47.6625C267.082 47.6155 268.496 49.2611 269.532 50.5305ZM235.323 55.2791L236.925 46.158L240.459 52.2701L245.878 51.3298C244.936 52.4581 243.758 53.8686 242.344 55.5612L245.878 61.6732L237.161 58.5232L237.585 56.1254L235.323 55.2791ZM198.899 87.2499L194.8 89.6007C194.705 89.3186 193.292 85.4163 193.15 85.0401C192.255 85.0401 193.056 85.1342 188.533 84.3349C189.522 81.655 189.711 81.0908 190.135 79.9154L187.119 76.3422L191.171 73.9914V69.2898C191.219 69.2898 193.198 69.666 195.789 70.0891L198.805 66.4689C199.276 67.0331 200.36 68.3025 201.821 70.0891L206.438 69.2898V73.9444L210.538 76.2952C209.595 77.3765 209.077 78.0348 207.522 79.9154L209.124 84.3349C206.061 84.8521 205.543 84.9461 204.506 85.1342L202.904 89.5066C200.925 88.4253 199.983 87.8611 198.899 87.2499ZM202.198 91.7164L198.899 100.743C197.815 97.7344 196.637 94.5373 195.601 91.7164L198.899 89.7887C199.794 90.3529 200.925 91.0111 202.198 91.7164ZM165.444 72.4869L169.496 65.4815C171.287 65.8106 174.114 66.2808 175.999 66.6099L183.679 75.731C179.344 78.2228 176.281 79.9624 173.36 81.655L166.81 80.5266L165.444 72.91L165.491 72.863L165.444 72.4869ZM160.685 58.4762L152.015 61.6263L155.549 55.5142L152.015 51.2828L157.433 52.2231L160.967 46.111L162.569 55.1851L160.261 56.1254L160.685 58.4762ZM134.486 57.865C132.413 55.4202 130.245 52.7873 128.313 50.4835L130.763 47.5685L134.486 48.2267V57.865ZM134.486 45.97L129.868 45.1707L126.852 48.7909L123.837 45.1707L119.219 45.97V41.3154L115.119 38.9646C116.062 37.8362 116.769 36.9899 118.135 35.3444L116.533 30.9249C119.596 30.4077 120.161 30.2667 121.151 30.1256L122.753 25.7531C124.025 26.4584 125.533 27.3517 126.805 28.1039L130.905 25.7531C130.952 25.9412 132.46 30.0316 132.554 30.3137C133.449 30.3137 132.648 30.2197 137.172 31.0189C136.182 33.7929 135.994 34.263 135.57 35.4384L138.585 39.0586L134.533 41.4094V45.97H134.486ZM119.077 -67.1972C121.151 -64.7523 123.318 -62.1195 125.25 -59.8157L122.8 -56.9007L119.077 -57.5589V-67.1972ZM119.077 -55.2551L123.695 -54.4559L126.711 -58.0761L129.727 -54.4559L134.344 -55.2551V-50.6006L138.444 -48.2498C137.313 -46.9333 136.276 -45.6639 135.428 -44.6296L137.03 -40.2101C133.92 -39.6459 133.732 -39.6459 132.413 -39.4108L130.81 -35.0383C128.831 -36.1667 127.795 -36.7779 126.758 -37.3891L122.659 -35.0383C122.517 -35.3674 121.104 -39.2698 121.009 -39.5989C120.114 -39.5989 120.915 -39.5048 116.392 -40.3041C117.24 -42.6549 117.617 -43.5952 117.994 -44.7236L114.978 -48.2968L119.03 -50.6476V-55.2551H119.077ZM128.219 -59.8157L134.392 -67.1972V-57.6059L130.669 -56.9477L128.219 -59.8157ZM162.475 -64.5643L160.873 -55.4432L157.339 -61.6023L151.92 -60.662C153.522 -62.5426 154.088 -63.2008 155.454 -64.8934L151.92 -71.0055L160.638 -67.8554L160.213 -65.4576L162.475 -64.5643ZM165.444 -82.1952L166.81 -89.8588L173.313 -90.9872L183.679 -85.0162L176.046 -75.9421L169.543 -74.8137L165.491 -81.8661L165.444 -82.1952ZM198.852 -96.5351L202.951 -98.8858C203.517 -97.2873 204.554 -94.5604 204.601 -94.3253C205.496 -94.3253 204.695 -94.4193 209.171 -93.6201C208.323 -91.2693 207.946 -90.329 207.569 -89.2006L210.585 -85.6274L206.533 -83.2766V-78.575C206.485 -78.575 204.601 -78.9041 201.915 -79.3743L198.899 -75.7541L195.883 -79.3743L191.266 -78.575V-83.2296L187.166 -85.5804C188.109 -86.7087 189.287 -88.0722 190.182 -89.2006L188.58 -93.6201C191.643 -94.1372 192.208 -94.2783 193.198 -94.4193L194.8 -98.7918C196.119 -98.0866 197.486 -97.2873 198.852 -96.5351ZM195.554 -101.049L198.852 -110.076C199.936 -107.067 201.114 -103.87 202.15 -101.049L198.852 -99.1209C197.957 -99.6381 196.826 -100.296 195.554 -101.049ZM235.182 -52.0581L231.176 -45.0997L223.496 -47.1684L217.889 -52.7633L221.941 -59.7687L233.156 -63.859L235.135 -52.5282L235.087 -52.4812L235.182 -52.0581ZM237.161 -67.8084L245.831 -70.9584L242.297 -64.8464L245.831 -60.615L240.412 -61.5553L236.925 -55.5372L235.323 -64.6113L237.585 -65.4576L237.161 -67.8084ZM263.312 -67.1972C265.386 -64.7523 267.553 -62.1195 269.485 -59.8157L267.035 -56.9007L263.312 -57.5589V-67.1972ZM263.312 -55.3022L267.93 -54.5029L270.946 -58.1231L273.962 -54.5029L278.579 -55.3022V-50.6476L282.679 -48.2968C281.925 -47.4035 281.501 -46.8863 279.663 -44.6766L281.265 -40.2571C278.202 -39.7399 277.684 -39.6459 276.647 -39.4578L275.045 -35.0854C273.914 -35.7436 272.548 -36.4958 270.993 -37.4361L266.894 -35.0854C264.915 -40.5392 265.904 -37.8593 265.244 -39.6459C264.349 -39.6459 265.15 -39.5519 260.674 -40.3511C261.852 -43.5952 261.757 -43.2661 262.276 -44.7706L259.213 -48.2498L263.265 -50.6006V-55.3022H263.312ZM272.454 -59.8157L278.627 -67.1972V-57.6059L274.904 -56.9477L272.454 -59.8157ZM269.768 -20.5104L267.506 -14.3044H259.401L259.119 -14.5394H259.072L253.087 -19.5231C253.559 -20.8866 254.407 -23.0963 255.349 -25.7292L255.538 -25.8702L265.668 -31.7002C266.988 -28.174 268.496 -24.0366 269.768 -20.5104ZM265.716 22.415C261.616 20.0642 258.318 18.1366 255.396 16.491L253.134 10.2379L259.072 5.25423L259.354 5.01916H267.506C267.977 6.38261 268.826 8.59236 269.768 11.2253L265.716 22.415ZM270.993 14.5164C272.077 17.5254 273.255 20.7225 274.291 23.5434L270.993 25.4711C270.098 24.9539 268.967 24.2957 267.695 23.5904L270.993 14.5164ZM208.794 66.6099V54.7149L213.035 49.6372L220.716 52.4111L224.768 59.4635C224.721 59.5105 222.365 62.3315 220.527 64.5412L208.794 66.6099ZM218.266 67.2681C214.779 71.4055 213.648 72.769 212.093 74.6026L208.794 72.675V68.9137L218.266 67.2681ZM212.328 47.0043L208.794 51.2357V45.7349L202.622 43.4781L208.794 41.8326V32.3354L213.554 40.5631L219.161 39.0586L215.061 43.149L218.642 49.3081L212.328 47.0043ZM198.899 63.0367C196.496 60.1687 193.669 56.7836 191.219 53.9156C191.219 53.3044 191.219 48.5088 191.219 47.2864L198.899 44.5125L206.58 47.2864V53.9156L198.899 63.0367ZM206.533 57.3948V66.9861L202.81 67.6443C201.915 66.6099 201.255 65.8106 200.36 64.7293L206.533 57.3948ZM177.224 64.5412L172.983 59.4635L177.035 52.4111L184.716 49.6372L188.957 54.7149C188.957 56.2194 188.957 65.1524 188.957 66.6099C184.245 65.8106 180.852 65.1994 177.224 64.5412ZM188.957 68.9137V72.722L185.658 74.6026L179.486 67.2211C182.03 67.6913 182.831 67.8323 188.957 68.9137ZM185.423 47.0043L179.156 49.2611L182.69 43.102L178.637 39.0586L184.198 40.5631L188.957 32.3354V41.8326L195.13 43.4781L188.957 45.7349V51.2357L185.423 47.0043ZM128.03 11.2253L130.292 5.01916H138.444L138.727 5.25423L144.711 10.2379C144.24 11.6014 143.392 13.8111 142.449 16.444L142.261 16.5851L132.13 22.415C130.81 18.8888 129.303 14.7514 128.03 11.2253ZM130.104 23.5434L126.805 25.4711C125.91 24.9539 124.779 24.2957 123.507 23.5904L126.805 14.5634C127.936 17.5254 129.067 20.7225 130.104 23.5434ZM132.036 -31.7002C135.287 -29.8196 139.056 -27.6568 142.355 -25.7762L144.617 -19.5231L138.35 -14.3044H130.198C129.727 -15.6678 128.878 -17.8775 127.936 -20.5104L132.036 -31.7002ZM126.758 -23.8015C125.674 -26.8106 124.496 -30.0076 123.46 -32.8286L126.758 -34.7562C127.653 -34.2391 128.784 -33.5808 130.056 -32.8756L126.758 -23.8015ZM188.957 -75.8951V-64.0001L184.716 -58.9224L177.035 -61.6963L172.983 -68.7487C173.925 -69.8301 175.433 -71.6637 177.224 -73.8264L188.957 -75.8951ZM179.438 -76.5533L185.611 -83.8878L188.91 -82.0072V-78.2459L179.438 -76.5533ZM185.376 -56.2895L188.91 -60.5209V-55.0201L195.082 -52.7633L188.957 -51.1178V-41.6206L184.198 -49.8483L178.59 -48.3438L182.69 -52.4342L179.109 -58.5933L185.376 -56.2895ZM198.852 -72.3219C201.255 -69.4539 204.082 -66.0688 206.533 -63.2008C206.533 -62.5896 206.533 -57.794 206.533 -56.5716L198.852 -53.7977L191.171 -56.5716V-63.2008L198.852 -72.3219ZM191.219 -66.727V-76.3182L194.941 -76.9765L197.391 -74.0615L191.219 -66.727ZM220.527 -73.8264L224.768 -68.7487L220.716 -61.6963L213.035 -58.9224L208.794 -64.0001C208.794 -65.5046 208.794 -74.4376 208.794 -75.8951C213.789 -75.0488 217.417 -74.3906 220.527 -73.8264ZM208.794 -78.1989V-82.0072L212.093 -83.8878L218.266 -76.5063C215.156 -77.0705 214.779 -77.1645 208.794 -78.1989ZM211.81 -56.9007L212.705 -57.6059L211.81 -56.9007L212.328 -56.2895L218.642 -58.5933L215.061 -52.4342L219.114 -48.3908L213.554 -49.8953L208.794 -41.6676V-51.1648L202.622 -52.8103L208.747 -55.0671V-60.5679L211.81 -56.9007ZM237.538 -52.1051L241.59 -59.1104L248.093 -57.9821L255.773 -48.861C251.344 -46.3221 248.234 -44.5355 245.454 -42.937L238.904 -44.0654L237.538 -51.6819L237.585 -51.729L237.538 -52.1051ZM258.365 -40.6332L248.894 -42.3258C251.203 -43.6422 252.098 -44.1594 257.234 -47.1214L259.684 -44.2064C259.307 -43.2191 258.883 -41.9967 258.365 -40.6332ZM259.873 -38.0473L263.642 -37.3891C263.925 -36.6369 264.066 -36.2137 264.962 -33.8159L256.621 -29.0203L259.873 -38.0473ZM251.58 -57.3238C254.171 -56.8537 255.962 -56.5716 261.051 -55.6783V-51.87L257.752 -49.9894L251.58 -57.3238ZM245.878 -40.5392L257.611 -38.4705L253.559 -27.2807C253.229 -27.0927 253.888 -27.4688 247.857 -23.9896L241.59 -29.2084L240.176 -37.2011C241.402 -37.9533 243.475 -39.1287 245.878 -40.5392ZM255.538 -14.5394H248.47L246.962 -8.99155L245.454 -14.5394H235.936L244.182 -19.288L242.532 -25.4471L247.574 -21.2157L252.333 -23.9426C250.967 -20.1813 250.826 -19.8052 250.449 -18.7709L255.538 -14.5394ZM252.381 14.7044C249.412 13.0119 248.752 12.6357 247.574 11.9305L242.532 16.1619L244.182 10.0028L235.936 5.25423H245.454L246.962 -0.293625L248.47 5.25423H255.585L250.496 9.53268L252.381 14.7044ZM198.899 15.1746L206.58 28.4331V40.14L198.946 42.1617H198.899H198.852L191.266 40.14V28.386L198.899 15.1746ZM191.219 23.8725V11.1782L195.271 8.87447L197.58 12.8708L191.219 23.8725ZM200.218 12.9178L202.527 8.92148L206.58 11.2253V23.9195L200.218 12.9178ZM201.726 5.81844L198.899 10.6611L196.119 5.81844L191.266 8.63939V2.99748H185.658L188.486 -1.84515L183.632 -4.61908L188.486 -7.44003L185.658 -12.2827H191.266V-17.8775L196.119 -15.0566L198.899 -19.8992L201.726 -15.0566L206.58 -17.8775V-12.2827H212.187L209.36 -7.44003L214.213 -4.61908L209.36 -1.84515L212.187 2.99748H206.58V8.59236L201.726 5.81844ZM155.266 16.1619L150.224 11.9305L145.465 14.6574C146.831 10.9432 146.973 10.473 147.35 9.48566L142.261 5.20723H149.329L150.837 -0.293625L152.344 5.25423H161.863L153.617 10.0028L155.266 16.1619ZM145.371 -24.0366C148.292 -22.3441 149.046 -21.9209 150.177 -21.2627L155.266 -25.5411L153.617 -19.335L161.863 -14.5864H152.344L150.837 -9.03857L149.329 -14.5864H142.214L147.302 -18.8649L145.371 -24.0366ZM154.041 2.99748L151.967 -4.6661L154.041 -12.3297H165.774L179.062 -4.6661L165.774 2.99748H154.041ZM185.328 -8.28632L181.323 -5.98254L170.297 -12.3297H183.02L185.328 -8.28632ZM177.978 -25.5411L189.004 -19.194V-14.5394H184.339L177.978 -25.5411ZM181.323 -3.34966L185.328 -1.04588L183.02 2.99748H170.297L181.323 -3.34966ZM184.339 5.25423H189.004V9.90881L177.978 16.256L184.339 5.25423ZM198.899 -24.4598L191.219 -37.7182V-49.4252L198.805 -51.4469H198.852L198.946 -51.4939L206.58 -49.4722V-37.7653L198.899 -24.4598ZM206.58 -33.2047V-20.5104L202.527 -18.2067L200.218 -22.203L206.58 -33.2047ZM197.58 -22.203L195.271 -18.2067L191.219 -20.5104V-33.2047L197.58 -22.203ZM213.459 -14.5394H208.794V-19.194L219.82 -25.5411L213.459 -14.5394ZM214.779 -12.2827H227.501L216.475 -5.93552L212.47 -8.2393L214.779 -12.2827ZM208.841 5.25423H213.506L219.868 16.256L208.841 9.90881V5.25423ZM212.47 -1.04588L216.475 -3.34966L227.501 2.99748H214.779L212.47 -1.04588ZM218.737 -4.6661L232.025 -12.3297H243.758L245.831 -4.6661L243.758 2.99748H232.025L218.737 -4.6661ZM241.543 -20.4164L231.412 -14.5394H216.098L223.779 -27.7979L233.909 -33.6279L239.47 -28.08V-28.033L239.517 -27.986L241.543 -20.4164ZM222.082 -29.4435L208.794 -21.7799V-37.06L214.637 -47.1684L222.318 -45.0997L227.925 -39.5048L222.082 -29.4435ZM206.533 -66.68C204.459 -69.1248 202.292 -71.7577 200.36 -74.0615L202.81 -76.9765C204.978 -76.6003 204.931 -76.6003 206.533 -76.3182V-66.68ZM183.114 -47.2154L188.957 -37.107V-21.8269L175.716 -29.4435L169.873 -39.5519L175.48 -45.1467L183.114 -47.2154ZM181.7 -14.5394H166.386L156.255 -20.3694L158.329 -28.033L163.936 -33.6279L174.067 -27.7979L181.7 -14.5394ZM156.208 -29.2084L149.941 -23.9896C148.669 -24.6948 146.596 -25.9173 144.193 -27.3277L140.14 -38.4705C145.229 -39.3638 149.753 -40.1631 151.92 -40.5392L157.622 -37.2481L156.208 -29.2084ZM141.978 -48.861C142.873 -49.9424 148.669 -56.8067 149.611 -57.9351L156.114 -59.0634L160.213 -52.0111L158.8 -44.0184L152.297 -42.89L141.978 -48.861ZM148.857 -42.2788C145.7 -41.7146 142.308 -41.1504 139.339 -40.5862L138.02 -44.1594C138.444 -44.6296 139.339 -45.7109 140.47 -47.0744L148.857 -42.2788ZM141.13 -29.0673C138.35 -30.6659 135.381 -32.3584 132.789 -33.8629L134.062 -37.3891C135.098 -37.5772 136.371 -37.8123 137.831 -38.0473L141.13 -29.0673ZM139.575 -12.2827H147.632L149.706 -4.61908L147.632 3.0445H139.575L139.292 2.80943L130.481 -4.57207L139.575 -12.2827ZM141.224 19.7351L137.926 28.7622L134.156 28.1039C133.826 27.1636 133.732 26.8815 132.837 24.5307L141.224 19.7351ZM139.386 31.301L148.857 32.9936C146.549 34.31 145.653 34.8272 140.517 37.7892L138.067 34.8742C138.444 33.8869 138.915 32.6645 139.386 31.301ZM146.219 48.0387C143.297 47.5215 142.543 47.3804 136.748 46.3931V42.5848L140.046 40.7042L146.219 48.0387ZM142.025 39.5288C146.454 36.9899 149.564 35.2033 152.344 33.6048L158.894 34.7332L160.308 42.7259L156.208 49.7782L149.706 48.6499L142.025 39.5288ZM151.92 31.254L140.187 29.1853L144.24 17.9955C144.57 17.8075 143.91 18.1836 149.941 14.7044L156.208 19.9232L157.622 27.9159C156.397 28.6681 154.323 29.8435 151.92 31.254ZM156.255 11.0842L166.386 5.25423H181.7L174.067 18.5127L163.936 24.3427L158.376 18.7478V18.7008H158.329L156.255 11.0842ZM175.716 20.1583L189.004 12.4947V27.7748L183.161 37.8832L175.48 35.8145L169.826 30.2667L175.716 20.1583ZM191.219 57.3948C193.292 59.8396 195.459 62.4725 197.391 64.7763L194.941 67.6913C192.726 67.3152 192.491 67.2681 191.219 67.0331V57.3948ZM214.684 37.9303L208.841 27.8218V12.5417L222.129 20.2053L227.972 30.3137L222.365 35.9086L214.684 37.9303ZM216.098 5.25423H231.412L241.543 11.0842L239.517 18.7008L239.47 18.7478V18.7948L233.909 24.3427L223.731 18.5127L216.098 5.25423ZM241.543 19.9232L247.81 14.7044C249.082 15.4097 251.155 16.6321 253.559 18.0426L257.611 29.1853C253.888 29.8435 249.553 30.5958 245.831 31.254L240.129 27.9629L241.543 19.9232ZM255.773 39.5758C254.878 40.6572 249.082 47.5215 248.14 48.6499L241.637 49.7782L237.538 42.7259L238.951 34.7332C243.475 33.9339 238.763 34.7802 245.454 33.6048L255.773 39.5758ZM248.894 32.9936C252.051 32.4294 255.443 31.8652 258.412 31.301L259.731 34.8742C259.072 35.6265 258.035 36.8959 257.281 37.7892L248.894 32.9936ZM256.621 19.7822C259.401 21.3807 262.37 23.0732 264.962 24.5778L263.689 28.1039C262.653 28.292 261.381 28.5271 259.92 28.7622L256.621 19.7822ZM258.553 2.76241L258.271 2.99748H250.213L248.14 -4.6661L250.213 -12.3297H258.271L258.553 -12.0946H258.6L267.412 -4.71311L258.553 2.76241ZM267.695 -32.8286L270.993 -34.7562C271.888 -34.2391 273.019 -33.5808 274.291 -32.8756L270.993 -23.8486C269.862 -26.8106 268.684 -30.0076 267.695 -32.8286ZM261.051 -57.9821C256.15 -58.8284 252.522 -59.4866 249.318 -60.0508L245.077 -65.1285L249.129 -72.1809L256.81 -74.9548L261.051 -69.8771C261.051 -68.3726 261.051 -59.3925 261.051 -57.9821ZM235.794 -48.6259L236.972 -42.0907L242.391 -41.1504C238.998 -39.2227 238.527 -38.9407 237.632 -38.4235L238.763 -31.9823L234.239 -36.4958L225.993 -31.7472L230.752 -39.975L226.7 -44.0184L232.26 -42.5139L235.794 -48.6259ZM232.354 -68.4666L232.779 -66.0688L224.014 -62.8717L227.548 -68.9838L224.014 -73.2152L229.433 -72.2749L233.014 -78.434L234.616 -69.3129L232.354 -68.4666ZM228.255 -74.7667L221.752 -75.8951L214.072 -85.0162C217.512 -86.9908 221.375 -89.2476 224.391 -90.9402L230.941 -89.8118L232.354 -81.8191L228.255 -74.7667ZM212.611 -86.8028L210.161 -89.7178C210.538 -90.7051 210.962 -91.9275 211.48 -93.291L220.951 -91.5984C218.313 -90.0939 216.711 -89.1536 212.611 -86.8028ZM209.972 -95.8298L206.203 -96.488C205.92 -97.1933 205.873 -97.4284 204.883 -100.061L213.224 -104.857L209.972 -95.8298ZM191.501 -96.488C190.465 -96.3 189.192 -96.0649 187.732 -95.8298L184.433 -104.81C187.213 -103.211 190.182 -101.519 192.773 -100.014L191.501 -96.488ZM187.59 -89.7178C186.978 -88.9655 186.13 -87.9782 185.14 -86.8028L176.753 -91.5984C179.91 -92.1626 183.302 -92.7268 186.271 -93.291L187.59 -89.7178ZM168.318 -72.2749L173.737 -73.2152C172.418 -71.6167 171.381 -70.3942 170.203 -68.9838L173.737 -62.8717L165.02 -66.0218L165.444 -68.4196L163.182 -69.2659L164.784 -78.3399L168.318 -72.2749ZM164.643 -63.812L175.857 -59.7217L179.863 -52.7633L174.255 -47.1684L166.575 -45.0997L162.569 -52.0581L164.643 -63.812ZM165.491 -42.5139L171.098 -44.0184L166.999 -39.928L171.758 -31.7002L163.512 -36.4488L158.941 -31.8883L160.072 -38.3765L155.313 -41.1034L160.732 -42.0437L161.91 -48.6259L165.491 -42.5139ZM152.674 -65.0815C151.732 -64.0001 150.224 -62.1665 148.433 -60.0037L136.7 -57.9351V-69.8771L140.941 -74.9548L148.622 -72.1809L152.674 -65.0815ZM136.653 -55.6783L146.124 -57.3238C142.685 -53.2805 141.789 -52.1521 139.952 -49.9894L136.653 -51.87V-55.6783ZM116.816 -51.87L113.517 -49.9894L107.345 -57.3709C109.889 -56.9007 110.69 -56.7597 116.816 -55.7253V-51.87ZM115.449 -44.1594C115.072 -43.1721 114.648 -41.9497 114.13 -40.5862L104.659 -42.2788C106.873 -43.5482 108.004 -44.2064 112.999 -47.0744L115.449 -44.1594ZM115.638 -38.0473L119.407 -37.3891C119.69 -36.5899 119.784 -36.4018 120.727 -33.8159L112.386 -29.0203L115.638 -38.0473ZM121.481 -31.7002C122.753 -28.174 124.261 -24.0366 125.58 -20.5104L123.318 -14.3044H115.261L114.931 -14.5864H114.837L108.9 -19.5701C109.371 -20.9336 110.219 -23.1433 111.161 -25.7762L111.35 -25.9173L121.481 -31.7002ZM124.873 -12.0476L126.758 -17.2193C128.077 -13.5991 128.266 -13.129 128.643 -12.0476H135.758L128.69 -6.12359L126.852 -7.67511L125.015 -6.12359L117.947 -12.0476H124.873ZM126.805 -1.61007L128.643 -3.1616L135.711 2.76241H128.69L126.805 7.93414C125.533 4.45497 125.25 3.70272 124.92 2.76241H117.899L124.968 -3.1616L126.805 -1.61007ZM123.365 5.01916C123.837 6.38261 124.685 8.59236 125.627 11.2253L121.528 22.415C117.334 19.9702 112.245 17.0552 111.208 16.491L108.947 10.2379L114.884 5.25423L115.167 5.01916H123.365ZM120.727 24.5778L119.454 28.1039C118.418 28.292 117.146 28.5271 115.685 28.7622L112.386 19.7822C115.214 21.3807 118.182 23.0732 120.727 24.5778ZM115.543 34.8742C114.79 35.7675 114.036 36.7078 113.093 37.7892L104.753 32.9936C107.91 32.4294 111.303 31.8652 114.271 31.301L115.543 34.8742ZM113.612 40.7042L116.91 42.5848V46.3461L107.439 47.9917C110.831 43.9953 111.774 42.8669 113.612 40.7042ZM125.344 50.5305L119.172 57.912V48.3208L122.894 47.6625L125.344 50.5305ZM136.748 48.6499C142.402 49.6372 145.606 50.2014 148.48 50.7186L152.721 55.7963L148.669 62.8486L148.292 62.9897L140.988 65.6226L136.748 60.5449C136.748 59.0874 136.748 50.1074 136.748 48.6499ZM162.004 39.3407L160.826 32.8055L155.407 31.8652C158.988 29.7965 159.318 29.6085 160.166 29.1383L159.035 22.6971L163.559 27.2106L171.805 22.462L167.046 30.6898L171.098 34.7332L165.538 33.2287L162.004 39.3407ZM166.622 35.8616L174.302 37.9303L179.91 43.5251L175.904 50.4835L164.69 54.5739L162.617 42.8669L166.622 35.8616ZM165.491 59.1344L165.067 56.7366L173.737 53.5865L170.203 59.6986L173.737 63.93C172.041 63.6479 172.135 63.6479 168.318 62.9897L164.831 69.0077L163.229 59.9337L165.491 59.1344ZM185.14 77.5176L187.59 80.4326C187.213 81.4199 186.789 82.6423 186.271 84.0058L176.8 82.3132C179.014 81.0438 180.004 80.4796 185.14 77.5176ZM187.779 86.5446L191.548 87.2029C191.831 88.0021 191.972 88.3312 192.868 90.7761L184.527 95.5717L187.779 86.5446ZM206.25 87.2029C207.287 87.0148 208.559 86.7797 210.019 86.5446L213.318 95.5247C210.538 93.9261 207.569 92.2336 204.978 90.729L206.25 87.2029ZM210.161 80.3856C211.433 78.8811 212.14 78.0348 212.611 77.4706L220.951 82.2662C217.794 82.8304 214.402 83.4416 211.433 83.9588L210.161 80.3856ZM214.119 75.731C214.119 75.731 218.454 70.5592 221.752 66.6569L228.255 65.5285L232.354 72.5809L230.941 80.5736L224.438 81.702L214.119 75.731ZM229.433 62.9897L224.014 63.93C225.381 62.3315 225.334 62.3785 227.548 59.6986L224.014 53.5395L232.779 56.7366L232.354 59.1344L234.616 59.9807L233.014 69.1488L229.433 62.9897ZM233.156 54.5269L221.941 50.4365L217.936 43.4781L223.543 37.8832L231.224 35.8145L235.229 42.7729L233.156 54.5269ZM232.307 33.2287L226.7 34.7332L230.799 30.6428L226.04 22.415L234.286 27.1636L238.81 22.6501L237.679 29.0913L242.438 31.8182C238.339 32.5234 238.857 32.4294 237.019 32.7585L235.841 39.3407L232.307 33.2287ZM245.077 55.7963C246.019 54.7149 247.527 52.8813 249.318 50.7186L261.051 48.6499V60.5449L256.81 65.6226L249.129 62.8486L245.077 55.7963ZM261.098 46.3931L251.627 48.0387C255.066 43.9953 255.962 42.8669 257.799 40.7042L261.098 42.5848V46.3931ZM280.935 42.5848L284.234 40.7042L290.407 48.0857C287.438 47.5685 286.825 47.4745 280.935 46.4401V42.5848ZM282.302 34.8742C282.679 33.8869 283.103 32.6645 283.621 31.301L293.092 32.9936C291.066 34.169 287.909 35.9556 284.752 37.7892L282.302 34.8742ZM282.113 28.7622L278.344 28.1039C278.061 27.3047 277.92 26.9756 277.024 24.5307L285.365 19.7351L282.113 28.7622ZM276.271 22.415C274.998 18.8888 273.49 14.7514 272.171 11.2253L274.433 5.01916H282.585L282.867 5.25423L288.804 10.2379C288.333 11.6014 287.485 13.8111 286.543 16.444L286.354 16.5851L276.271 22.415ZM272.878 2.76241L270.993 7.93414C269.721 4.45497 269.438 3.70272 269.108 2.76241H262.087L269.155 -3.1616L270.993 -1.61007L272.831 -3.1616L279.899 2.76241H272.878ZM271.04 -7.67511L269.202 -6.12359L262.134 -12.0476H269.108L270.993 -17.2193C272.312 -13.6461 272.548 -12.9409 272.878 -12.0476H279.946L272.878 -6.12359L271.04 -7.67511ZM274.433 -14.3044C273.962 -15.6678 273.113 -17.8775 272.171 -20.5104L276.271 -31.7002C279.522 -29.8196 283.291 -27.6568 286.59 -25.7762L288.852 -19.5231L282.585 -14.3044H274.433ZM277.024 -33.8629L278.297 -37.3891C279.333 -37.5772 280.606 -37.8123 282.066 -38.0473L285.365 -29.0673C282.585 -30.6659 279.616 -32.3584 277.024 -33.8629ZM282.255 -44.1594C283.056 -45.0997 283.763 -45.993 284.705 -47.0744L293.045 -42.2788C289.888 -41.7146 286.496 -41.1034 283.527 -40.5862L282.255 -44.1594ZM284.187 -49.9894L280.888 -51.917V-55.6783L290.359 -57.3709C286.448 -52.6693 285.6 -51.6819 284.187 -49.9894ZM276.93 -68.6547L270.993 -61.5553C268.59 -64.4232 265.763 -67.8084 263.312 -70.6763C263.312 -71.1935 263.312 -74.7197 263.312 -76.5063L276.93 -68.6547ZM261.051 -77.8228V-73.3562L257.517 -77.5877L251.25 -75.3309L254.784 -81.443L261.051 -77.8228ZM252.004 -81.1139L247.998 -74.1555L236.784 -70.0651L234.71 -81.8191L238.716 -88.7774C247.527 -86.3796 245.737 -87.32 252.004 -81.1139ZM237.585 -91.3163L234.051 -85.1572L232.873 -91.7394L227.454 -92.6798C229.716 -93.9962 230.564 -94.4664 231.318 -94.8895L237.585 -91.3163ZM229.056 -96.253C227.501 -95.3597 225.192 -94.0432 224.014 -93.338L212.281 -95.4067L215.438 -104.105L229.056 -96.253ZM211.433 -106.408L204.129 -102.224C202.904 -105.562 201.491 -109.464 200.266 -112.85L211.433 -106.408ZM197.486 -112.803L193.622 -102.177C191.313 -103.493 188.768 -104.951 186.318 -106.361L197.486 -112.803ZM182.313 -104.105L185.47 -95.4067C181.323 -94.6544 176.705 -93.8552 173.69 -93.338L168.648 -96.253L182.313 -104.105ZM166.433 -94.9365L170.25 -92.7268L164.831 -91.7865L163.653 -85.2513L160.119 -91.3633L166.433 -94.9365ZM159.035 -88.7304L163.088 -81.7721L163.041 -81.396L161.014 -70.0651L149.8 -74.1085L145.748 -81.1139C152.203 -87.555 150.554 -86.4737 159.035 -88.7304ZM142.967 -81.443L146.501 -75.2839L140.187 -77.5877L136.653 -73.3562V-77.7757L142.967 -81.443ZM134.392 -76.5063V-70.6763L126.711 -61.5553C124.826 -63.765 122.753 -66.3039 120.774 -68.6547L134.392 -76.5063ZM116.816 -66.3509C116.816 -63.1538 116.816 -58.9224 116.816 -57.9351C112.339 -58.7343 109.088 -59.2985 105.648 -59.9097L116.816 -66.3509ZM104.282 -57.4649L111.538 -48.814C108.852 -47.2625 106.544 -45.946 104.282 -44.6296V-57.4649ZM104.282 -40.069L113.376 -38.4705L109.324 -27.2807C109.041 -27.0927 109.559 -27.4218 104.329 -24.4128V-40.069H104.282ZM104.282 -21.7799L108.098 -23.9896C106.732 -20.2283 106.591 -19.8522 106.214 -18.8179L111.303 -14.5394H104.282V-21.7799ZM105.978 -12.2827H113.988L114.318 -12.0006H114.413L123.224 -4.61908L114.413 2.76241L114.083 2.99748H105.978C103.622 -5.79448 103.669 -3.63175 105.978 -12.2827ZM104.282 5.25423H111.397L106.308 9.53268L108.193 14.7514C106.261 13.6231 105.224 13.0589 104.282 12.4947V5.25423ZM104.282 15.0806C105.554 15.8328 107.345 16.8201 109.371 17.9955L113.423 29.1383C110.549 29.6555 107.297 30.2197 104.235 30.7368V15.0806H104.282ZM104.282 35.3444L111.585 39.5758C110.737 40.5631 105.79 46.4401 104.282 48.2737V35.3444ZM105.648 50.6245L116.863 48.6499V57.1127L105.648 50.6245ZM120.821 59.3695L126.805 52.2701C129.208 55.138 132.036 58.5232 134.486 61.3912C134.486 61.9083 134.486 65.4345 134.486 67.2681L120.821 59.3695ZM136.748 68.5376V64.0711L140.282 68.3025L146.549 66.0457L143.015 72.2048L136.748 68.5376ZM145.795 71.8287L149.847 64.8233L150.224 64.6823L161.062 60.7329L163.041 72.0638L162.994 72.1108L163.041 72.4869L159.035 79.4453C150.271 77.0945 152.156 78.1288 145.795 71.8287ZM160.213 82.0781L163.747 75.9661L164.925 82.5013L170.344 83.4416C167.847 84.8521 167.14 85.2752 166.48 85.6513L160.213 82.0781ZM168.695 86.9678C169.967 86.2625 171.711 85.2282 173.737 84.0528L185.47 86.1215L182.313 94.8194L168.695 86.9678ZM186.318 97.1232L193.622 92.9388C194.847 96.2769 196.26 100.179 197.486 103.564L186.318 97.1232ZM200.266 103.517L204.129 92.8448C206.438 94.1612 208.983 95.6187 211.433 97.0762L200.266 103.517ZM215.438 94.8194L212.281 86.1215C216.004 85.4633 220.339 84.711 224.061 84.0528L229.103 86.9678L215.438 94.8194ZM231.318 85.6513L227.501 83.4416L232.92 82.5013L234.098 75.872L237.632 82.0311L231.318 85.6513ZM238.716 79.4453L234.663 72.4399L236.737 60.7329L247.951 64.8233L252.004 71.8287C245.595 78.2228 247.244 77.1885 238.716 79.4453ZM254.784 72.1108L251.25 65.9987L257.517 68.2555L261.051 64.024V68.4435L254.784 72.1108ZM263.36 67.2211V61.3912L271.04 52.2701C272.925 54.4798 274.998 57.0187 276.977 59.3695L263.36 67.2211ZM280.935 57.0657C280.935 53.8686 280.935 49.6372 280.935 48.6499C285.647 49.4962 288.522 49.9663 292.103 50.6245L280.935 57.0657ZM293.469 48.1797L286.213 39.5288C289.134 37.8362 291.349 36.5668 293.469 35.3444V48.1797ZM293.469 30.7838L284.375 29.1853L288.428 17.9955C288.71 17.8075 288.145 18.1366 293.422 15.1276V30.7838H293.469ZM293.469 12.4947L289.653 14.7044C291.019 10.9432 291.16 10.567 291.537 9.53268L286.448 5.25423H293.469V12.4947ZM291.82 2.99748H283.763L283.48 2.76241L274.668 -4.61908L283.81 -12.2827H291.867C294.129 -3.53772 294.082 -5.51238 291.82 2.99748ZM293.469 -14.5394H286.401L291.49 -18.8179L289.606 -24.0366C291.585 -22.9082 292.668 -22.297 293.469 -21.8269V-14.5394ZM293.469 -24.4128C292.197 -25.118 290.407 -26.1523 288.38 -27.3277L284.328 -38.4705C287.202 -38.9877 290.407 -39.5519 293.469 -40.069V-24.4128ZM293.469 -44.6766L286.166 -48.861C287.626 -50.5536 288.804 -52.0111 293.469 -57.5119V-44.6766Z" fill="url(#paint3_linear_401_10)"/>
<path opacity="0.58" d="M98.7291 66.9326C92.2265 70.6939 1.52008 122.928 -1.16577 124.48C-1.16577 130.216 -1.16577 233.886 -1.16577 239.528C3.16929 242.02 94.1584 294.442 98.7291 297.075C99.0118 296.934 197.116 240.421 198.624 239.528C198.624 225.611 198.624 136.375 198.624 124.48C194.148 121.894 101.509 68.5782 98.7291 66.9326ZM191.933 126.69L180.718 128.664V120.249L191.933 126.69ZM178.504 244.511C176.43 242.067 174.263 239.434 172.331 237.13L174.781 234.215L178.504 234.873V244.511ZM178.504 232.616L173.886 231.817L170.87 235.437C170.21 234.638 169.928 234.309 167.854 231.817L163.237 232.616V227.962L159.137 225.611C160.08 224.483 161.069 223.307 162.153 221.991L160.551 217.571C163.614 217.054 164.132 216.96 165.169 216.772L166.771 212.4C168.844 213.622 169.786 214.139 170.823 214.75L174.922 212.4C175.017 212.682 176.43 216.584 176.572 216.96C177.467 216.96 176.666 216.866 181.142 217.665C180.247 220.063 179.917 221.051 179.54 222.085L182.556 225.705L178.504 228.056V232.616ZM169.362 237.177L163.19 244.558V234.967L166.912 234.309C166.912 234.262 168.326 235.908 169.362 237.177ZM135.153 241.926L136.755 232.805L140.289 238.917L145.708 237.976C144.766 239.105 143.588 240.515 142.174 242.208L145.708 248.32L136.991 245.17L137.415 242.772L135.153 241.926ZM98.7291 273.896L94.6296 276.247C94.5354 275.965 93.1218 272.063 92.9804 271.687C92.0851 271.687 92.8862 271.781 88.3626 270.981C89.3521 268.301 89.5406 267.737 89.9647 266.562L86.949 262.989L91.0014 260.638V255.936C91.0485 255.936 93.0275 256.312 95.6191 256.736L98.6348 253.115C99.106 253.68 100.19 254.949 101.651 256.736L106.268 255.936V260.591L110.368 262.942C109.425 264.023 108.907 264.681 107.352 266.562L108.954 270.981C105.891 271.499 105.373 271.593 104.336 271.781L102.734 276.153C100.755 275.072 99.8128 274.508 98.7291 273.896ZM102.027 278.363L98.7291 287.39C97.6453 284.381 96.4673 281.184 95.4307 278.363L98.7291 276.435C99.6244 276.999 100.755 277.658 102.027 278.363ZM65.2737 259.133L69.3261 252.128C71.1166 252.457 73.9438 252.927 75.8287 253.256L83.5092 262.377C79.1742 264.869 76.1114 266.609 73.1899 268.301L66.6402 267.173L65.2737 259.557L65.3208 259.51L65.2737 259.133ZM60.5146 245.123L51.8445 248.273L55.3785 242.161L51.8445 237.929L57.2633 238.87L60.7973 232.758L62.3994 241.832L60.0905 242.772L60.5146 245.123ZM34.3158 244.511C32.2425 242.067 30.0749 239.434 28.143 237.13L30.5933 234.215L34.3158 234.873V244.511ZM34.3158 232.616L29.698 231.817L26.6823 235.437L23.6666 231.817L19.0488 232.616V227.962L14.9493 225.611C15.8917 224.483 16.5985 223.636 17.965 221.991L16.3629 217.571C19.4258 217.054 19.9912 216.913 20.9807 216.772L22.5828 212.4C23.8551 213.105 25.3629 213.998 26.6352 214.75L30.7346 212.4C30.7817 212.588 32.2896 216.678 32.3838 216.96C33.2791 216.96 32.4781 216.866 37.0016 217.665C36.0121 220.439 35.8236 220.91 35.3995 222.085L38.4152 225.705L34.3629 228.056V232.616H34.3158ZM18.9074 119.449C20.9807 121.894 23.1483 124.527 25.0802 126.831L22.6299 129.746L18.9074 129.088V119.449ZM18.9074 131.391L23.5252 132.191L26.5409 128.57L29.5566 132.191L34.1744 131.391V136.046L38.2738 138.397C37.143 139.713 36.1063 140.983 35.2582 142.017L36.8602 146.436C33.7503 147.001 33.5618 147.001 32.2425 147.236L30.6404 151.608C28.6613 150.48 27.6247 149.869 26.588 149.257L22.4886 151.608C22.3472 151.279 20.9336 147.377 20.8394 147.048C19.9441 147.048 20.7451 147.142 16.2216 146.342C17.0697 143.992 17.4467 143.051 17.8237 141.923L14.808 138.35L18.8603 135.999V131.391H18.9074ZM28.0488 126.831L34.2215 119.449V129.041L30.499 129.699L28.0488 126.831ZM62.3051 122.082L60.7031 131.203L57.1691 125.044L51.7502 125.985C53.3523 124.104 53.9178 123.446 55.2842 121.753L51.7502 115.641L60.4675 118.791L60.0434 121.189L62.3051 122.082ZM65.2737 104.451L66.6402 96.7877L73.1428 95.6593L83.5092 101.63L75.8758 110.704L69.3732 111.833L65.3208 104.78L65.2737 104.451ZM98.682 90.1114L102.781 87.7606C103.347 89.3592 104.384 92.0861 104.431 92.3212C105.326 92.3212 104.525 92.2271 109.001 93.0264C108.153 95.3772 107.776 96.3175 107.399 97.4459L110.415 101.019L106.363 103.37V108.071C106.315 108.071 104.431 107.742 101.745 107.272L98.7291 110.892L95.7134 107.272L91.0956 108.071V103.417L86.9961 101.066C87.9386 99.9377 89.1166 98.5743 90.0118 97.4459L88.4098 93.0264C91.4726 92.5092 92.038 92.3682 93.0275 92.2271L94.6296 87.8547C95.949 88.5599 97.3155 89.3592 98.682 90.1114ZM95.3835 85.5979L98.682 76.5709C99.7657 79.5799 100.944 82.777 101.98 85.5979L98.682 87.5256C97.7867 87.0084 96.6558 86.3502 95.3835 85.5979ZM135.012 134.588L131.006 141.547L123.326 139.478L117.719 133.883L121.771 126.878L132.985 122.787L134.965 134.118L134.917 134.165L135.012 134.588ZM136.991 118.838L145.661 115.688L142.127 121.8L145.661 126.032L140.242 125.091L136.755 131.109L135.153 122.035L137.415 121.189L136.991 118.838ZM163.142 119.449C165.216 121.894 167.383 124.527 169.315 126.831L166.865 129.746L163.142 129.088V119.449ZM163.142 131.344L167.76 132.144L170.776 128.523L173.792 132.144L178.409 131.344V135.999L182.509 138.35C181.755 139.243 181.331 139.76 179.493 141.97L181.095 146.389C178.032 146.907 177.514 147.001 176.477 147.189L174.875 151.561C173.744 150.903 172.378 150.151 170.823 149.21L166.724 151.561C164.744 146.107 165.734 148.787 165.074 147.001C164.179 147.001 164.98 147.095 160.504 146.295C161.682 143.051 161.587 143.38 162.106 141.876L159.043 138.397L163.095 136.046V131.344H163.142ZM172.284 126.831L178.456 119.449V129.041L174.734 129.699L172.284 126.831ZM169.598 166.136L167.336 172.342H159.231L158.949 172.107H158.902L152.917 167.123C153.389 165.76 154.237 163.55 155.179 160.917L155.368 160.776L165.498 154.946C166.818 158.472 168.326 162.61 169.598 166.136ZM165.546 209.062C161.446 206.711 158.148 204.783 155.226 203.138L152.964 196.884L158.902 191.901L159.184 191.666H167.336C167.807 193.029 168.655 195.239 169.598 197.872L165.546 209.062ZM170.823 201.163C171.907 204.172 173.085 207.369 174.121 210.19L170.823 212.118C169.928 211.6 168.797 210.942 167.525 210.237L170.823 201.163ZM108.624 253.256V241.361L112.865 236.284L120.546 239.058L124.598 246.11C124.551 246.157 122.195 248.978 120.357 251.188L108.624 253.256ZM118.095 253.915C114.609 258.052 113.478 259.415 111.923 261.249L108.624 259.321V255.56L118.095 253.915ZM112.158 233.651L108.624 237.882V232.381L102.452 230.125L108.624 228.479V218.982L113.383 227.21L118.991 225.705L114.891 229.795L118.472 235.955L112.158 233.651ZM98.7291 249.683C96.3259 246.815 93.4987 243.43 91.0485 240.562C91.0485 239.951 91.0485 235.155 91.0485 233.933L98.7291 231.159L106.41 233.933V240.562L98.7291 249.683ZM106.363 244.041V253.633L102.64 254.291C101.745 253.256 101.085 252.457 100.19 251.376L106.363 244.041ZM77.0538 251.188L72.813 246.11L76.8653 239.058L84.5459 236.284L88.7867 241.361C88.7867 242.866 88.7867 251.799 88.7867 253.256C84.0747 252.457 80.682 251.846 77.0538 251.188ZM88.7867 255.56V259.368L85.4883 261.249L79.3156 253.868C81.86 254.338 82.6611 254.479 88.7867 255.56ZM85.2527 233.651L78.9857 235.908L82.5197 229.748L78.4674 225.705L84.0276 227.21L88.7867 218.982V228.479L94.9595 230.125L88.7867 232.381V237.882L85.2527 233.651ZM27.8603 197.872L30.122 191.666H38.2738L38.5566 191.901L44.5408 196.884C44.0696 198.248 43.2215 200.458 42.2791 203.09L42.0906 203.232L31.9597 209.062C30.6404 205.535 29.1325 201.398 27.8603 197.872ZM29.9336 210.19L26.6352 212.118C25.7399 211.6 24.609 210.942 23.3367 210.237L26.6352 201.21C27.766 204.172 28.8969 207.369 29.9336 210.19ZM31.8655 154.946C35.1168 156.827 38.8864 158.99 42.1848 160.87L44.4466 167.123L38.1796 172.342H30.0278C29.5566 170.979 28.7084 168.769 27.766 166.136L31.8655 154.946ZM26.588 162.845C25.5043 159.836 24.3263 156.639 23.2896 153.818L26.588 151.89C27.4833 152.407 28.6142 153.066 29.8864 153.771L26.588 162.845ZM88.7867 110.751V122.646L84.5459 127.724L76.8653 124.95L72.813 117.898C73.7554 116.816 75.2632 114.983 77.0538 112.82L88.7867 110.751ZM79.2684 110.093L85.4412 102.759L88.7396 104.639V108.401L79.2684 110.093ZM85.2056 130.357L88.7396 126.126V131.626L94.9123 133.883L88.7867 135.529V145.026L84.0276 136.798L78.4203 138.303L82.5197 134.212L78.9386 128.053L85.2056 130.357ZM98.682 114.325C101.085 117.193 103.912 120.578 106.363 123.446C106.363 124.057 106.363 128.852 106.363 130.075L98.682 132.849L91.0014 130.075V123.446L98.682 114.325ZM91.0485 119.919V110.328L94.771 109.67L97.2212 112.585L91.0485 119.919ZM120.357 112.82L124.598 117.898L120.546 124.95L112.865 127.724L108.624 122.646C108.624 121.142 108.624 112.209 108.624 110.751C113.619 111.598 117.247 112.256 120.357 112.82ZM108.624 108.448V104.639L111.923 102.759L118.095 110.14C114.986 109.576 114.609 109.482 108.624 108.448ZM111.64 129.746L112.535 129.041L111.64 129.746L112.158 130.357L118.472 128.053L114.891 134.212L118.944 138.256L113.383 136.751L108.624 144.979V135.482L102.452 133.836L108.577 131.579V126.079L111.64 129.746ZM137.368 134.541L141.42 127.536L147.923 128.664L155.603 137.785C151.174 140.324 148.064 142.111 145.284 143.709L138.734 142.581L137.368 134.965L137.415 134.918L137.368 134.541ZM158.195 146.013L148.724 144.321C151.033 143.004 151.928 142.487 157.064 139.525L159.514 142.44C159.137 143.427 158.713 144.65 158.195 146.013ZM159.703 148.599L163.472 149.257C163.755 150.01 163.896 150.433 164.792 152.831L156.451 157.626L159.703 148.599ZM151.409 129.323C154.001 129.793 155.792 130.075 160.881 130.968V134.776L157.582 136.657L151.409 129.323ZM145.708 146.107L157.441 148.176L153.389 159.366C153.059 159.554 153.718 159.178 147.687 162.657L141.42 157.438L140.006 149.445C141.232 148.693 143.305 147.518 145.708 146.107ZM155.368 172.107H148.3L146.792 177.655L145.284 172.107H135.766L144.012 167.358L142.362 161.199L147.404 165.431L152.163 162.704C150.797 166.465 150.656 166.841 150.279 167.876L155.368 172.107ZM152.211 201.351C149.242 199.658 148.582 199.282 147.404 198.577L142.362 202.808L144.012 196.649L135.766 191.901H145.284L146.792 186.353L148.3 191.901H155.415L150.326 196.179L152.211 201.351ZM98.7291 201.821L106.41 215.08V226.786L98.7762 228.808H98.7291H98.682L91.0956 226.786V215.033L98.7291 201.821ZM91.0485 210.519V197.825L95.1008 195.521L97.4097 199.517L91.0485 210.519ZM100.048 199.564L102.357 195.568L106.41 197.872V210.566L100.048 199.564ZM101.556 192.465L98.7291 197.308L95.949 192.465L91.0956 195.286V189.644H85.4883L88.3155 184.801L83.4621 182.027L88.3155 179.206L85.4883 174.364H91.0956V168.769L95.949 171.59L98.7291 166.747L101.556 171.59L106.41 168.769V174.364H112.017L109.19 179.206L114.043 182.027L109.19 184.801L112.017 189.644H106.41V195.239L101.556 192.465ZM55.0958 202.808L50.0539 198.577L45.2948 201.304C46.6612 197.59 46.8026 197.119 47.1796 196.132L42.0906 191.854H49.1586L50.6665 186.353L52.1743 191.901H61.6926L53.4466 196.649L55.0958 202.808ZM45.2005 162.61C48.122 164.302 48.8759 164.726 50.0068 165.384L55.0958 161.105L53.4466 167.311L61.6926 172.06H52.1743L50.6665 177.608L49.1586 172.06H42.0435L47.1324 167.782L45.2005 162.61ZM53.8706 189.644L51.7973 181.98L53.8706 174.317H65.6036L78.8915 181.98L65.6036 189.644H53.8706ZM85.1585 178.36L81.1532 180.664L70.1271 174.317H82.8496L85.1585 178.36ZM77.8077 161.105L88.8338 167.452V172.107H84.1689L77.8077 161.105ZM81.1532 183.297L85.1585 185.601L82.8496 189.644H70.1271L81.1532 183.297ZM84.1689 191.901H88.8338V196.555L77.8077 202.902L84.1689 191.901ZM98.7291 162.187L91.0485 148.928V137.221L98.6348 135.2H98.682L98.7762 135.153L106.41 137.174V148.881L98.7291 162.187ZM106.41 153.442V166.136L102.357 168.44L100.048 164.443L106.41 153.442ZM97.4097 164.443L95.1008 168.44L91.0485 166.136V153.442L97.4097 164.443ZM113.289 172.107H108.624V167.452L119.65 161.105L113.289 172.107ZM114.609 174.364H127.331L116.305 180.711L112.3 178.407L114.609 174.364ZM108.671 191.901H113.336L119.698 202.902L108.671 196.555V191.901ZM112.3 185.601L116.305 183.297L127.331 189.644H114.609L112.3 185.601ZM118.567 181.98L131.855 174.317H143.588L145.661 181.98L143.588 189.644H131.855L118.567 181.98ZM141.373 166.23L131.242 172.107H115.928L123.609 158.849L133.739 153.019L139.3 158.566V158.614L139.347 158.661L141.373 166.23ZM121.912 157.203L108.624 164.867V149.586L114.467 139.478L122.148 141.547L127.755 147.142L121.912 157.203ZM106.363 119.966C104.289 117.522 102.122 114.889 100.19 112.585L102.64 109.67C104.808 110.046 104.76 110.046 106.363 110.328V119.966ZM82.9438 139.431L88.7867 149.539V164.82L75.5459 157.203L69.703 147.095L75.3103 141.5L82.9438 139.431ZM81.5302 172.107H66.2161L56.0853 166.277L58.1586 158.614L63.7659 153.019L73.8967 158.849L81.5302 172.107ZM56.0382 157.438L49.7712 162.657C48.4989 161.952 46.4256 160.729 44.0225 159.319L39.9702 148.176C45.0592 147.283 49.5827 146.483 51.7502 146.107L57.4518 149.398L56.0382 157.438ZM41.8079 137.785C42.7031 136.704 48.4989 129.84 49.4413 128.711L55.9439 127.583L60.0434 134.635L58.6298 142.628L52.1272 143.757L41.8079 137.785ZM48.6874 144.368C45.5304 144.932 42.1377 145.496 39.1691 146.06L37.8498 142.487C38.2738 142.017 39.1691 140.936 40.3 139.572L48.6874 144.368ZM40.9597 157.579C38.1796 155.981 35.211 154.288 32.6194 152.784L33.8917 149.257C34.9283 149.069 36.2006 148.834 37.6613 148.599L40.9597 157.579ZM39.4047 174.364H47.4623L49.5356 182.027L47.4623 189.691H39.4047L39.122 189.456L30.3105 182.074L39.4047 174.364ZM41.0539 206.382L37.7555 215.409L33.9859 214.75C33.6561 213.81 33.5618 213.528 32.6665 211.177L41.0539 206.382ZM39.2162 217.948L48.6874 219.64C46.3785 220.957 45.4832 221.474 40.3471 224.436L37.8969 221.521C38.2738 220.533 38.745 219.311 39.2162 217.948ZM46.0487 234.685C43.1272 234.168 42.3733 234.027 36.5775 233.04V229.231L39.8759 227.351L46.0487 234.685ZM41.855 226.175C46.2843 223.636 49.3942 221.85 52.1743 220.251L58.724 221.38L60.1376 229.372L56.0382 236.425L49.5356 235.296L41.855 226.175ZM51.7502 217.9L40.0173 215.832L44.0696 204.642C44.3995 204.454 43.7398 204.83 49.7712 201.351L56.0382 206.57L57.4518 214.562C56.2266 215.315 54.1534 216.49 51.7502 217.9ZM56.0853 197.731L66.2161 191.901H81.5302L73.8967 205.159L63.7659 210.989L58.2057 205.394V205.347H58.1586L56.0853 197.731ZM75.5459 206.805L88.8338 199.141V214.421L82.9909 224.53L75.3103 222.461L69.6559 216.913L75.5459 206.805ZM91.0485 244.041C93.1218 246.486 95.2893 249.119 97.2212 251.423L94.771 254.338C92.5563 253.962 92.3207 253.915 91.0485 253.68V244.041ZM114.514 224.577L108.671 214.468V199.188L121.959 206.852L127.802 216.96L122.195 222.555L114.514 224.577ZM115.928 191.901H131.242L141.373 197.731L139.347 205.347L139.3 205.394V205.441L133.739 210.989L123.561 205.159L115.928 191.901ZM141.373 206.57L147.64 201.351C148.912 202.056 150.985 203.279 153.389 204.689L157.441 215.832C153.718 216.49 149.383 217.242 145.661 217.9L139.959 214.609L141.373 206.57ZM155.603 226.222C154.708 227.304 148.912 234.168 147.97 235.296L141.467 236.425L137.368 229.372L138.781 221.38C143.305 220.58 138.593 221.427 145.284 220.251L155.603 226.222ZM148.724 219.64C151.881 219.076 155.273 218.512 158.242 217.948L159.561 221.521C158.902 222.273 157.865 223.542 157.111 224.436L148.724 219.64ZM156.451 206.429C159.231 208.027 162.2 209.72 164.792 211.224L163.519 214.75C162.483 214.938 161.21 215.174 159.75 215.409L156.451 206.429ZM158.383 189.409L158.101 189.644H150.043L147.97 181.98L150.043 174.317H158.101L158.383 174.552H158.43L167.242 181.933L158.383 189.409ZM167.525 153.818L170.823 151.89C171.718 152.407 172.849 153.066 174.121 153.771L170.823 162.798C169.692 159.836 168.514 156.639 167.525 153.818ZM160.881 128.664C155.98 127.818 152.352 127.16 149.148 126.596L144.907 121.518L148.959 114.466L156.64 111.692L160.881 116.769C160.881 118.274 160.881 127.254 160.881 128.664ZM135.624 138.021L136.802 144.556L142.221 145.496C138.828 147.424 138.357 147.706 137.462 148.223L138.593 154.664L134.069 150.151L125.823 154.899L130.582 146.671L126.53 142.628L132.09 144.133L135.624 138.021ZM132.184 118.18L132.609 120.578L123.844 123.775L127.378 117.663L123.844 113.431L129.263 114.372L132.844 108.213L134.446 117.334L132.184 118.18ZM128.085 111.88L121.582 110.751L113.902 101.63C117.342 99.6556 121.205 97.3989 124.221 95.7063L130.771 96.8347L132.184 104.827L128.085 111.88ZM112.441 99.8437L109.991 96.9287C110.368 95.9414 110.792 94.719 111.31 93.3555L120.781 95.0481C118.143 96.5526 116.541 97.4929 112.441 99.8437ZM109.802 90.8167L106.033 90.1584C105.75 89.4532 105.703 89.2181 104.713 86.5852L113.054 81.7896L109.802 90.8167ZM91.3312 90.1584C90.2946 90.3465 89.0223 90.5816 87.5616 90.8167L84.2632 81.8366C87.0433 83.4352 90.0118 85.1277 92.6034 86.6323L91.3312 90.1584ZM87.4202 96.9287C86.8077 97.681 85.9595 98.6683 84.97 99.8437L76.5826 95.0481C79.7396 94.4839 83.1323 93.9197 86.1009 93.3555L87.4202 96.9287ZM68.1481 114.372L73.5669 113.431C72.2475 115.03 71.2109 116.252 70.0329 117.663L73.5669 123.775L64.8496 120.625L65.2737 118.227L63.012 117.381L64.614 108.307L68.1481 114.372ZM64.4727 122.834L75.6873 126.925L79.6925 133.883L74.0852 139.478L66.4046 141.547L62.3994 134.588L64.4727 122.834ZM65.3208 144.133L70.9282 142.628L66.8287 146.718L71.5878 154.946L63.3418 150.198L58.7711 154.758L59.902 148.27L55.1429 145.543L60.5617 144.603L61.7397 138.021L65.3208 144.133ZM52.5042 121.565C51.5617 122.646 50.0539 124.48 48.2633 126.643L36.5304 128.711V116.769L40.7712 111.692L48.4518 114.466L52.5042 121.565ZM36.4833 130.968L45.9544 129.323C42.5147 133.366 41.6194 134.494 39.7817 136.657L36.4833 134.776V130.968ZM16.6457 134.776L13.3473 136.657L7.17451 129.276C9.719 129.746 10.52 129.887 16.6457 130.921V134.776ZM15.2792 142.487C14.9022 143.474 14.4781 144.697 13.9598 146.06L4.48865 144.368C6.7033 143.098 7.83419 142.44 12.8289 139.572L15.2792 142.487ZM15.4677 148.599L19.2373 149.257C19.52 150.057 19.6142 150.245 20.5566 152.831L12.2164 157.626L15.4677 148.599ZM21.3106 154.946C22.5828 158.472 24.0907 162.61 25.41 166.136L23.1483 172.342H15.0907L14.7609 172.06H14.6666L8.72947 167.076C9.20068 165.713 10.0488 163.503 10.9912 160.87L11.1797 160.729L21.3106 154.946ZM24.7032 174.599L26.588 169.427C27.9074 173.047 28.0959 173.518 28.4728 174.599H35.588L28.52 180.523L26.6823 178.971L24.8446 180.523L17.7766 174.599H24.7032ZM26.6352 185.036L28.4728 183.485L35.5409 189.409H28.52L26.6352 194.581C25.3629 191.101 25.0802 190.349 24.7503 189.409H17.7294L24.7975 183.485L26.6352 185.036ZM23.1954 191.666C23.6666 193.029 24.5147 195.239 25.4571 197.872L21.3577 209.062C17.164 206.617 12.075 203.702 11.0384 203.138L8.77659 196.884L14.7137 191.901L14.9965 191.666H23.1954ZM20.5566 211.224L19.2844 214.75C18.2478 214.938 16.9755 215.174 15.5148 215.409L12.2164 206.429C15.0436 208.027 18.0122 209.72 20.5566 211.224ZM15.3734 221.521C14.6195 222.414 13.8656 223.354 12.9232 224.436L4.58289 219.64C7.73995 219.076 11.1326 218.512 14.1012 217.948L15.3734 221.521ZM13.4415 227.351L16.7399 229.231V232.993L7.26875 234.638C10.6614 230.642 11.6038 229.513 13.4415 227.351ZM25.1744 237.177L19.0017 244.558V234.967L22.7242 234.309L25.1744 237.177ZM36.5775 235.296C42.2319 236.284 45.4361 236.848 48.3104 237.365L52.5513 242.443L48.4989 249.495L48.122 249.636L40.8183 252.269L36.5775 247.191C36.5775 245.734 36.5775 236.754 36.5775 235.296ZM61.834 225.987L60.6559 219.452L55.2371 218.512C58.8183 216.443 59.1481 216.255 59.9963 215.785L58.8654 209.344L63.3889 213.857L71.635 209.109L66.8758 217.336L70.9282 221.38L65.368 219.875L61.834 225.987ZM66.4517 222.508L74.1323 224.577L79.7396 230.172L75.7344 237.13L64.5198 241.22L62.4465 229.513L66.4517 222.508ZM65.3208 245.781L64.8968 243.383L73.5669 240.233L70.0329 246.345L73.5669 250.577C71.8706 250.294 71.9648 250.294 68.1481 249.636L64.6612 255.654L63.0591 246.58L65.3208 245.781ZM84.97 264.164L87.4202 267.079C87.0433 268.066 86.6192 269.289 86.1009 270.652L76.6297 268.96C78.8443 267.69 79.8339 267.126 84.97 264.164ZM87.6087 273.191L91.3783 273.849C91.661 274.649 91.8024 274.978 92.6977 277.423L84.3574 282.218L87.6087 273.191ZM106.08 273.849C107.116 273.661 108.389 273.426 109.849 273.191L113.148 282.171C110.368 280.573 107.399 278.88 104.808 277.376L106.08 273.849ZM109.991 267.032C111.263 265.528 111.97 264.681 112.441 264.117L120.781 268.913C117.624 269.477 114.232 270.088 111.263 270.605L109.991 267.032ZM113.949 262.377C113.949 262.377 118.284 257.206 121.582 253.303L128.085 252.175L132.184 259.227L130.771 267.22L124.268 268.348L113.949 262.377ZM129.263 249.636L123.844 250.577C125.211 248.978 125.164 249.025 127.378 246.345L123.844 240.186L132.609 243.383L132.184 245.781L134.446 246.627L132.844 255.795L129.263 249.636ZM132.985 241.173L121.771 237.083L117.766 230.125L123.373 224.53L131.054 222.461L135.059 229.419L132.985 241.173ZM132.137 219.875L126.53 221.38L130.629 217.289L125.87 209.062L134.116 213.81L138.64 209.297L137.509 215.738L142.268 218.465C138.169 219.17 138.687 219.076 136.849 219.405L135.671 225.987L132.137 219.875ZM144.907 242.443C145.849 241.361 147.357 239.528 149.148 237.365L160.881 235.296V247.191L156.64 252.269L148.959 249.495L144.907 242.443ZM160.928 233.04L151.457 234.685C154.896 230.642 155.792 229.513 157.629 227.351L160.928 229.231V233.04ZM180.765 229.231L184.064 227.351L190.237 234.732C187.268 234.215 186.655 234.121 180.765 233.087V229.231ZM182.132 221.521C182.509 220.533 182.933 219.311 183.451 217.948L192.922 219.64C190.896 220.815 187.739 222.602 184.582 224.436L182.132 221.521ZM181.943 215.409L178.174 214.75C177.891 213.951 177.75 213.622 176.854 211.177L185.195 206.382L181.943 215.409ZM176.1 209.062C174.828 205.535 173.32 201.398 172.001 197.872L174.263 191.666H182.415L182.697 191.901L188.634 196.884C188.163 198.248 187.315 200.458 186.373 203.09L186.184 203.232L176.1 209.062ZM172.708 189.409L170.823 194.581C169.551 191.101 169.268 190.349 168.938 189.409H161.917L168.985 183.485L170.823 185.036L172.661 183.485L179.729 189.409H172.708ZM170.87 178.971L169.032 180.523L161.964 174.599H168.938L170.823 169.427C172.142 173 172.378 173.706 172.708 174.599H179.776L172.708 180.523L170.87 178.971ZM174.263 172.342C173.792 170.979 172.943 168.769 172.001 166.136L176.1 154.946C179.352 156.827 183.121 158.99 186.42 160.87L188.682 167.123L182.415 172.342H174.263ZM176.854 152.784L178.127 149.257C179.163 149.069 180.436 148.834 181.896 148.599L185.195 157.579C182.415 155.981 179.446 154.288 176.854 152.784ZM182.085 142.487C182.886 141.547 183.593 140.653 184.535 139.572L192.875 144.368C189.718 144.932 186.326 145.543 183.357 146.06L182.085 142.487ZM184.017 136.657L180.718 134.729V130.968L190.189 129.276C186.278 133.977 185.43 134.965 184.017 136.657ZM176.76 117.992L170.823 125.091C168.42 122.223 165.593 118.838 163.142 115.97C163.142 115.453 163.142 111.927 163.142 110.14L176.76 117.992ZM160.881 108.824V113.29L157.347 109.059L151.08 111.316L154.614 105.204L160.881 108.824ZM151.834 105.533L147.828 112.491L136.614 116.581L134.54 104.827L138.546 97.869C147.357 100.267 145.567 99.3265 151.834 105.533ZM137.415 95.3302L133.881 101.489L132.703 94.907L127.284 93.9667C129.546 92.6503 130.394 92.1801 131.148 91.757L137.415 95.3302ZM128.886 90.3935C127.331 91.2868 125.022 92.6033 123.844 93.3085L112.111 91.2398L115.268 82.5419L128.886 90.3935ZM111.263 80.2381L103.959 84.4225C102.734 81.0844 101.321 77.1821 100.096 73.7969L111.263 80.2381ZM97.3155 73.8439L93.4516 84.4695C91.1427 83.1531 88.5982 81.6956 86.148 80.2851L97.3155 73.8439ZM82.1428 82.5419L85.2998 91.2398C81.1532 91.9921 76.5355 92.7913 73.5198 93.3085L68.4779 90.3935L82.1428 82.5419ZM66.2633 91.71L70.08 93.9197L64.6612 94.86L63.4832 101.395L59.9491 95.2832L66.2633 91.71ZM58.8654 97.9161L62.9177 104.874L62.8706 105.251L60.8444 116.581L49.6298 112.538L45.5775 105.533C52.0329 99.0915 50.3837 100.173 58.8654 97.9161ZM42.7974 105.204L46.3314 111.363L40.0173 109.059L36.4833 113.29V108.871L42.7974 105.204ZM34.2215 110.14V115.97L26.5409 125.091C24.6561 122.881 22.5828 120.343 20.6038 117.992L34.2215 110.14ZM16.6457 120.296C16.6457 123.493 16.6457 127.724 16.6457 128.711C12.1692 127.912 8.91795 127.348 5.47818 126.737L16.6457 120.296ZM4.11169 129.182L11.3682 137.833C8.68235 139.384 6.37346 140.7 4.11169 142.017V129.182ZM4.11169 146.577L13.2059 148.176L9.15355 159.366C8.87083 159.554 9.38916 159.225 4.15881 162.234V146.577H4.11169ZM4.11169 164.867L7.92843 162.657C6.56194 166.418 6.42058 166.794 6.04362 167.829L11.1326 172.107H4.11169V164.867ZM5.80802 174.364H13.8185L14.1483 174.646H14.2425L23.054 182.027L14.2425 189.409L13.9127 189.644H5.80802C3.45201 180.852 3.49913 183.015 5.80802 174.364ZM4.11169 191.901H11.2268L6.13786 196.179L8.02267 201.398C6.09074 200.27 5.0541 199.705 4.11169 199.141V191.901ZM4.11169 201.727C5.38394 202.479 7.17451 203.467 9.20068 204.642L13.253 215.785C10.3787 216.302 7.12739 216.866 4.06457 217.383V201.727H4.11169ZM4.11169 221.991L11.4153 226.222C10.5672 227.21 5.61954 233.087 4.11169 234.92V221.991ZM5.47818 237.271L16.6928 235.296V243.759L5.47818 237.271ZM20.6509 246.016L26.6352 238.917C29.0383 241.785 31.8655 245.17 34.3158 248.038C34.3158 248.555 34.3158 252.081 34.3158 253.915L20.6509 246.016ZM36.5775 255.184V250.718L40.1115 254.949L46.3785 252.692L42.8445 258.851L36.5775 255.184ZM45.6246 258.475L49.6769 251.47L50.0539 251.329L60.8915 247.379L62.8706 258.71L62.8235 258.757L62.8706 259.133L58.8654 266.092C50.101 263.741 51.9858 264.775 45.6246 258.475ZM60.0434 268.725L63.5774 262.613L64.7554 269.148L70.1742 270.088C67.6768 271.499 66.9701 271.922 66.3104 272.298L60.0434 268.725ZM68.525 273.614C69.7973 272.909 71.5407 271.875 73.5669 270.699L85.2998 272.768L82.1428 281.466L68.525 273.614ZM86.148 283.77L93.4516 279.585C94.6767 282.923 96.0903 286.826 97.3155 290.211L86.148 283.77ZM100.096 290.164L103.959 279.491C106.268 280.808 108.813 282.265 111.263 283.723L100.096 290.164ZM115.268 281.466L112.111 272.768C115.834 272.11 120.169 271.357 123.891 270.699L128.933 273.614L115.268 281.466ZM131.148 272.298L127.331 270.088L132.75 269.148L133.928 262.519L137.462 268.678L131.148 272.298ZM138.546 266.092L134.493 259.086L136.567 247.379L147.781 251.47L151.834 258.475C145.425 264.869 147.074 263.835 138.546 266.092ZM154.614 258.757L151.08 252.645L157.347 254.902L160.881 250.671V255.09L154.614 258.757ZM163.19 253.868V248.038L170.87 238.917C172.755 241.126 174.828 243.665 176.807 246.016L163.19 253.868ZM180.765 243.712C180.765 240.515 180.765 236.284 180.765 235.296C185.477 236.143 188.352 236.613 191.933 237.271L180.765 243.712ZM193.299 234.826L186.043 226.175C188.964 224.483 191.179 223.213 193.299 221.991V234.826ZM193.299 217.43L184.205 215.832L188.257 204.642C188.54 204.454 187.975 204.783 193.252 201.774V217.43H193.299ZM193.299 199.141L189.483 201.351C190.849 197.59 190.99 197.214 191.367 196.179L186.278 191.901H193.299V199.141ZM191.65 189.644H183.593L183.31 189.409L174.498 182.027L183.64 174.364H191.697C193.959 183.109 193.912 181.134 191.65 189.644ZM193.299 172.107H186.231L191.32 167.829L189.435 162.61C191.415 163.738 192.498 164.349 193.299 164.82V172.107ZM193.299 162.234C192.027 161.528 190.237 160.494 188.21 159.319L184.158 148.176C187.032 147.659 190.237 147.095 193.299 146.577V162.234ZM193.299 141.97L185.996 137.785C187.456 136.093 188.634 134.635 193.299 129.135V141.97Z" fill="url(#paint4_linear_401_10)"/>
<g opacity="0.76" filter="url(#filter0_d_401_10)">
<path d="M87.2267 33.2151H82.9049L88.3448 28.6782L82.9049 24.1199H87.2052L89.0973 18.9195C88.9253 18.4487 87.3557 14.1686 85.8506 10.0168L79.4862 13.6763L82.0019 6.80674L74.7774 5.5441C76.39 4.62387 76.7985 4.38847 81.1418 1.88459L75.0354 -5.37023L69.5525 -6.33326L67.4024 -2.63094L66.1768 -9.58615L59.4683 -7.12508L61.64 -10.8702L58.0492 -15.1075C56.3291 -15.4071 54.7595 -15.6853 48.6961 -16.7554V-9.45775C45.9869 -12.6678 44.9334 -13.9305 43.9658 -15.0647L39.257 -9.45775V-16.7554L29.9038 -15.1075C27.4957 -12.2612 28.0977 -12.9675 26.3346 -10.8702L28.5062 -7.10368L21.8193 -9.52195L20.5722 -2.52394L18.4006 -6.31186L12.9177 -5.34883C5.54268 3.40404 8.57439 -0.212671 4.94064 4.11026L5.92971 6.82814C6.23073 7.64137 6.12322 7.34176 6.40274 8.15498L8.42388 13.6763C4.76863 11.5791 3.47854 10.8301 2.08095 10.0382L-1.16577 18.9195C-0.649736 20.3105 0.18882 22.6218 0.726357 24.1199H5.11265L-0.305713 28.6568L5.13416 33.1937H0.790861L-1.10127 38.3941C-0.0261942 41.326 1.07038 44.3221 2.14545 47.2968L8.50988 43.6373L5.99421 50.5069L13.2187 51.7695C11.7996 52.5827 11.5631 52.7325 6.85427 55.429L12.9607 62.6838C19.4756 63.8181 13.7132 62.8122 18.4436 63.6469L20.6152 59.9017L21.8408 66.857L28.5062 64.4387L26.3346 68.2052L29.9038 72.4425C31.6885 72.7635 33.7096 73.1059 39.257 74.0904V66.7714C41.9447 69.96 42.8262 71.0087 43.9873 72.3783L48.6961 66.7928V74.0904L58.0492 72.4425C58.6513 71.7149 59.3823 70.8589 61.6185 68.2052L59.4253 64.4387L66.1338 66.8784L67.3594 59.9017L69.531 63.6469L75.0139 62.6838C80.4108 56.3064 78.9917 57.9757 81.1203 55.4504L74.7559 51.7909C79.0132 51.0419 80.1312 50.8493 82.0019 50.5283L79.5077 43.6801C83.421 45.9271 84.3455 46.4621 85.8506 47.3182L89.0973 38.4155C88.6673 37.1101 87.8073 34.7774 87.2267 33.2151ZM86.1731 28.6568L80.7333 33.1937L80.5398 33.3435H75.5729L74.3043 28.6568L75.5729 23.9701H80.5183L80.7118 24.1199H80.7548L86.1731 28.6568ZM66.7358 55.6858L64.5427 51.9193L61.1025 52.8395L63.6181 50.3357L60.6724 45.2851L65.7468 48.217L68.5205 45.4563L67.8109 49.4154L70.7351 51.1061L67.4024 51.6839L66.7358 55.6858ZM37.8809 62.962L35.7092 60.3726L31.8605 61.7636L34.0536 57.9971L31.5379 55.5146L34.9567 56.4348L37.9024 51.3843V57.2267L41.6866 58.2325L37.8809 59.6021V62.962ZM20.5507 51.6625L17.218 51.0847C19.6046 49.715 19.0456 50.036 20.1422 49.394L19.4326 45.4349L22.2278 48.217L27.3022 45.2851L24.3565 50.3357L26.8721 52.8181L23.4534 51.8979L21.2603 55.6644L20.5507 51.6625ZM9.13343 34.7346H13.4982L14.4228 31.3105L15.3473 34.7346H21.1957L16.0999 37.6665L17.1105 41.4544L14.0143 38.8649L11.0901 40.5342C11.9286 38.2657 12.0361 37.9661 12.2511 37.3669L9.13343 34.7346ZM21.2387 1.62778L23.4319 5.4157L26.8936 4.49547L24.378 6.99935L27.3237 12.0499L22.2493 9.11801L19.4111 11.9215L20.1207 7.91957L17.1965 6.22892L20.5292 5.65111L21.2387 1.62778ZM50.0937 -5.62704L52.2654 -3.05896L56.1571 -4.4714L53.964 -0.683485L56.4581 1.82039L53.0394 0.900162L50.1152 5.95071V0.12974L46.3094 -0.876092L50.0937 -2.24573V-5.62704ZM67.4239 5.67251L70.7781 6.25032C68.7355 7.42736 68.3914 7.61997 67.8539 7.94098L68.5635 11.9001L65.7898 9.13941L60.7154 12.0713L63.6611 7.02075L61.167 4.53827L64.5857 5.4585L66.7143 1.64919L67.4239 5.67251ZM78.8627 22.579H74.4979L73.5733 25.9817L72.6487 22.579H66.7788L71.8532 19.6685L70.8426 15.8806L73.9388 18.4701L76.863 16.8008C76.0245 19.0693 75.917 19.4117 75.7019 19.9681L78.8627 22.579ZM69.015 42.9952L68.9935 43.0166V43.0594L65.5748 46.4835L59.3178 42.8882L54.609 34.756H64.0481L70.3051 38.3513L69.015 42.9952ZM58.4363 53.5458L53.7275 54.8084L50.1152 48.5808V39.1859L58.2858 43.8727L61.898 50.1003L58.4363 53.5458ZM43.9873 57.3765H43.9658L39.2785 56.1352V48.966L43.9873 40.8338L48.6961 48.966V56.1352L44.0088 57.3765H43.9873ZM29.5598 53.5458L26.0981 50.1003L29.7103 43.8727L37.8809 39.1859V48.5808L34.2686 54.8084L29.5598 53.5458ZM19.0026 43.0166L17.734 38.3299L23.9909 34.7346H33.4301L28.7213 42.8668L22.4643 46.4621L19.0241 43.038L19.0026 43.0166ZM23.6039 23.9701L31.7745 28.6568L23.6039 33.3435H16.4009L15.1323 28.6568L16.4009 23.9701C17.304 23.9701 22.7008 23.9701 23.6039 23.9701ZM19.0026 14.297L22.4643 10.8515L28.7213 14.4468C28.7858 14.5538 33.3011 22.3436 33.4301 22.579H23.9909L17.734 18.9837L19.0026 14.297ZM29.5598 3.78925L34.2686 2.52661L37.8809 8.7542V18.1277C33.0215 15.3456 34.4191 16.1374 29.7103 13.4409L26.1196 7.21335L29.5598 3.78925ZM39.2785 8.36899V1.17837L43.9443 -0.0628662H43.9658L44.0088 -0.0842667L48.6961 1.15697V8.32619L43.9873 16.4584L39.2785 8.36899ZM68.9935 14.297L69.015 14.3184L70.2621 18.9837L64.0051 22.579H54.566L59.2748 14.4468L65.5318 10.8515L68.9505 14.2756L68.9935 14.297ZM52.1793 33.3649H48.7176V36.8104L45.7289 35.0984L44.0088 38.0731L42.2887 35.0984L39.3 36.8104V33.3649H35.8167L37.5369 30.3903L34.5482 28.6782L37.5369 26.9662L35.8167 23.9915H39.2785V20.546L42.2672 22.258L43.9873 19.2833L45.7074 22.258L48.6961 20.546V23.9915H52.1578L50.4377 26.9662L53.4264 28.6782L50.4377 30.3903L52.1793 33.3649ZM31.1079 15.8378C33.9246 17.4643 32.613 16.6938 37.8809 19.7327V22.579H35.0212C34.0966 20.974 34.5482 21.7444 31.1079 15.8378ZM52.3514 26.4311L53.792 23.9701H61.6185L54.8455 27.865L52.3514 26.4311ZM52.9749 22.579H50.1152V19.7327L56.8882 15.8378L52.9749 22.579ZM46.2449 20.3533L44.8043 17.8923L48.7176 11.1511V18.9409L46.2449 20.3533ZM39.2785 11.1297L43.1917 17.8709L41.7511 20.332L39.2785 18.8981V11.1297ZM34.2256 23.9701L35.6662 26.4311L33.1936 27.865L26.4206 23.9701H34.2256ZM33.1721 29.47L35.6447 30.9039L34.2041 33.3649H26.3776L33.1721 29.47ZM35.0212 34.7346H37.8809V37.6023L31.1079 41.4972L35.0212 34.7346ZM39.2785 38.3941L41.7511 36.9603L43.1917 39.4213L39.2785 46.1625V38.3941ZM44.8043 39.4427L46.2449 36.9817L48.7176 38.4155V46.2053L44.8043 39.4427ZM50.1152 37.6023V34.756H52.9749L56.8882 41.4972L50.1152 37.6023ZM53.7705 33.3649L52.3299 30.9039L54.8025 29.47L61.5755 33.3649H53.7705ZM56.2216 28.6568L64.3922 23.9701H71.5952L72.8637 28.6568L71.5952 33.3435H64.3922L56.2216 28.6568ZM61.898 7.21335L58.2858 13.4409L50.1152 18.1277V8.7328L53.7275 2.52661L58.4363 3.78925L61.898 7.21335ZM37.8809 0.12974C37.8809 0.664755 37.8809 4.90208 37.8809 5.97211L34.9567 0.900162L31.4949 1.82039L34.0106 -0.683485L31.8175 -4.4714L35.6877 -3.08036L37.8809 -5.66984V-2.28853L41.6866 -0.918893L37.8809 0.12974ZM21.1957 22.579C20.6582 22.579 16.4009 22.579 15.3258 22.579L14.4013 26.0031L13.4767 22.579H9.09042L12.2296 19.9681L11.0686 16.7794C12.7457 17.7425 13.2187 18.0207 14.0358 18.4701L17.175 15.8592L16.1429 19.6685L21.1957 22.579ZM50.1152 57.2053V51.3629L53.0609 56.4134L56.5011 55.4932L53.9855 57.9971L56.1786 61.785L52.2869 60.3726L50.0937 62.962V59.5807L46.3094 58.2111L50.1152 57.2053ZM66.8003 34.7346H72.6702L73.5948 31.3319L74.5194 34.7346H78.9057L75.7664 37.3455L76.9275 40.5342C75.2504 39.5711 74.7129 39.2715 73.9603 38.8435L70.8641 41.4544L71.8747 37.6665L66.8003 34.7346ZM87.6352 18.9195L86.2377 22.7288H81.2493L81.0558 22.579H81.0128L77.3576 19.5187C77.6586 18.6841 78.1746 17.3145 78.7551 15.7094L78.8842 15.6452L85.1196 12.0713C85.9151 14.2328 86.8397 16.758 87.6352 18.9195ZM77.6371 14.7678C77.4436 14.8748 77.8306 14.6608 74.1323 16.7794L70.2836 13.5693L69.402 8.6472C70.3696 8.09078 71.9177 7.19195 72.9283 6.63554L80.1527 7.89817L77.6371 14.7678ZM70.2836 -4.77101L74.3043 -4.06479L79.0347 1.54218C76.906 2.76202 74.5194 4.13166 72.6702 5.20169L68.6495 4.49547L67.8109 -0.191271L67.8324 -0.212671L67.7894 -0.448078L70.2836 -4.77101ZM66.3273 -0.726286L66.3058 -0.704885L66.3488 -0.469479L63.8761 3.78925L59.1673 2.52661L55.7056 -0.918893L58.1998 -5.19902L65.1017 -7.7029L66.3273 -0.726286ZM57.3182 -13.8235L59.9414 -10.7204L57.4257 -6.39746L52.6954 -4.68541L50.0722 -7.7885V-15.1075C53.3404 -14.5297 55.125 -14.2301 57.3182 -13.8235ZM43.9873 -12.8819C45.4709 -11.1056 47.2125 -9.05114 48.6961 -7.27488V-3.20876L43.9873 -1.49671L39.2785 -3.20876V-7.27488L43.9873 -12.8819ZM30.6349 -13.8449L37.8594 -15.1075V-7.8099L35.2362 -4.70681L30.5059 -6.41886L27.9902 -10.7418C28.9148 -11.769 29.7318 -12.7534 30.6349 -13.8449ZM22.8944 -7.6601L29.7963 -5.17762L32.269 -0.918893L28.8073 2.52661L24.0984 3.78925L21.6258 -0.469479L22.8944 -7.6601ZM13.6487 -4.06479L17.6695 -4.77101L20.1852 -0.448078L19.3036 4.47407C9.58496 6.18612 11.0686 5.92931 7.3058 6.57133L6.51025 4.38847C9.67096 0.643356 5.45668 5.65111 13.6487 -4.06479ZM15.0463 6.63554L18.5726 8.6686L17.691 13.5907L13.8422 16.8008C13.0682 16.3514 11.7996 15.6238 10.2945 14.7678L7.80034 7.91957C8.61739 7.74837 14.2723 6.76394 15.0463 6.63554ZM0.317829 18.9195L2.8335 12.0499C4.76863 13.1627 9.17643 15.688 9.17643 15.688L10.574 19.5187L6.72526 22.7288H1.69392C1.4144 21.9156 0.898369 20.5246 0.317829 18.9195ZM7.47781 23.9701H12.4232L13.6917 28.6568L12.4232 33.3435H7.47781L1.84443 28.6568L7.47781 23.9701ZM0.360832 38.3941L1.75843 34.5848H6.76827L6.96178 34.7346L10.617 37.7949C10.316 38.6295 9.79997 39.9991 9.21943 41.6042C9.13343 41.647 2.96251 45.1995 2.855 45.2637C2.08095 43.1022 1.15639 40.577 0.360832 38.3941ZM10.359 42.5672C10.445 42.5244 13.7777 40.5984 13.8637 40.5556L17.7125 43.7657L18.5941 48.6878C17.648 49.2228 15.9279 50.2073 15.0678 50.6995L7.86484 49.4368L10.359 42.5672ZM17.7125 62.106C16.2934 61.8492 15.0678 61.6352 13.6917 61.3998L8.96141 55.7928C11.7566 54.1878 13.2832 53.3103 15.3258 52.1333L19.3466 52.8395L20.2282 57.7617L17.7125 62.106ZM21.6473 57.8045L24.1199 53.5458L28.8288 54.8084L32.2905 58.2539L29.8178 62.5126L22.9374 64.9951L21.6473 57.8045ZM37.8809 72.4425C34.7847 71.9075 33.0215 71.5865 30.6564 71.1799L28.0332 68.0768L30.5489 63.7539L35.2792 62.0418L37.9024 65.1449V72.4425H37.8809ZM43.9873 70.2169C42.5037 68.4406 40.7621 66.3861 39.257 64.6099V60.5438L43.9658 58.8317L48.6746 60.5438V64.6099L43.9873 70.2169ZM57.3182 71.1585L50.0937 72.4211V65.1235L52.7169 62.0204L57.4472 63.7325L59.9629 68.0554C59.3823 68.7402 58.4363 69.853 57.3182 71.1585ZM65.0802 64.9951L58.1783 62.4912L55.7056 58.2325L59.1673 54.787L63.8761 53.5244L66.3488 57.7831L65.0802 64.9951ZM74.3259 61.3998L70.3051 62.106L67.7894 57.7831L68.671 52.8609L72.6702 52.1547L79.0347 55.8142C78.0456 56.9699 78.2176 56.7773 74.3259 61.3998ZM72.9068 50.6995L69.3805 48.6664L70.2621 43.7443L74.1108 40.5342C74.8849 40.9836 76.1535 41.7112 77.6586 42.5672L80.1527 49.4154C77.8736 49.8434 75.2074 50.2929 72.9068 50.6995ZM85.1411 45.2851C83.1414 44.1295 80.7978 42.8026 78.7981 41.647L77.4006 37.8163L81.0558 34.756L81.2493 34.6062H86.2592C86.5602 35.4408 87.0762 36.8104 87.6568 38.4155L85.1411 45.2851Z" fill="url(#paint5_linear_401_10)"/>
</g>
<path opacity="0.1" d="M244.574 131.436H242.65L245.072 129.429L242.65 127.412H244.564L245.407 125.111C245.33 124.903 244.631 123.009 243.961 121.172L241.128 122.791L242.248 119.752L239.032 119.193C239.75 118.786 239.932 118.682 241.865 117.574L239.147 114.365L236.707 113.939L235.75 115.577L235.204 112.499L232.218 113.588L233.185 111.931L231.586 110.057C230.821 109.924 230.122 109.801 227.423 109.328V112.556C226.217 111.136 225.748 110.577 225.318 110.076L223.222 112.556V109.328L219.058 110.057C217.986 111.316 218.254 111.004 217.47 111.931L218.436 113.598L215.46 112.528L214.905 115.624L213.938 113.948L211.497 114.374C208.215 118.247 209.564 116.647 207.947 118.559L208.387 119.762C208.521 120.121 208.473 119.989 208.597 120.349L209.497 122.791C207.87 121.863 207.296 121.532 206.674 121.182L205.229 125.111C205.458 125.726 205.831 126.749 206.071 127.412H208.023L205.611 129.419L208.033 131.426H206.099L205.257 133.727C205.736 135.024 206.224 136.35 206.702 137.666L209.535 136.047L208.416 139.086L211.631 139.645C211 140.004 210.894 140.071 208.798 141.264L211.517 144.473C214.416 144.975 211.851 144.53 213.957 144.9L214.924 143.243L215.469 146.32L218.436 145.25L217.47 146.916L219.058 148.791C219.853 148.933 220.752 149.084 223.222 149.52V146.282C224.418 147.693 224.81 148.157 225.327 148.763L227.423 146.291V149.52L231.586 148.791C231.854 148.469 232.18 148.09 233.175 146.916L232.199 145.25L235.185 146.329L235.731 143.243L236.697 144.9L239.138 144.473C241.54 141.652 240.908 142.39 241.856 141.273L239.023 139.654C240.918 139.323 241.416 139.238 242.248 139.096L241.138 136.066C242.88 137.06 243.291 137.297 243.961 137.675L245.407 133.737C245.215 133.159 244.832 132.127 244.574 131.436ZM244.105 129.419L241.684 131.426L241.597 131.493H239.387L238.822 129.419L239.387 127.346H241.588L241.674 127.412H241.693L244.105 129.419ZM235.453 141.377L234.477 139.711L232.945 140.118L234.065 139.01L232.754 136.776L235.013 138.073L236.247 136.852L235.932 138.603L237.233 139.351L235.75 139.607L235.453 141.377ZM222.609 144.597L221.642 143.451L219.929 144.066L220.905 142.4L219.786 141.302L221.307 141.709L222.619 139.474V142.059L224.303 142.504L222.609 143.11V144.597ZM214.895 139.597L213.412 139.342C214.474 138.736 214.225 138.878 214.713 138.594L214.397 136.842L215.642 138.073L217.9 136.776L216.589 139.01L217.709 140.109L216.187 139.702L215.211 141.368L214.895 139.597ZM209.813 132.108H211.756L212.167 130.593L212.579 132.108H215.182L212.914 133.405L213.364 135.081L211.985 133.935L210.684 134.674C211.057 133.67 211.105 133.538 211.201 133.273L209.813 132.108ZM215.201 117.461L216.177 119.137L217.718 118.73L216.599 119.837L217.91 122.072L215.651 120.775L214.388 122.015L214.704 120.244L213.402 119.496L214.885 119.241L215.201 117.461ZM228.045 114.251L229.012 115.387L230.744 114.762L229.768 116.438L230.878 117.546L229.356 117.139L228.055 119.373V116.798L226.361 116.353L228.045 115.747V114.251ZM235.759 119.25L237.252 119.506C236.343 120.027 236.19 120.112 235.951 120.254L236.267 122.006L235.032 120.784L232.773 122.081L234.084 119.847L232.974 118.748L234.496 119.156L235.443 117.47L235.759 119.25ZM240.851 126.73H238.908L238.497 128.236L238.085 126.73H235.472L237.731 125.442L237.281 123.767L238.659 124.912L239.961 124.174C239.588 125.177 239.54 125.329 239.444 125.575L240.851 126.73ZM236.468 135.763L236.458 135.772V135.791L234.936 137.306L232.151 135.715L230.055 132.118H234.257L237.042 133.708L236.468 135.763ZM231.759 140.431L229.663 140.989L228.055 138.234V134.077L231.692 136.151L233.3 138.906L231.759 140.431ZM225.327 142.125H225.318L223.231 141.576V138.404L225.327 134.806L227.423 138.404V141.576L225.337 142.125H225.327ZM218.905 140.431L217.364 138.906L218.972 136.151L222.609 134.077V138.234L221.001 140.989L218.905 140.431ZM214.206 135.772L213.641 133.699L216.426 132.108H220.628L218.532 135.706L215.747 137.297L214.215 135.782L214.206 135.772ZM216.254 127.346L219.891 129.419L216.254 131.493H213.048L212.483 129.419L213.048 127.346C213.45 127.346 215.852 127.346 216.254 127.346ZM214.206 123.066L215.747 121.542L218.532 123.132C218.561 123.18 220.57 126.626 220.628 126.73H216.426L213.641 125.139L214.206 123.066ZM218.905 118.417L221.001 117.858L222.609 120.614V124.761C220.446 123.53 221.068 123.88 218.972 122.687L217.374 119.932L218.905 118.417ZM223.231 120.443V117.262L225.308 116.713H225.318L225.337 116.703L227.423 117.252V120.424L225.327 124.022L223.231 120.443ZM236.458 123.066L236.468 123.075L237.023 125.139L234.238 126.73H230.036L232.132 123.132L234.917 121.542L236.439 123.056L236.458 123.066ZM228.974 131.502H227.433V133.026L226.102 132.269L225.337 133.585L224.571 132.269L223.241 133.026V131.502H221.69L222.456 130.186L221.126 129.429L222.456 128.671L221.69 127.355H223.231V125.831L224.561 126.588L225.327 125.272L226.093 126.588L227.423 125.831V127.355H228.964L228.198 128.671L229.529 129.429L228.198 130.186L228.974 131.502ZM219.594 123.748C220.848 124.467 220.264 124.126 222.609 125.471V126.73H221.336C220.925 126.02 221.126 126.361 219.594 123.748ZM229.05 128.434L229.691 127.346H233.175L230.16 129.069L229.05 128.434ZM229.328 126.73H228.055V125.471L231.07 123.748L229.328 126.73ZM226.332 125.745L225.691 124.657L227.433 121.674V125.121L226.332 125.745ZM223.231 121.665L224.973 124.647L224.332 125.736L223.231 125.102V121.665ZM220.982 127.346L221.623 128.434L220.523 129.069L217.508 127.346H220.982ZM220.513 129.779L221.614 130.413L220.972 131.502H217.489L220.513 129.779ZM221.336 132.108H222.609V133.377L219.594 135.1L221.336 132.108ZM223.231 133.727L224.332 133.093L224.973 134.182L223.231 137.164V133.727ZM225.691 134.191L226.332 133.102L227.433 133.737V137.183L225.691 134.191ZM228.055 133.377V132.118H229.328L231.07 135.1L228.055 133.377ZM229.682 131.502L229.041 130.413L230.141 129.779L233.156 131.502H229.682ZM230.773 129.419L234.41 127.346H237.616L238.181 129.419L237.616 131.493H234.41L230.773 129.419ZM233.3 119.932L231.692 122.687L228.055 124.761V120.604L229.663 117.858L231.759 118.417L233.3 119.932ZM222.609 116.798C222.609 117.035 222.609 118.909 222.609 119.383L221.307 117.139L219.767 117.546L220.886 116.438L219.91 114.762L221.633 115.378L222.609 114.232V115.728L224.303 116.334L222.609 116.798ZM215.182 126.73C214.943 126.73 213.048 126.73 212.569 126.73L212.158 128.245L211.746 126.73H209.794L211.191 125.575L210.674 124.164C211.421 124.59 211.631 124.713 211.995 124.912L213.392 123.757L212.933 125.442L215.182 126.73ZM228.055 142.05V139.465L229.366 141.699L230.897 141.292L229.778 142.4L230.754 144.076L229.021 143.451L228.045 144.597V143.101L226.361 142.495L228.055 142.05ZM235.482 132.108H238.095L238.506 130.603L238.918 132.108H240.87L239.473 133.263L239.99 134.674C239.243 134.248 239.004 134.115 238.669 133.926L237.291 135.081L237.74 133.405L235.482 132.108ZM244.756 125.111L244.134 126.796H241.913L241.827 126.73H241.808L240.181 125.376C240.315 125.007 240.545 124.401 240.803 123.691L240.86 123.662L243.636 122.081C243.99 123.038 244.402 124.155 244.756 125.111ZM240.305 123.274C240.219 123.322 240.392 123.227 238.745 124.164L237.032 122.744L236.64 120.566C237.07 120.32 237.76 119.923 238.209 119.676L241.425 120.235L240.305 123.274ZM237.032 114.63L238.822 114.942L240.927 117.423C239.98 117.963 238.918 118.569 238.095 119.042L236.305 118.73L235.932 116.656L235.941 116.647L235.922 116.542L237.032 114.63ZM235.271 116.419L235.262 116.429L235.281 116.533L234.18 118.417L232.084 117.858L230.543 116.334L231.653 114.44L234.726 113.333L235.271 116.419ZM231.261 110.625L232.429 111.998L231.309 113.91L229.203 114.668L228.036 113.295V110.057C229.49 110.312 230.285 110.445 231.261 110.625ZM225.327 111.041C225.988 111.827 226.763 112.736 227.423 113.522V115.321L225.327 116.078L223.231 115.321V113.522L225.327 111.041ZM219.384 110.615L222.599 110.057V113.285L221.432 114.658L219.326 113.901L218.206 111.988C218.618 111.534 218.982 111.098 219.384 110.615ZM215.938 113.352L219.01 114.45L220.111 116.334L218.57 117.858L216.474 118.417L215.374 116.533L215.938 113.352ZM211.823 114.942L213.613 114.63L214.732 116.542L214.34 118.72C210.014 119.478 210.674 119.364 208.999 119.648L208.645 118.682C210.052 117.025 208.176 119.241 211.823 114.942ZM212.445 119.676L214.014 120.576L213.622 122.753L211.909 124.174C211.564 123.975 211 123.653 210.33 123.274L209.22 120.244C209.583 120.169 212.1 119.733 212.445 119.676ZM205.889 125.111L207.009 122.072C207.87 122.564 209.832 123.681 209.832 123.681L210.454 125.376L208.741 126.796H206.501C206.377 126.437 206.147 125.821 205.889 125.111ZM209.076 127.346H211.277L211.842 129.419L211.277 131.493H209.076L206.568 129.419L209.076 127.346ZM205.908 133.727L206.53 132.042H208.76L208.846 132.108L210.473 133.462C210.339 133.831 210.11 134.437 209.851 135.147C209.813 135.166 207.066 136.738 207.018 136.766C206.674 135.81 206.262 134.693 205.908 133.727ZM210.358 135.573C210.397 135.554 211.88 134.702 211.918 134.683L213.632 136.104L214.024 138.281C213.603 138.518 212.837 138.954 212.454 139.171L209.248 138.613L210.358 135.573ZM213.632 144.218C213 144.104 212.454 144.01 211.842 143.905L209.736 141.425C210.981 140.715 211.66 140.326 212.569 139.806L214.359 140.118L214.751 142.296L213.632 144.218ZM215.383 142.315L216.484 140.431L218.58 140.989L220.121 142.514L219.02 144.398L215.957 145.496L215.383 142.315ZM222.609 148.791C221.231 148.554 220.446 148.412 219.393 148.232L218.226 146.859L219.345 144.947L221.451 144.189L222.619 145.562V148.791H222.609ZM225.327 147.806C224.667 147.02 223.892 146.111 223.222 145.326V143.527L225.318 142.769L227.414 143.527V145.326L225.327 147.806ZM231.261 148.223L228.045 148.781V145.553L229.213 144.18L231.318 144.937L232.438 146.85C232.18 147.153 231.759 147.645 231.261 148.223ZM234.716 145.496L231.644 144.388L230.543 142.504L232.084 140.98L234.18 140.421L235.281 142.305L234.716 145.496ZM238.831 143.905L237.042 144.218L235.922 142.305L236.314 140.128L238.095 139.815L240.927 141.434C240.487 141.945 240.564 141.86 238.831 143.905ZM238.2 139.171L236.63 138.272L237.023 136.094L238.736 134.674C239.08 134.873 239.645 135.195 240.315 135.573L241.425 138.603C240.411 138.793 239.224 138.991 238.2 139.171ZM243.646 136.776C242.756 136.265 241.712 135.678 240.822 135.166L240.2 133.471L241.827 132.118L241.913 132.051H244.143C244.277 132.42 244.507 133.026 244.765 133.737L243.646 136.776Z" fill="url(#paint6_linear_401_10)"/>
</g>
</g>
<rect x="-1.16589" y="-79" width="240.166" height="239" fill="url(#paint7_linear_401_10)"/>
<defs>
<filter id="filter0_d_401_10" x="-3.49748" y="-16.7554" width="94.9265" height="95.5091" filterUnits="userSpaceOnUse" color-interpolation-filters="sRGB">
<feFlood flood-opacity="0" result="BackgroundImageFix"/>
<feColorMatrix in="SourceAlpha" type="matrix" values="0 0 0 0 0 0 0 0 0 0 0 0 0 0 0 0 0 0 127 0" result="hardAlpha"/>
<feOffset dy="2.33171"/>
<feGaussianBlur stdDeviation="1.16585"/>
<feComposite in2="hardAlpha" operator="out"/>
<feColorMatrix type="matrix" values="0 0 0 0 0 0 0 0 0 0 0 0 0 0 0 0 0 0 0.25 0"/>
<feBlend mode="normal" in2="BackgroundImageFix" result="effect1_dropShadow_401_10"/>
<feBlend mode="normal" in="SourceGraphic" in2="effect1_dropShadow_401_10" result="shape"/>
</filter>
<linearGradient id="paint0_linear_401_10" x1="6.41216" y1="-74.3366" x2="250.95" y2="176.322" gradientUnits="userSpaceOnUse">
<stop stop-color="#003649"/>
<stop offset="1" stop-color="#00212D"/>
</linearGradient>
<linearGradient id="paint1_linear_401_10" x1="6.41216" y1="-74.3366" x2="250.95" y2="176.322" gradientUnits="userSpaceOnUse">
<stop stop-color="#003649"/>
<stop offset="1" stop-color="#00212D"/>
</linearGradient>
<linearGradient id="paint2_linear_401_10" x1="110.756" y1="-79" x2="111.922" y2="160" gradientUnits="userSpaceOnUse">
<stop stop-color="#003649"/>
<stop offset="1" stop-color="#003649"/>
</linearGradient>
<linearGradient id="paint3_linear_401_10" x1="103.952" y1="-72.698" x2="256.267" y2="87.4932" gradientUnits="userSpaceOnUse">
<stop stop-color="#FFDC5D"/>
<stop offset="1" stop-color="#BD912D"/>
</linearGradient>
<linearGradient id="paint4_linear_401_10" x1="3.78185" y1="113.948" x2="156.097" y2="274.14" gradientUnits="userSpaceOnUse">
<stop stop-color="#FFDC5D"/>
<stop offset="0.169792" stop-color="#FFDC5D" stop-opacity="0.61"/>
<stop offset="1" stop-color="#BD912D"/>
</linearGradient>
<linearGradient id="paint5_linear_401_10" x1="18.293" y1="-10.3352" x2="83.1998" y2="101.642" gradientUnits="userSpaceOnUse">
<stop stop-color="#FFDC5D"/>
<stop offset="1" stop-color="#D69D2F"/>
</linearGradient>
<linearGradient id="paint6_linear_401_10" x1="213.89" y1="112.168" x2="242.519" y2="161.86" gradientUnits="userSpaceOnUse">
<stop stop-color="#FFDC5D"/>
<stop offset="1" stop-color="#D69D2F"/>
</linearGradient>
<linearGradient id="paint7_linear_401_10" x1="-1.16589" y1="-21.2902" x2="229.09" y2="168.161" gradientUnits="userSpaceOnUse">
<stop stop-color="#003649" stop-opacity="0"/>
<stop offset="1" stop-color="#00212D"/>
</linearGradient>
</defs>
</svg>
