<svg width="20" height="19" viewBox="0 0 20 19" fill="none" xmlns="http://www.w3.org/2000/svg">
<path d="M4.25 11.6255H15.75V10.1255H4.25V11.6255ZM4.25 8.62553H15.75V7.12553H4.25V8.62553ZM4.25 5.62553H15.75V4.12553H4.25V5.62553ZM19.5 18.914L15.9615 15.3755H2.30775C1.80258 15.3755 1.375 15.2005 1.025 14.8505C0.675 14.5005 0.5 14.0729 0.5 13.5678V2.18328C0.5 1.67811 0.675 1.25053 1.025 0.900526C1.375 0.550526 1.80258 0.375525 2.30775 0.375525H17.6923C18.1974 0.375525 18.625 0.550526 18.975 0.900526C19.325 1.25053 19.5 1.67811 19.5 2.18328V18.914ZM2.30775 13.8755H16.6L18 15.2603V2.18328C18 2.10628 17.9679 2.03577 17.9038 1.97177C17.8398 1.90761 17.7693 1.87553 17.6923 1.87553H2.30775C2.23075 1.87553 2.16025 1.90761 2.09625 1.97177C2.03208 2.03577 2 2.10628 2 2.18328V13.5678C2 13.6448 2.03208 13.7153 2.09625 13.7793C2.16025 13.8434 2.23075 13.8755 2.30775 13.8755Z" fill="white"/>
</svg>
