<svg width="18" height="20" viewBox="0 0 18 20" fill="none" xmlns="http://www.w3.org/2000/svg">
<path d="M5 11.6446C4.75517 11.6446 4.5465 11.5585 4.374 11.3861C4.20167 11.2136 4.1155 11.005 4.1155 10.7601C4.1155 10.5153 4.20167 10.3066 4.374 10.1341C4.5465 9.96163 4.75517 9.87538 5 9.87538C5.24483 9.87538 5.4535 9.96163 5.626 10.1341C5.79833 10.3066 5.8845 10.5153 5.8845 10.7601C5.8845 11.005 5.79833 11.2136 5.626 11.3861C5.4535 11.5585 5.24483 11.6446 5 11.6446ZM9 11.6446C8.75517 11.6446 8.5465 11.5585 8.374 11.3861C8.20167 11.2136 8.1155 11.005 8.1155 10.7601C8.1155 10.5153 8.20167 10.3066 8.374 10.1341C8.5465 9.96163 8.75517 9.87538 9 9.87538C9.24483 9.87538 9.4535 9.96163 9.626 10.1341C9.79833 10.3066 9.8845 10.5153 9.8845 10.7601C9.8845 11.005 9.79833 11.2136 9.626 11.3861C9.4535 11.5585 9.24483 11.6446 9 11.6446ZM13 11.6446C12.7552 11.6446 12.5465 11.5585 12.374 11.3861C12.2017 11.2136 12.1155 11.005 12.1155 10.7601C12.1155 10.5153 12.2017 10.3066 12.374 10.1341C12.5465 9.96163 12.7552 9.87538 13 9.87538C13.2448 9.87538 13.4535 9.96163 13.626 10.1341C13.7983 10.3066 13.8845 10.5153 13.8845 10.7601C13.8845 11.005 13.7983 11.2136 13.626 11.3861C13.4535 11.5585 13.2448 11.6446 13 11.6446ZM2.30775 19.2024C1.80258 19.2024 1.375 19.0274 1.025 18.6774C0.675 18.3274 0.5 17.8998 0.5 17.3946V4.01013C0.5 3.50496 0.675 3.07738 1.025 2.72738C1.375 2.37738 1.80258 2.20238 2.30775 2.20238H3.69225V0.0871277H5.23075V2.20238H12.8077V0.0871277H14.3077V2.20238H15.6923C16.1974 2.20238 16.625 2.37738 16.975 2.72738C17.325 3.07738 17.5 3.50496 17.5 4.01013V17.3946C17.5 17.8998 17.325 18.3274 16.975 18.6774C16.625 19.0274 16.1974 19.2024 15.6923 19.2024H2.30775ZM2.30775 17.7024H15.6923C15.7692 17.7024 15.8398 17.6703 15.9038 17.6061C15.9679 17.5421 16 17.4716 16 17.3946V8.01013H2V17.3946C2 17.4716 2.03208 17.5421 2.09625 17.6061C2.16025 17.6703 2.23075 17.7024 2.30775 17.7024ZM2 6.51013H16V4.01013C16 3.93313 15.9679 3.86263 15.9038 3.79863C15.8398 3.73446 15.7692 3.70238 15.6923 3.70238H2.30775C2.23075 3.70238 2.16025 3.73446 2.09625 3.79863C2.03208 3.86263 2 3.93313 2 4.01013V6.51013Z" fill="white"/>
</svg>
