<svg width="20" height="15" viewBox="0 0 20 15" fill="none" xmlns="http://www.w3.org/2000/svg">
<path d="M10.5346 7.30206C10.9161 6.85872 11.1983 6.34968 11.3811 5.77495C11.5639 5.20022 11.6553 4.60768 11.6553 3.99735C11.6553 3.38702 11.5639 2.79448 11.3811 2.21975C11.1983 1.64502 10.9161 1.13598 10.5346 0.692639C11.3219 0.789705 11.9756 1.1529 12.4958 1.78224C13.0158 2.41173 13.2758 3.1501 13.2758 3.99735C13.2758 4.84476 13.0158 5.58313 12.4958 6.21246C11.9756 6.8418 11.3219 7.205 10.5346 7.30206ZM15.2415 14.6447V12.3973C15.2415 11.8751 15.1421 11.3783 14.9432 10.9068C14.7443 10.4354 14.4621 10.0308 14.0966 9.69319C14.784 9.93761 15.4167 10.2674 15.9948 10.6824C16.573 11.0975 16.862 11.6691 16.862 12.3973V14.6447H15.2415ZM16.862 8.36316V6.44739H15.0689V5.01056H16.862V3.09478H18.2069V5.01056H20V6.44739H18.2069V8.36316H16.862ZM6.7242 7.34996C5.86126 7.34996 5.12249 7.02172 4.5079 6.36525C3.89346 5.70862 3.58624 4.91932 3.58624 3.99735C3.58624 3.07538 3.89346 2.28616 4.5079 1.62969C5.12249 0.973061 5.86126 0.644745 6.7242 0.644745C7.58713 0.644745 8.32582 0.973061 8.94027 1.62969C9.55486 2.28616 9.86215 3.07538 9.86215 3.99735C9.86215 4.91932 9.55486 5.70862 8.94027 6.36525C8.32582 7.02172 7.58713 7.34996 6.7242 7.34996ZM0 14.6447V12.5151C0 12.0461 0.119242 11.6117 0.357727 11.2119C0.596212 10.8122 0.914864 10.5048 1.31368 10.29C2.19993 9.82585 3.09395 9.47774 3.99574 9.24561C4.89738 9.01349 5.80687 8.89742 6.7242 8.89742C7.64138 8.89742 8.55086 9.01349 9.45265 9.24561C10.3543 9.47774 11.2482 9.82585 12.1345 10.29C12.5333 10.5048 12.852 10.8122 13.0904 11.2119C13.3291 11.6117 13.4484 12.0461 13.4484 12.5151V14.6447H0ZM6.7242 5.91312C7.2173 5.91312 7.63943 5.72554 7.99059 5.35037C8.34174 4.97519 8.51731 4.52419 8.51731 3.99735C8.51731 3.47051 8.34174 3.01951 7.99059 2.64433C7.63943 2.26916 7.2173 2.08158 6.7242 2.08158C6.23109 2.08158 5.80896 2.26916 5.45781 2.64433C5.10665 3.01951 4.93108 3.47051 4.93108 3.99735C4.93108 4.52419 5.10665 4.97519 5.45781 5.35037C5.80896 5.72554 6.23109 5.91312 6.7242 5.91312ZM1.34484 13.2079H12.1036V12.5151C12.1036 12.3211 12.051 12.1415 11.9458 11.9763C11.8406 11.8112 11.6977 11.6765 11.5172 11.5721C10.7448 11.1656 9.95726 10.8577 9.15454 10.6482C8.35168 10.4389 7.54156 10.3343 6.7242 10.3343C5.90668 10.3343 5.09657 10.4389 4.29385 10.6482C3.49098 10.8577 2.70335 11.1656 1.93097 11.5721C1.75046 11.6765 1.60768 11.8112 1.50263 11.9763C1.39744 12.1415 1.34484 12.3211 1.34484 12.5151V13.2079Z" fill="white"/>
</svg>
