<svg width="78" height="112" viewBox="0 0 78 112" fill="none" xmlns="http://www.w3.org/2000/svg">
<path d="M38.9126 0.209985C17.6444 0.186883 1.50751 16.6816 0.834174 36.5954C0.0911795 58.7962 17.6909 75.8223 38.8894 75.7992C60.3666 75.7761 77.0143 58.5883 76.9214 38.0739C77.0375 17.4671 60.4595 0.233087 38.9126 0.209985ZM16.9247 63.7862C15.9263 63.6938 14.7653 63.1856 14.0688 62.4694C8.65883 56.9019 5.12961 50.3179 4.17765 42.6019C3.80616 39.5986 4.10801 36.5261 4.10801 33.4997C4.10801 33.2918 4.20087 33.0839 4.29375 32.8991C4.34018 32.8067 4.45629 32.7143 4.68848 32.5295C5.40825 33.2918 6.03514 33.9849 6.70848 34.6779C9.47149 37.5657 12.7917 39.6448 16.2745 41.5623C19.9198 43.549 23.6116 45.5127 27.0479 47.8229C30.5539 50.1562 33.0383 53.4366 33.9671 57.6412C34.06 58.057 33.8742 58.75 33.5724 59.0042C30.5772 61.684 27.0479 63.3242 23.0776 63.7862C21.0343 64.0173 18.9447 63.9711 16.9247 63.7862ZM65.6836 60.2055C60.1808 66.8588 53.0063 70.9016 44.4387 72.2646C39.0752 73.1194 33.6884 72.8191 28.4411 71.1788C28.1624 71.0864 27.8838 70.9709 27.6052 70.8785C27.4891 70.8323 27.3962 70.763 27.0247 70.5782C30.6236 69.1228 33.6188 67.4363 36.2889 65.1262C39.7253 62.146 42.1632 58.4959 43.9975 54.4069C45.7853 50.4103 46.2265 46.1133 47.0391 41.8857C47.9679 37.0805 50.1504 32.9453 54.2137 30.0345C56.8606 28.1401 59.8094 26.985 63.0832 26.7309C64.0351 26.6616 64.9871 26.4999 66.2641 26.3382C65.5211 25.3679 64.9639 24.4669 64.2673 23.7046C61.156 20.3548 57.7197 17.4209 53.4939 15.5496C46.18 12.2691 39.168 12.8005 32.5275 17.3053C30.4611 18.7146 28.859 20.632 27.6284 22.8036C27.4659 23.0808 27.4426 23.7046 27.6516 23.8894C29.1376 25.3448 30.6933 26.7309 32.2721 28.2094C32.899 26.7771 33.3402 25.4141 34.0135 24.1897C36.4747 19.8234 40.329 17.5364 45.2977 17.2129C51.6828 16.8202 56.8141 19.7772 61.6204 23.5428C62.108 23.9356 62.5491 24.3745 62.9903 24.7903C63.0135 24.8134 62.9903 24.8596 62.9903 25.0214C61.5972 25.2524 60.1576 25.4372 58.7413 25.6913C52.658 26.8464 48.3394 30.4041 45.2977 35.6251C43.6956 38.3742 42.8134 41.3775 42.1168 44.45C41.2113 48.5159 39.4931 52.2122 36.9623 55.5389C36.7301 55.8392 36.3586 56.0702 35.8942 56.463C35.5227 55.1924 35.2209 54.1066 34.8958 53.067C33.9671 50.2255 32.2721 47.846 30.2753 45.6513C26.6997 41.6778 22.1024 38.9749 17.8998 35.7637C14.9046 33.4766 12.2577 30.8892 10.5395 27.4471C8.357 23.0577 9.12321 18.6222 12.5363 15.1107C15.6476 11.8764 19.0143 8.98868 23.0776 7.00193C27.907 4.64554 32.9919 3.39804 38.4018 3.37494C44.0904 3.32873 49.4771 4.41452 54.4691 7.04813C64.8478 12.5233 71.3257 20.9785 73.2529 32.5757C75.0872 42.9253 72.3242 52.166 65.6836 60.2055Z" fill="#BD8E3E"/>
<path d="M44.7586 90.6686C44.7435 91.7527 44.7132 92.8367 44.6752 93.9208C44.6373 95.1792 43.6291 96.195 42.4162 96.4073C42.1054 96.4603 41.787 96.4906 41.4762 96.4906C39.4824 96.4982 37.4811 96.4906 35.4874 96.4982C34.5095 96.5058 33.5998 96.339 32.8872 95.581C32.8266 95.5203 32.5688 95.5355 32.493 95.6113C31.5606 96.5816 30.0596 96.7332 28.9301 96.051C28.8164 95.9827 28.6951 95.9069 28.5965 95.8084C28.1417 95.3611 28.2175 95.346 27.7399 95.7932C27.2017 96.2935 26.5194 96.4831 25.8068 96.4906C19.5982 96.4982 13.382 96.4982 7.17335 96.4982C6.06656 96.4982 5.31607 95.7553 5.20993 94.6182C5.20235 94.4969 5.05832 94.2998 4.96735 94.2922C3.79234 94.1937 2.68555 94.3756 1.80618 95.255C1.17698 95.8842 1.03295 96.6498 1.26037 97.461C1.49537 98.31 2.10941 98.8179 2.95846 99.0454C3.47395 99.1818 3.96669 99.0833 4.4367 98.871C5.11139 98.5678 5.39945 98.6512 5.8543 99.3107C5.263 99.8565 4.60348 100.16 3.8075 100.213C2.70071 100.281 1.75312 100.001 0.949561 99.2045C-0.475618 97.7945 -0.278518 95.1564 1.41957 94.0421C2.31409 93.4432 3.26169 93.0869 4.33815 93.1172C4.87638 93.1324 5.41462 93.1096 5.95285 93.1248C6.21817 93.1324 6.33188 93.0338 6.31672 92.7609C6.27882 92.1924 6.42285 91.6086 6.05898 91.078C5.68752 90.5322 5.18719 90.2138 4.53525 90.2517C3.8454 90.2896 3.31475 90.6383 3.0191 91.2903C2.75378 91.8512 2.55668 91.9649 1.9578 91.8664C1.86683 91.8512 1.7228 91.6845 1.73038 91.5935C1.88199 90.0167 3.43604 88.8568 4.99009 89.1449C6.58205 89.433 7.46141 90.4791 7.46141 92.0862C7.46141 92.5562 7.469 93.0187 7.45383 93.4887C7.44625 93.9208 7.18093 94.2316 6.74882 94.2467C6.3243 94.2619 6.34705 94.5121 6.41527 94.7774C6.49866 95.1034 6.75641 95.2626 7.08238 95.3156C7.21883 95.3384 7.35528 95.3308 7.49174 95.3308C13.5412 95.3308 19.583 95.3232 25.6324 95.3384C26.6104 95.346 27.7096 94.6788 27.6034 93.3674C27.5579 92.8216 27.6034 92.2682 27.5959 91.7148C27.5883 91.4646 27.6868 91.3736 27.937 91.3736C28.3842 91.3736 28.733 91.6769 28.7481 92.1317C28.7633 92.6245 28.7481 93.1172 28.7557 93.6175C28.7633 94.5424 29.5668 95.346 30.469 95.3308C31.3635 95.3156 32.1367 94.5272 32.1367 93.6175C32.1443 91.9574 32.1367 90.2896 32.1443 88.6294C32.1443 88.4551 32.2353 88.1367 32.2807 88.1367C32.5385 88.1443 32.8569 88.1518 33.0388 88.2959C33.2056 88.4323 33.2814 88.7507 33.289 88.9933C33.3117 90.5019 33.2966 92.018 33.2966 93.5266C33.2966 94.5576 34.0471 95.3156 35.0856 95.3232C36.7685 95.3308 38.4439 95.3156 40.1268 95.3308C40.4452 95.3308 40.5665 95.2398 40.5589 94.9063C40.5513 94.2543 40.5741 93.6251 40.1041 93.0793C39.5734 92.4577 38.9139 92.1317 38.1103 92.2379C37.1476 92.3743 36.435 92.9125 36.2227 93.8905C36.1318 94.3074 35.9574 94.3453 35.6163 94.3377C34.9795 94.3226 34.9264 94.2619 35.0705 93.6479C35.3964 92.2606 36.4426 91.3282 37.8905 91.1235C39.8312 90.8506 41.3321 92.1166 41.6505 93.6782C41.7339 94.0876 41.7036 94.5272 41.696 94.9518C41.6884 95.2701 41.8021 95.3611 42.1205 95.2853C43.0606 95.0655 43.5912 94.368 43.5988 93.2764C43.6064 91.7603 43.5988 90.2517 43.5988 88.7431C43.5988 88.2201 43.7656 87.9623 44.1067 87.9396C44.4327 87.9168 44.7283 88.2504 44.7435 88.7128C44.7738 89.3723 44.7738 90.0243 44.7586 90.6686Z" fill="black"/>
<path d="M77.4316 91.7529C77.4165 92.564 77.4544 93.3752 77.3482 94.1711C77.1966 95.2476 76.5371 96.0132 75.5137 96.3544C74.4979 96.6879 73.5124 96.5439 72.7164 95.7631C72.4208 95.475 72.254 95.4978 71.9886 95.7782C71.5338 96.2558 70.9349 96.4378 70.283 96.4908C69.2444 96.5666 68.3499 96.3013 67.6676 95.4826C67.516 95.3007 67.3947 95.3537 67.2583 95.4902C66.5305 96.2786 65.6208 96.506 64.5747 96.4984C61.3832 96.4681 58.1841 96.4529 54.9926 96.506C53.5371 96.5287 51.9452 95.2628 51.7557 93.6253C51.5358 91.6771 52.7184 90.305 53.9768 89.8653C54.3559 89.7364 54.4923 89.8122 54.5605 90.1988C54.6439 90.6612 54.4165 90.9114 54.0526 91.1237C52.9231 91.7756 52.5592 93.0189 53.1354 94.1711C53.5978 95.1111 54.4317 95.3916 55.3793 95.4144C56.9181 95.4447 58.4646 95.422 60.0035 95.422C61.5348 95.422 63.0585 95.4371 64.5899 95.4144C65.5981 95.4068 66.4168 95.0202 66.8489 94.0574C66.9778 93.7769 67.0308 93.451 67.0384 93.1401C67.0536 91.2829 67.046 89.4256 67.046 87.5759C67.046 87.0073 67.3113 86.7193 67.8041 86.6965C68.077 86.6814 68.2059 86.7647 68.1983 87.068C68.1831 87.7275 68.1907 88.387 68.1907 89.0466C68.1907 90.5854 68.1907 92.1243 68.1907 93.6632C68.1907 94.6336 68.873 95.3537 69.9191 95.3916C70.8136 95.422 71.6096 94.9065 71.7309 93.9968C71.8067 93.3903 71.7764 92.7687 71.837 92.1547C71.8522 91.9576 71.9356 91.6771 72.0796 91.5937C72.2691 91.4875 72.5572 91.4951 72.7846 91.533C72.8529 91.5406 72.8908 91.8363 72.8983 92.003C72.9362 92.6853 72.8908 93.3827 73.0045 94.0498C73.1637 94.9595 74.0051 95.4599 74.9603 95.3386C75.6501 95.2476 76.2718 94.4592 76.2869 93.6632C76.2945 93.1553 76.2945 92.6474 76.2869 92.1395C76.2793 91.5709 76.7873 91.3814 77.2876 91.5103C77.3558 91.5179 77.4392 91.6619 77.4316 91.7529Z" fill="black"/>
<path d="M57.3957 104.602C56.6604 103.457 55.2276 102.957 53.8858 103.381C53.6054 103.472 53.3325 103.601 52.9762 103.745C52.961 103.526 52.9458 103.381 52.9383 103.237C52.9383 102.631 52.9458 102.032 52.9307 101.426C52.9155 100.978 52.6957 100.766 52.3091 100.766C51.9452 100.774 51.7102 100.986 51.7102 101.403C51.7178 103.169 51.7178 104.943 51.7936 106.709C51.8466 107.968 52.635 108.794 53.7721 109.203C55.0154 109.658 56.1828 109.363 57.1001 108.407C58.078 107.392 58.169 105.8 57.3957 104.602ZM54.8107 108.233C53.7418 108.226 52.9837 107.339 52.9231 106.429C52.8397 105.178 53.9238 104.405 54.7955 104.397C55.8189 104.39 56.721 105.292 56.7286 106.308C56.7362 107.316 55.8493 108.241 54.8107 108.233Z" fill="black"/>
<path d="M38.1558 106.179C38.1179 105.368 37.8223 104.633 37.2234 104.087C35.3889 102.411 32.5233 103.314 32.0458 105.679C31.788 106.967 32.2125 108.021 33.2359 108.802C34.1305 109.477 35.1539 109.583 36.2076 109.181C36.4956 109.067 36.7686 108.885 37.0111 108.688C37.2765 108.476 37.3447 108.18 37.1248 107.885C36.9126 107.597 36.6169 107.657 36.344 107.756C36.2152 107.801 36.1166 107.907 35.9953 107.976C35.0022 108.567 33.5922 108.036 33.2966 106.892C33.4861 106.884 33.6301 106.869 33.7742 106.869C35.0174 106.869 36.2531 106.869 37.4963 106.869C37.9966 106.854 38.1786 106.672 38.1558 106.179ZM33.3572 105.656C33.4861 104.981 34.229 104.42 35.0098 104.39C35.6769 104.367 36.6852 104.936 36.7761 105.656H33.3572Z" fill="black"/>
<path d="M45.0846 106.081C45.0694 105.99 45.0391 105.891 45.024 105.8C44.7207 103.859 42.6209 102.677 40.8015 103.458C39.672 103.943 39.0124 104.815 38.9215 106.05C38.8305 107.301 39.3081 108.317 40.4073 108.954C41.5444 109.621 42.6891 109.553 43.7883 108.825C44.1977 108.552 44.2962 108.203 44.0764 107.885C43.8869 107.612 43.4396 107.589 43.0757 107.847C42.2949 108.4 41.3094 108.325 40.6499 107.635C40.4679 107.445 40.3467 107.203 40.195 106.99C40.2254 106.945 40.2557 106.899 40.286 106.854H40.7257C41.9538 106.854 43.1743 106.854 44.4023 106.854C44.9178 106.854 45.1528 106.589 45.0846 106.081ZM40.2405 105.664C40.521 104.784 41.3776 104.383 42.0372 104.39C42.8104 104.405 43.5306 104.959 43.7049 105.664H40.2405Z" fill="black"/>
<path d="M14.8375 108.332C15.0952 108.627 15.0877 109.022 14.8223 109.257C14.557 109.484 14.231 109.469 13.943 109.158C13.2228 108.37 12.5178 107.559 11.7976 106.77C11.6915 106.656 11.4868 106.49 11.4034 106.528C11.1533 106.634 10.8424 106.74 10.8424 107.111C10.8424 107.65 10.8424 108.188 10.8424 108.718C10.8424 109.097 10.5923 109.393 10.2815 109.408C9.9555 109.416 9.69018 109.113 9.69018 108.711C9.69018 106.308 9.6826 103.897 9.70534 101.494C9.70534 101.282 9.81905 100.986 9.98583 100.872C10.4179 100.569 10.8425 100.865 10.85 101.441C10.8576 102.578 10.85 103.723 10.85 104.867V105.413C11.2063 105.201 11.4868 105.042 11.7597 104.875C12.4647 104.42 13.1697 103.958 13.8747 103.503C13.9581 103.45 14.0415 103.404 14.1249 103.359C14.4357 103.185 14.7162 103.238 14.9285 103.526C15.1407 103.814 15.0801 104.109 14.7389 104.344C14.1173 104.776 13.4805 105.186 12.8438 105.603C12.768 105.656 12.6921 105.709 12.5633 105.8C13.056 106.361 13.5184 106.891 13.9809 107.415C14.2614 107.703 14.557 108.013 14.8375 108.332Z" fill="black"/>
<path d="M77.1511 108.271C77.2952 108.438 77.4165 108.711 77.3937 108.916C77.3786 109.083 77.1436 109.325 76.9844 109.348C76.7797 109.378 76.4689 109.28 76.3324 109.128C75.5971 108.34 74.8997 107.506 74.1719 106.702C74.0885 106.604 73.8838 106.482 73.8156 106.52C73.5655 106.657 73.2167 106.717 73.2319 107.127C73.2471 107.635 73.2319 108.143 73.2319 108.651C73.2319 109.128 73.0196 109.393 72.6558 109.401C72.3222 109.401 72.0796 109.09 72.0796 108.635C72.0796 106.96 72.0796 105.285 72.0796 103.602C72.0796 102.904 72.0796 102.199 72.0796 101.502C72.0796 100.979 72.2616 100.767 72.7012 100.774C73.0879 100.782 73.2395 100.971 73.2395 101.479C73.2395 102.609 73.2395 103.731 73.2395 104.86C73.2395 105.004 73.2546 105.156 73.2622 105.383C73.4517 105.285 73.5806 105.232 73.7019 105.148C74.5434 104.602 75.3848 104.049 76.2263 103.503C76.3779 103.405 76.5371 103.314 76.7039 103.261C76.9995 103.162 77.2042 103.306 77.3558 103.549C77.515 103.806 77.4468 104.057 77.2345 104.208C76.6963 104.61 76.1277 104.974 75.5744 105.353C75.3848 105.482 75.1953 105.618 74.9679 105.777C75.726 106.649 76.4537 107.445 77.1511 108.271Z" fill="black"/>
<path d="M64.8021 106.194C64.7794 105.807 64.7036 105.398 64.5519 105.042C63.9227 103.601 62.3763 102.949 60.8525 103.351C59.5714 103.692 58.4494 105.216 58.6769 106.785C58.8816 108.188 60.4583 109.711 62.2095 109.332C62.6719 109.234 63.1192 109.059 63.6044 108.9C63.7939 109.158 63.9682 109.484 64.3776 109.363C64.8097 109.234 64.8324 108.878 64.8248 108.499C64.8097 107.733 64.8476 106.967 64.8021 106.194ZM63.6498 106.285C63.6043 107.392 62.8842 108.218 61.7092 108.21C60.4659 108.21 59.7609 107.164 59.867 106.315C59.7609 105.368 60.6403 104.405 61.7471 104.39C62.7326 104.382 63.6953 105.33 63.6498 106.285Z" fill="black"/>
<path d="M6.14235 107.331H6.10445C6.10445 106.77 6.18784 106.194 6.08929 105.648C5.79364 104.094 4.28507 103.04 2.69312 103.245C1.22246 103.427 0.0246986 104.776 0.00195643 106.3C-0.0283665 108.521 2.42779 110.227 4.64137 108.969C4.87637 108.832 4.9446 108.938 5.09621 109.097C5.24783 109.241 5.51315 109.363 5.71783 109.348C5.99832 109.325 6.14235 109.09 6.13477 108.779C6.13477 108.294 6.14235 107.816 6.14235 107.331ZM3.10248 108.218C2.08666 108.233 1.18455 107.331 1.19213 106.3C1.19213 105.262 2.07908 104.375 3.11006 104.39C4.1183 104.405 4.99766 105.299 4.9825 106.308C4.97492 107.331 4.12588 108.203 3.10248 108.218Z" fill="black"/>
<path d="M21.5009 106.057C21.4555 106.944 21.4934 107.847 21.4934 108.741C21.4934 109.181 21.319 109.385 20.94 109.401C20.6216 109.408 20.3487 109.128 20.3411 108.741C20.3335 107.862 20.3411 106.982 20.3335 106.103C20.3335 105.171 19.5451 104.382 18.6354 104.39C17.7485 104.397 16.9601 105.193 16.9525 106.095C16.9449 106.96 16.9525 107.824 16.9525 108.696C16.9525 109.097 16.6872 109.408 16.3688 109.401C16.0201 109.393 15.8002 109.128 15.8002 108.688C15.8002 106.27 15.8002 103.851 15.8002 101.433C15.8002 100.963 15.9518 100.774 16.3385 100.766C16.763 100.766 16.9525 100.971 16.9601 101.456C16.9677 102.017 16.9601 102.585 16.9601 103.146C16.9601 103.29 16.9752 103.442 16.9904 103.647C17.377 103.518 17.6803 103.389 17.9986 103.313C19.7271 102.866 21.5919 104.261 21.5009 106.057Z" fill="black"/>
<path d="M28.4221 106.186C28.4449 105.163 27.9749 104.382 27.1713 103.814C26.1555 103.094 25.0411 103.003 23.9419 103.594C22.8579 104.17 22.3045 105.08 22.3121 106.338C22.3272 107.574 22.8806 108.483 23.9419 109.044C24.9123 109.552 25.9281 109.53 26.8984 108.984C27.1334 108.847 27.2471 108.87 27.3836 109.105C27.5276 109.348 27.755 109.446 28.0583 109.355C28.3463 109.264 28.4221 109.052 28.4297 108.787V107.346C28.4297 107.111 28.4297 106.869 28.4297 106.634C28.4221 106.482 28.4221 106.33 28.4221 106.186ZM25.3671 108.226C24.3513 108.226 23.4643 107.324 23.4719 106.3C23.4795 105.262 24.3664 104.382 25.3898 104.397C26.4284 104.413 27.2699 105.284 27.2623 106.346C27.2623 107.339 26.3678 108.226 25.3671 108.226Z" fill="black"/>
<path d="M71.3367 108.673C71.3367 109.09 71.079 109.401 70.7606 109.401C70.3967 109.401 70.1844 109.128 70.1844 108.658C70.1844 107.847 70.192 107.036 70.1769 106.224C70.1693 105.656 69.9722 105.148 69.5022 104.792C68.9564 104.375 68.3651 104.254 67.7283 104.587C67.0612 104.936 66.7276 105.512 66.72 106.255C66.7049 107.051 66.72 107.847 66.7125 108.643C66.7125 109.166 66.5533 109.386 66.1591 109.393C65.8028 109.401 65.5602 109.09 65.5602 108.612C65.5602 107.089 65.5602 105.565 65.5602 104.041C65.5602 103.7 65.6436 103.389 65.9847 103.268C66.3334 103.147 66.5912 103.336 66.7655 103.647C66.7731 103.67 66.811 103.67 66.8641 103.7C67.5463 103.298 68.2817 103.147 69.0928 103.313C70.336 103.571 71.314 104.686 71.3443 105.959C71.3519 106.861 71.3443 107.763 71.3367 108.673Z" fill="black"/>
<path d="M47.4801 109.31C47.4574 110.69 46.2521 111.895 44.933 111.88C44.4857 111.872 44.2204 111.66 44.2204 111.311C44.2128 110.978 44.4403 110.773 44.8724 110.728C45.7366 110.637 46.3279 109.954 46.3279 109.022C46.3354 107.331 46.3279 105.648 46.3279 103.958C46.3279 103.458 46.5022 103.238 46.904 103.238C47.2375 103.238 47.4801 103.526 47.4801 103.95C47.4877 104.86 47.4801 105.762 47.4801 106.672C47.4877 107.551 47.4953 108.431 47.4801 109.31Z" fill="black"/>
<path d="M30.7494 109.37C30.3856 109.416 30.0065 109.393 29.6427 109.348C29.3015 109.302 29.2485 109.022 29.2485 108.726C29.2485 107.49 29.2485 106.255 29.2485 105.019C29.2485 103.821 29.2485 102.631 29.2485 101.433C29.2485 100.963 29.4077 100.774 29.7791 100.766C30.2036 100.759 30.4007 100.963 30.4007 101.449C30.4007 103.533 30.4083 105.626 30.4007 107.71C30.4007 108.021 30.3856 108.264 30.8253 108.286C30.9617 108.294 31.174 108.59 31.2043 108.779C31.2574 109.082 31.0451 109.333 30.7494 109.37Z" fill="black"/>
<path d="M8.44694 109.378C8.09823 109.424 7.73436 109.416 7.37806 109.371C7.05209 109.333 6.96112 109.082 6.96112 108.764C6.9687 107.528 6.9687 106.293 6.9687 105.057V101.555C6.9687 100.963 7.09757 100.766 7.49935 100.759C7.90871 100.759 8.12097 101.039 8.12097 101.593C8.12097 103.624 8.12855 105.656 8.12097 107.688C8.12097 108.021 8.11339 108.271 8.57582 108.279C8.70469 108.279 8.90179 108.597 8.92453 108.787C8.96243 109.105 8.74259 109.34 8.44694 109.378Z" fill="black"/>
<path d="M47.4801 95.8388C47.4801 96.4073 46.9798 96.7105 46.4719 96.4604C46.3809 96.4149 46.3354 96.2102 46.3278 96.0813C46.3203 94.8305 46.3203 93.5797 46.3203 92.3365C46.3203 91.116 46.3203 89.8955 46.3203 88.675C46.3203 88.2353 46.5401 87.9775 46.8964 87.9775C47.2527 87.9775 47.4725 88.2353 47.4725 88.6825C47.4877 91.0629 47.4877 93.4508 47.4801 95.8388Z" fill="black"/>
<path d="M60.1248 92.223C60.1172 92.5262 60.0262 92.6323 59.7154 92.6248C58.7982 92.6096 57.8733 92.6096 56.956 92.6248C56.6377 92.6323 56.5618 92.4959 56.5618 92.2078C56.5618 91.9122 56.6452 91.7681 56.9636 91.7985C57.191 91.8136 57.4185 91.7985 57.6611 91.7985C57.6383 91.4876 57.5701 91.2223 57.608 90.9797C57.7672 90.0852 58.2372 89.6986 59.1696 89.6607C59.3364 89.6531 59.5032 89.6758 59.6624 89.6531C60.0414 89.6076 60.1248 89.782 60.1248 90.1307C60.1248 90.4794 59.9959 90.5931 59.6624 90.5628C59.4425 90.5476 59.2227 90.5552 59.0028 90.5628C58.6541 90.578 58.4798 90.7751 58.4646 91.1162C58.4495 91.4649 58.639 91.6772 59.0104 91.7075C59.2454 91.7226 59.4804 91.7151 59.7078 91.7378C59.9883 91.7681 60.1324 91.897 60.1248 92.223Z" fill="black"/>
<path d="M47.5711 102.138C47.5711 102.548 47.3133 102.821 46.9267 102.828C46.4794 102.836 46.1914 102.563 46.1914 102.131C46.1914 101.767 46.4567 101.524 46.8736 101.517C47.2906 101.502 47.5711 101.752 47.5711 102.138Z" fill="black"/>
<path d="M39.0352 89.3498C39.0276 89.7212 38.7092 90.0093 38.3226 89.9866C37.9739 89.9714 37.6631 89.653 37.6782 89.3119C37.6934 88.9404 38.0118 88.6523 38.3984 88.6751C38.7547 88.6902 39.0428 88.9935 39.0352 89.3498Z" fill="black"/>
<path d="M72.9893 89.4937C72.9893 89.9107 72.7695 90.1533 72.3753 90.1533C71.9886 90.1533 71.7233 89.9031 71.7082 89.5165C71.693 89.1602 72.0038 88.8418 72.3449 88.8418C72.7088 88.8418 72.9817 89.1223 72.9893 89.4937Z" fill="black"/>
<path d="M28.0052 97.7112C28.0128 98.1053 27.7096 98.3934 27.2926 98.3858C26.9439 98.3783 26.6862 98.1053 26.6862 97.7566C26.6862 97.3549 26.9666 97.0744 27.3457 97.0744C27.7171 97.0668 27.9976 97.3473 28.0052 97.7112Z" fill="black"/>
<path d="M29.6578 97.7191C29.6578 98.083 29.3773 98.371 29.0134 98.3786C28.6344 98.3862 28.3312 98.0906 28.3388 97.7039C28.3463 97.3401 28.6344 97.0596 29.0059 97.0596C29.3697 97.0747 29.6578 97.3552 29.6578 97.7191Z" fill="black"/>
<path d="M75.2938 97.7949C75.2938 98.0906 74.9224 98.4544 74.6116 98.462C74.2704 98.4696 73.9824 98.1664 73.9824 97.8025C73.9824 97.3628 74.1795 97.1581 74.5964 97.1505C74.9982 97.143 75.2863 97.4159 75.2938 97.7949Z" fill="black"/>
<path d="M4.07281 96.9155C4.08797 97.2566 3.79232 97.5523 3.42844 97.5599C2.98876 97.5675 2.76892 97.3704 2.76134 96.9686C2.74618 96.5365 2.96602 96.3242 3.42086 96.3242C3.76958 96.3318 4.05764 96.5895 4.07281 96.9155Z" fill="black"/>
</svg>
