<svg width="96" height="25" viewBox="0 0 96 25" fill="none" xmlns="http://www.w3.org/2000/svg">
<path d="M12.4223 7.90216e-06C5.48813 -0.0075241 0.226932 5.37033 0.00739968 11.8629C-0.234842 19.1012 5.50327 24.6523 12.4147 24.6447C19.417 24.6372 24.8448 19.0334 24.8145 12.345C24.8524 5.62642 19.4473 0.00753991 12.4223 7.90216e-06ZM5.25346 20.7281C4.92794 20.698 4.54944 20.5323 4.32234 20.2988C2.55851 18.4835 1.40786 16.3369 1.09749 13.8212C0.97637 12.8421 1.07479 11.8403 1.07479 10.8536C1.07479 10.7858 1.10506 10.7181 1.13534 10.6578C1.15048 10.6277 1.18834 10.5975 1.26404 10.5373C1.49871 10.7858 1.7031 11.0118 1.92263 11.2378C2.82347 12.1793 3.90598 12.8571 5.04149 13.4823C6.22999 14.13 7.43363 14.7703 8.554 15.5235C9.69708 16.2842 10.5071 17.3537 10.8099 18.7246C10.8402 18.8601 10.7796 19.0861 10.6812 19.169C9.70465 20.0427 8.554 20.5774 7.25952 20.7281C6.59336 20.8034 5.91205 20.7883 5.25346 20.7281ZM21.1506 19.5606C19.3565 21.7298 17.0173 23.0479 14.224 23.4923C12.4753 23.771 10.719 23.6731 9.00821 23.1383C8.91737 23.1082 8.82653 23.0705 8.73569 23.0404C8.69784 23.0253 8.66756 23.0028 8.54643 22.9425C9.71979 22.468 10.6963 21.9181 11.5669 21.1649C12.6873 20.1933 13.4821 19.0033 14.0801 17.6701C14.663 16.3671 14.8069 14.9661 15.0718 13.5877C15.3746 12.0211 16.0862 10.6729 17.411 9.72383C18.274 9.1062 19.2354 8.7296 20.3027 8.64675C20.6131 8.62415 20.9235 8.57143 21.3398 8.51871C21.0976 8.20236 20.9159 7.90861 20.6888 7.66006C19.6744 6.56792 18.5541 5.61135 17.1763 5.00126C14.7917 3.93171 12.5056 4.10495 10.3405 5.57369C9.6668 6.03314 9.14447 6.6583 8.74325 7.36631C8.69026 7.45669 8.68269 7.66006 8.75082 7.72031C9.23531 8.19483 9.7425 8.64675 10.2573 9.1288C10.4617 8.66181 10.6055 8.21743 10.825 7.81823C11.6274 6.39468 12.8841 5.64901 14.5041 5.54356C16.5858 5.41552 18.2588 6.37962 19.8258 7.60733C19.9848 7.73538 20.1286 7.87849 20.2725 8.01406C20.28 8.02159 20.2725 8.03666 20.2725 8.08938C19.8183 8.1647 19.3489 8.22496 18.8871 8.30781C16.9038 8.68441 15.4957 9.84434 14.5041 11.5466C13.9817 12.4429 13.6941 13.422 13.467 14.4238C13.1717 15.7494 12.6116 16.9546 11.7864 18.0392C11.7107 18.1371 11.5896 18.2124 11.4382 18.3404C11.3171 17.9262 11.2187 17.5722 11.1127 17.2332C10.8099 16.3068 10.2573 15.531 9.60624 14.8155C8.44045 13.52 6.94158 12.6387 5.5714 11.5918C4.59486 10.8461 3.73187 10.0025 3.17169 8.88024C2.4601 7.44916 2.70991 6.00302 3.82271 4.85815C4.8371 3.80367 5.93476 2.86217 7.25952 2.21442C8.8341 1.44615 10.4919 1.03942 12.2558 1.03189C14.1104 1.01683 15.8667 1.37083 17.4942 2.22948C20.8781 4.01457 22.9901 6.77128 23.6184 10.5523C24.2165 13.9267 23.3156 16.9395 21.1506 19.5606Z" fill="#E7B742"/>
<path d="M68.7962 5.39418C68.784 6.26564 68.7596 7.13711 68.7291 8.00857C68.6987 9.0202 67.8881 9.83682 66.9131 10.0075C66.6632 10.0501 66.4073 10.0745 66.1574 10.0745C64.5546 10.0806 62.9458 10.0745 61.343 10.0806C60.5569 10.0867 59.8256 9.95261 59.2527 9.34319C59.204 9.29444 58.9968 9.30663 58.9358 9.36757C58.1863 10.1476 56.9796 10.2695 56.0716 9.72103C55.9802 9.66618 55.8827 9.60524 55.8034 9.52602C55.4378 9.16646 55.4987 9.15427 55.1148 9.51383C54.6821 9.91604 54.1336 10.0684 53.5608 10.0745C48.5697 10.0806 43.5725 10.0806 38.5814 10.0806C37.6916 10.0806 37.0883 9.48336 37.003 8.56923C36.9969 8.47173 36.8811 8.31328 36.808 8.30719C35.8634 8.22796 34.9736 8.37422 34.2667 9.08114C33.7609 9.58696 33.6451 10.2025 33.8279 10.8545C34.0168 11.5371 34.5105 11.9454 35.193 12.1282C35.6074 12.2379 36.0035 12.1587 36.3814 11.9881C36.9237 11.7443 37.1553 11.8113 37.521 12.3415C37.0456 12.7803 36.5154 13.0241 35.8756 13.0667C34.9858 13.1216 34.224 12.8961 33.5781 12.2562C32.4324 11.1227 32.5908 9.00192 33.9559 8.10608C34.675 7.62464 35.4368 7.33821 36.3021 7.36259C36.7348 7.37478 37.1675 7.3565 37.6002 7.36869C37.8135 7.37478 37.9049 7.29556 37.8927 7.07617C37.8622 6.6191 37.978 6.14985 37.6855 5.72326C37.3869 5.28448 36.9847 5.02853 36.4606 5.059C35.906 5.08947 35.4794 5.3698 35.2418 5.8939C35.0285 6.34487 34.87 6.43628 34.3886 6.35706C34.3154 6.34487 34.1997 6.2108 34.2058 6.13767C34.3276 4.87008 35.5769 3.93768 36.8262 4.16925C38.106 4.40083 38.8129 5.24183 38.8129 6.53379C38.8129 6.91162 38.819 7.28337 38.8068 7.6612C38.8007 8.00857 38.5874 8.25843 38.2401 8.27062C37.8988 8.28281 37.9171 8.48392 37.9719 8.69721C38.039 8.95926 38.2462 9.08724 38.5082 9.1299C38.6179 9.14818 38.7276 9.14209 38.8373 9.14209C43.7004 9.14209 48.5575 9.13599 53.4206 9.14818C54.2068 9.15427 55.0904 8.61799 55.0051 7.5637C54.9685 7.12492 55.0051 6.68005 54.999 6.23517C54.9929 6.03407 55.0721 5.96094 55.2732 5.96094C55.6328 5.96094 55.9131 6.2047 55.9253 6.57035C55.9375 6.96647 55.9253 7.36259 55.9314 7.76481C55.9375 8.50829 56.5835 9.15427 57.3087 9.14209C58.0278 9.1299 58.6494 8.4961 58.6494 7.76481C58.6555 6.43019 58.6494 5.08947 58.6555 3.75485C58.6555 3.61469 58.7286 3.35873 58.7652 3.35873C58.9724 3.36483 59.2284 3.37092 59.3746 3.48671C59.5087 3.5964 59.5696 3.85236 59.5757 4.04737C59.594 5.26011 59.5818 6.47894 59.5818 7.69168C59.5818 8.52048 60.1851 9.1299 61.02 9.13599C62.3729 9.14209 63.7197 9.1299 65.0726 9.14209C65.3286 9.14209 65.4261 9.06896 65.42 8.80081C65.4139 8.27671 65.4322 7.7709 65.0544 7.33212C64.6278 6.8324 64.0976 6.57035 63.4516 6.65567C62.6776 6.76536 62.1048 7.19805 61.9342 7.9842C61.861 8.31937 61.7209 8.34984 61.4466 8.34375C60.9347 8.33156 60.8921 8.28281 61.0078 7.78918C61.2699 6.67395 62.1109 5.92437 63.2749 5.75983C64.835 5.54044 66.0416 6.55816 66.2976 7.81356C66.3646 8.14264 66.3402 8.4961 66.3341 8.83738C66.328 9.09333 66.4195 9.16646 66.6754 9.10552C67.4311 8.92879 67.8577 8.36813 67.8638 7.49057C67.8699 6.27174 67.8638 5.059 67.8638 3.84626C67.8638 3.42577 67.9978 3.21857 68.2721 3.20028C68.5341 3.182 68.7718 3.45014 68.784 3.82189C68.8084 4.35208 68.8084 4.87618 68.7962 5.39418Z" fill="#E7B742"/>
<path d="M95.062 6.26551C95.0498 6.91758 95.0803 7.56966 94.995 8.20954C94.8731 9.07491 94.3429 9.69042 93.5202 9.96466C92.7036 10.2328 91.9113 10.117 91.2714 9.48932C91.0338 9.25774 90.8997 9.27602 90.6864 9.5015C90.3207 9.88544 89.8393 10.0317 89.3152 10.0744C88.4803 10.1353 87.7612 9.922 87.2127 9.26383C87.0908 9.11757 86.9933 9.16023 86.8836 9.26993C86.2986 9.90372 85.5673 10.0865 84.7263 10.0804C82.1607 10.0561 79.5889 10.0439 77.0233 10.0865C75.8532 10.1048 74.5734 9.0871 74.4211 7.77076C74.2444 6.20457 75.1951 5.10152 76.2067 4.74806C76.5114 4.64446 76.6211 4.7054 76.6759 5.01621C76.743 5.38795 76.5601 5.58906 76.2676 5.75969C75.3596 6.28379 75.0671 7.28323 75.5302 8.20954C75.902 8.96522 76.5723 9.1907 77.3341 9.20898C78.5712 9.23336 79.8144 9.21508 81.0515 9.21508C82.2826 9.21508 83.5075 9.22727 84.7385 9.20898C85.549 9.20289 86.2072 8.89209 86.5546 8.11813C86.6582 7.89265 86.7008 7.6306 86.7069 7.38074C86.7191 5.88767 86.713 4.3946 86.713 2.90763C86.713 2.45057 86.9263 2.21899 87.3224 2.20071C87.5418 2.18852 87.6454 2.25555 87.6393 2.49932C87.6271 3.02951 87.6332 3.5597 87.6332 4.08989C87.6332 5.32701 87.6332 6.56412 87.6332 7.80123C87.6332 8.58129 88.1817 9.16023 89.0227 9.1907C89.7418 9.21508 90.3817 8.80068 90.4792 8.06938C90.5401 7.58185 90.5158 7.08212 90.5645 6.5885C90.5767 6.43005 90.6437 6.20457 90.7595 6.13753C90.9119 6.05221 91.1435 6.05831 91.3263 6.08878C91.3811 6.09487 91.4116 6.33254 91.4177 6.46661C91.4482 7.01509 91.4116 7.57575 91.503 8.11204C91.631 8.84334 92.3074 9.24555 93.0753 9.14804C93.6299 9.07491 94.1296 8.44112 94.1418 7.80123C94.1479 7.39293 94.1479 6.98462 94.1418 6.57631C94.1357 6.11925 94.544 5.96689 94.9462 6.07049C95.0011 6.07659 95.0681 6.19238 95.062 6.26551Z" fill="#E7B742"/>
<path d="M78.9552 16.5952C78.364 15.675 77.2122 15.2727 76.1336 15.614C75.9081 15.6871 75.6887 15.7907 75.4023 15.9065C75.3901 15.7298 75.3779 15.614 75.3718 15.4982C75.3718 15.0107 75.3779 14.5293 75.3657 14.0417C75.3535 13.6822 75.1768 13.5115 74.866 13.5115C74.5735 13.5176 74.3845 13.6883 74.3845 14.0234C74.3906 15.4434 74.3906 16.8694 74.4516 18.2894C74.4942 19.301 75.128 19.9652 76.0421 20.2943C77.0416 20.66 77.9801 20.4223 78.7175 19.6544C79.5036 18.8378 79.5768 17.5581 78.9552 16.5952ZM76.877 19.5143C76.0178 19.5082 75.4084 18.7952 75.3596 18.0639C75.2926 17.0583 76.164 16.4367 76.8649 16.4306C77.6876 16.4245 78.4128 17.1497 78.4189 17.9664C78.425 18.7769 77.7119 19.5204 76.877 19.5143Z" fill="#E7B742"/>
<path d="M63.4881 17.8627C63.4577 17.2106 63.22 16.6195 62.7386 16.1807C61.2638 14.8339 58.9602 15.5591 58.5763 17.4605C58.3691 18.4965 58.7103 19.3436 59.533 19.9713C60.2521 20.5137 61.0749 20.599 61.9219 20.276C62.1535 20.1846 62.3729 20.0383 62.5679 19.8799C62.7812 19.7093 62.8361 19.4716 62.6593 19.2339C62.4887 19.0023 62.251 19.0511 62.0316 19.1303C61.928 19.1669 61.8488 19.2522 61.7513 19.307C60.953 19.7824 59.8195 19.3558 59.5818 18.4356C59.7341 18.4295 59.8499 18.4173 59.9657 18.4173C60.9652 18.4173 61.9585 18.4173 62.958 18.4173C63.3602 18.4051 63.5064 18.2588 63.4881 17.8627ZM59.6305 17.4422C59.7341 16.8998 60.3314 16.4489 60.9591 16.4245C61.4954 16.4062 62.3059 16.8633 62.379 17.4422H59.6305Z" fill="#E7B742"/>
<path d="M69.0582 17.7835C69.046 17.7103 69.0216 17.6311 69.0095 17.558C68.7657 15.9979 67.0776 15.0472 65.615 15.6749C64.707 16.0649 64.1768 16.7657 64.1037 17.7591C64.0305 18.7646 64.4145 19.5812 65.2981 20.0931C66.2122 20.6294 67.1325 20.5746 68.0161 19.9895C68.3452 19.7702 68.4244 19.4898 68.2477 19.2339C68.0953 19.0145 67.7358 18.9962 67.4433 19.2034C66.8156 19.6483 66.0233 19.5873 65.4931 19.0328C65.3469 18.8804 65.2494 18.6854 65.1275 18.5148C65.1519 18.4782 65.1762 18.4416 65.2006 18.4051H65.5541C66.5413 18.4051 67.5225 18.4051 68.5097 18.4051C68.9241 18.4051 69.1131 18.1918 69.0582 17.7835ZM65.164 17.4483C65.3895 16.7414 66.0782 16.4184 66.6084 16.4245C67.23 16.4367 67.8089 16.8815 67.9491 17.4483H65.164Z" fill="#E7B742"/>
<path d="M44.7426 19.5935C44.9498 19.8312 44.9437 20.1481 44.7304 20.337C44.5171 20.5198 44.255 20.5076 44.0234 20.2578C43.4445 19.624 42.8777 18.9719 42.2988 18.3381C42.2135 18.2467 42.0489 18.1126 41.9819 18.1431C41.7808 18.2284 41.5309 18.3137 41.5309 18.6123C41.5309 19.045 41.5309 19.4777 41.5309 19.9043C41.5309 20.209 41.3298 20.4467 41.08 20.4589C40.8179 20.465 40.6046 20.2212 40.6046 19.8982C40.6046 17.9664 40.5985 16.0284 40.6168 14.0966C40.6168 13.9259 40.7082 13.6883 40.8423 13.5968C41.1897 13.3531 41.5309 13.5907 41.537 14.0539C41.5431 14.968 41.537 15.8882 41.537 16.8085V17.2472C41.8235 17.0766 42.0489 16.9486 42.2683 16.8146C42.8351 16.4489 43.4018 16.0772 43.9686 15.7115C44.0356 15.6689 44.1027 15.6323 44.1697 15.5957C44.4196 15.4556 44.6451 15.4982 44.8157 15.7298C44.9863 15.9614 44.9376 16.199 44.6633 16.388C44.1636 16.7353 43.6517 17.0644 43.1398 17.3996C43.0789 17.4423 43.0179 17.4849 42.9143 17.558C43.3104 18.009 43.6822 18.4356 44.0539 18.8561C44.2794 19.0877 44.5171 19.3375 44.7426 19.5935Z" fill="#E7B742"/>
<path d="M94.8365 19.5446C94.9523 19.6786 95.0498 19.898 95.0315 20.0626C95.0194 20.1966 94.8304 20.3916 94.7025 20.4099C94.5379 20.4343 94.2881 20.3551 94.1784 20.2332C93.5872 19.5994 93.0266 18.929 92.4415 18.2831C92.3745 18.2038 92.2099 18.1063 92.1551 18.1368C91.954 18.2465 91.6737 18.2952 91.6858 18.6243C91.698 19.0326 91.6858 19.4409 91.6858 19.8493C91.6858 20.2332 91.5152 20.4465 91.2227 20.4526C90.9546 20.4526 90.7595 20.2027 90.7595 19.8371C90.7595 18.4903 90.7595 17.1435 90.7595 15.7906C90.7595 15.2299 90.7595 14.6631 90.7595 14.1025C90.7595 13.682 90.9058 13.5113 91.2593 13.5174C91.5701 13.5235 91.6919 13.6759 91.6919 14.0842C91.6919 14.9922 91.6919 15.8942 91.6919 16.8022C91.6919 16.918 91.7041 17.0399 91.7102 17.2227C91.8626 17.1435 91.9662 17.1008 92.0637 17.0338C92.7401 16.595 93.4166 16.1501 94.093 15.7113C94.2149 15.6321 94.3429 15.559 94.477 15.5163C94.7146 15.4371 94.8792 15.5529 95.0011 15.7479C95.129 15.9551 95.0742 16.1562 94.9036 16.2781C94.4709 16.6011 94.0138 16.8936 93.5689 17.1983C93.4166 17.3019 93.2642 17.4116 93.0814 17.5396C93.6908 18.2404 94.2759 18.8803 94.8365 19.5446Z" fill="#E7B742"/>
<path d="M84.9091 17.8749C84.8908 17.5641 84.8299 17.235 84.708 16.9486C84.2022 15.7907 82.959 15.2666 81.7341 15.5896C80.7041 15.8639 79.8022 17.0888 79.985 18.3503C80.1496 19.4777 81.4172 20.7026 82.8249 20.3979C83.1967 20.3187 83.5562 20.1785 83.9462 20.0505C84.0986 20.2578 84.2388 20.5198 84.5678 20.4223C84.9152 20.3187 84.9335 20.0323 84.9274 19.7276C84.9152 19.112 84.9457 18.4965 84.9091 17.8749ZM83.9828 17.9481C83.9462 18.8378 83.3673 19.5021 82.4227 19.496C81.4233 19.496 80.8565 18.655 80.9418 17.9724C80.8565 17.2107 81.5634 16.4367 82.4532 16.4245C83.2454 16.4184 84.0194 17.1802 83.9828 17.9481Z" fill="#E7B742"/>
<path d="M37.7525 18.789H37.722C37.722 18.338 37.7891 17.8749 37.7099 17.4361C37.4722 16.1868 36.2594 15.3397 34.9797 15.5042C33.7974 15.6505 32.8345 16.7353 32.8162 17.9602C32.7919 19.7458 34.7664 21.117 36.5459 20.1053C36.7348 19.9956 36.7896 20.0809 36.9115 20.2089C37.0334 20.3247 37.2467 20.4222 37.4112 20.41C37.6367 20.3918 37.7525 20.2028 37.7464 19.953C37.7464 19.5629 37.7525 19.179 37.7525 18.789ZM35.3088 19.502C34.4921 19.5142 33.7669 18.789 33.773 17.9602C33.773 17.1253 34.486 16.4123 35.3149 16.4245C36.1254 16.4366 36.8323 17.1558 36.8201 17.9663C36.814 18.789 36.1315 19.4898 35.3088 19.502Z" fill="#E7B742"/>
<path d="M50.0993 17.7653C50.0628 18.4783 50.0932 19.2035 50.0932 19.9226C50.0932 20.276 49.9531 20.4406 49.6483 20.4528C49.3924 20.4589 49.173 20.2334 49.1669 19.9226C49.1608 19.2157 49.1669 18.5087 49.1608 17.8018C49.1608 17.0522 48.527 16.4184 47.7957 16.4245C47.0827 16.4306 46.4489 17.0705 46.4428 17.7957C46.4367 18.4905 46.4428 19.1852 46.4428 19.886C46.4428 20.209 46.2295 20.4589 45.9736 20.4528C45.6932 20.4467 45.5165 20.2334 45.5165 19.8799C45.5165 17.9359 45.5165 15.9919 45.5165 14.0478C45.5165 13.67 45.6384 13.5176 45.9492 13.5115C46.2905 13.5115 46.4428 13.6761 46.4489 14.0661C46.455 14.5171 46.4489 14.9741 46.4489 15.4251C46.4489 15.5409 46.4611 15.6628 46.4733 15.8273C46.7841 15.7237 47.0279 15.6201 47.2838 15.5592C48.6733 15.1996 50.1724 16.3209 50.0993 17.7653Z" fill="#E7B742"/>
<path d="M55.6633 17.8688C55.6816 17.0461 55.3037 16.4184 54.6577 15.9614C53.8411 15.3824 52.9453 15.3093 52.0616 15.7846C51.1902 16.2478 50.7453 16.9791 50.7514 17.9907C50.7636 18.9841 51.2085 19.7154 52.0616 20.1663C52.8417 20.5746 53.6583 20.5564 54.4384 20.1176C54.6273 20.0079 54.7187 20.0262 54.8284 20.2151C54.9442 20.4101 55.127 20.4893 55.3708 20.4162C55.6023 20.3431 55.6633 20.1724 55.6694 19.9591V18.8012C55.6694 18.6123 55.6694 18.4173 55.6694 18.2284C55.6633 18.1065 55.6633 17.9846 55.6633 17.8688ZM53.2073 19.5082C52.3907 19.5082 51.6777 18.783 51.6838 17.9603C51.6899 17.1254 52.4029 16.4184 53.2256 16.4306C54.0605 16.4428 54.737 17.1436 54.7309 17.9968C54.7309 18.7952 54.0118 19.5082 53.2073 19.5082Z" fill="#E7B742"/>
<path d="M90.1623 19.8677C90.1623 20.2029 89.9551 20.4528 89.6991 20.4528C89.4066 20.4528 89.236 20.2334 89.236 19.8555C89.236 19.2035 89.2421 18.5514 89.2299 17.8993C89.2238 17.4422 89.0653 17.0339 88.6875 16.7475C88.2487 16.4123 87.7734 16.3148 87.2615 16.583C86.7252 16.8633 86.457 17.3265 86.4509 17.9237C86.4387 18.5636 86.4509 19.2035 86.4448 19.8433C86.4448 20.2638 86.3169 20.4406 86 20.4467C85.7135 20.4528 85.5185 20.2029 85.5185 19.819C85.5185 18.594 85.5185 17.3691 85.5185 16.1442C85.5185 15.8699 85.5856 15.6201 85.8598 15.5226C86.1401 15.4251 86.3473 15.5774 86.4875 15.8273C86.4936 15.8456 86.5241 15.8456 86.5667 15.8699C87.1152 15.547 87.7063 15.4251 88.3584 15.5591C89.3579 15.7663 90.144 16.6622 90.1684 17.686C90.1745 18.4112 90.1684 19.1364 90.1623 19.8677Z" fill="#E7B742"/>
<path d="M70.984 20.3796C70.9657 21.4888 69.9967 22.4578 68.9363 22.4456C68.5768 22.4395 68.3635 22.2688 68.3635 21.9885C68.3574 21.7204 68.5402 21.5558 68.8876 21.5193C69.5823 21.4461 70.0576 20.8977 70.0576 20.1481C70.0637 18.7891 70.0576 17.4362 70.0576 16.0772C70.0576 15.675 70.1978 15.4982 70.5208 15.4982C70.789 15.4982 70.984 15.7298 70.984 16.0711C70.9901 16.8024 70.984 17.5276 70.984 18.2589C70.9901 18.9658 70.9962 19.6727 70.984 20.3796Z" fill="#E7B742"/>
<path d="M57.5342 20.4284C57.2417 20.4649 56.937 20.4467 56.6444 20.4101C56.3702 20.3735 56.3275 20.1481 56.3275 19.9104C56.3275 18.917 56.3275 17.9237 56.3275 16.9303C56.3275 15.9675 56.3275 15.0107 56.3275 14.0478C56.3275 13.67 56.4555 13.5176 56.7541 13.5115C57.0954 13.5054 57.2538 13.67 57.2538 14.06C57.2538 15.7359 57.2599 17.4179 57.2538 19.0938C57.2538 19.3436 57.2417 19.5386 57.5951 19.5569C57.7048 19.563 57.8755 19.8007 57.8998 19.953C57.9425 20.1968 57.7719 20.3979 57.5342 20.4284Z" fill="#E7B742"/>
<path d="M39.6052 20.4345C39.3249 20.4711 39.0323 20.465 38.7459 20.4285C38.4839 20.398 38.4107 20.1969 38.4107 19.9409C38.4168 18.9476 38.4168 17.9542 38.4168 16.9609V14.1454C38.4168 13.67 38.5204 13.5116 38.8434 13.5055C39.1725 13.5055 39.3431 13.731 39.3431 14.1759C39.3431 15.8091 39.3492 17.4423 39.3431 19.0756C39.3431 19.3437 39.337 19.5448 39.7088 19.5509C39.8124 19.5509 39.9708 19.8068 39.9891 19.9592C40.0196 20.2152 39.8429 20.4041 39.6052 20.4345Z" fill="#E7B742"/>
<path d="M70.984 9.55029C70.984 10.0074 70.5818 10.2511 70.1735 10.05C70.1003 10.0134 70.0638 9.84891 70.0577 9.7453C70.0516 8.73977 70.0516 7.73423 70.0516 6.73479C70.0516 5.75363 70.0516 4.77247 70.0516 3.79131C70.0516 3.43785 70.2283 3.23065 70.5147 3.23065C70.8012 3.23065 70.9779 3.43785 70.9779 3.79741C70.9901 5.71097 70.9901 7.63063 70.984 9.55029Z" fill="#E7B742"/>
<path d="M81.149 6.64347C81.1429 6.88724 81.0698 6.97256 80.82 6.96646C80.0826 6.95427 79.3391 6.95427 78.6017 6.96646C78.3457 6.97256 78.2848 6.86286 78.2848 6.63128C78.2848 6.39361 78.3518 6.27782 78.6078 6.3022C78.7906 6.31439 78.9734 6.3022 79.1684 6.3022C79.1502 6.05234 79.0953 5.83904 79.1258 5.64403C79.2538 4.92492 79.6316 4.61412 80.3812 4.58365C80.5153 4.57755 80.6493 4.59584 80.7773 4.57755C81.082 4.54099 81.149 4.68115 81.149 4.96149C81.149 5.24182 81.0454 5.33323 80.7773 5.30885C80.6006 5.29666 80.4238 5.30276 80.2471 5.30885C79.9668 5.32104 79.8266 5.47949 79.8144 5.75373C79.8022 6.03406 79.9546 6.20469 80.2532 6.22907C80.4421 6.24126 80.631 6.23516 80.8139 6.25345C81.0393 6.27782 81.1551 6.38142 81.149 6.64347Z" fill="#E7B742"/>
<path d="M71.0571 14.6146C71.0571 14.9436 70.8499 15.163 70.5391 15.1691C70.1796 15.1752 69.948 14.9558 69.948 14.6085C69.948 14.316 70.1613 14.1209 70.4965 14.1148C70.8317 14.1027 71.0571 14.3038 71.0571 14.6146Z" fill="#E7B742"/>
<path d="M64.1951 4.3338C64.189 4.63241 63.933 4.86399 63.6222 4.84571C63.3419 4.83352 63.0921 4.57756 63.1042 4.30333C63.1164 4.00471 63.3724 3.77314 63.6832 3.79142C63.9696 3.80361 64.2012 4.04737 64.1951 4.3338Z" fill="#E7B742"/>
<path d="M91.4908 4.44951C91.4908 4.78469 91.3141 4.9797 90.9972 4.9797C90.6864 4.9797 90.4731 4.7786 90.4609 4.46779C90.4488 4.18137 90.6986 3.92542 90.9728 3.92542C91.2654 3.92542 91.4848 4.1509 91.4908 4.44951Z" fill="#E7B742"/>
<path d="M55.3281 11.0555C55.3342 11.3724 55.0904 11.604 54.7553 11.5979C54.4749 11.5918 54.2677 11.3724 54.2677 11.0921C54.2677 10.7691 54.4932 10.5436 54.7979 10.5436C55.0965 10.5375 55.322 10.763 55.3281 11.0555Z" fill="#E7B742"/>
<path d="M56.6566 11.0616C56.6566 11.3541 56.4311 11.5857 56.1386 11.5918C55.8339 11.5978 55.5901 11.3602 55.5962 11.0494C55.6023 10.7569 55.8339 10.5314 56.1325 10.5314C56.425 10.5436 56.6566 10.769 56.6566 11.0616Z" fill="#E7B742"/>
<path d="M93.3434 11.1226C93.3434 11.3602 93.0448 11.6527 92.795 11.6588C92.5207 11.6649 92.2892 11.4212 92.2892 11.1287C92.2892 10.7752 92.4476 10.6106 92.7828 10.6046C93.1058 10.5985 93.3373 10.8179 93.3434 11.1226Z" fill="#E7B742"/>
<path d="M36.0888 10.4157C36.101 10.6899 35.8634 10.9276 35.5708 10.9337C35.2174 10.9397 35.0406 10.7813 35.0346 10.4583C35.0224 10.1109 35.1991 9.94031 35.5647 9.94031C35.8451 9.9464 36.0767 10.1536 36.0888 10.4157Z" fill="#E7B742"/>
</svg>
