<svg width="20" height="20" viewBox="0 0 20 20" fill="none" xmlns="http://www.w3.org/2000/svg">
<path d="M9.29225 16.4525H10.6578V15.241C11.4334 15.1358 12.1357 14.8444 12.7645 14.3667C13.3933 13.8892 13.7078 13.1652 13.7078 12.1947C13.7078 11.4947 13.5013 10.8755 13.0885 10.337C12.6757 9.79866 11.8692 9.31283 10.6692 8.8795C9.61792 8.5205 8.91983 8.20958 8.575 7.94675C8.23017 7.68391 8.05775 7.31658 8.05775 6.84475C8.05775 6.37291 8.23433 5.98958 8.5875 5.69475C8.94067 5.39991 9.42817 5.25249 10.05 5.25249C10.5705 5.25249 10.9903 5.37524 11.3095 5.62074C11.6288 5.86624 11.8744 6.17424 12.0462 6.54474L13.2807 6.0485C13.0717 5.5165 12.7311 5.06108 12.2587 4.68224C11.7863 4.30341 11.2692 4.09216 10.7078 4.0485V2.83699H9.34225V4.0485C8.48975 4.21266 7.835 4.5585 7.378 5.086C6.92083 5.61366 6.69225 6.19991 6.69225 6.84475C6.69225 7.59608 6.91983 8.20058 7.375 8.65824C7.83017 9.11591 8.57183 9.52933 9.6 9.89849C10.6628 10.2883 11.3888 10.6381 11.778 10.9477C12.167 11.2572 12.3615 11.6729 12.3615 12.1947C12.3615 12.8217 12.1353 13.2772 11.6827 13.561C11.2301 13.845 10.7192 13.987 10.15 13.987C9.58717 13.987 9.08367 13.8178 8.6395 13.4795C8.19517 13.141 7.85375 12.6461 7.61525 11.9947L6.35 12.5102C6.609 13.2524 6.98108 13.8421 7.46625 14.2792C7.95158 14.7164 8.56025 15.0203 9.29225 15.191V16.4525ZM10 19.1447C8.68717 19.1447 7.45292 18.8951 6.29725 18.3957C5.14142 17.8964 4.13592 17.2192 3.28075 16.364C2.42558 15.5088 1.74833 14.5033 1.249 13.3475C0.749667 12.1918 0.5 10.9576 0.5 9.64474C0.5 8.33191 0.749667 7.09766 1.249 5.942C1.74833 4.78616 2.42558 3.78066 3.28075 2.92549C4.13592 2.07033 5.14142 1.39308 6.29725 0.893745C7.45292 0.394412 8.68717 0.144745 10 0.144745C11.3128 0.144745 12.5471 0.394412 13.7028 0.893745C14.8586 1.39308 15.8641 2.07033 16.7193 2.92549C17.5744 3.78066 18.2517 4.78616 18.751 5.942C19.2503 7.09766 19.5 8.33191 19.5 9.64474C19.5 10.9576 19.2503 12.1918 18.751 13.3475C18.2517 14.5033 17.5744 15.5088 16.7193 16.364C15.8641 17.2192 14.8586 17.8964 13.7028 18.3957C12.5471 18.8951 11.3128 19.1447 10 19.1447ZM10 17.6447C12.2333 17.6447 14.125 16.8697 15.675 15.3197C17.225 13.7697 18 11.8781 18 9.64474C18 7.41141 17.225 5.51974 15.675 3.96974C14.125 2.41974 12.2333 1.64474 10 1.64474C7.76667 1.64474 5.875 2.41974 4.325 3.96974C2.775 5.51974 2 7.41141 2 9.64474C2 11.8781 2.775 13.7697 4.325 15.3197C5.875 16.8697 7.76667 17.6447 10 17.6447Z" fill="white"/>
</svg>
