<svg width="16" height="22" viewBox="0 0 16 22" fill="none" xmlns="http://www.w3.org/2000/svg">
<path d="M7.25 9.289V0.115997H8.75V9.289H7.25ZM8 15.789C5.90767 15.789 4.13458 15.0621 2.68075 13.6082C1.22692 12.1544 0.5 10.3813 0.5 8.289C0.5 7.0365 0.791333 5.86725 1.374 4.78125C1.95667 3.69541 2.76408 2.79675 3.79625 2.08525L4.88075 3.16975C3.99358 3.72225 3.29167 4.45108 2.775 5.35625C2.25833 6.26141 2 7.239 2 8.289C2 9.95566 2.58333 11.3723 3.75 12.539C4.91667 13.7057 6.33333 14.289 8 14.289C9.66667 14.289 11.0833 13.7057 12.25 12.539C13.4167 11.3723 14 9.95566 14 8.289C14 7.239 13.7448 6.25825 13.2345 5.34675C12.7243 4.43525 12.0192 3.70958 11.1193 3.16975L12.2038 2.08525C13.2231 2.80958 14.0273 3.71308 14.6163 4.79575C15.2054 5.87841 15.5 7.04283 15.5 8.289C15.5 10.3813 14.7731 12.1544 13.3193 13.6082C11.8654 15.0621 10.0923 15.789 8 15.789ZM4 21.1735C3.75517 21.1735 3.5465 21.0873 3.374 20.915C3.20167 20.7425 3.1155 20.5338 3.1155 20.289C3.1155 20.0442 3.20167 19.8355 3.374 19.663C3.5465 19.4907 3.75517 19.4045 4 19.4045C4.24483 19.4045 4.4535 19.4907 4.626 19.663C4.79833 19.8355 4.8845 20.0442 4.8845 20.289C4.8845 20.5338 4.79833 20.7425 4.626 20.915C4.4535 21.0873 4.24483 21.1735 4 21.1735ZM8 21.1735C7.75517 21.1735 7.5465 21.0873 7.374 20.915C7.20167 20.7425 7.1155 20.5338 7.1155 20.289C7.1155 20.0442 7.20167 19.8355 7.374 19.663C7.5465 19.4907 7.75517 19.4045 8 19.4045C8.24483 19.4045 8.4535 19.4907 8.626 19.663C8.79833 19.8355 8.8845 20.0442 8.8845 20.289C8.8845 20.5338 8.79833 20.7425 8.626 20.915C8.4535 21.0873 8.24483 21.1735 8 21.1735ZM12 21.1735C11.7552 21.1735 11.5465 21.0873 11.374 20.915C11.2017 20.7425 11.1155 20.5338 11.1155 20.289C11.1155 20.0442 11.2017 19.8355 11.374 19.663C11.5465 19.4907 11.7552 19.4045 12 19.4045C12.2448 19.4045 12.4535 19.4907 12.626 19.663C12.7983 19.8355 12.8845 20.0442 12.8845 20.289C12.8845 20.5338 12.7983 20.7425 12.626 20.915C12.4535 21.0873 12.2448 21.1735 12 21.1735Z" fill="white"/>
</svg>
