<svg width="20" height="20" viewBox="0 0 20 20" fill="none" xmlns="http://www.w3.org/2000/svg">
<path d="M7.69225 19.1447L7.3115 16.0985C7.04367 16.0088 6.769 15.8832 6.4875 15.7217C6.20617 15.5601 5.95458 15.387 5.73275 15.2025L2.9115 16.3947L0.604 12.3947L3.04425 10.5505C3.02125 10.4018 3.00492 10.2525 2.99525 10.1025C2.98558 9.9525 2.98075 9.80308 2.98075 9.65425C2.98075 9.51208 2.98558 9.36758 2.99525 9.22075C3.00492 9.07391 3.02125 8.91333 3.04425 8.739L0.604 6.89474L2.9115 2.914L5.723 4.09675C5.96417 3.90575 6.22158 3.73108 6.49525 3.57274C6.76892 3.41441 7.03783 3.28716 7.302 3.19099L7.69225 0.144745H12.3077L12.6885 3.20049C12.9885 3.30949 13.2599 3.43674 13.5027 3.58224C13.7457 3.72774 13.991 3.89925 14.2385 4.09675L17.0885 2.914L19.396 6.89474L16.9173 8.76775C16.9531 8.92924 16.9727 9.08025 16.976 9.22075C16.9792 9.36108 16.9807 9.50241 16.9807 9.64474C16.9807 9.78058 16.9775 9.91875 16.971 10.0592C16.9647 10.1996 16.9417 10.3602 16.902 10.541L19.3615 12.3947L17.0538 16.3947L14.2385 15.1927C13.991 15.3902 13.7384 15.5649 13.4807 15.7167C13.2231 15.8687 12.959 15.9928 12.6885 16.089L12.3077 19.1447H7.69225ZM9 17.6447H10.9655L11.325 14.966C11.8353 14.8327 12.3017 14.6432 12.724 14.3977C13.1465 14.1521 13.5539 13.8363 13.9462 13.4505L16.4307 14.4947L17.4155 12.7947L15.2462 11.1602C15.3296 10.9012 15.3863 10.6473 15.4163 10.3985C15.4464 10.1498 15.4615 9.89858 15.4615 9.64474C15.4615 9.38441 15.4464 9.13316 15.4163 8.891C15.3863 8.64866 15.3296 8.40116 15.2462 8.1485L17.4345 6.49474L16.45 4.79474L13.9365 5.85425C13.6018 5.49658 13.2009 5.18058 12.7337 4.90625C12.2664 4.63191 11.7937 4.43766 11.3155 4.3235L11 1.64474H9.0155L8.6845 4.314C8.17433 4.4345 7.70325 4.61908 7.27125 4.86774C6.83908 5.11658 6.42683 5.43708 6.0345 5.82925L3.55 4.79474L2.5655 6.49474L4.725 8.10425C4.64167 8.34158 4.58333 8.58841 4.55 8.84474C4.51667 9.10108 4.5 9.37091 4.5 9.65425C4.5 9.91458 4.51667 10.1697 4.55 10.4197C4.58333 10.6697 4.6385 10.9166 4.7155 11.1602L2.5655 12.7947L3.55 14.4947L6.025 13.4447C6.4045 13.8344 6.81025 14.1537 7.24225 14.4025C7.67442 14.6512 8.152 14.8422 8.675 14.9755L9 17.6447ZM10.0115 12.6447C10.8435 12.6447 11.5515 12.3527 12.1355 11.7687C12.7195 11.1847 13.0115 10.4767 13.0115 9.64474C13.0115 8.81275 12.7195 8.10474 12.1355 7.52074C11.5515 6.93674 10.8435 6.64474 10.0115 6.64474C9.16917 6.64474 8.45858 6.93674 7.87975 7.52074C7.30092 8.10474 7.0115 8.81275 7.0115 9.64474C7.0115 10.4767 7.30092 11.1847 7.87975 11.7687C8.45858 12.3527 9.16917 12.6447 10.0115 12.6447Z" fill="white"/>
</svg>
