<svg width="321" height="324" viewBox="0 0 321 324" fill="none" xmlns="http://www.w3.org/2000/svg">
<path opacity="0.58" d="M-50.9323 318.448C-45.1091 318.445 36.0299 318.547 38.4343 318.547C40.6569 314.698 80.8275 245.12 83.0137 241.333C81.0688 237.981 40.2932 167.528 38.2447 163.989C38.0003 163.974 -49.7634 163.875 -51.1218 163.89C-56.5144 173.23 -91.0921 233.121 -95.7012 241.104C-93.6978 244.575 -52.1612 316.266 -50.9323 318.448ZM-90.3527 242.215L-82.0582 245.236L-85.3193 250.885L-90.3527 242.215ZM-35.6823 168.345C-35.2376 170.789 -34.8026 173.396 -34.3982 175.691L-37.1728 176.698L-39.417 174.813L-35.6823 168.345ZM-40.2914 176.328L-37.5008 178.654L-34.0734 177.394C-33.9402 178.186 -33.8779 178.516 -33.4515 180.992L-30.0414 182.246L-31.845 185.37L-30.0036 188.536C-31.0736 188.928 -32.1934 189.334 -33.4311 189.797L-34.068 193.384C-36.3247 192.544 -36.7091 192.406 -37.478 192.131L-40.2479 194.444C-41.1662 192.82 -41.5985 192.108 -42.0576 191.296L-45.7208 191.284C-45.6748 191.059 -45.1118 187.892 -45.0609 187.584C-45.662 187.237 -45.1606 187.611 -47.8563 185.339C-46.3261 184.077 -45.7221 183.542 -45.0682 182.994L-45.6901 179.396L-42.0586 179.389L-40.2914 176.328ZM-32.3869 176.811L-25.3824 174.249L-29.0989 180.686L-31.8532 179.685C-31.8714 179.717 -32.1828 178.064 -32.3869 176.811ZM-7.57938 186.884L-12.1893 192.384L-12.1936 186.912L-16.1961 185.443C-15.1262 185.051 -13.7887 184.561 -12.1838 183.973L-12.1881 178.501L-7.55614 183.994L-8.76998 185.439L-7.57938 186.884ZM29.2633 179.546L32.9265 179.557C32.8804 179.783 32.3174 182.95 32.2666 183.257C32.8677 183.604 32.3663 183.23 35.0936 185.52C33.3908 186.935 33.0457 187.241 32.3055 187.865L32.9456 191.432L29.3141 191.439L27.4923 194.595C27.4606 194.577 26.2777 193.557 24.7017 192.268L21.2742 193.529C21.1765 192.968 20.9407 191.696 20.6523 189.931L17.2423 188.677L19.0459 185.553L17.2045 182.386C18.2562 182.026 18.8592 181.785 20.6319 181.126L21.2688 177.538C23.5255 178.379 23.91 178.516 24.6788 178.792L27.4487 176.478C28.3584 177.971 28.7725 178.715 29.2633 179.546ZM28.7795 175.269L34.4918 170.489C34.0535 172.929 33.6056 175.531 33.2085 177.826L30.247 177.842C29.8646 177.116 29.3604 176.236 28.7795 175.269ZM46.0042 202.422L40.569 205.553C39.4944 204.638 37.7785 203.226 36.6406 202.275L35.0182 193.176C38.8943 193.184 41.6246 193.204 44.2419 193.2L48.202 196.496L46.1682 202.138L46.1183 202.151L46.0042 202.422ZM43.7705 213.67L50.812 214.916L46.071 217.649L46.8041 221.858L43.5303 219.127L38.7893 221.859L41.2298 215.148L43.1443 215.412L43.7705 213.67ZM61.1231 224.235C61.5677 226.68 62.0028 229.287 62.4072 231.582L59.6326 232.589L57.3884 230.704L61.1231 224.235ZM56.5139 232.219L59.3045 234.545L62.732 233.284L63.3539 236.883L66.7639 238.136L64.9603 241.26L66.8018 244.427C65.7318 244.819 64.9293 245.113 63.3743 245.688L62.7374 249.275C60.4807 248.435 60.0464 248.31 59.3274 248.021L56.5575 250.335C55.9766 249.368 55.3104 248.184 54.7477 247.186L51.0845 247.175C51.1258 247.031 51.6984 243.701 51.7444 243.475C51.1433 243.128 51.6447 243.502 48.9174 241.212C50.6566 239.734 50.9653 239.491 51.7055 238.867L51.0836 235.268L54.7152 235.261L56.4823 232.2L56.5139 232.219ZM23.0082 314.143C22.5635 311.698 22.1285 309.091 21.7241 306.796L24.4987 305.789L26.7428 307.674L23.0082 314.143ZM27.6355 306.128L24.8449 303.802L21.4175 305.062L20.7956 301.464L17.3855 300.21L19.1891 297.086L17.3477 293.919C18.6171 293.474 19.8049 293.024 20.7752 292.659L21.4121 289.072C23.7186 289.898 23.8452 289.971 24.8221 290.325L27.592 288.012C28.4834 289.536 28.9426 290.348 29.4017 291.16L33.0649 291.171C33.0323 291.447 32.4693 294.614 32.405 294.871C33.0061 295.218 32.5047 294.845 35.2321 297.135C33.7517 298.384 33.1343 298.869 32.444 299.48L33.0841 303.047L29.4525 303.054L27.6672 306.146L27.6355 306.128ZM19.731 305.645L12.7265 308.207L16.443 301.77L19.1973 302.771L19.731 305.645ZM-5.10815 295.554L-0.498255 290.053L-0.512127 295.557L3.49034 297.026C1.68601 297.667 1.05132 297.89 -0.521957 298.496L-0.517611 303.968L-5.14962 298.475L-3.93578 297.03L-5.10815 295.554ZM-13.9329 306.236L-17.8199 310.85L-22.6229 309.086L-27.2691 301.061L-18.628 297.93L-13.825 299.693L-13.8371 305.997L-13.9329 306.236ZM-41.9192 302.91L-45.5824 302.899C-45.3426 301.607 -44.9819 299.375 -44.9225 299.199C-45.5236 298.852 -45.0222 299.225 -47.7179 296.954C-46.2375 295.705 -45.6201 295.22 -44.9298 294.609L-45.5699 291.042L-41.9383 291.035L-40.1165 287.879C-40.0849 287.898 -38.947 288.849 -37.3259 290.206L-33.8985 288.945L-33.2766 292.544L-29.8665 293.797L-31.6701 296.921L-29.8287 300.088C-30.8987 300.48 -32.2179 300.938 -33.2562 301.348L-33.8931 304.936C-36.1498 304.095 -36.5841 303.971 -37.3031 303.682L-40.073 305.996C-40.6855 305.011 -41.2932 303.945 -41.9192 302.91ZM-41.4536 307.218L-47.1659 311.998C-46.7276 309.558 -46.2797 306.956 -45.8826 304.661L-42.9212 304.646C-42.5205 305.34 -42.0163 306.22 -41.4536 307.218ZM-49.0761 258.977L-43.6908 255.86L-39.3358 260.226L-37.7391 266.154L-43.1742 269.285L-52.2885 267.683L-49.2267 259.311L-49.1768 259.298L-49.0761 258.977ZM-56.5078 268.781L-63.5494 267.535L-58.8084 264.802L-59.5415 260.593L-56.2677 263.324L-51.5948 260.637L-54.0352 267.348L-55.8817 267.039L-56.5078 268.781ZM-73.8289 258.234C-74.2735 255.789 -74.7085 253.182 -75.1129 250.887L-72.3383 249.881L-70.0942 251.765L-73.8289 258.234ZM-69.2197 250.251L-72.0103 247.924L-75.4378 249.185L-76.0597 245.586L-79.4697 244.333L-77.6661 241.209L-79.5075 238.042C-78.6552 237.735 -78.1701 237.552 -76.08 236.781L-75.4432 233.194C-73.1864 234.034 -72.802 234.172 -72.0332 234.448L-69.2633 232.134C-68.7591 233.014 -68.1331 234.049 -67.4535 235.283L-63.7903 235.294C-64.5749 239.721 -64.2008 237.539 -64.4502 238.994C-63.8491 239.341 -64.3505 238.968 -61.6548 241.239C-63.7027 242.96 -63.5119 242.775 -64.4429 243.584L-63.7347 247.106L-67.3663 247.113L-69.1881 250.269L-69.2197 250.251ZM-77.106 249.736L-84.1105 252.298L-80.394 245.861L-77.6397 246.862L-77.106 249.736ZM-60.0725 224.398L-56.1492 221.11L-50.7079 224.251L-50.6091 224.518L-50.5775 224.537L-48.4909 230.201C-49.3355 230.934 -50.7612 232.088 -52.4141 233.49L-52.5953 233.511L-61.6561 233.497C-61.1755 230.619 -60.5847 227.258 -60.0725 224.398ZM-40.7188 197.16C-38.8774 200.326 -37.4098 202.899 -36.086 205.135L-36.9905 210.209L-42.9077 211.252L-43.1886 211.3L-48.6616 208.141C-48.4496 207.043 -48.1628 205.231 -47.7754 203.099L-40.7188 197.16ZM-47.3226 200.415C-46.8843 197.975 -46.4364 195.373 -46.0393 193.078L-43.0778 193.063C-42.6772 193.757 -42.173 194.637 -41.592 195.604L-47.3226 200.415ZM14.6221 189.562L10.0129 197.546L5.19817 199.31L1.11641 194.471L1.12843 188.167C1.17828 188.154 3.85314 187.174 5.94319 186.403L14.6221 189.562ZM8.51834 185.449C12.4626 184.024 13.7501 183.547 15.5046 182.92L16.9722 185.492L15.5148 188.016L8.51834 185.449ZM4.6525 201.351L8.6648 199.881L6.53329 203.573L9.80311 207.48L5.0212 206.192L1.34116 212.566L1.3341 205.199L-3.01353 204.035L1.32374 202.879L1.30599 197.357L4.6525 201.351ZM19.881 195.796C20.3831 198.652 20.9696 202.02 21.5034 204.895C21.2665 205.305 19.4083 208.524 18.9346 209.344L12.7031 208.229L8.62136 203.39L11.1901 198.941L19.881 195.796ZM12.5699 196.624L16.2863 190.187L19.0406 191.188C19.2409 192.229 19.3741 193.021 19.5561 194.094L12.5699 196.624ZM35.0164 203.188L35.8961 208.24L30.4427 211.402L24.2112 210.287L23.3316 205.235C23.9145 204.225 27.376 198.23 27.9407 197.252C30.7946 199.615 32.8355 201.34 35.0164 203.188ZM28.8334 195.706L30.3091 193.15L33.2523 193.166L34.5363 200.513C33.0102 199.211 32.527 198.806 28.8334 195.706ZM22.7165 211.78L27.7985 212.695L23.0393 215.458L24.1932 219.743L21.0432 216.578L14.6598 220.255L18.3398 213.881L14.8332 210.384L19.8519 211.262L21.9834 207.57L22.7165 211.78ZM47.385 258.04L43.4617 261.328L37.9887 258.168L37.89 257.901L35.8033 252.236C36.648 251.504 38.0737 250.35 39.7266 248.948L39.9078 248.926L48.9685 248.941C48.488 251.819 47.8971 255.18 47.385 258.04ZM50.7661 248.969L53.7275 248.953C54.1282 249.648 54.6324 250.528 55.2133 251.494L49.501 256.274C49.8894 253.848 50.369 251.264 50.7661 248.969ZM28.0629 285.296C26.6088 282.774 24.9159 279.861 23.4301 277.32L24.3346 272.247L30.5644 271.174L36.0373 274.333C35.8254 275.431 35.5386 277.243 35.1511 279.375L28.0629 285.296ZM34.6667 282.041C34.2284 284.48 33.7805 287.083 33.3834 289.378L30.4219 289.393C30.0213 288.699 29.517 287.819 28.9362 286.852L34.6667 282.041ZM-27.278 292.893L-22.6688 284.91L-17.8541 283.146L-13.7723 287.985L-13.7843 294.289C-14.8361 294.649 -16.5589 295.296 -18.5991 296.053L-27.278 292.893ZM-21.1426 297.025L-28.1289 299.555L-29.6147 297.014L-28.1572 294.489L-21.1426 297.025ZM-17.2768 281.123L-21.2891 282.593L-19.1576 278.902L-22.4274 274.994L-17.6771 276.264L-13.9971 269.89L-13.99 277.257L-9.64237 278.421L-13.9796 279.577L-13.9619 285.099L-17.2768 281.123ZM-32.5369 286.66C-33.039 283.803 -33.6255 280.436 -34.1592 277.561C-33.9224 277.151 -32.0642 273.932 -31.5905 273.112L-25.359 274.227L-21.2773 279.066L-23.846 283.515L-32.5369 286.66ZM-25.244 285.864L-28.9605 292.301L-31.7147 291.3L-32.2303 288.393L-25.244 285.864ZM-47.6723 279.268L-48.552 274.216L-43.0986 271.053L-36.8671 272.169L-35.9875 277.221C-36.5704 278.23 -40.0319 284.226 -40.5966 285.204C-43.6221 282.7 -45.803 280.852 -47.6723 279.268ZM-41.4893 286.75L-42.965 289.306L-45.9082 289.29L-47.1922 281.943C-45.3229 283.527 -45.1062 283.736 -41.4893 286.75ZM-35.2612 271.287L-36.1356 271.413L-35.2612 271.287L-35.3724 270.676L-40.5043 269.775L-35.7134 267.029L-36.8673 262.745L-33.7173 265.91L-27.3339 262.232L-31.014 268.606L-27.5073 272.103L-32.4944 271.244L-34.6259 274.935L-35.2612 271.287ZM-50.6761 258.096L-56.1113 261.227L-60.0398 257.949L-61.6621 248.85C-57.7046 248.863 -54.9243 248.869 -52.4384 248.874L-48.4783 252.17L-50.5122 257.812L-50.562 257.825L-50.6761 258.096ZM-60.2139 242.323L-54.511 247.131C-56.5713 247.119 -57.3727 247.119 -61.9688 247.116L-62.4843 244.21C-61.8486 243.694 -61.0903 243.038 -60.2139 242.323ZM-60.2243 240.003L-62.5001 238.1C-62.3984 237.486 -62.3294 237.147 -62.0013 235.191L-54.5436 235.205L-60.2243 240.003ZM-62.1258 256.155C-63.6836 254.835 -64.7764 253.952 -67.8469 251.38L-66.3713 248.824L-63.428 248.84L-62.1258 256.155ZM-51.794 247.101L-58.8697 241.164L-51.8132 235.225C-51.5189 235.227 -52.1075 235.223 -46.71 235.226L-44.5246 241.158L-46.6726 247.07C-47.7866 247.1 -49.6341 247.085 -51.794 247.101ZM-48.2048 225.907L-43.4595 228.646L-40.2974 225.507L-41.4348 229.815L-35.0443 233.505L-42.4206 233.495L-43.6999 238.268L-45.4453 233.474L-49.6972 233.459C-47.3223 231.465 -47.0817 231.267 -46.4278 230.719L-48.2048 225.907ZM-34.7536 207.503C-33.4164 209.79 -33.1193 210.298 -32.6016 211.228L-27.577 210.343L-31.0708 213.837L-27.3746 220.22L-33.765 216.531L-36.9271 219.67L-35.7897 215.362L-40.5667 212.604L-35.4922 211.705L-34.7536 207.503ZM1.33511 227.919L1.31595 216.043L5.85223 208.186L11.7606 209.788L11.7922 209.806L11.8239 209.825L16.1338 214.122L11.5794 222.011L1.33511 227.919ZM9.86206 225.058L4.94321 233.578L1.32985 233.553L1.32823 229.976L9.86206 225.058ZM-0.425154 228.922L-3.52383 230.709L-5.35183 227.592L-0.432977 219.072L-0.425154 228.922ZM-4.18841 233.102L-0.413819 230.948L-0.423761 235.276L3.9278 235.264L1.74164 239.05L5.5063 241.224L1.7317 243.378L3.91532 247.121L-0.436238 247.133L-0.414548 251.479L-4.1792 249.305L-6.34714 253.06L-8.51254 249.286L-12.2555 251.458L-12.2772 247.112L-16.6288 247.124L-14.4608 243.369L-18.2255 241.196L-14.4509 239.041L-16.6163 235.267L-12.2829 235.286L-12.3046 230.94L-8.53998 233.114L-6.37204 229.359L-4.18841 233.102ZM31.0124 244.169L32.7578 248.963L37.0096 248.978C34.653 250.941 34.3759 251.202 33.7402 251.718L35.4991 256.563L30.7537 253.823L27.6098 256.93L28.7472 252.622L22.3568 248.933L29.7331 248.942L31.0124 244.169ZM22.0795 274.984C20.7739 272.716 20.4317 272.139 19.9275 271.259L14.853 272.158L18.3651 268.632L14.6688 262.249L21.0592 265.938L24.2213 262.799L23.0839 267.107L27.8609 269.865L22.7864 270.764L22.0795 274.984ZM26.7339 253.479L25.1563 259.426L20.7948 263.766L12.9175 259.218L6.96577 248.924L18.8566 248.931L26.7339 253.479ZM1.35543 248.925L4.93715 248.931L9.88049 257.465L1.33883 252.533L1.35543 248.925ZM-0.395393 263.354L-5.33873 254.821L-3.53514 251.697L-0.403209 253.505L-0.395393 263.354ZM5.95736 247.164L4.161 244.065L7.2779 242.246L15.8195 247.178L5.95736 247.164ZM7.26656 240.22L4.13462 238.412L5.93821 235.288L15.8004 235.302L7.26656 240.22ZM-14.0226 254.519L-14.0035 266.395L-18.5398 274.252L-24.4165 272.668L-24.4481 272.65L-24.5296 272.645L-28.8712 268.329L-24.335 260.472L-14.0226 254.519ZM-22.5678 257.411L-17.649 248.891L-14.0356 248.916L-14.034 252.493L-22.5678 257.411ZM-12.2624 253.516L-9.16371 251.729L-7.33571 254.846L-12.2546 263.365L-12.2624 253.516ZM-19.9541 242.217L-16.8222 244.025L-18.6257 247.149L-28.4879 247.135L-19.9541 242.217ZM-19.9654 240.191L-28.5071 235.26L-18.6449 235.274L-16.8485 238.372L-19.9654 240.191ZM-9.18403 230.723L-12.316 228.914L-12.3238 219.065L-7.38044 227.599L-9.18403 230.723ZM-14.0612 233.545L-17.6429 233.538L-22.5862 225.004L-14.0446 229.936L-14.0612 233.545ZM-19.6715 233.545L-31.5623 233.538L-39.4396 228.99L-37.8621 223.043L-33.5006 218.703L-25.6233 223.251L-19.6715 233.545ZM-41.0862 235.276L-32.0073 235.258L-21.7257 241.194L-32.0198 247.115L-41.0805 247.101L-42.6638 241.223L-42.6456 241.191L-42.659 241.141L-41.0862 235.276ZM-31.5185 248.877L-19.6277 248.885L-25.5486 259.14L-33.3883 263.659L-37.7433 259.294L-39.34 253.365L-31.5185 248.877ZM-35.5074 279.896C-35.0627 282.34 -34.6277 284.948 -34.2233 287.243L-36.9979 288.249C-38.3074 287.157 -38.2758 287.175 -39.2421 286.365L-35.5074 279.896ZM-12.2422 275.91L-12.2481 266.861L-6.3273 256.606L-0.388968 266.85L-0.382999 275.899L-6.31559 277.481L-12.2422 275.91ZM1.36839 254.528L11.65 260.464L16.1927 268.303L11.8312 272.643L5.89857 274.225L1.35591 266.385L1.36839 254.528ZM12.7993 274.254L19.0291 273.181C19.61 274.147 20.5283 275.771 21.5951 277.649L19.9982 286.699C16.2354 285.325 12.8886 284.108 11.2876 283.521L8.73497 279.102L12.7993 274.254ZM14.7382 292.96C13.7181 293.338 7.16708 295.699 6.09713 296.091L1.29418 294.328L1.27456 288.005L5.32069 283.189L10.1237 284.952L14.7382 292.96ZM12.6699 285.875C15.0081 286.721 17.5045 287.657 19.7162 288.429L19.2174 291.339C18.7505 291.49 17.7304 291.868 16.4428 292.345L12.6699 285.875ZM22.9774 280.004C24.2245 282.155 25.5617 284.441 26.7187 286.456L24.4982 288.329C23.7293 288.053 22.7841 287.718 21.7123 287.31L22.9774 280.004ZM30.5252 269.342L25.1155 266.219L26.6931 260.272L31.0546 255.932L36.4643 259.055L36.563 259.322L39.6187 267.692L30.5252 269.342ZM41.8244 247.214L47.5367 242.434L49.8126 244.337C49.6697 245.096 49.6236 245.322 49.3138 247.247L41.8244 247.214ZM47.5398 240.164L41.8369 235.357C43.8971 235.368 44.6986 235.368 49.2946 235.371L49.8102 238.277C49.1745 238.794 48.3845 239.432 47.5398 240.164ZM49.4382 226.282C51.1993 227.762 51.6508 228.149 55.1594 231.058L53.6837 233.614L50.7405 233.597L49.4382 226.282ZM48.9564 233.619C44.9988 233.606 42.2186 233.6 39.7327 233.595L35.7725 230.299L37.9205 224.387L43.4055 221.242L47.334 224.52L48.9564 233.619ZM39.1065 235.337L46.1822 241.273L39.1256 247.213C38.8313 247.211 39.42 247.214 34.0225 247.211L31.8371 241.28L33.9851 235.367C35.0991 235.337 36.9465 235.352 39.1065 235.337ZM28.3805 247.194L19.3198 247.179L9.03816 241.243L19.3006 235.304L28.3613 235.318L29.9264 241.228L29.9082 241.26L29.9398 241.278L28.3805 247.194ZM18.831 233.56L6.9402 233.553L12.861 223.298L20.7007 218.778L25.0558 223.144L26.7023 229.059L18.831 233.56ZM22.8515 202.56C22.4068 200.115 21.9718 197.508 21.5674 195.213L24.342 194.206C25.6831 195.317 25.8231 195.44 26.5862 196.091L22.8515 202.56ZM-0.445363 206.527L-0.439396 215.577L-6.36024 225.832L-12.312 215.538L-12.318 206.489L-6.38536 204.907L-0.445363 206.527ZM-14.0559 227.91L-24.3375 221.974L-28.8802 214.134L-24.5686 209.808L-24.5187 209.794L-24.5005 209.763L-18.6177 208.195L-14.0435 216.053L-14.0559 227.91ZM-25.4552 208.202L-31.685 209.275C-32.2659 208.309 -33.1842 206.685 -34.251 204.806L-32.6541 195.757C-29.8998 196.758 -26.6978 197.934 -23.9435 198.935L-21.3909 203.354L-25.4552 208.202ZM-27.3941 189.496C-26.374 189.117 -19.823 186.757 -18.753 186.365L-13.9501 188.128L-13.9305 194.45L-17.9766 199.267C-21.3233 198.05 -17.8318 199.308 -22.7795 197.503L-27.3941 189.496ZM-25.3258 196.58C-27.664 195.735 -30.1604 194.799 -32.3721 194.027L-31.8733 191.117C-31.1389 190.868 -29.951 190.418 -29.0987 190.111L-25.3258 196.58ZM-35.6333 202.452C-36.8804 200.301 -38.2176 198.015 -39.3746 196L-37.1541 194.127C-36.3852 194.402 -35.44 194.738 -34.3682 195.146L-35.6333 202.452ZM-43.5253 213.126L-43.2444 213.077L-37.8347 216.201L-39.4122 222.148L-43.7737 226.487L-49.1834 223.364L-49.2822 223.097L-49.3138 223.079L-52.3695 214.709L-43.5253 213.126ZM-63.4536 233.469L-66.4151 233.484C-66.8158 232.79 -67.3199 231.91 -67.9009 230.943L-62.1885 226.163C-62.577 228.59 -63.0249 231.192 -63.4536 233.469ZM-68.7396 252.926C-65.7774 255.393 -63.5965 257.242 -61.6639 258.862L-60.7842 263.914L-66.2376 267.076L-72.4691 265.961L-73.3488 260.909C-72.7658 259.899 -69.2861 253.873 -68.7396 252.926ZM-48.1575 256.437L-46.4161 251.594L-49.6898 248.862C-46.6651 248.884 -46.2394 248.877 -45.438 248.877L-43.7014 244.116L-42.4133 248.898L-35.037 248.908L-41.4203 252.585L-40.2664 256.869L-43.4165 253.704L-48.1575 256.437ZM-53.536 271.086L-52.8916 269.312L-45.7686 270.564L-50.5096 273.296L-49.7765 277.506L-53.0503 274.774L-57.8412 277.52L-55.3825 270.777L-53.536 271.086ZM-53.2249 276.903L-49.2965 280.181L-47.6741 289.28C-50.7487 289.272 -54.2173 289.289 -56.8978 289.256L-60.8579 285.96L-58.71 280.047L-53.2249 276.903ZM-47.3857 291.045L-46.8701 293.951C-47.5058 294.468 -48.2642 295.124 -49.1405 295.838L-54.8434 291.031C-52.4889 291.044 -51.0489 291.034 -47.3857 291.045ZM-49.1119 298.126L-46.8361 300.029C-46.9196 300.612 -46.979 300.788 -47.3349 302.939L-54.7927 302.925L-49.1119 298.126ZM-36.9658 305.728C-36.1969 306.004 -35.2517 306.339 -34.1799 306.747L-35.445 314.053C-36.6921 311.902 -38.0293 309.616 -39.1863 307.601L-36.9658 305.728ZM-31.7166 302.7C-31.0139 302.433 -30.0618 302.099 -28.9421 301.694L-25.1691 308.163C-27.5073 307.318 -30.0037 306.382 -32.2154 305.61L-31.7166 302.7ZM-12.0187 298.464L-16.0212 296.994C-14.516 296.433 -13.3463 296.014 -12.0089 295.524L-12.0133 290.052L-7.38124 295.546L-8.59508 296.99L-7.40449 298.435L-11.9962 303.904L-12.0187 298.464ZM-6.27191 294.209L-12.2163 287.116L-12.209 280.894L-6.27644 279.312L-0.31822 280.901L-0.325442 287.124L-6.27191 294.209ZM1.41139 279.586L-2.93624 278.422L1.40103 277.266L1.39397 269.899L5.09021 276.282L9.92602 274.993L6.65268 278.909L8.79125 282.584L4.78878 281.115L1.44737 285.076L1.41139 279.586ZM1.27168 299.7C2.32341 299.339 4.04625 298.693 6.08644 297.936L14.7653 301.095L10.138 309.11L5.3232 310.874L1.24144 306.035L1.27168 299.7ZM15.6714 299.599L8.67501 297.032C12.5512 295.652 13.5895 295.242 15.6613 294.502L17.1471 297.043L15.6714 299.599ZM30.4657 304.733L33.409 304.749L34.693 312.096C33.1669 310.794 32.6837 310.389 28.9719 307.32L30.4657 304.733ZM34.3709 300.087C35.0066 299.571 35.765 298.915 36.6413 298.201L42.3442 303.008C40.3655 303.001 39.3511 303.005 34.8865 302.994L34.3709 300.087ZM36.6127 295.912L34.3369 294.009C34.4568 293.363 34.4664 293.201 34.8357 291.1L42.2934 291.114L36.6127 295.912ZM35.1493 289.388C35.6615 286.528 36.2523 283.167 36.7329 280.289L40.6562 277L46.0659 280.123L46.178 280.441L46.2413 280.477L48.2963 286.123C47.4516 286.856 46.0259 288.01 44.373 289.412L44.1918 289.433L35.1493 289.388ZM40.4866 274.883L37.2172 277.623C37.7342 274.682 37.7899 274.293 37.9558 273.422L33.1788 270.664L40.2196 269.427L40.8522 271.181L42.6872 270.852L45.1371 277.568L40.4866 274.883ZM43.234 267.129L41.399 267.458L38.9491 260.742L43.6628 263.464L46.9322 260.723C46.4383 263.551 46.3366 264.166 46.1937 264.925L50.9074 267.646L43.8666 268.882L43.234 267.129ZM48.1121 264.013C48.3241 262.915 48.6109 261.103 48.9984 258.971L56.0866 253.05C57.9548 256.317 60.242 260.246 60.7193 261.026L59.8148 266.099L53.8976 267.143L53.6167 267.191L48.1121 264.013ZM57.4624 251.909L59.6829 250.036C60.4518 250.311 61.397 250.647 62.4688 251.055L61.2037 258.361C59.925 256.192 58.5878 253.905 57.4624 251.909ZM64.9321 247.008C65.7844 246.701 66.6549 246.362 67.7066 246.001L71.4479 252.453C69.1097 251.608 66.6133 250.671 64.4017 249.899L64.9321 247.008ZM68.4882 243.844L67.0024 241.303L68.4598 238.779L75.4562 241.346C71.6299 242.713 70.56 243.105 68.4882 243.844ZM64.4184 232.701L71.4229 230.14L67.7065 236.577L64.9522 235.576L64.4184 232.701ZM56.0339 229.543C52.6201 226.689 50.6875 225.068 48.9581 223.607L48.0785 218.555L53.5318 215.393L53.8396 215.444L59.7633 216.508L60.643 221.56C60.0782 222.538 56.5986 228.565 56.0339 229.543ZM35.4699 226.001L33.7285 230.844L37.0023 233.575C33.7964 233.576 33.502 233.574 32.7504 233.561L31.0138 238.322L29.7257 233.539L22.3494 233.53L28.7328 229.853L27.5789 225.568L30.7289 228.733L35.4699 226.001ZM31.0215 226.546L26.6665 222.18L25.0698 216.252L30.4551 213.134L39.5693 214.736L36.425 223.397L31.0215 226.546ZM40.7987 211.365L40.1543 213.139L33.1127 211.892L37.8537 209.16L37.1206 204.95C38.1502 205.797 38.0869 205.76 40.3944 207.682L45.0673 204.994L42.6269 211.705L40.7987 211.365ZM34.7298 191.411L34.2142 188.505C34.8499 187.988 35.6083 187.332 36.4846 186.618L42.1875 191.425C40.2088 191.419 39.3258 191.414 34.7298 191.411ZM36.456 184.329L34.1802 182.426C34.3001 181.78 34.3327 181.505 34.679 179.517L42.1368 179.531L36.456 184.329ZM24.3099 176.728C23.541 176.452 22.5958 176.117 21.524 175.708L22.7891 168.403C24.0362 170.553 25.3734 172.84 26.5304 174.854L24.3099 176.728ZM19.0425 179.787C17.6054 180.304 16.8029 180.598 16.2679 180.794L12.5266 174.342C14.8649 175.187 17.3795 176.092 19.5729 176.896L19.0425 179.787ZM14.5815 181.377C14.5815 181.377 9.66706 183.167 5.94046 184.508L1.1375 182.745L1.11789 176.422L5.16401 171.606L9.96697 173.369L14.5815 181.377ZM-0.637165 183.992L3.36531 185.461C1.82846 186.005 1.87831 185.991 -0.646985 186.931L-0.660867 192.435L-5.30629 186.892L-4.09245 185.447L-5.28304 184.002L-0.654925 178.47L-0.637165 183.992ZM-6.41563 188.229L-0.471284 195.321L-0.4785 201.544L-6.41109 203.125L-12.3693 201.536L-12.3621 195.314L-6.41563 188.229ZM-14.0989 202.852L-9.7513 204.016L-14.0886 205.172L-14.0815 212.539L-17.7777 206.155L-22.5637 207.431L-19.3086 203.546L-21.4472 199.872C-18.4216 200.987 -18.806 200.849 -17.4447 201.341L-14.1033 197.38L-14.0989 202.852ZM-13.9276 182.756C-14.9793 183.116 -16.7022 183.763 -18.7423 184.52L-27.4212 181.36L-22.8121 173.377L-17.9973 171.613L-13.9156 176.452L-13.9276 182.756ZM-28.3273 182.857L-21.3309 185.424C-25.2071 186.804 -26.2454 187.214 -28.3172 187.953L-29.803 185.413L-28.3273 182.857ZM-43.1216 177.723L-46.0648 177.707L-47.3489 170.36C-45.5563 171.858 -45.1814 172.158 -41.6278 175.136L-43.1216 177.723ZM-47.0268 182.368C-47.6625 182.885 -48.4209 183.541 -49.2972 184.255L-55.0001 179.448C-53.1843 179.444 -50.3725 179.469 -47.5424 179.462L-47.0268 182.368ZM-49.2686 186.544L-46.9928 188.446C-47.1127 189.092 -47.1453 189.368 -47.4916 191.356L-54.9493 191.342L-49.2686 186.544ZM-47.8052 193.068C-48.3174 195.928 -48.9082 199.289 -49.3888 202.167L-53.3121 205.456L-58.7851 202.296L-58.8838 202.029L-60.9388 196.382C-60.0941 195.65 -58.6684 194.496 -57.0155 193.094L-56.8343 193.072L-47.8052 193.068ZM-53.1425 207.573L-49.8731 204.833C-50.3671 207.661 -50.4688 208.275 -50.6117 209.034L-45.898 211.756L-52.9388 212.992L-53.5714 211.238L-55.4064 211.567L-57.8563 204.852L-53.1425 207.573ZM-55.9532 215.29L-54.1182 214.962L-51.6683 221.677L-56.3504 218.974L-59.6198 221.714C-59.121 218.805 -59.0059 218.24 -58.8812 217.513L-63.6266 214.773L-56.5857 213.537L-55.9532 215.29ZM-60.7996 218.425C-61.0116 219.522 -61.2984 221.334 -61.6859 223.466L-68.7741 229.387C-70.2283 226.865 -71.9211 223.952 -73.4069 221.412L-72.5024 216.338L-66.2726 215.265L-60.7996 218.425ZM-70.1183 230.547L-72.3388 232.42C-73.1077 232.144 -74.0529 231.809 -75.1247 231.401L-73.8596 224.095C-72.6125 226.246 -71.2753 228.532 -70.1183 230.547ZM-77.6196 235.43C-78.5218 235.75 -79.3424 236.076 -80.3942 236.436L-84.1355 229.985C-81.7973 230.83 -79.2826 231.735 -77.0892 232.538L-77.6196 235.43ZM-81.1757 238.594L-79.7081 241.166L-81.1656 243.69L-88.1802 241.155C-83.7326 239.515 -82.7806 239.182 -81.1757 238.594ZM-83.5363 253.934L-76.7993 251.47C-76.2972 254.326 -75.7107 257.694 -75.177 260.569C-75.3774 260.916 -76.7437 263.283 -77.436 264.482L-83.5363 253.934ZM-76.4276 266.242L-74.6969 263.244L-73.9638 267.454L-68.8818 268.369L-73.6228 271.101L-76.4276 266.242ZM-71.6288 271.958L-66.2435 268.84L-57.1292 270.442L-60.2917 279.134L-65.677 282.252C-70.6638 277.227 -69.826 278.552 -71.6288 271.958ZM-65.9016 284.394L-61.1423 281.63L-62.9019 286.504L-59.6282 289.236C-61.6568 289.243 -62.4084 289.23 -63.0786 289.221L-65.9016 284.394ZM-62.0884 291.013C-60.6983 291.016 -58.638 291.028 -57.5738 291.011L-50.4981 296.947L-55.988 301.561L-62.0884 291.013ZM-54.1917 304.66L-47.6668 304.683C-48.1377 307.398 -48.7007 310.565 -49.1899 313.312L-54.1917 304.66ZM-47.3052 314.358L-40.5938 308.724C-39.5537 310.503 -38.4101 312.467 -37.3116 314.364L-47.3052 314.358ZM-33.7481 314.401L-32.4974 307.34C-29.422 308.443 -26.012 309.696 -23.7869 310.518L-21.5314 314.429L-33.7481 314.401ZM-19.5344 314.404L-21.2406 311.441L-17.2382 312.911L-13.915 308.981L-13.9106 314.453L-19.5344 314.404ZM-12.1628 313.106L-12.1872 306.865L-12.0098 306.631L-6.25895 299.812L-0.29639 306.873L-0.290196 313.145C-7.12015 314.966 -5.59389 314.879 -12.1628 313.106ZM1.44879 314.443L1.46266 308.94L4.80917 312.934L8.82147 311.464L7.10898 314.43L1.44879 314.443ZM9.11938 314.454L11.3784 310.542L20.0693 307.397C20.4785 309.611 20.8867 312.119 21.3045 314.463L9.11938 314.454ZM24.8546 314.451C26.0934 312.306 27.733 309.466 28.1156 308.803C30.8113 311.075 32.7756 312.714 34.8481 314.457L24.8546 314.451ZM36.7129 313.346L35.1931 304.727C37.5975 304.727 39.6578 304.739 41.6864 304.732L36.7129 313.346ZM43.4535 301.671L37.9673 297.073L45.0238 291.134C45.2865 291.117 44.811 291.137 49.4885 291.145L43.4219 301.653L43.4535 301.671ZM50.5403 289.396L47.1216 289.4C49.4965 287.405 49.7371 287.208 50.391 286.66L48.6322 281.815L53.3459 284.537L50.5403 289.396ZM53.0815 282.365L47.7034 279.26L47.5913 278.943L47.528 278.906L44.4723 270.536L53.2484 268.998L53.561 268.968L59.0023 272.11C57.1774 278.923 57.9837 277.454 53.0815 282.365ZM61.0157 271.252L56.2387 268.494L61.3132 267.596L62.0699 263.362C62.9298 264.869 63.4072 265.649 63.8213 266.393L61.0157 271.252ZM64.8232 264.658C64.2606 263.66 63.441 262.303 62.5361 260.729L64.1331 251.679C66.2633 252.446 68.6647 253.328 70.9215 254.168L64.8549 264.676L64.8232 264.658ZM72.6752 251.058L69.4113 245.387C70.3633 245.053 75.9623 243.026 77.6851 242.38L72.6752 251.058ZM77.6786 240.273L69.3841 237.251L72.6634 231.571L77.6786 240.273ZM70.8804 228.522L64.1118 230.967C63.6096 228.111 63.0232 224.743 62.4894 221.869C62.6898 221.522 64.0562 219.155 64.7667 217.924L70.8804 228.522ZM63.7401 216.196L62.0093 219.193L61.2763 214.984L56.1943 214.069L60.9535 211.305L63.7401 216.196ZM58.9413 210.48L53.5061 213.611L53.1984 213.559L44.3918 212.009L47.4537 203.637L47.5035 203.624L47.6176 203.353L53.0029 200.236C57.9763 205.211 57.1116 203.786 58.9413 210.48ZM53.2322 198.012L48.4912 200.744L50.2326 195.902L46.9589 193.17C49.1821 193.191 49.8206 193.181 50.4092 193.185L53.2322 198.012ZM49.4325 191.443C48.305 191.423 46.7337 191.441 44.9179 191.445L37.8422 185.508L43.3321 180.895L49.4325 191.443ZM41.5358 177.796L35.0108 177.773C35.4818 175.058 36.0448 171.891 36.534 169.144L41.5358 177.796ZM34.6493 168.098L27.9196 173.763C26.8796 171.985 25.736 170.02 24.6557 168.092L34.6493 168.098ZM21.0922 168.054L19.8415 175.116C17.0872 174.114 13.8852 172.939 11.131 171.938L8.87545 168.027L21.0922 168.054ZM6.87847 168.052L8.58472 171.015L4.58225 169.545L1.22262 173.538L1.23649 168.034L6.87847 168.052ZM-0.49311 169.35L-0.486914 175.622L-6.41517 182.676L-12.3595 175.583L-12.3657 169.311C-5.58561 167.504 -7.09364 167.558 -0.49311 169.35ZM-14.1229 168.044L-14.1186 173.516L-17.4517 169.572L-21.4639 171.042L-19.7515 168.076L-14.1229 168.044ZM-21.7753 168.001L-24.0343 171.914L-32.7252 175.059C-33.1344 172.845 -33.5426 170.337 -33.9604 167.992L-21.7753 168.001ZM-37.5105 168.004C-38.7493 170.15 -40.3889 172.99 -40.7715 173.653C-43.6072 171.258 -45.3548 169.828 -47.504 167.999L-37.5105 168.004ZM-49.3688 169.11L-47.849 177.728C-50.4663 177.732 -52.445 177.726 -54.3423 177.724L-49.3688 169.11ZM-56.1095 180.785L-50.6232 185.383L-57.6797 191.322C-57.9424 191.339 -57.4353 191.337 -62.1444 191.311L-56.0778 180.803L-56.1095 180.785ZM-63.1962 193.06L-59.7775 193.056C-62.1524 195.051 -62.393 195.248 -63.0469 195.796L-61.2881 200.64L-66.0018 197.919L-63.1962 193.06ZM-65.769 200.073L-60.3593 203.196L-60.2606 203.463L-57.2049 211.833L-66.3118 213.433L-71.7215 210.31C-69.8515 203.564 -70.585 204.907 -65.769 200.073ZM-73.6716 211.203L-68.9262 213.943L-74.0007 214.842L-74.7575 219.075C-75.649 217.551 -76.1397 216.72 -76.4954 216.094L-73.6716 211.203ZM-77.4974 217.83C-76.9165 218.796 -76.1151 220.185 -75.2102 221.759L-76.8072 230.808C-78.9374 230.041 -81.3072 229.178 -83.5639 228.337L-77.4974 217.83ZM-85.3493 231.43L-82.0672 237.069C-83.7037 237.639 -85.0594 238.16 -90.3228 240.044L-85.3493 231.43Z" fill="url(#paint0_linear_401_102)" fill-opacity="0.14"/>
<path opacity="0.58" d="M88.6433 232.009C94.4665 232.006 175.605 232.108 178.01 232.108C180.232 228.259 220.403 158.681 222.589 154.895C220.644 151.542 179.869 81.089 177.82 77.5503C177.576 77.5353 89.8122 77.4363 88.4537 77.4513C83.0612 86.7915 48.4835 146.682 43.8743 154.665C45.8777 158.136 87.4144 229.827 88.6433 232.009ZM49.2229 155.776L57.5173 158.797L54.2563 164.446L49.2229 155.776ZM103.893 81.9057C104.338 84.3502 104.773 86.9574 105.177 89.2524L102.403 90.259L100.159 88.3743L103.893 81.9057ZM99.2841 89.889L102.075 92.2153L105.502 90.9546C105.635 91.7467 105.698 92.0772 106.124 94.5532L109.534 95.8068L107.731 98.9307L109.572 102.097C108.502 102.489 107.382 102.895 106.144 103.358L105.508 106.945C103.251 106.105 102.866 105.967 102.098 105.692L99.3277 108.005C98.4094 106.381 97.9771 105.669 97.5179 104.857L93.8547 104.846C93.9008 104.62 94.4638 101.453 94.5146 101.145C93.9135 100.798 94.4149 101.172 91.7192 98.9004C93.2494 97.6382 93.8534 97.1034 94.5073 96.5553L93.8854 92.9567L97.517 92.9497L99.2841 89.889ZM107.189 90.3715L114.193 87.8102L110.477 94.2473L107.722 93.2462C107.704 93.2777 107.393 91.6254 107.189 90.3715ZM131.996 100.445L127.386 105.945L127.382 100.473L123.379 99.0041C124.449 98.6121 125.787 98.1221 127.392 97.5341L127.387 92.0621L132.019 97.5553L130.806 99.0002L131.996 100.445ZM168.839 93.1066L172.502 93.1179C172.456 93.3438 171.893 96.5108 171.842 96.818C172.443 97.165 171.942 96.7914 174.669 99.0813C172.966 100.496 172.621 100.802 171.881 101.426L172.521 104.993L168.89 105L167.068 108.156C167.036 108.138 165.853 107.118 164.277 105.829L160.85 107.09C160.752 106.529 160.516 105.257 160.228 103.492L156.818 102.238L158.621 99.1141L156.78 95.9474C157.832 95.5869 158.435 95.3461 160.207 94.6866L160.844 91.0995C163.101 91.9396 163.486 92.0774 164.254 92.353L167.024 90.0395C167.934 91.5324 168.348 92.2763 168.839 93.1066ZM168.355 88.8304L174.067 84.0505C173.629 86.4901 173.181 89.0924 172.784 91.3875L169.823 91.4027C169.44 90.677 168.936 89.7969 168.355 88.8304ZM185.58 115.983L180.145 119.114C179.07 118.199 177.354 116.787 176.216 115.836L174.594 106.737C178.47 106.745 181.2 106.765 183.817 106.761L187.778 110.057L185.744 115.699L185.694 115.712L185.58 115.983ZM183.346 127.231L190.388 128.477L185.647 131.21L186.38 135.419L183.106 132.688L178.365 135.42L180.805 128.709L182.72 128.973L183.346 127.231ZM200.699 137.796C201.143 140.241 201.578 142.848 201.983 145.143L199.208 146.15L196.964 144.265L200.699 137.796ZM196.09 145.78L198.88 148.106L202.308 146.845L202.929 150.444L206.339 151.697L204.536 154.821L206.377 157.988C205.307 158.38 204.505 158.674 202.95 159.249L202.313 162.836C200.056 161.996 199.622 161.871 198.903 161.582L196.133 163.896C195.552 162.929 194.886 161.745 194.323 160.747L190.66 160.736C190.701 160.592 191.274 157.262 191.32 157.036C190.719 156.689 191.22 157.063 188.493 154.773C190.232 153.295 190.541 153.052 191.281 152.428L190.659 148.829L194.291 148.822L196.058 145.761L196.09 145.78ZM162.584 227.704C162.139 225.259 161.704 222.652 161.3 220.357L164.074 219.35L166.318 221.235L162.584 227.704ZM167.211 219.689L164.42 217.363L160.993 218.623L160.371 215.025L156.961 213.771L158.765 210.647L156.923 207.48C158.193 207.035 159.381 206.585 160.351 206.22L160.988 202.633C163.294 203.459 163.421 203.532 164.398 203.886L167.168 201.573C168.059 203.097 168.518 203.909 168.977 204.721L172.64 204.732C172.608 205.008 172.045 208.175 171.981 208.432C172.582 208.779 172.08 208.406 174.808 210.696C173.327 211.945 172.71 212.43 172.02 213.041L172.66 216.608L169.028 216.615L167.243 219.707L167.211 219.689ZM159.307 219.206L152.302 221.768L156.019 215.331L158.773 216.332L159.307 219.206ZM134.467 209.115L139.077 203.614L139.063 209.118L143.066 210.587C141.262 211.228 140.627 211.451 139.054 212.057L139.058 217.529L134.426 212.036L135.64 210.591L134.467 209.115ZM125.643 219.797L121.756 224.411L116.953 222.647L112.307 214.622L120.948 211.491L125.751 213.254L125.739 219.558L125.643 219.797ZM97.6564 216.471L93.9932 216.46C94.233 215.168 94.5936 212.936 94.6531 212.76C94.052 212.413 94.5534 212.786 91.8577 210.515C93.338 209.266 93.9555 208.781 94.6458 208.17L94.0057 204.603L97.6372 204.596L99.459 201.44C99.4907 201.459 100.629 202.41 102.25 203.767L105.677 202.506L106.299 206.105L109.709 207.358L107.905 210.482L109.747 213.649C108.677 214.041 107.358 214.499 106.319 214.91L105.682 218.497C103.426 217.657 102.991 217.532 102.272 217.243L99.5026 219.557C98.8901 218.572 98.2823 217.506 97.6564 216.471ZM98.122 220.779L92.4096 225.559C92.8479 223.119 93.2959 220.517 93.693 218.222L96.6544 218.207C97.0551 218.901 97.5593 219.781 98.122 220.779ZM90.4994 172.539L95.8847 169.421L100.24 173.787L101.836 179.715L96.4013 182.846L87.2871 181.244L90.3489 172.872L90.3988 172.859L90.4994 172.539ZM83.0677 182.342L76.0261 181.096L80.7672 178.363L80.0341 174.154L83.3078 176.885L87.9808 174.198L85.5403 180.909L83.6939 180.6L83.0677 182.342ZM65.7467 171.795C65.3021 169.35 64.867 166.743 64.4627 164.448L67.2372 163.442L69.4814 165.326L65.7467 171.795ZM70.3559 163.812L67.5653 161.485L64.1378 162.746L63.5159 159.147L60.1059 157.894L61.9095 154.77L60.0681 151.603C60.9204 151.296 61.4055 151.113 63.4955 150.342L64.1324 146.755C66.3891 147.595 66.7736 147.733 67.5424 148.009L70.3123 145.695C70.8165 146.575 71.4425 147.61 72.1221 148.844L75.7853 148.855C75.0007 153.283 75.3748 151.1 75.1254 152.555C75.7265 152.902 75.2251 152.529 77.9208 154.8C75.8729 156.521 76.0636 156.336 75.1327 157.145L75.8409 160.668L72.2093 160.674L70.3875 163.83L70.3559 163.812ZM62.4696 163.297L55.4651 165.859L59.1816 159.422L61.9358 160.423L62.4696 163.297ZM79.5031 137.959L83.4264 134.671L88.8677 137.812L88.9664 138.079L88.9981 138.098L91.0847 143.762C90.24 144.495 88.8143 145.649 87.1614 147.051L86.9802 147.072L77.9195 147.058C78.4001 144.18 78.9909 140.819 79.5031 137.959ZM98.8568 110.721C100.698 113.887 102.166 116.46 103.49 118.696L102.585 123.77L96.6678 124.813L96.3869 124.862L90.914 121.702C91.1259 120.604 91.4127 118.792 91.8002 116.66L98.8568 110.721ZM92.2529 113.976C92.6913 111.536 93.1392 108.934 93.5363 106.639L96.4977 106.624C96.8984 107.318 97.4026 108.198 97.9835 109.165L92.2529 113.976ZM154.198 103.123L149.588 111.107L144.774 112.871L140.692 108.032L140.704 101.728C140.754 101.715 143.429 100.735 145.519 99.9638L154.198 103.123ZM148.094 99.0104C152.038 97.5852 153.326 97.1085 155.08 96.4806L156.548 99.0529L155.09 101.577L148.094 99.0104ZM144.228 114.912L148.24 113.442L146.109 117.134L149.379 121.041L144.597 119.753L140.917 126.127L140.91 118.76L136.562 117.596L140.899 116.44L140.882 110.918L144.228 114.912ZM159.457 109.357C159.959 112.213 160.545 115.581 161.079 118.456C160.842 118.866 158.984 122.085 158.51 122.905L152.279 121.79L148.197 116.951L150.766 112.502L159.457 109.357ZM152.145 110.185L155.862 103.748L158.616 104.749C158.816 105.79 158.95 106.582 159.132 107.655L152.145 110.185ZM174.592 116.749L175.472 121.801L170.018 124.963L163.787 123.848L162.907 118.796C163.49 117.786 166.952 111.791 167.516 110.813C170.37 113.176 172.411 114.901 174.592 116.749ZM168.409 109.267L169.885 106.711L172.828 106.727L174.112 114.074C172.586 112.772 172.103 112.367 168.409 109.267ZM162.292 125.341L167.374 126.256L162.615 129.019L163.769 133.304L160.619 130.139L154.235 133.816L157.915 127.442L154.409 123.945L159.428 124.823L161.559 121.131L162.292 125.341ZM186.961 171.601L183.037 174.889L177.564 171.729L177.466 171.462L175.379 165.797C176.224 165.065 177.649 163.911 179.302 162.509L179.483 162.487L188.544 162.502C188.064 165.38 187.473 168.741 186.961 171.601ZM190.342 162.53L193.303 162.514C193.704 163.209 194.208 164.089 194.789 165.055L189.077 169.835C189.465 167.409 189.945 164.825 190.342 162.53ZM167.638 198.857C166.184 196.335 164.491 193.422 163.006 190.881L163.91 185.808L170.14 184.735L175.613 187.894C175.401 188.992 175.114 190.804 174.727 192.936L167.638 198.857ZM174.242 195.602C173.804 198.041 173.356 200.644 172.959 202.939L169.997 202.954C169.597 202.26 169.093 201.38 168.512 200.413L174.242 195.602ZM112.298 206.454L116.907 198.471L121.721 196.707L125.803 201.546L125.791 207.85C124.74 208.21 123.017 208.857 120.976 209.614L112.298 206.454ZM118.433 210.586L111.447 213.116L109.961 210.575L111.418 208.05L118.433 210.586ZM122.299 194.684L118.287 196.154L120.418 192.463L117.148 188.555L121.898 189.825L125.578 183.451L125.586 190.818L129.933 191.982L125.596 193.138L125.614 198.66L122.299 194.684ZM107.039 200.221C106.537 197.364 105.95 193.997 105.416 191.122C105.653 190.712 107.511 187.493 107.985 186.673L114.217 187.788L118.298 192.627L115.73 197.076L107.039 200.221ZM114.332 199.425L110.615 205.862L107.861 204.861L107.345 201.954L114.332 199.425ZM91.9032 192.829L91.0236 187.777L96.4769 184.615L102.708 185.73L103.588 190.782C103.005 191.791 99.5437 197.787 98.9789 198.765C95.9535 196.261 93.7726 194.413 91.9032 192.829ZM98.0863 200.311L96.6106 202.867L93.6674 202.851L92.3833 195.504C94.2527 197.088 94.4693 197.297 98.0863 200.311ZM104.314 184.848L103.44 184.974L104.314 184.848L104.203 184.237L99.0713 183.336L103.862 180.59L102.708 176.306L105.858 179.471L112.242 175.793L108.562 182.167L112.068 185.664L107.081 184.805L104.95 188.496L104.314 184.848ZM88.8994 171.657L83.4643 174.788L79.5358 171.51L77.9134 162.411C81.871 162.424 84.6512 162.43 87.1371 162.435L91.0973 165.731L89.0634 171.373L89.0135 171.386L88.8994 171.657ZM79.3616 155.884L85.0646 160.692C83.0043 160.68 82.2028 160.68 77.6068 160.677L77.0913 157.771C77.7269 157.255 78.4853 156.599 79.3616 155.884ZM79.3513 153.564L77.0755 151.662C77.1771 151.047 77.2462 150.708 77.5742 148.752L85.032 148.766L79.3513 153.564ZM77.4498 169.716C75.892 168.396 74.7992 167.513 71.7286 164.941L73.2043 162.385L76.1475 162.401L77.4498 169.716ZM87.7815 160.662L80.7058 154.725L87.7624 148.786C88.0567 148.788 87.4681 148.784 92.8656 148.787L95.0509 154.719L92.9029 160.631C91.7889 160.661 89.9415 160.646 87.7815 160.662ZM91.3707 139.468L96.1161 142.207L99.2782 139.068L98.1408 143.376L104.531 147.066L97.1549 147.056L95.8756 151.829L94.1302 147.035L89.8784 147.021C92.2533 145.026 92.4939 144.828 93.1478 144.28L91.3707 139.468ZM104.822 121.064C106.159 123.351 106.456 123.859 106.974 124.789L111.999 123.904L108.505 127.398L112.201 133.781L105.811 130.092L102.649 133.231L103.786 128.923L99.0089 126.165L104.083 125.266L104.822 121.064ZM140.911 141.48L140.892 129.604L145.428 121.747L151.336 123.349L151.368 123.367L151.399 123.386L155.709 127.683L151.155 135.572L140.911 141.48ZM149.438 138.619L144.519 147.139L140.905 147.114L140.904 143.537L149.438 138.619ZM139.15 142.483L136.052 144.27L134.224 141.153L139.143 132.633L139.15 142.483ZM135.387 146.663L139.162 144.509L139.152 148.837L143.503 148.825L141.317 152.611L145.082 154.785L141.307 156.939L143.491 160.682L139.139 160.694L139.161 165.04L135.396 162.866L133.228 166.621L131.063 162.847L127.32 165.019L127.298 160.673L122.947 160.685L125.115 156.93L121.35 154.757L125.125 152.602L122.959 148.828L127.293 148.848L127.271 144.502L131.036 146.675L133.204 142.92L135.387 146.663ZM170.588 157.73L172.333 162.525L176.585 162.539C174.229 164.502 173.951 164.763 173.316 165.28L175.075 170.124L170.329 167.384L167.185 170.491L168.323 166.183L161.932 162.494L169.309 162.503L170.588 157.73ZM161.655 188.545C160.35 186.277 160.007 185.7 159.503 184.82L154.429 185.719L157.941 182.193L154.244 175.81L160.635 179.499L163.797 176.36L162.659 180.668L167.436 183.426L162.362 184.325L161.655 188.545ZM166.309 167.04L164.732 172.987L160.37 177.327L152.493 172.779L146.541 162.485L158.432 162.492L166.309 167.04ZM140.931 162.486L144.513 162.492L149.456 171.026L140.914 166.094L140.931 162.486ZM139.18 176.915L134.237 168.382L136.04 165.258L139.172 167.066L139.18 176.915ZM145.533 160.725L143.737 157.626L146.853 155.807L155.395 160.739L145.533 160.725ZM146.842 153.781L143.71 151.973L145.514 148.849L155.376 148.863L146.842 153.781ZM125.553 168.08L125.572 179.956L121.036 187.813L115.159 186.229L115.127 186.211L115.046 186.206L110.704 181.89L115.241 174.033L125.553 168.08ZM117.008 170.972L121.927 162.452L125.54 162.477L125.542 166.054L117.008 170.972ZM127.313 167.077L130.412 165.29L132.24 168.407L127.321 176.926L127.313 167.077ZM119.621 155.778L122.753 157.586L120.95 160.71L111.088 160.696L119.621 155.778ZM119.61 153.752L111.068 148.821L120.931 148.835L122.727 151.933L119.61 153.752ZM130.392 144.284L127.26 142.475L127.252 132.626L132.195 141.16L130.392 144.284ZM125.514 147.106L121.933 147.099L116.989 138.565L125.531 143.497L125.514 147.106ZM119.904 147.106L108.013 147.099L100.136 142.551L101.713 136.604L106.075 132.264L113.952 136.812L119.904 147.106ZM98.4893 148.837L107.568 148.819L117.85 154.755L107.556 160.677L98.4951 160.662L96.9118 154.784L96.93 154.752L96.9166 154.702L98.4893 148.837ZM108.057 162.438L119.948 162.446L114.027 172.701L106.187 177.22L101.832 172.855L100.236 166.926L108.057 162.438ZM104.068 193.457C104.513 195.901 104.948 198.509 105.352 200.804L102.578 201.81C101.268 200.718 101.3 200.736 100.333 199.926L104.068 193.457ZM127.333 189.471L127.327 180.422L133.248 170.167L139.187 180.411L139.193 189.46L133.26 191.042L127.333 189.471ZM140.944 168.089L151.226 174.025L155.768 181.865L151.407 186.204L145.474 187.786L140.931 179.946L140.944 168.089ZM152.375 187.815L158.605 186.742C159.186 187.708 160.104 189.332 161.171 191.21L159.574 200.26C155.811 198.887 152.464 197.67 150.863 197.082L148.311 192.663L152.375 187.815ZM154.314 206.521C153.294 206.9 146.743 209.26 145.673 209.652L140.87 207.889L140.85 201.566L144.896 196.75L149.699 198.513L154.314 206.521ZM152.245 199.436C154.584 200.282 157.08 201.218 159.292 201.99L158.793 204.9C158.326 205.051 157.306 205.429 156.018 205.906L152.245 199.436ZM162.553 193.565C163.8 195.716 165.137 198.002 166.294 200.017L164.074 201.89C163.305 201.614 162.36 201.279 161.288 200.871L162.553 193.565ZM170.101 182.903L164.691 179.78L166.269 173.833L170.63 169.493L176.04 172.616L176.139 172.884L179.194 181.253L170.101 182.903ZM181.4 160.775L187.112 155.995L189.388 157.898C189.245 158.657 189.199 158.883 188.889 160.808L181.4 160.775ZM187.115 153.725L181.412 148.918C183.473 148.929 184.274 148.929 188.87 148.932L189.386 151.838C188.75 152.355 187.96 152.993 187.115 153.725ZM189.014 139.843C190.775 141.323 191.226 141.71 194.735 144.619L193.259 147.175L190.316 147.158L189.014 139.843ZM188.532 147.18C184.574 147.167 181.794 147.161 179.308 147.156L175.348 143.86L177.496 137.948L182.981 134.804L186.91 138.081L188.532 147.18ZM178.682 148.898L185.758 154.834L178.701 160.774C178.407 160.772 178.996 160.775 173.598 160.772L171.413 154.841L173.561 148.928C174.675 148.898 176.522 148.913 178.682 148.898ZM167.956 160.755L158.895 160.74L148.614 154.804L158.876 148.865L167.937 148.879L169.502 154.789L169.484 154.821L169.515 154.839L167.956 160.755ZM158.407 147.121L146.516 147.114L152.437 136.859L160.276 132.339L164.631 136.705L166.278 142.62L158.407 147.121ZM162.427 116.121C161.982 113.676 161.547 111.069 161.143 108.774L163.918 107.768C165.259 108.878 165.399 109.001 166.162 109.652L162.427 116.121ZM139.13 120.089L139.136 129.138L133.215 139.393L127.264 129.099L127.258 120.05L133.19 118.468L139.13 120.089ZM125.52 141.471L115.238 135.535L110.695 127.695L115.007 123.369L115.057 123.355L115.075 123.324L120.958 121.756L125.532 129.614L125.52 141.471ZM114.12 121.763L107.891 122.836C107.31 121.87 106.391 120.246 105.325 118.367L106.921 109.318C109.676 110.319 112.878 111.495 115.632 112.496L118.185 116.915L114.12 121.763ZM112.181 103.057C113.202 102.678 119.753 100.318 120.823 99.926L125.625 101.689L125.645 108.011L121.599 112.828C118.252 111.611 121.744 112.869 116.796 111.065L112.181 103.057ZM114.25 110.141C111.912 109.296 109.415 108.36 107.204 107.588L107.702 104.678C108.437 104.429 109.625 103.979 110.477 103.672L114.25 110.141ZM103.942 116.013C102.695 113.862 101.358 111.576 100.201 109.561L102.421 107.688C103.19 107.963 104.136 108.299 105.207 108.707L103.942 116.013ZM96.0503 126.687L96.3312 126.638L101.741 129.762L100.163 135.709L95.8018 140.048L90.3921 136.925L90.2934 136.658L90.2618 136.64L87.2061 128.27L96.0503 126.687ZM76.1219 147.03L73.1605 147.045C72.7598 146.351 72.2556 145.471 71.6747 144.504L77.3871 139.725C76.9986 142.151 76.5507 144.753 76.1219 147.03ZM70.836 166.487C73.7981 168.954 75.9791 170.803 77.9117 172.423L78.7913 177.475L73.338 180.637L67.1065 179.522L66.2268 174.47C66.8098 173.46 70.2894 167.434 70.836 166.487ZM91.4181 169.998L93.1595 165.155L89.8858 162.423C92.9105 162.445 93.3361 162.438 94.1376 162.438L95.8742 157.677L97.1623 162.459L104.539 162.469L98.1552 166.146L99.3092 170.43L96.1591 167.265L91.4181 169.998ZM86.0395 184.647L86.6839 182.873L93.807 184.125L89.066 186.857L89.799 191.067L86.5253 188.335L81.7344 191.081L84.1931 184.338L86.0395 184.647ZM86.3506 190.464L90.2791 193.742L91.9015 202.841C88.8269 202.833 85.3583 202.85 82.6778 202.817L78.7176 199.521L80.8656 193.608L86.3506 190.464ZM92.1899 204.606L92.7054 207.512C92.0698 208.029 91.3114 208.685 90.4351 209.399L84.7321 204.592C87.0867 204.605 88.5267 204.595 92.1899 204.606ZM90.4636 211.687L92.7394 213.59C92.656 214.173 92.5965 214.349 92.2407 216.5L84.7829 216.486L90.4636 211.687ZM102.61 219.289C103.379 219.565 104.324 219.9 105.396 220.308L104.131 227.614C102.883 225.463 101.546 223.177 100.389 221.162L102.61 219.289ZM107.859 216.261C108.562 215.994 109.514 215.66 110.634 215.255L114.406 221.724C112.068 220.879 109.572 219.943 107.36 219.171L107.859 216.261ZM127.557 212.025L123.554 210.555C125.06 209.994 126.229 209.575 127.567 209.085L127.562 203.613L132.194 209.107L130.98 210.552L132.171 211.996L127.579 217.465L127.557 212.025ZM133.304 207.77L127.359 200.677L127.367 194.455L133.299 192.873L139.257 194.462L139.25 200.685L133.304 207.77ZM140.987 193.147L136.639 191.983L140.977 190.827L140.97 183.46L144.666 189.843L149.502 188.554L146.228 192.47L148.367 196.145L144.364 194.676L141.023 198.637L140.987 193.147ZM140.847 213.261C141.899 212.9 143.622 212.254 145.662 211.497L154.341 214.656L149.714 222.671L144.899 224.435L140.817 219.596L140.847 213.261ZM155.247 213.16L148.251 210.593C152.127 209.213 153.165 208.803 155.237 208.063L156.723 210.604L155.247 213.16ZM170.041 218.294L172.985 218.31L174.269 225.657C172.742 224.355 172.259 223.95 168.547 220.881L170.041 218.294ZM173.946 213.648C174.582 213.132 175.341 212.476 176.217 211.762L181.92 216.569C179.941 216.562 178.927 216.566 174.462 216.555L173.946 213.648ZM176.188 209.473L173.912 207.57C174.032 206.924 174.042 206.762 174.411 204.661L181.869 204.675L176.188 209.473ZM174.725 202.949C175.237 200.089 175.828 196.728 176.308 193.85L180.232 190.561L185.641 193.684L185.754 194.002L185.817 194.038L187.872 199.684C187.027 200.417 185.601 201.571 183.949 202.973L183.767 202.994L174.725 202.949ZM180.062 188.444L176.793 191.184C177.31 188.243 177.365 187.854 177.531 186.983L172.754 184.225L179.795 182.988L180.428 184.742L182.263 184.413L184.713 191.129L180.062 188.444ZM182.81 180.69L180.975 181.019L178.525 174.303L183.238 177.025L186.508 174.284C186.014 177.112 185.912 177.727 185.769 178.486L190.483 181.207L183.442 182.443L182.81 180.69ZM187.688 177.574C187.9 176.476 188.186 174.664 188.574 172.532L195.662 166.611C197.53 169.878 199.818 173.807 200.295 174.587L199.39 179.661L193.473 180.704L193.192 180.752L187.688 177.574ZM197.038 165.47L199.258 163.597C200.027 163.872 200.973 164.208 202.044 164.616L200.779 171.922C199.501 169.753 198.163 167.466 197.038 165.47ZM204.508 160.569C205.36 160.262 206.23 159.923 207.282 159.562L211.023 166.014C208.685 165.169 206.189 164.232 203.977 163.46L204.508 160.569ZM208.064 157.405L206.578 154.864L208.035 152.34L215.032 154.907C211.205 156.274 210.136 156.666 208.064 157.405ZM203.994 146.262L210.998 143.701L207.282 150.138L204.528 149.137L203.994 146.262ZM195.609 143.104C192.196 140.25 190.263 138.629 188.534 137.168L187.654 132.116L193.107 128.954L193.415 129.005L199.339 130.069L200.219 135.121C199.654 136.099 196.174 142.126 195.609 143.104ZM175.045 139.562L173.304 144.405L176.578 147.136C173.372 147.137 173.078 147.135 172.326 147.122L170.589 151.883L169.301 147.1L161.925 147.091L168.308 143.414L167.154 139.129L170.304 142.294L175.045 139.562ZM170.597 140.107L166.242 135.742L164.645 129.813L170.031 126.695L179.145 128.297L176.001 136.958L170.597 140.107ZM180.374 124.926L179.73 126.7L172.688 125.453L177.429 122.721L176.696 118.511C177.726 119.358 177.663 119.321 179.97 121.243L184.643 118.555L182.202 125.266L180.374 124.926ZM174.305 104.972L173.79 102.066C174.425 101.549 175.184 100.893 176.06 100.179L181.763 104.986C179.784 104.98 178.901 104.975 174.305 104.972ZM176.032 97.8904L173.756 95.9875C173.876 95.3415 173.908 95.0658 174.255 93.0779L181.712 93.0923L176.032 97.8904ZM163.885 90.2888C163.117 90.0132 162.171 89.6778 161.1 89.2694L162.365 81.964C163.612 84.1144 164.949 86.4011 166.106 88.4154L163.885 90.2888ZM158.618 93.3482C157.181 93.8648 156.378 94.1589 155.843 94.3549L152.102 87.9034C154.44 88.7485 156.955 89.6534 159.148 90.457L158.618 93.3482ZM154.157 94.9379C154.157 94.9379 149.243 96.7285 145.516 98.069L140.713 96.3057L140.693 89.9835L144.74 85.1672L149.543 86.9305L154.157 94.9379ZM138.938 97.5531L142.941 99.0224C141.404 99.5656 141.454 99.5523 138.929 100.492L138.915 105.996L134.269 100.453L135.483 99.0081L134.293 97.5634L138.921 92.0313L138.938 97.5531ZM133.16 101.79L139.104 108.882L139.097 115.105L133.164 116.686L127.206 115.097L127.213 108.875L133.16 101.79ZM125.477 116.413L129.824 117.577L125.487 118.733L125.494 126.1L121.798 119.716L117.012 120.992L120.267 117.107L118.128 113.433C121.154 114.548 120.77 114.41 122.131 114.902L125.472 110.941L125.477 116.413ZM125.648 96.3169C124.596 96.6774 122.873 97.3235 120.833 98.081L112.154 94.9214L116.763 86.9381L121.578 85.1741L125.66 90.013L125.648 96.3169ZM111.248 96.4178L118.245 98.9846C114.368 100.365 113.33 100.775 111.258 101.514L109.773 98.9737L111.248 96.4178ZM96.4539 91.2842L93.5107 91.2678L92.2266 83.921C94.0193 85.4188 94.3941 85.7194 97.9478 88.6967L96.4539 91.2842ZM92.5487 95.9294C91.9131 96.4459 91.1547 97.102 90.2784 97.8161L84.5754 93.0089C86.3912 93.0055 89.2031 93.0301 92.0332 93.0232L92.5487 95.9294ZM90.3069 100.105L92.5828 102.008C92.4629 102.654 92.4302 102.929 92.084 104.917L84.6262 104.903L90.3069 100.105ZM91.7703 106.629C91.2582 109.489 90.6673 112.85 90.1868 115.728L86.2635 119.017L80.7905 115.857L80.6918 115.59L78.6368 109.943C79.4815 109.211 80.9072 108.057 82.5601 106.655L82.7413 106.633L91.7703 106.629ZM86.433 121.134L89.7024 118.394C89.2085 121.222 89.1068 121.836 88.9639 122.595L93.6776 125.317L86.6368 126.553L86.0042 124.799L84.1692 125.128L81.7193 118.413L86.433 121.134ZM83.6224 128.852L85.4574 128.523L87.9073 135.238L83.2252 132.535L79.9558 135.275C80.4546 132.366 80.5697 131.801 80.6944 131.074L75.949 128.334L82.9898 127.098L83.6224 128.852ZM78.7759 131.986C78.564 133.083 78.2771 134.895 77.8897 137.028L70.8015 142.948C69.3473 140.426 67.6545 137.513 66.1687 134.973L67.0732 129.899L73.3029 128.826L78.7759 131.986ZM69.4573 144.108L67.2368 145.981C66.4679 145.706 65.5226 145.37 64.4508 144.962L65.716 137.656C66.9631 139.807 68.3003 142.093 69.4573 144.108ZM61.956 148.991C61.0538 149.311 60.2331 149.637 59.1814 149.997L55.4401 143.546C57.7783 144.391 60.2929 145.296 62.4864 146.099L61.956 148.991ZM58.3999 152.155L59.8674 154.727L58.41 157.251L51.3954 154.716C55.8429 153.077 56.7949 152.743 58.3999 152.155ZM56.0392 167.495L62.7763 165.031C63.2784 167.888 63.8648 171.255 64.3986 174.13C64.1982 174.477 62.8318 176.844 62.1396 178.043L56.0392 167.495ZM63.148 179.803L64.8787 176.805L65.6117 181.015L70.6938 181.93L65.9527 184.662L63.148 179.803ZM67.9468 185.519L73.3321 182.401L82.4463 184.003L79.2838 192.695L73.8985 195.813C68.9118 190.788 69.7495 192.113 67.9468 185.519ZM73.674 197.955L78.4332 195.191L76.6736 200.065L79.9474 202.797C77.9187 202.804 77.1671 202.791 76.497 202.782L73.674 197.955ZM77.4872 204.574C78.8773 204.577 80.9376 204.589 82.0017 204.572L89.0774 210.508L83.5875 215.122L77.4872 204.574ZM85.3839 218.221L91.9088 218.244C91.4379 220.959 90.8748 224.126 90.3857 226.873L85.3839 218.221ZM92.2704 227.919L98.9818 222.285C100.022 224.064 101.165 226.028 102.264 227.925L92.2704 227.919ZM105.827 227.963L107.078 220.901C110.154 222.004 113.564 223.257 115.789 224.079L118.044 227.99L105.827 227.963ZM120.041 227.965L118.335 225.002L122.337 226.472L125.661 222.542L125.665 228.014L120.041 227.965ZM127.413 226.667L127.388 220.426L127.566 220.192L133.317 213.373L139.279 220.434L139.285 226.706C132.455 228.527 133.982 228.44 127.413 226.667ZM141.024 228.004L141.038 222.501L144.385 226.495L148.397 225.025L146.685 227.991L141.024 228.004ZM148.695 228.015L150.954 224.103L159.645 220.958C160.054 223.172 160.462 225.68 160.88 228.024L148.695 228.015ZM164.43 228.013C165.669 225.867 167.309 223.027 167.691 222.364C170.387 224.636 172.351 226.275 174.424 228.018L164.43 228.013ZM176.288 226.907L174.769 218.288C177.173 218.288 179.233 218.3 181.262 218.293L176.288 226.907ZM183.029 215.232L177.543 210.634L184.599 204.695C184.862 204.678 184.387 204.698 189.064 204.706L182.997 215.214L183.029 215.232ZM190.116 202.957L186.697 202.961C189.072 200.966 189.313 200.769 189.967 200.221L188.208 195.376L192.921 198.098L190.116 202.957ZM192.657 195.926L187.279 192.821L187.167 192.504L187.104 192.467L184.048 184.097L192.824 182.559L193.137 182.529L198.578 185.671C196.753 192.485 197.559 191.015 192.657 195.926ZM200.591 184.814L195.814 182.056L200.889 181.157L201.646 176.924C202.505 178.43 202.983 179.21 203.397 179.954L200.591 184.814ZM204.399 178.219C203.836 177.221 203.017 175.864 202.112 174.29L203.709 165.24C205.839 166.008 208.24 166.889 210.497 167.729L204.43 178.237L204.399 178.219ZM212.251 164.619L208.987 158.948C209.939 158.614 215.538 156.587 217.261 155.941L212.251 164.619ZM217.254 153.834L208.96 150.812L212.239 145.132L217.254 153.834ZM210.456 142.083L203.687 144.528C203.185 141.672 202.599 138.304 202.065 135.43C202.265 135.083 203.632 132.716 204.342 131.485L210.456 142.083ZM203.316 129.757L201.585 132.754L200.852 128.545L195.77 127.63L200.529 124.866L203.316 129.757ZM198.517 124.041L193.082 127.172L192.774 127.12L183.967 125.57L187.029 117.198L187.079 117.185L187.193 116.914L192.578 113.797C197.552 118.772 196.687 117.347 198.517 124.041ZM192.808 111.573L188.067 114.305L189.808 109.463L186.534 106.731C188.758 106.752 189.396 106.742 189.985 106.746L192.808 111.573ZM189.008 105.004C187.881 104.984 186.309 105.002 184.493 105.006L177.418 99.0694L182.908 94.4556L189.008 105.004ZM181.111 91.3569L174.586 91.3342C175.057 88.6189 175.62 85.452 176.11 82.7052L181.111 91.3569ZM174.225 81.6591L167.495 87.3242C166.455 85.5457 165.312 83.5812 164.231 81.6533L174.225 81.6591ZM160.668 81.6154L159.417 88.6767C156.663 87.6755 153.461 86.5 150.707 85.4989L148.451 81.5881L160.668 81.6154ZM146.454 81.6132L148.16 84.5757L144.158 83.1063L140.798 87.0989L140.812 81.5954L146.454 81.6132ZM139.082 82.9108L139.089 89.1832L133.16 96.2366L127.216 89.1443L127.21 82.8719C133.99 81.0645 132.482 81.1195 139.082 82.9108ZM125.453 81.605L125.457 87.0769L122.124 83.1331L118.112 84.6031L119.824 81.637L125.453 81.605ZM117.8 81.5624L115.541 85.4752L106.85 88.6196C106.441 86.4059 106.033 83.8983 105.615 81.5535L117.8 81.5624ZM102.065 81.5654C100.826 83.7111 99.1866 86.551 98.8041 87.2136C95.9684 84.8192 94.2208 83.3895 92.0715 81.5596L102.065 81.5654ZM90.2068 82.6707L91.7266 91.2895C89.1093 91.2931 87.1305 91.2866 85.2332 91.2851L90.2068 82.6707ZM83.4661 94.3459L88.9524 98.9438L81.8958 104.883C81.6332 104.9 82.1403 104.898 77.4312 104.872L83.4977 94.3641L83.4661 94.3459ZM76.3793 106.621L79.7981 106.617C77.4232 108.612 77.1825 108.809 76.5286 109.357L78.2875 114.201L73.5737 111.48L76.3793 106.621ZM73.8065 113.634L79.2163 116.757L79.315 117.024L82.3706 125.394L73.2638 126.994L67.8541 123.871C69.7241 117.125 68.9906 118.468 73.8065 113.634ZM65.904 124.764L70.6493 127.504L65.5748 128.403L64.8181 132.636C63.9266 131.112 63.4358 130.281 63.0802 129.655L65.904 124.764ZM62.0782 131.391C62.6591 132.357 63.4605 133.746 64.3653 135.32L62.7684 144.369C60.6382 143.602 58.2683 142.739 56.0116 141.898L62.0782 131.391ZM54.2263 144.991L57.5084 150.63C55.8718 151.2 54.5162 151.722 49.2527 153.605L54.2263 144.991Z" fill="url(#paint1_linear_401_102)" fill-opacity="0.2"/>
<path opacity="0.58" d="M94.6734 397.108C100.497 397.104 181.636 397.207 184.04 397.207C186.263 393.357 226.433 323.78 228.619 319.993C226.674 316.64 185.899 246.188 183.85 242.649C183.606 242.634 95.8424 242.535 94.4839 242.55C89.0913 251.89 54.5136 311.78 49.9045 319.764C51.9079 323.234 93.4446 394.926 94.6734 397.108ZM55.253 320.874L63.5475 323.896L60.2864 329.544L55.253 320.874ZM109.923 247.004C110.368 249.449 110.803 252.056 111.208 254.351L108.433 255.358L106.189 253.473L109.923 247.004ZM105.314 254.988L108.105 257.314L111.532 256.053C111.666 256.845 111.728 257.176 112.154 259.652L115.564 260.905L113.761 264.029L115.602 267.196C114.532 267.588 113.412 267.993 112.175 268.457L111.538 272.044C109.281 271.204 108.897 271.066 108.128 270.79L105.358 273.104C104.44 271.48 104.007 270.767 103.548 269.955L99.8849 269.944C99.9309 269.718 100.494 266.551 100.545 266.244C99.9437 265.897 100.445 266.271 97.7494 263.999C99.2796 262.737 99.8836 262.202 100.537 261.654L99.9156 258.055L103.547 258.048L105.314 254.988ZM113.219 255.47L120.223 252.909L116.507 259.346L113.753 258.345C113.734 258.376 113.423 256.724 113.219 255.47ZM138.026 265.544L133.416 271.044L133.412 265.572L129.41 264.103C130.48 263.711 131.817 263.221 133.422 262.633L133.418 257.161L138.05 262.654L136.836 264.099L138.026 265.544ZM174.869 258.205L178.532 258.217C178.486 258.442 177.923 261.609 177.872 261.917C178.473 262.264 177.972 261.89 180.699 264.18C178.997 265.595 178.651 265.901 177.911 266.525L178.551 270.092L174.92 270.099L173.098 273.254C173.066 273.236 171.883 272.217 170.307 270.928L166.88 272.189C166.782 271.628 166.546 270.355 166.258 268.59L162.848 267.337L164.652 264.213L162.81 261.046C163.862 260.686 164.465 260.445 166.238 259.785L166.875 256.198C169.131 257.038 169.516 257.176 170.285 257.452L173.054 255.138C173.964 256.631 174.378 257.375 174.869 258.205ZM174.385 253.929L180.098 249.149C179.659 251.589 179.211 254.191 178.814 256.486L175.853 256.501C175.47 255.776 174.966 254.895 174.385 253.929ZM191.61 281.081L186.175 284.212C185.1 283.297 183.384 281.886 182.246 280.934L180.624 271.836C184.5 271.844 187.23 271.863 189.848 271.86L193.808 275.156L191.774 280.797L191.724 280.811L191.61 281.081ZM189.376 292.329L196.418 293.576L191.677 296.308L192.41 300.518L189.136 297.786L184.395 300.519L186.835 293.808L188.75 294.072L189.376 292.329ZM206.729 302.895C207.173 305.339 207.608 307.947 208.013 310.242L205.238 311.248L202.994 309.364L206.729 302.895ZM202.12 310.878L204.91 313.205L208.338 311.944L208.96 315.542L212.37 316.796L210.566 319.92L212.407 323.087C211.338 323.479 210.535 323.773 208.98 324.347L208.343 327.935C206.086 327.094 205.652 326.97 204.933 326.681L202.163 328.995C201.582 328.028 200.916 326.844 200.353 325.846L196.69 325.835C196.731 325.69 197.304 322.361 197.35 322.135C196.749 321.788 197.25 322.161 194.523 319.871C196.262 318.393 196.571 318.151 197.311 317.526L196.689 313.928L200.321 313.921L202.088 310.86L202.12 310.878ZM168.614 392.802C168.169 390.358 167.734 387.751 167.33 385.456L170.104 384.449L172.349 386.334L168.614 392.802ZM173.241 384.788L170.451 382.461L167.023 383.722L166.401 380.123L162.991 378.87L164.795 375.746L162.953 372.579C164.223 372.134 165.411 371.684 166.381 371.318L167.018 367.731C169.324 368.558 169.451 368.631 170.428 368.985L173.198 366.671C174.089 368.196 174.548 369.008 175.007 369.82L178.671 369.831C178.638 370.107 178.075 373.274 178.011 373.531C178.612 373.878 178.11 373.504 180.838 375.794C179.357 377.043 178.74 377.528 178.05 378.139L178.69 381.707L175.058 381.713L173.273 384.806L173.241 384.788ZM165.337 384.305L158.332 386.866L162.049 380.429L164.803 381.43L165.337 384.305ZM140.498 374.213L145.107 368.713L145.094 374.216L149.096 375.686C147.292 376.327 146.657 376.549 145.084 377.156L145.088 382.628L140.456 377.135L141.67 375.69L140.498 374.213ZM131.673 384.896L127.786 389.509L122.983 387.746L118.337 379.72L126.978 376.589L131.781 378.353L131.769 384.656L131.673 384.896ZM103.687 381.57L100.023 381.559C100.263 380.267 100.624 378.035 100.683 377.859C100.082 377.511 100.584 377.885 97.8878 375.614C99.3682 374.365 99.9856 373.88 100.676 373.268L100.036 369.701L103.667 369.694L105.489 366.539C105.521 366.557 106.659 367.509 108.28 368.865L111.707 367.605L112.329 371.203L115.739 372.457L113.936 375.581L115.777 378.747C114.707 379.139 113.388 379.598 112.35 380.008L111.713 383.595C109.456 382.755 109.022 382.631 108.303 382.342L105.533 384.655C104.92 383.671 104.312 382.604 103.687 381.57ZM104.152 385.878L98.4398 390.658C98.8781 388.218 99.326 385.616 99.7231 383.321L102.685 383.305C103.085 384 103.589 384.88 104.152 385.878ZM96.5296 337.637L101.915 334.52L106.27 338.885L107.867 344.814L102.431 347.945L93.3172 346.343L96.3791 337.971L96.4289 337.958L96.5296 337.637ZM89.0979 347.441L82.0563 346.194L86.7973 343.462L86.0642 339.252L89.338 341.984L94.0109 339.296L91.5705 346.007L89.724 345.699L89.0979 347.441ZM71.7769 336.894C71.3322 334.449 70.8972 331.842 70.4928 329.547L73.2674 328.54L75.5115 330.425L71.7769 336.894ZM76.386 328.91L73.5954 326.584L70.168 327.845L69.5461 324.246L66.136 322.992L67.9396 319.869L66.0982 316.702C66.9505 316.394 67.4356 316.212 69.5257 315.441L70.1626 311.854C72.4193 312.694 72.8037 312.832 73.5726 313.107L76.3424 310.794C76.8466 311.674 77.4726 312.709 78.1522 313.942L81.8154 313.954C81.0308 318.381 81.4049 316.199 81.1555 317.654C81.7566 318.001 81.2552 317.627 83.9509 319.899C81.903 321.619 82.0938 321.435 81.1628 322.244L81.871 325.766L78.2395 325.773L76.4177 328.929L76.386 328.91ZM68.4998 328.396L61.4952 330.957L65.2117 324.52L67.966 325.521L68.4998 328.396ZM85.5332 303.058L89.4565 299.769L94.8979 302.911L94.9966 303.178L95.0282 303.196L97.1149 308.861C96.2702 309.593 94.8445 310.748 93.1916 312.149L93.0104 312.171L83.9496 312.157C84.4302 309.279 85.021 305.917 85.5332 303.058ZM104.887 275.819C106.728 278.986 108.196 281.558 109.52 283.795L108.615 288.869L102.698 289.912L102.417 289.96L96.9441 286.8C97.1561 285.703 97.4429 283.891 97.8304 281.758L104.887 275.819ZM98.2831 279.075C98.7214 276.635 99.1694 274.033 99.5664 271.738L102.528 271.723C102.929 272.417 103.433 273.297 104.014 274.263L98.2831 279.075ZM160.228 268.222L155.619 276.205L150.804 277.969L146.722 273.13L146.734 266.827C146.784 266.813 149.459 265.833 151.549 265.062L160.228 268.222ZM154.124 264.109C158.068 262.684 159.356 262.207 161.11 261.579L162.578 264.151L161.12 266.676L154.124 264.109ZM150.258 280.01L154.271 278.54L152.139 282.232L155.409 286.14L150.627 284.851L146.947 291.225L146.94 283.858L142.592 282.695L146.929 281.538L146.912 276.017L150.258 280.01ZM165.487 274.456C165.989 277.312 166.575 280.68 167.109 283.555C166.872 283.965 165.014 287.183 164.54 288.004L158.309 286.888L154.227 282.049L156.796 277.6L165.487 274.456ZM158.176 275.283L161.892 268.846L164.646 269.847C164.847 270.889 164.98 271.681 165.162 272.754L158.176 275.283ZM180.622 281.848L181.502 286.9L176.048 290.062L169.817 288.947L168.937 283.895C169.52 282.885 172.982 276.89 173.546 275.912C176.4 278.274 178.441 280 180.622 281.848ZM174.439 274.365L175.915 271.809L178.858 271.826L180.142 279.173C178.616 277.871 178.133 277.466 174.439 274.365ZM168.322 290.44L173.404 291.354L168.645 294.118L169.799 298.402L166.649 295.237L160.266 298.915L163.946 292.541L160.439 289.044L165.458 289.922L167.589 286.23L168.322 290.44ZM192.991 336.699L189.067 339.988L183.594 336.828L183.496 336.561L181.409 330.896C182.254 330.164 183.679 329.009 185.332 327.608L185.514 327.586L194.574 327.6C194.094 330.478 193.503 333.839 192.991 336.699ZM196.372 327.628L199.333 327.613C199.734 328.307 200.238 329.187 200.819 330.154L195.107 334.934C195.495 332.507 195.975 329.923 196.372 327.628ZM173.669 363.956C172.214 361.433 170.522 358.521 169.036 355.98L169.94 350.907L176.17 349.833L181.643 352.993C181.431 354.091 181.144 355.903 180.757 358.035L173.669 363.956ZM180.272 360.7C179.834 363.14 179.386 365.742 178.989 368.037L176.028 368.053C175.627 367.359 175.123 366.478 174.542 365.512L180.272 360.7ZM118.328 371.553L122.937 363.57L127.752 361.806L131.833 366.645L131.821 372.949C130.77 373.309 129.047 373.955 127.007 374.713L118.328 371.553ZM124.463 375.684L117.477 378.214L115.991 375.673L117.448 373.149L124.463 375.684ZM128.329 359.783L124.317 361.253L126.448 357.561L123.178 353.654L127.929 354.924L131.609 348.55L131.616 355.917L135.963 357.08L131.626 358.237L131.644 363.758L128.329 359.783ZM113.069 365.319C112.567 362.463 111.98 359.095 111.446 356.221C111.683 355.81 113.542 352.592 114.015 351.771L120.247 352.887L124.328 357.726L121.76 362.175L113.069 365.319ZM120.362 364.523L116.645 370.96L113.891 369.959L113.375 367.053L120.362 364.523ZM97.9334 357.927L97.0537 352.876L102.507 349.713L108.739 350.829L109.618 355.88C109.035 356.89 105.574 362.885 105.009 363.864C101.984 361.36 99.8027 359.511 97.9334 357.927ZM104.116 365.41L102.641 367.966L99.6975 367.949L98.4135 360.603C100.283 362.187 100.499 362.396 104.116 365.41ZM110.344 349.947L109.47 350.073L110.344 349.947L110.233 349.336L105.101 348.434L109.892 345.689L108.738 341.404L111.888 344.569L118.272 340.892L114.592 347.266L118.098 350.763L113.111 349.903L110.98 353.595L110.344 349.947ZM94.9296 336.755L89.4944 339.886L85.5659 336.608L83.9436 327.51C87.9011 327.523 90.6814 327.529 93.1673 327.534L97.1274 330.83L95.0936 336.471L95.0437 336.485L94.9296 336.755ZM85.3918 320.983L91.0947 325.79C89.0345 325.779 88.233 325.779 83.637 325.776L83.1214 322.87C83.7571 322.353 84.5155 321.697 85.3918 320.983ZM85.3814 318.663L83.1056 316.76C83.2073 316.146 83.2763 315.807 83.6044 313.851L91.0621 313.865L85.3814 318.663ZM83.4799 334.815C81.9222 333.495 80.8293 332.612 77.7588 330.039L79.2345 327.483L82.1777 327.5L83.4799 334.815ZM93.8117 325.76L86.736 319.824L93.7925 313.885C94.0869 313.886 93.4982 313.883 98.8957 313.886L101.081 319.818L98.9331 325.73C97.8191 325.76 95.9716 325.745 93.8117 325.76ZM97.4009 304.566L102.146 307.306L105.308 304.167L104.171 308.475L110.561 312.164L103.185 312.155L101.906 316.928L100.16 312.134L95.9085 312.119C98.2834 310.124 98.5241 309.927 99.1779 309.379L97.4009 304.566ZM110.852 286.163C112.189 288.45 112.486 288.958 113.004 289.888L118.029 289.002L114.535 292.497L118.231 298.88L111.841 295.191L108.679 298.329L109.816 294.022L105.039 291.264L110.114 290.365L110.852 286.163ZM146.941 306.578L146.922 294.703L151.458 286.846L157.366 288.448L157.398 288.466L157.43 288.484L161.74 292.782L157.185 300.67L146.941 306.578ZM155.468 303.718L150.549 312.238L146.936 312.213L146.934 308.636L155.468 303.718ZM145.181 307.581L142.082 309.369L140.254 306.252L145.173 297.732L145.181 307.581ZM141.417 311.762L145.192 309.607L145.182 313.935L149.534 313.923L147.347 317.71L151.112 319.883L147.337 322.037L149.521 325.78L145.169 325.792L145.191 330.138L141.427 327.965L139.259 331.72L137.093 327.945L133.35 330.118L133.329 325.772L128.977 325.784L131.145 322.029L127.38 319.855L131.155 317.701L128.989 313.927L133.323 313.946L133.301 309.6L137.066 311.774L139.234 308.019L141.417 311.762ZM176.618 322.829L178.364 327.623L182.615 327.638C180.259 329.601 179.982 329.862 179.346 330.378L181.105 335.222L176.359 332.482L173.216 335.59L174.353 331.282L167.963 327.592L175.339 327.602L176.618 322.829ZM167.685 353.644C166.38 351.375 166.037 350.799 165.533 349.919L160.459 350.818L163.971 347.292L160.275 340.908L166.665 344.598L169.827 341.459L168.69 345.767L173.467 348.525L168.392 349.424L167.685 353.644ZM172.34 332.139L170.762 338.086L166.401 342.426L158.523 337.878L152.571 327.584L164.462 327.591L172.34 332.139ZM146.961 327.584L150.543 327.591L155.486 336.124L146.945 331.193L146.961 327.584ZM145.21 342.014L140.267 333.48L142.071 330.356L145.203 332.165L145.21 342.014ZM151.563 325.824L149.767 322.725L152.884 320.906L161.425 325.838L151.563 325.824ZM152.872 318.88L149.74 317.072L151.544 313.948L161.406 313.962L152.872 318.88ZM131.583 333.179L131.602 345.054L127.066 352.911L121.189 351.327L121.158 351.309L121.076 351.304L116.734 346.988L121.271 339.131L131.583 333.179ZM123.038 336.071L127.957 327.551L131.57 327.576L131.572 331.153L123.038 336.071ZM133.343 332.175L136.442 330.388L138.27 333.505L133.351 342.025L133.343 332.175ZM125.652 320.877L128.784 322.685L126.98 325.809L117.118 325.795L125.652 320.877ZM125.64 318.851L117.099 313.919L126.961 313.933L128.757 317.032L125.64 318.851ZM136.422 309.382L133.29 307.574L133.282 297.725L138.225 306.258L136.422 309.382ZM131.545 312.204L127.963 312.198L123.019 303.664L131.561 308.596L131.545 312.204ZM125.934 312.205L114.043 312.197L106.166 307.649L107.744 301.702L112.105 297.363L119.982 301.911L125.934 312.205ZM104.519 313.935L113.598 313.918L123.88 319.854L113.586 325.775L104.525 325.761L102.942 319.882L102.96 319.851L102.947 319.801L104.519 313.935ZM114.087 327.537L125.978 327.544L120.057 337.8L112.217 342.319L107.862 337.953L106.266 332.025L114.087 327.537ZM110.098 358.556C110.543 361 110.978 363.607 111.382 365.902L108.608 366.909C107.298 365.816 107.33 365.835 106.364 365.024L110.098 358.556ZM133.364 354.57L133.358 345.521L139.278 335.265L145.217 345.51L145.223 354.559L139.29 356.14L133.364 354.57ZM146.974 333.187L157.256 339.123L161.798 346.963L157.437 351.303L151.504 352.884L146.962 345.045L146.974 333.187ZM158.405 352.914L164.635 351.84C165.216 352.807 166.134 354.431 167.201 356.309L165.604 365.358C161.841 363.985 158.494 362.768 156.893 362.18L154.341 357.762L158.405 352.914ZM160.344 371.619C159.324 371.998 152.773 374.359 151.703 374.751L146.9 372.987L146.88 366.665L150.926 361.849L155.729 363.612L160.344 371.619ZM158.276 364.535C160.614 365.38 163.11 366.317 165.322 367.089L164.823 369.998C164.356 370.149 163.336 370.528 162.049 371.005L158.276 364.535ZM168.583 358.664C169.83 360.814 171.167 363.101 172.324 365.115L170.104 366.989C169.335 366.713 168.39 366.378 167.318 365.969L168.583 358.664ZM176.131 348.002L170.721 344.878L172.299 338.931L176.66 334.591L182.07 337.715L182.169 337.982L185.224 346.352L176.131 348.002ZM187.43 325.874L193.142 321.094L195.418 322.997C195.275 323.756 195.229 323.982 194.92 325.906L187.43 325.874ZM193.146 318.824L187.443 314.016C189.503 314.028 190.304 314.028 194.9 314.031L195.416 316.937C194.78 317.453 193.99 318.091 193.146 318.824ZM195.044 304.942C196.805 306.421 197.256 306.808 200.765 309.717L199.289 312.273L196.346 312.257L195.044 304.942ZM194.562 312.279C190.605 312.266 187.824 312.259 185.338 312.255L181.378 308.958L183.526 303.046L189.011 299.902L192.94 303.18L194.562 312.279ZM184.712 313.997L191.788 319.933L184.731 325.872C184.437 325.871 185.026 325.874 179.628 325.871L177.443 319.939L179.591 314.027C180.705 313.997 182.552 314.012 184.712 313.997ZM173.986 325.853L164.925 325.839L154.644 319.903L164.906 313.963L173.967 313.978L175.532 319.888L175.514 319.919L175.546 319.938L173.986 325.853ZM164.437 312.22L152.546 312.212L158.467 301.957L166.306 297.438L170.661 301.803L172.308 307.719L164.437 312.22ZM168.457 281.22C168.013 278.775 167.578 276.168 167.173 273.873L169.948 272.866C171.289 273.977 171.429 274.1 172.192 274.751L168.457 281.22ZM145.16 285.187L145.166 294.236L139.245 304.491L133.294 294.197L133.288 285.148L139.22 283.567L145.16 285.187ZM131.55 306.57L121.268 300.633L116.726 292.794L121.037 288.467L121.087 288.454L121.105 288.422L126.988 286.854L131.562 294.712L131.55 306.57ZM120.15 286.861L113.921 287.935C113.34 286.968 112.422 285.344 111.355 283.466L112.952 274.417C115.706 275.418 118.908 276.594 121.662 277.595L124.215 282.014L120.15 286.861ZM118.212 268.156C119.232 267.777 125.783 265.417 126.853 265.025L131.656 266.788L131.675 273.11L127.629 277.926C124.282 276.709 127.774 277.968 122.826 276.163L118.212 268.156ZM120.28 275.24C117.942 274.395 115.445 273.459 113.234 272.686L113.732 269.777C114.467 269.528 115.655 269.078 116.507 268.77L120.28 275.24ZM109.972 281.111C108.725 278.961 107.388 276.674 106.231 274.66L108.452 272.787C109.22 273.062 110.166 273.398 111.238 273.806L109.972 281.111ZM102.08 291.785L102.361 291.737L107.771 294.86L106.193 300.807L101.832 305.147L96.4223 302.024L96.3235 301.756L96.2919 301.738L93.2363 293.369L102.08 291.785ZM82.1521 312.129L79.1907 312.144C78.79 311.45 78.2858 310.57 77.7049 309.603L83.4172 304.823C83.0287 307.249 82.5808 309.852 82.1521 312.129ZM76.8661 331.586C79.8283 334.053 82.0092 335.901 83.9418 337.522L84.8215 342.574L79.3681 345.736L73.1366 344.621L72.257 339.569C72.8399 338.559 76.3196 332.532 76.8661 331.586ZM97.4482 335.096L99.1897 330.254L95.9159 327.522C98.9406 327.543 99.3663 327.537 100.168 327.537L101.904 322.775L103.192 327.558L110.569 327.567L104.185 331.245L105.339 335.529L102.189 332.364L97.4482 335.096ZM92.0697 349.746L92.7141 347.972L99.8371 349.223L95.0961 351.956L95.8292 356.165L92.5554 353.434L87.7646 356.179L90.2232 349.437L92.0697 349.746ZM92.3808 355.563L96.3093 358.841L97.9316 367.94C94.857 367.931 91.3884 367.948 88.7079 367.915L84.7478 364.619L86.8958 358.707L92.3808 355.563ZM98.22 369.705L98.7356 372.611C98.0999 373.127 97.3415 373.783 96.4652 374.498L90.7623 369.69C93.1169 369.704 94.5568 369.693 98.22 369.705ZM96.4938 376.786L98.7696 378.689C98.6861 379.272 98.6267 379.448 98.2708 381.599L90.8131 381.584L96.4938 376.786ZM108.64 384.388C109.409 384.663 110.354 384.999 111.426 385.407L110.161 392.713C108.914 390.562 107.576 388.275 106.419 386.261L108.64 384.388ZM113.889 381.36C114.592 381.092 115.544 380.759 116.664 380.353L120.437 386.823C118.098 385.978 115.602 385.041 113.39 384.269L113.889 381.36ZM133.587 377.123L129.585 375.654C131.09 375.093 132.259 374.674 133.597 374.184L133.592 368.712L138.224 374.205L137.011 375.65L138.201 377.095L133.61 382.564L133.587 377.123ZM139.334 372.868L133.389 365.776L133.397 359.553L139.329 357.972L145.287 359.561L145.28 365.783L139.334 372.868ZM147.017 358.245L142.669 357.082L147.007 355.925L147 348.559L150.696 354.942L155.532 353.653L152.258 357.569L154.397 361.244L150.394 359.775L147.053 363.736L147.017 358.245ZM146.877 378.36C147.929 377.999 149.652 377.353 151.692 376.596L160.371 379.755L155.744 387.77L150.929 389.534L146.847 384.695L146.877 378.36ZM161.277 378.259L154.281 375.692C158.157 374.312 159.195 373.901 161.267 373.162L162.753 375.703L161.277 378.259ZM176.071 383.392L179.015 383.409L180.299 390.755C178.773 389.454 178.289 389.048 174.578 385.98L176.071 383.392ZM179.977 378.747C180.612 378.231 181.371 377.575 182.247 376.86L187.95 381.668C185.971 381.661 184.957 381.665 180.492 381.653L179.977 378.747ZM182.218 374.572L179.943 372.669C180.063 372.023 180.072 371.86 180.441 369.759L187.899 369.774L182.218 374.572ZM180.755 368.047C181.267 365.188 181.858 361.826 182.339 358.948L186.262 355.66L191.672 358.783L191.784 359.1L191.847 359.137L193.902 364.783C193.057 365.515 191.632 366.67 189.979 368.071L189.798 368.093L180.755 368.047ZM186.092 353.542L182.823 356.283C183.34 353.342 183.396 352.953 183.562 352.081L178.785 349.323L185.825 348.087L186.458 349.841L188.293 349.512L190.743 356.227L186.092 353.542ZM188.84 345.788L187.005 346.117L184.555 339.402L189.269 342.123L192.538 339.383C192.044 342.211 191.942 342.826 191.799 343.585L196.513 346.306L189.472 347.542L188.84 345.788ZM193.718 342.673C193.93 341.575 194.217 339.763 194.604 337.631L201.692 331.71C203.561 334.976 205.848 338.905 206.325 339.686L205.421 344.759L199.503 345.803L199.222 345.851L193.718 342.673ZM203.068 330.569L205.289 328.695C206.057 328.971 207.003 329.306 208.075 329.715L206.809 337.02C205.531 334.852 204.193 332.565 203.068 330.569ZM210.538 325.668C211.39 325.36 212.261 325.021 213.312 324.661L217.054 331.112C214.715 330.267 212.219 329.331 210.007 328.559L210.538 325.668ZM214.094 322.504L212.608 319.963L214.066 317.439L221.062 320.005C217.236 321.372 216.166 321.764 214.094 322.504ZM210.024 311.361L217.029 308.799L213.312 315.237L210.558 314.235L210.024 311.361ZM201.64 308.203C198.226 305.348 196.293 303.728 194.564 302.267L193.684 297.215L199.138 294.052L199.445 294.104L205.369 295.168L206.249 300.22C205.684 301.198 202.204 307.225 201.64 308.203ZM181.076 304.661L179.334 309.503L182.608 312.235C179.402 312.235 179.108 312.234 178.356 312.22L176.62 316.982L175.331 312.199L167.955 312.19L174.339 308.512L173.185 304.228L176.335 307.393L181.076 304.661ZM176.627 305.206L172.272 300.84L170.675 294.912L176.061 291.794L185.175 293.396L182.031 302.057L176.627 305.206ZM186.404 290.025L185.76 291.798L178.718 290.552L183.459 287.819L182.726 283.61C183.756 284.457 183.693 284.42 186 286.341L190.673 283.654L188.233 290.365L186.404 290.025ZM180.335 270.07L179.82 267.164C180.456 266.648 181.214 265.992 182.09 265.278L187.793 270.085C185.814 270.078 184.932 270.073 180.335 270.07ZM182.062 262.989L179.786 261.086C179.906 260.44 179.938 260.164 180.285 258.177L187.742 258.191L182.062 262.989ZM169.916 255.387C169.147 255.112 168.201 254.776 167.13 254.368L168.395 247.063C169.642 249.213 170.979 251.5 172.136 253.514L169.916 255.387ZM164.648 258.447C163.211 258.963 162.409 259.257 161.874 259.453L158.132 253.002C160.471 253.847 162.985 254.752 165.179 255.556L164.648 258.447ZM160.187 260.037C160.187 260.037 155.273 261.827 151.546 263.168L146.743 261.404L146.724 255.082L150.77 250.266L155.573 252.029L160.187 260.037ZM144.969 262.652L148.971 264.121C147.434 264.664 147.484 264.651 144.959 265.591L144.945 271.095L140.299 265.552L141.513 264.107L140.323 262.662L144.951 257.13L144.969 262.652ZM139.19 266.889L145.134 273.981L145.127 280.203L139.195 281.785L133.236 280.196L133.244 273.974L139.19 266.889ZM131.507 281.512L135.854 282.675L131.517 283.831L131.524 291.198L127.828 284.815L123.042 286.091L126.297 282.206L124.159 278.531C127.184 279.647 126.8 279.509 128.161 280.001L131.502 276.04L131.507 281.512ZM131.678 261.416C130.626 261.776 128.904 262.422 126.863 263.18L118.184 260.02L122.794 252.037L127.608 250.273L131.69 255.112L131.678 261.416ZM117.278 261.516L124.275 264.083C120.399 265.464 119.36 265.874 117.289 266.613L115.803 264.072L117.278 261.516ZM102.484 256.383L99.5409 256.366L98.2568 249.02C100.049 250.517 100.424 250.818 103.978 253.795L102.484 256.383ZM98.5789 261.028C97.9432 261.545 97.1848 262.201 96.3085 262.915L90.6056 258.108C92.4214 258.104 95.2333 258.129 98.0633 258.122L98.5789 261.028ZM96.3371 265.203L98.6129 267.106C98.493 267.752 98.4604 268.028 98.1141 270.016L90.6564 270.001L96.3371 265.203ZM97.8005 271.728C97.2883 274.588 96.6975 277.949 96.2169 280.827L92.2937 284.115L86.8207 280.956L86.7219 280.688L84.6669 275.042C85.5116 274.31 86.9373 273.155 88.5902 271.754L88.7714 271.732L97.8005 271.728ZM92.4632 286.233L95.7326 283.492C95.2386 286.321 95.1369 286.935 94.994 287.694L99.7077 290.415L92.6669 291.652L92.0343 289.898L90.1993 290.227L87.7494 283.511L92.4632 286.233ZM89.6526 293.95L91.4876 293.621L93.9374 300.337L89.2554 297.634L85.986 300.374C86.4847 297.464 86.5998 296.9 86.7245 296.172L81.9791 293.433L89.02 292.197L89.6526 293.95ZM84.8061 297.084C84.5941 298.182 84.3073 299.994 83.9198 302.126L76.8316 308.047C75.3775 305.525 73.6846 302.612 72.1989 300.071L73.1033 294.998L79.3331 293.924L84.8061 297.084ZM75.4874 309.206L73.2669 311.08C72.498 310.804 71.5528 310.469 70.481 310.06L71.7461 302.755C72.9932 304.905 74.3304 307.192 75.4874 309.206ZM67.9861 314.089C67.0839 314.41 66.2633 314.736 65.2115 315.096L61.4703 308.645C63.8085 309.49 66.3231 310.394 68.5165 311.198L67.9861 314.089ZM64.43 317.253L65.8976 319.826L64.4401 322.35L57.4255 319.815C61.8731 318.175 62.8251 317.841 64.43 317.253ZM62.0694 332.593L68.8064 330.13C69.3085 332.986 69.895 336.354 70.4287 339.229C70.2283 339.576 68.862 341.942 68.1697 343.141L62.0694 332.593ZM69.1781 344.902L70.9088 341.904L71.6419 346.114L76.7239 347.028L71.9829 349.76L69.1781 344.902ZM73.9769 350.617L79.3622 347.5L88.4765 349.102L85.314 357.794L79.9287 360.911C74.9419 355.887 75.7797 357.212 73.9769 350.617ZM79.7042 363.054L84.4634 360.29L82.7038 365.164L85.9775 367.896C83.9489 367.902 83.1973 367.889 82.5272 367.881L79.7042 363.054ZM83.5173 369.673C84.9075 369.676 86.9677 369.687 88.0319 369.671L95.1076 375.607L89.6177 380.221L83.5173 369.673ZM91.414 383.32L97.939 383.342C97.468 386.058 96.905 389.225 96.4158 391.971L91.414 383.32ZM98.3006 393.017L105.012 387.384C106.052 389.162 107.196 391.127 108.294 393.023L98.3006 393.017ZM111.858 393.061L113.108 386C116.184 387.102 119.594 388.356 121.819 389.178L124.074 393.088L111.858 393.061ZM126.071 393.063L124.365 390.101L128.368 391.57L131.691 387.641L131.695 393.113L126.071 393.063ZM133.443 391.766L133.419 385.525L133.596 385.291L139.347 378.471L145.309 385.532L145.316 391.805C138.486 393.625 140.012 393.539 133.443 391.766ZM147.054 393.103L147.068 387.6L150.415 391.593L154.427 390.123L152.715 393.089L147.054 393.103ZM154.725 393.114L156.984 389.201L165.675 386.057C166.084 388.271 166.492 390.778 166.91 393.123L154.725 393.114ZM170.46 393.111C171.699 390.965 173.339 388.126 173.721 387.463C176.417 389.734 178.381 391.373 180.454 393.117L170.46 393.111ZM182.319 392.006L180.799 383.387C183.203 383.387 185.264 383.398 187.292 383.391L182.319 392.006ZM189.059 380.331L183.573 375.733L190.63 369.793C190.892 369.777 190.417 369.797 195.094 369.805L189.028 380.312L189.059 380.331ZM196.146 368.056L192.727 368.06C195.102 366.065 195.343 365.867 195.997 365.319L194.238 360.475L198.952 363.197L196.146 368.056ZM198.687 361.024L193.309 357.919L193.197 357.602L193.134 357.566L190.078 349.196L198.854 347.658L199.167 347.628L204.608 350.769C202.783 357.583 203.589 356.113 198.687 361.024ZM206.621 349.912L201.844 347.154L206.919 346.255L207.676 342.022C208.535 343.528 209.013 344.309 209.427 345.053L206.621 349.912ZM210.429 343.317C209.866 342.319 209.047 340.963 208.142 339.388L209.739 330.339C211.869 331.106 214.27 331.988 216.527 332.828L210.461 343.336L210.429 343.317ZM218.281 329.717L215.017 324.046C215.969 323.712 221.568 321.686 223.291 321.04L218.281 329.717ZM223.284 318.932L214.99 315.911L218.269 310.231L223.284 318.932ZM216.486 307.182L209.717 309.627C209.215 306.771 208.629 303.403 208.095 300.528C208.296 300.181 209.662 297.815 210.372 296.584L216.486 307.182ZM209.346 294.855L207.615 297.853L206.882 293.643L201.8 292.729L206.559 289.965L209.346 294.855ZM204.547 289.14L199.112 292.27L198.804 292.219L189.998 290.669L193.059 282.297L193.109 282.284L193.223 282.013L198.609 278.895C203.582 283.87 202.717 282.446 204.547 289.14ZM198.838 276.672L194.097 279.404L195.838 274.561L192.565 271.83C194.788 271.851 195.426 271.841 196.015 271.844L198.838 276.672ZM195.038 270.102C193.911 270.083 192.339 270.101 190.524 270.104L183.448 264.168L188.938 259.554L195.038 270.102ZM187.142 256.456L180.617 256.433C181.088 253.718 181.651 250.551 182.14 247.804L187.142 256.456ZM180.255 246.758L173.525 252.423C172.485 250.644 171.342 248.68 170.261 246.752L180.255 246.758ZM166.698 246.714L165.447 253.775C162.693 252.774 159.491 251.599 156.737 250.597L154.481 246.687L166.698 246.714ZM152.484 246.712L154.19 249.674L150.188 248.205L146.828 252.198L146.842 246.694L152.484 246.712ZM145.113 248.009L145.119 254.282L139.191 261.335L133.246 254.243L133.24 247.971C140.02 246.163 138.512 246.218 145.113 248.009ZM131.483 246.704L131.487 252.176L128.154 248.232L124.142 249.702L125.854 246.736L131.483 246.704ZM123.83 246.661L121.571 250.574L112.88 253.718C112.471 251.505 112.063 248.997 111.645 246.652L123.83 246.661ZM108.095 246.664C106.856 248.81 105.217 251.65 104.834 252.312C101.999 249.918 100.251 248.488 98.1017 246.658L108.095 246.664ZM96.2369 247.769L97.7567 256.388C95.1395 256.392 93.1607 256.385 91.2634 256.384L96.2369 247.769ZM89.4963 259.444L94.9826 264.042L87.926 269.982C87.6633 269.998 88.1705 269.997 83.4613 269.97L89.5279 259.463L89.4963 259.444ZM82.4095 271.719L85.8282 271.716C83.4533 273.71 83.2127 273.908 82.5588 274.456L84.3176 279.3L79.6039 276.579L82.4095 271.719ZM79.8367 278.732L85.2464 281.856L85.3451 282.123L88.4008 290.493L79.2939 292.093L73.8842 288.969C75.7542 282.224 75.0207 283.567 79.8367 278.732ZM71.9341 289.863L76.6795 292.603L71.605 293.502L70.8482 297.735C69.9568 296.21 69.466 295.38 69.1103 294.754L71.9341 289.863ZM68.1084 296.489C68.6892 297.456 69.4906 298.844 70.3955 300.418L68.7985 309.468C66.6683 308.701 64.2985 307.837 62.0418 306.997L68.1084 296.489ZM60.2564 310.089L63.5385 315.729C61.902 316.299 60.5463 316.82 55.2829 318.704L60.2564 310.089Z" fill="url(#paint2_linear_401_102)" fill-opacity="0.14"/>
<defs>
<linearGradient id="paint0_linear_401_102" x1="31.0317" y1="323.698" x2="-9.09898" y2="157.131" gradientUnits="userSpaceOnUse">
<stop stop-color="#FFDC5D"/>
<stop offset="1" stop-color="#BD912D"/>
</linearGradient>
<linearGradient id="paint1_linear_401_102" x1="170.607" y1="237.259" x2="130.477" y2="70.6921" gradientUnits="userSpaceOnUse">
<stop stop-color="#FFDC5D"/>
<stop offset="0.169792" stop-color="#FFDC5D" stop-opacity="0.61"/>
<stop offset="1" stop-color="#BD912D"/>
</linearGradient>
<linearGradient id="paint2_linear_401_102" x1="176.637" y1="402.357" x2="136.507" y2="235.791" gradientUnits="userSpaceOnUse">
<stop stop-color="#FFDC5D"/>
<stop offset="1" stop-color="#BD912D"/>
</linearGradient>
</defs>
</svg>
