<svg width="41" height="41" viewBox="0 0 41 41" fill="none" xmlns="http://www.w3.org/2000/svg">
<mask id="mask0_29_2987" style="mask-type:alpha" maskUnits="userSpaceOnUse" x="0" y="0" width="41" height="41">
<rect x="0.396484" y="0.279297" width="40.207" height="40.207" fill="#D9D9D9"/>
</mask>
<g mask="url(#mask0_29_2987)">
<path d="M21.3376 20.299C22.1474 19.4056 22.7686 18.3864 23.2014 17.2416C23.6342 16.0969 23.8506 14.9102 23.8506 13.6816C23.8506 12.4531 23.6342 11.2664 23.2014 10.1216C22.7686 8.97686 22.1474 7.95772 21.3376 7.06423C23.0129 7.28761 24.409 8.02753 25.5259 9.284C26.6427 10.5405 27.2012 12.0063 27.2012 13.6816C27.2012 15.3569 26.6427 16.8228 25.5259 18.0793C24.409 19.3358 23.0129 20.0757 21.3376 20.299ZM30.5518 33.7852V28.7593C30.5518 27.7541 30.3284 26.7978 29.8816 25.8903C29.4349 24.9829 28.8485 24.1801 28.1226 23.4821C29.5466 23.9847 30.8659 24.6339 32.0805 25.4296C33.2951 26.2254 33.9023 27.3353 33.9023 28.7593V33.7852H30.5518ZM33.9023 22.0581V18.7075H30.5518V15.3569H33.9023V12.0063H37.2529V15.3569H40.6035V18.7075H37.2529V22.0581H33.9023ZM13.7988 20.3828C11.956 20.3828 10.3784 19.7267 9.06613 18.4143C7.75381 17.102 7.09766 15.5245 7.09766 13.6816C7.09766 11.8388 7.75381 10.2613 9.06613 8.94894C10.3784 7.63663 11.956 6.98047 13.7988 6.98047C15.6417 6.98047 17.2192 7.63663 18.5315 8.94894C19.8438 10.2613 20.5 11.8388 20.5 13.6816C20.5 15.5245 19.8438 17.102 18.5315 18.4143C17.2192 19.7267 15.6417 20.3828 13.7988 20.3828ZM0.396484 33.7852V29.0943C0.396484 28.145 0.640798 27.2725 1.12943 26.4767C1.61805 25.6809 2.26723 25.0736 3.07695 24.6548C4.80809 23.7892 6.56715 23.1401 8.35413 22.7073C10.1411 22.2745 11.956 22.0581 13.7988 22.0581C15.6417 22.0581 17.4566 22.2745 19.2435 22.7073C21.0305 23.1401 22.7896 23.7892 24.5207 24.6548C25.3304 25.0736 25.9796 25.6809 26.4682 26.4767C26.9569 27.2725 27.2012 28.145 27.2012 29.0943V33.7852H0.396484Z" fill="#21B65C"/>
</g>
</svg>
