<svg width="14" height="16" viewBox="0 0 14 16" fill="none" xmlns="http://www.w3.org/2000/svg">
<path fill-rule="evenodd" clip-rule="evenodd" d="M0.292786 7.70679C0.105315 7.51926 0 7.26495 0 6.99979C0 6.73462 0.105315 6.48031 0.292786 6.29279L6.29279 0.292786C6.48031 0.105315 6.73462 0 6.99979 0C7.26495 0 7.51926 0.105315 7.70679 0.292786L13.7068 6.29279C13.8889 6.48139 13.9897 6.73399 13.9875 6.99619C13.9852 7.25838 13.88 7.5092 13.6946 7.6946C13.5092 7.88001 13.2584 7.98518 12.9962 7.98746C12.734 7.98974 12.4814 7.88894 12.2928 7.70679L7.99979 3.41379V14.9998C7.99979 15.265 7.89443 15.5194 7.70689 15.7069C7.51936 15.8944 7.265 15.9998 6.99979 15.9998C6.73457 15.9998 6.48022 15.8944 6.29268 15.7069C6.10514 15.5194 5.99979 15.265 5.99979 14.9998V3.41379L1.70679 7.70679C1.51926 7.89426 1.26495 7.99957 0.999786 7.99957C0.734622 7.99957 0.480314 7.89426 0.292786 7.70679Z" fill="#D69D2F"/>
</svg>
