<svg width="44" height="78" viewBox="0 0 44 78" fill="none" xmlns="http://www.w3.org/2000/svg">
<g opacity="0.25">
<mask id="mask0_401_197" style="mask-type:alpha" maskUnits="userSpaceOnUse" x="0" y="0" width="44" height="78">
<rect width="44" height="78" fill="#D9D9D9"/>
</mask>
<g mask="url(#mask0_401_197)">
<path d="M0.5 0L41 16.7143V22.2857H35.6C35.6 23.0402 35.3117 23.6931 34.7352 24.2444C34.1586 24.7958 33.4766 25.0714 32.689 25.0714H-31.689C-32.4766 25.0714 -33.1586 24.7958 -33.7352 24.2444C-34.3117 23.6931 -34.6 23.0402 -34.6 22.2857H-40V16.7143L0.5 0ZM-29.2 27.8571H-18.4V61.2857H-13V27.8571H-2.19999V61.2857H3.19998V27.8571H14V61.2857H19.4V27.8571H30.2V61.2857H32.689C33.4766 61.2857 34.1586 61.5614 34.7352 62.1127C35.3117 62.6641 35.6 63.317 35.6 64.0714V66.8572H-34.6V64.0714C-34.6 63.317 -34.3117 62.6641 -33.7352 62.1127C-33.1586 61.5614 -32.4766 61.2857 -31.689 61.2857H-29.2V27.8571ZM38.0891 69.6429C38.8765 69.6429 39.5586 69.9185 40.1352 70.4698C40.7117 71.0212 41 71.6741 41 72.4286V78H-40V72.4286C-40 71.6741 -39.7117 71.0212 -39.1352 70.4698C-38.5586 69.9185 -37.8766 69.6429 -37.0891 69.6429H38.0891Z" fill="url(#paint0_linear_401_197)"/>
</g>
</g>
<defs>
<linearGradient id="paint0_linear_401_197" x1="-65.7727" y1="-31.5714" x2="44.238" y2="74.6464" gradientUnits="userSpaceOnUse">
<stop stop-color="#FFDC5D"/>
<stop offset="1" stop-color="#D69D2F"/>
</linearGradient>
</defs>
</svg>
