<svg width="31" height="29" viewBox="0 0 31 29" fill="none" xmlns="http://www.w3.org/2000/svg">
<path d="M15.7623 0.654297L30.6801 6.64805V8.64596H28.691C28.691 8.91652 28.5848 9.15065 28.3725 9.34836C28.1601 9.54607 27.9089 9.64493 27.6188 9.64493H3.90574C3.61567 9.64493 3.36445 9.54607 3.15208 9.34836C2.93971 9.15065 2.83353 8.91652 2.83353 8.64596H0.844482V6.64805L15.7623 0.654297ZM4.82256 10.6439H8.80065V22.6314H10.7897V10.6439H14.7678V22.6314H16.7568V10.6439H20.7349V22.6314H22.7239V10.6439H26.702V22.6314H27.6188C27.9089 22.6314 28.1601 22.7303 28.3725 22.928C28.5848 23.1257 28.691 23.3598 28.691 23.6304V24.6293H2.83353V23.6304C2.83353 23.3598 2.93971 23.1257 3.15208 22.928C3.36445 22.7303 3.61567 22.6314 3.90574 22.6314H4.82256V10.6439ZM29.6079 25.6283C29.8979 25.6283 30.1491 25.7271 30.3615 25.9248C30.5739 26.1226 30.6801 26.3567 30.6801 26.6272V28.6252H0.844482V26.6272C0.844482 26.3567 0.950666 26.1226 1.16303 25.9248C1.37541 25.7271 1.62663 25.6283 1.9167 25.6283H29.6079Z" fill="#21B65C"/>
</svg>
