<svg width="32" height="30" viewBox="0 0 32 30" fill="none" xmlns="http://www.w3.org/2000/svg">
<path d="M16.0001 0L32.0001 6.42857V8.57142H29.8668C29.8668 8.8616 29.7529 9.11272 29.5251 9.32477C29.2973 9.53683 29.0279 9.64286 28.7168 9.64286H3.28343C2.97231 9.64286 2.70287 9.53683 2.47509 9.32477C2.24732 9.11272 2.13343 8.8616 2.13343 8.57142H9.15527e-05V6.42857L16.0001 0ZM4.26675 10.7143H8.53343V23.5714H10.6668V10.7143H14.9334V23.5714H17.0668V10.7143H21.3334V23.5714H23.4668V10.7143H27.7334V23.5714H28.7168C29.0279 23.5714 29.2973 23.6775 29.5251 23.8895C29.7529 24.1016 29.8668 24.3527 29.8668 24.6429V25.7143H2.13343V24.6429C2.13343 24.3527 2.24732 24.1016 2.47509 23.8895C2.70287 23.6775 2.97231 23.5714 3.28343 23.5714H4.26675V10.7143ZM30.8501 26.7857C31.1612 26.7857 31.4306 26.8917 31.6584 27.1038C31.8862 27.3159 32.0001 27.567 32.0001 27.8571V30H9.15527e-05V27.8571C9.15527e-05 27.567 0.113978 27.3159 0.341752 27.1038C0.569538 26.8917 0.838984 26.7857 1.15009 26.7857H30.8501Z" fill="#E7B742"/>
</svg>
