<svg width="35" height="35" viewBox="0 0 35 35" fill="none" xmlns="http://www.w3.org/2000/svg">
<path d="M34.2765 8.71973H0V12.7453H34.2765V8.71973Z" fill="#E7B742"/>
<path d="M34.3 30.2366H0V34.2622H34.3V30.2366Z" fill="#E7B742"/>
<path d="M33.4055 6.69508H0.965224C0.965224 6.67153 0.96523 6.67153 0.941689 6.64799C2.04814 6.17716 3.15459 5.72987 4.26104 5.25904C8.45144 3.51697 12.6654 1.77489 16.8558 0.0563557C16.997 -0.014269 17.2089 -0.0142691 17.3501 0.032814C22.5764 2.19864 27.8026 4.36446 33.0524 6.53029C33.1701 6.57737 33.2407 6.62445 33.4055 6.69508Z" fill="#E7B742"/>
<path d="M7.01565 14.7935H3.03712V28.2121H7.01565V14.7935Z" fill="#E7B742"/>
<path d="M15.0906 14.7698H11.112V28.212H15.0906V14.7698Z" fill="#E7B742"/>
<path d="M23.1647 14.7698H19.1862V28.1885H23.1647V14.7698Z" fill="#E7B742"/>
<path d="M31.2635 14.7698H27.285V28.1885H31.2635V14.7698Z" fill="#E7B742"/>
</svg>
