<svg width="35" height="29" viewBox="0 0 35 29" fill="none" xmlns="http://www.w3.org/2000/svg">
<path d="M3.18207 12.7283H28.6386V6.36413H3.18207V12.7283ZM27.0476 28.6386V23.8655H22.2745V20.6834H27.0476V15.9103H30.2296V20.6834H35.0027V23.8655H30.2296V28.6386H27.0476ZM3.18207 25.4565C2.307 25.4565 1.55815 25.1452 0.935528 24.5226C0.311843 23.8989 0 23.1495 0 22.2745V3.18207C0 2.307 0.311843 1.55815 0.935528 0.935527C1.55815 0.311842 2.307 0 3.18207 0H28.6386C29.5137 0 30.263 0.311842 30.8867 0.935527C31.5094 1.55815 31.8207 2.307 31.8207 3.18207V12.7283H27.0476C24.8466 12.7283 22.9708 13.5036 21.4201 15.0544C19.8683 16.6061 19.0924 18.4825 19.0924 20.6834V25.4565H3.18207Z" fill="#E7B742"/>
</svg>
