<svg width="42" height="40" viewBox="0 0 42 40" fill="none" xmlns="http://www.w3.org/2000/svg">
<path d="M11.3219 21.8091C11.3558 21.8317 11.3896 21.8542 11.4122 21.8881C11.4234 21.8994 11.4347 21.8994 11.4347 21.9106C11.4122 21.8655 11.3671 21.8317 11.3219 21.8091ZM39.1983 14.9077C36.7512 14.9077 34.3042 14.9077 31.8571 14.9077C31.5752 14.9077 31.3947 14.9979 31.1917 15.1896C29.3762 17.0165 27.5606 18.8321 25.7338 20.6476C25.5872 20.7942 25.4067 20.9183 25.215 20.9859C23.4558 21.6174 21.6966 22.2377 19.9375 22.8692C19.0917 23.1736 18.3136 23.0496 17.6821 22.4068C17.0506 21.7528 16.9491 20.9747 17.2761 20.1402C17.5242 19.4974 17.7836 18.8546 18.0317 18.2231C18.4602 17.1405 18.8774 16.058 19.3172 14.9415C19.2045 14.9303 19.1594 14.919 19.1142 14.919C13.0473 14.919 6.99164 14.919 0.924701 14.919C0.281921 14.919 0 15.246 0 15.9452C0 23.3202 0 30.6953 0 38.0591C0 38.8033 0.270644 39.0853 1.01492 39.0853C13.7577 39.0853 26.5006 39.0853 39.2434 39.0853C39.9764 39.0853 40.2583 38.7921 40.2583 38.0478C40.2583 30.6953 40.2583 23.3315 40.2583 15.979C40.2696 15.1784 39.999 14.9077 39.1983 14.9077ZM11.8407 31.8455C11.6264 32.0711 11.3783 32.2628 11.1077 32.4207C10.9949 32.4883 10.8709 32.556 10.7468 32.6124C10.6228 32.6687 10.4875 32.7138 10.3521 32.759C10.0026 32.8717 9.87851 33.0183 9.92362 33.3679C9.94617 33.5596 9.9349 33.7739 9.86724 33.943C9.73191 34.2926 9.43872 34.4618 9.06658 34.4392C8.89743 34.4279 8.76211 34.3828 8.63806 34.3039C8.49146 34.2024 8.38997 34.0445 8.34486 33.8303C8.28848 33.5483 8.28848 33.2439 8.26592 32.9056C8.00656 32.8492 7.76974 32.7702 7.54421 32.6687C7.45399 32.6236 7.36378 32.5785 7.27356 32.5334C6.89015 32.3192 6.52929 32.0372 6.20226 31.7215C6.19099 31.7102 6.17971 31.6989 6.16843 31.6764C5.81885 31.3042 5.78502 30.8532 6.08949 30.5149C6.14588 30.4472 6.21354 30.3908 6.29248 30.3457C6.31503 30.3344 6.33758 30.3232 6.36014 30.3119C6.38269 30.3006 6.40525 30.2893 6.43908 30.2781C6.46163 30.2668 6.47291 30.2668 6.49546 30.2668C6.51801 30.2668 6.54057 30.2555 6.55185 30.2555C6.64206 30.2442 6.74355 30.2442 6.83377 30.2668C6.84504 30.2668 6.85632 30.2781 6.87887 30.2781C6.90143 30.2893 6.93526 30.2893 6.95781 30.3006C6.96909 30.3006 6.98036 30.3119 7.00292 30.3232C7.02547 30.3344 7.02547 30.3344 7.04803 30.3457C7.09313 30.3683 7.12696 30.3908 7.17207 30.4134C7.22846 30.4472 7.27356 30.4923 7.32995 30.5374C7.96145 31.1576 8.68317 31.4734 9.58532 31.293C9.81085 31.2479 10.0138 31.1689 10.2055 31.0674C10.2506 31.0449 10.2958 31.011 10.3409 30.9885C10.386 30.9547 10.4311 30.9321 10.4649 30.8983C10.5213 30.8532 10.589 30.7968 10.6453 30.7404C10.7919 30.5938 10.916 30.4247 10.9949 30.2555C11.0288 30.1878 11.0513 30.1202 11.0739 30.0525C11.119 29.9172 11.1415 29.7706 11.1415 29.6127C11.1415 29.1616 10.9273 28.7218 10.5664 28.4061C10.4649 28.3159 10.3634 28.2369 10.2394 28.1693C10.1943 28.1467 10.1492 28.1129 10.0928 28.0903C10.0477 28.0678 9.99128 28.0452 9.9349 28.0227C9.87851 28.0001 9.83341 27.9889 9.77702 27.9663C9.72064 27.955 9.66425 27.9325 9.60787 27.9212C9.58532 27.9212 9.55149 27.9099 9.51765 27.9099C9.06658 27.831 8.59295 27.831 8.14188 27.7408C8.05166 27.7182 7.95017 27.6957 7.85996 27.6618C7.76974 27.6393 7.67953 27.6054 7.58931 27.5716C7.4991 27.5378 7.40889 27.4927 7.32995 27.4588C7.11569 27.3573 6.9127 27.2333 6.73227 27.098C6.65334 27.0416 6.58568 26.9852 6.51801 26.9288C5.86396 26.3537 5.43544 25.5531 5.39033 24.7186C5.33395 23.7262 5.70608 22.8241 6.39397 22.17C6.4278 22.1362 6.46163 22.1136 6.49546 22.0798C6.59695 21.9896 6.69844 21.9106 6.81121 21.8317C6.89015 21.7753 6.95781 21.7302 7.04803 21.6851C7.12696 21.64 7.2059 21.5949 7.29612 21.5498C7.34122 21.5272 7.38633 21.5047 7.43144 21.4934C7.46527 21.4821 7.4991 21.4708 7.53293 21.4483C7.54421 21.4483 7.55548 21.437 7.56676 21.437C7.58931 21.4257 7.60059 21.4257 7.62315 21.4145C7.63442 21.4145 7.63442 21.4032 7.6457 21.4032C7.66825 21.3919 7.67953 21.3919 7.70208 21.3806C7.71336 21.3806 7.72464 21.3693 7.73591 21.3693C7.76974 21.3581 7.80357 21.3468 7.83741 21.3355C7.90507 21.313 7.97273 21.2904 8.01783 21.2566C8.05167 21.234 8.0855 21.2115 8.11933 21.1889C8.1306 21.1776 8.14188 21.1664 8.14188 21.1664C8.23209 21.0649 8.26593 20.9408 8.23209 20.7378C8.20954 20.5912 8.20954 20.4221 8.23209 20.2755C8.2772 19.8582 8.58168 19.5763 8.98764 19.5538C9.22446 19.5425 9.43872 19.6102 9.58532 19.7568C9.59659 19.768 9.61915 19.7906 9.63042 19.8019C9.66425 19.8357 9.68681 19.8695 9.70936 19.9146C9.75447 19.9936 9.79958 20.0838 9.82213 20.174C9.83341 20.2191 9.85596 20.2642 9.84468 20.298C9.76574 20.6815 9.83341 20.9408 10.0138 21.1325C10.0364 21.1551 10.0477 21.1664 10.0702 21.1889L10.0815 21.2002C10.0928 21.2115 10.1153 21.2227 10.1379 21.2453C10.183 21.2791 10.2281 21.3017 10.2845 21.3355C10.4198 21.4032 10.5664 21.4596 10.7356 21.5047C10.8483 21.5385 10.9498 21.5836 11.0626 21.6513C11.1077 21.6738 11.1528 21.7077 11.1866 21.7302C11.2205 21.7528 11.2543 21.7753 11.2768 21.7979C11.2881 21.8091 11.2994 21.8091 11.3107 21.8204C11.3445 21.843 11.3783 21.8655 11.4009 21.8994L11.4122 21.9106C11.4234 21.9219 11.4347 21.9332 11.446 21.9445C11.4798 21.967 11.5137 21.9896 11.5362 22.0234C11.57 22.046 11.5926 22.0685 11.6264 22.1023C11.6377 22.1136 11.649 22.1249 11.6603 22.1362C11.9647 22.4519 11.976 22.8804 11.7166 23.2075C11.4347 23.5571 10.9611 23.6134 10.5551 23.2977C10.5326 23.2751 10.4987 23.2526 10.4649 23.23C10.3747 23.1736 10.2958 23.1173 10.2055 23.0609C9.82213 22.8466 9.40489 22.7451 8.94254 22.7677C8.38997 22.7902 7.88251 23.0045 7.53293 23.3541C7.51038 23.3766 7.48782 23.3992 7.47655 23.4105C7.19462 23.7037 7.02547 24.0645 7.0142 24.4592C7.00292 24.8877 7.18335 25.2937 7.4991 25.5982C7.52165 25.6207 7.54421 25.6433 7.55548 25.6545C7.74719 25.8237 7.97273 25.9703 8.23209 26.0718C8.32231 26.1056 8.40125 26.1394 8.50274 26.162C8.53657 26.1733 8.55912 26.1733 8.59295 26.1846C8.62678 26.1958 8.66061 26.1958 8.68317 26.2071C8.717 26.2071 8.73955 26.2184 8.77338 26.2184C8.80721 26.2184 8.82977 26.2297 8.8636 26.2297C8.98764 26.2409 9.11169 26.2522 9.24701 26.2635C9.40489 26.2748 9.56276 26.2973 9.72064 26.3199C9.77702 26.3312 9.84468 26.3424 9.91234 26.3537C10.0364 26.3763 10.1604 26.4101 10.2732 26.4439C10.307 26.4552 10.3296 26.4665 10.3634 26.4665C10.4085 26.4778 10.4536 26.5003 10.4987 26.5116C10.51 26.5116 10.5213 26.5229 10.5326 26.5229C10.5438 26.5229 10.5551 26.5341 10.5551 26.5341C10.589 26.5454 10.6341 26.568 10.6679 26.5792C10.6792 26.5792 10.6904 26.5905 10.7017 26.5905C10.7017 26.5905 10.713 26.5905 10.713 26.6018C10.7243 26.6018 10.7356 26.6131 10.7468 26.6131C10.7807 26.6244 10.8145 26.6469 10.837 26.6582C10.8483 26.6582 10.8483 26.6695 10.8596 26.6695C10.916 26.692 10.9724 26.7258 11.0175 26.7597C11.0513 26.7822 11.0739 26.7935 11.1077 26.8161C11.1415 26.8386 11.1866 26.8612 11.2205 26.8837C11.2994 26.9288 11.3671 26.9852 11.4347 27.0416C11.4685 27.0641 11.5024 27.098 11.5362 27.1205C12.2918 27.752 12.7316 28.6655 12.7203 29.6465C12.7541 30.4698 12.4158 31.2479 11.8407 31.8455ZM17.637 24.9215C17.637 24.899 17.637 24.8652 17.637 24.8426C17.637 24.8426 17.637 24.8426 17.637 24.8313V24.8201V24.8088C17.637 24.7862 17.637 24.7637 17.6483 24.7411C17.6483 24.7186 17.6595 24.696 17.6595 24.6735C17.6595 24.6735 17.6595 24.6735 17.6595 24.6622C17.6595 24.6509 17.6595 24.6509 17.6708 24.6396C17.6708 24.6284 17.6821 24.6058 17.6821 24.5945C17.6821 24.5832 17.6934 24.572 17.6934 24.5607C17.7046 24.5494 17.7046 24.5381 17.7159 24.5156C17.7159 24.5043 17.7272 24.5043 17.7272 24.493C17.7385 24.4818 17.7385 24.4705 17.7498 24.4592C17.7498 24.4592 17.7498 24.4592 17.7498 24.4479C17.7498 24.4366 17.761 24.4366 17.7723 24.4254C17.7836 24.4141 17.7949 24.4028 17.7949 24.3915C17.8061 24.3803 17.8061 24.3803 17.8174 24.369C17.8738 24.3126 17.9302 24.2675 18.0091 24.2337C18.0317 24.2224 18.0655 24.2111 18.0881 24.1998C18.1444 24.1773 18.2008 24.1547 18.2685 24.1434C18.3361 24.1322 18.4038 24.1209 18.4827 24.1209C18.5166 24.1209 18.5617 24.1209 18.5955 24.1209C19.7345 24.1209 20.8734 24.1209 22.0124 24.1209C23.1514 24.1209 24.2903 24.1209 25.4293 24.1209C26.0721 24.1209 26.4329 24.4254 26.4329 24.9441C26.4329 25.4516 26.0721 25.7448 25.4631 25.7448C23.1739 25.7448 20.8734 25.7448 18.5842 25.7448C18.5053 25.7448 18.4264 25.7448 18.3587 25.7335C18.3587 25.7335 18.3587 25.7335 18.3474 25.7335C18.3136 25.7335 18.2798 25.7222 18.2572 25.7222C18.1557 25.6997 18.0768 25.6771 17.9978 25.632C17.9753 25.6207 17.9415 25.6094 17.9189 25.5869C17.8963 25.5756 17.8738 25.5531 17.8512 25.5418C17.8287 25.5305 17.8061 25.5079 17.7949 25.4854C17.7836 25.4741 17.761 25.4516 17.7498 25.4403C17.7498 25.4403 17.7385 25.429 17.7385 25.4177C17.7272 25.3952 17.7159 25.3839 17.7046 25.3613C17.6934 25.3388 17.6821 25.3162 17.6708 25.2937C17.6595 25.2711 17.6483 25.2373 17.637 25.2147C17.6257 25.1922 17.6257 25.1696 17.6144 25.1358C17.6144 25.1133 17.6032 25.0907 17.6032 25.0681C17.6032 25.0569 17.6032 25.0456 17.6032 25.0456C17.6032 25.023 17.6032 25.0005 17.6032 24.9667V24.9215H17.637ZM32.0939 34.4392C32.0375 34.4505 31.9811 34.4505 31.9135 34.4618C31.8232 34.4618 31.7218 34.4618 31.6315 34.4618C29.5115 34.4618 27.3802 34.4618 25.2601 34.4618C23.1062 34.4618 20.9524 34.4618 18.7985 34.4618C18.7534 34.4618 18.7083 34.4618 18.6632 34.4618C18.6181 34.4618 18.573 34.4618 18.5279 34.4618C18.4827 34.4618 18.4376 34.4618 18.3925 34.4505C18.3474 34.4505 18.3023 34.4392 18.2572 34.4279C17.8625 34.3377 17.6595 34.0783 17.6483 33.6724C17.6483 33.6611 17.6483 33.6498 17.6483 33.6273C17.6483 33.5934 17.6483 33.5709 17.6483 33.5371V33.5258C17.6483 33.5032 17.6483 33.4807 17.6595 33.4581V33.4468C17.6595 33.4243 17.6708 33.4017 17.6821 33.3792C17.6821 33.3792 17.6821 33.3792 17.6821 33.3679C17.6934 33.3454 17.7046 33.3115 17.7159 33.289C17.7272 33.2664 17.7385 33.2439 17.7498 33.2326C17.7498 33.2213 17.761 33.2213 17.761 33.21C17.7723 33.1875 17.7836 33.1649 17.8061 33.1536C17.8061 33.1536 17.8061 33.1536 17.8061 33.1424C17.8174 33.1198 17.84 33.1085 17.8512 33.086C17.8512 33.086 17.8512 33.086 17.8625 33.0747C17.8851 33.0522 17.8963 33.0409 17.9189 33.0183C17.9866 32.9619 18.0542 32.9281 18.1444 32.8943C18.167 32.883 18.1895 32.883 18.2121 32.8717C18.2347 32.8604 18.2572 32.8604 18.2798 32.8492C18.3249 32.8379 18.37 32.8266 18.4264 32.8266C18.4489 32.8266 18.4715 32.8153 18.5053 32.8153C18.5166 32.8153 18.5279 32.8153 18.5391 32.8153C18.5504 32.8153 18.5617 32.8153 18.573 32.8153C18.5955 32.8153 18.6181 32.8153 18.6519 32.8153C18.6745 32.8153 18.697 32.8153 18.7308 32.8153C18.7534 32.8153 18.7759 32.8153 18.7985 32.8153C23.095 32.8153 27.3802 32.8153 31.6766 32.8153C31.7669 32.8153 31.8684 32.8153 31.9698 32.8153C32.0262 32.8153 32.0826 32.8266 32.139 32.8379C32.1616 32.8379 32.1954 32.8492 32.2179 32.8492C32.2969 32.8717 32.3645 32.8943 32.4209 32.9281C32.466 32.9507 32.4999 32.9732 32.5337 33.007C32.545 33.0183 32.5562 33.0296 32.5788 33.0409C32.5901 33.0522 32.5901 33.0522 32.6013 33.0634C32.6239 33.086 32.6352 33.1085 32.6577 33.1311C32.669 33.1424 32.669 33.1536 32.6803 33.1649C32.6916 33.1762 32.6916 33.1875 32.7028 33.1988C32.7141 33.21 32.7141 33.2213 32.7254 33.2326C32.7367 33.2551 32.7479 33.289 32.7592 33.3115C32.7705 33.3566 32.7931 33.3905 32.7931 33.4356C32.7931 33.4468 32.8043 33.4694 32.8043 33.4807C32.8043 33.4919 32.8043 33.5145 32.8043 33.5258C32.8043 33.5371 32.8043 33.5596 32.8043 33.5709C32.8043 33.5934 32.8043 33.6273 32.8043 33.6498C32.7818 34.0783 32.5111 34.3715 32.0939 34.4392ZM32.7931 29.2857C32.7931 29.3195 32.7931 29.3421 32.7931 29.3759C32.7931 29.421 32.7818 29.4548 32.7705 29.4999C32.7705 29.5112 32.7705 29.5225 32.7592 29.5451C32.7592 29.5563 32.7592 29.5563 32.7479 29.5676C32.7479 29.5902 32.7367 29.6014 32.7254 29.6127C32.7254 29.624 32.7141 29.6353 32.7028 29.6578V29.6691V29.6804C32.6916 29.6917 32.6916 29.7142 32.6803 29.7255C32.669 29.7368 32.669 29.748 32.6577 29.7706C32.6577 29.7706 32.6465 29.7819 32.6465 29.7931C32.6465 29.7931 32.6465 29.7931 32.6465 29.8044C32.6352 29.8157 32.6239 29.8383 32.6013 29.8495C32.5788 29.8721 32.5675 29.8834 32.545 29.9059C32.5224 29.9285 32.4999 29.9397 32.4773 29.951C32.4322 29.9849 32.3758 30.0074 32.3194 30.03C32.263 30.0525 32.1954 30.0751 32.139 30.0863C32.1052 30.0976 32.0713 30.0976 32.0375 30.0976H32.0262C32.0037 30.0976 31.9698 30.1089 31.9473 30.1089C31.936 30.1089 31.9247 30.1089 31.9022 30.1089C31.8684 30.1089 31.8345 30.1089 31.812 30.1089C30.1656 30.1089 28.5191 30.1089 26.8727 30.1089H25.2714C23.0611 30.1089 20.8509 30.1089 18.6406 30.1089C18.2685 30.1089 17.9415 30.03 17.7498 29.6691C17.7272 29.624 17.7046 29.5676 17.6821 29.5225C17.6708 29.4887 17.6595 29.4548 17.6595 29.421C17.6483 29.3872 17.6483 29.3533 17.6483 29.3195C17.6483 29.2519 17.6483 29.1955 17.6595 29.1278C17.7046 28.9023 17.84 28.6993 18.0429 28.5752C18.0542 28.5752 18.0542 28.564 18.0655 28.564C18.1106 28.5414 18.167 28.5189 18.2234 28.5076C18.2459 28.5076 18.2572 28.4963 18.2798 28.4963C18.291 28.4963 18.3023 28.4963 18.3136 28.4963C18.3249 28.4963 18.3361 28.4963 18.3474 28.4963C18.37 28.4963 18.4038 28.485 18.4264 28.485C18.4715 28.485 18.5053 28.4738 18.5504 28.4738C18.6406 28.4738 18.7308 28.4738 18.8098 28.4738C20.2419 28.4738 21.6741 28.4738 23.095 28.4738H31.6766C31.7218 28.4738 31.7669 28.4738 31.8007 28.4738C31.8232 28.4738 31.8571 28.4738 31.8796 28.4738C31.9022 28.4738 31.9247 28.4738 31.9473 28.4738C31.9698 28.4738 31.9924 28.4738 32.015 28.485C32.0375 28.485 32.0601 28.4963 32.0826 28.4963C32.1052 28.4963 32.1277 28.5076 32.1503 28.5076C32.1728 28.5076 32.1954 28.5189 32.2067 28.5189C32.2179 28.5189 32.2292 28.5301 32.2518 28.5301H32.263C32.2856 28.5414 32.3082 28.5414 32.3307 28.5527C32.3871 28.5752 32.4322 28.5978 32.4773 28.6204C32.4886 28.6204 32.4999 28.6316 32.4999 28.6316C32.5111 28.6429 32.5224 28.6429 32.5337 28.6542C32.5562 28.6767 32.5788 28.688 32.6126 28.7218C32.6239 28.7218 32.6239 28.7331 32.6352 28.7444C32.6465 28.7557 32.6577 28.767 32.669 28.7782C32.6803 28.7895 32.6803 28.8008 32.6916 28.8008C32.7028 28.8121 32.7141 28.8346 32.7254 28.8459C32.7367 28.8684 32.7479 28.891 32.7592 28.9023C32.7592 28.9136 32.7705 28.9136 32.7705 28.9248C32.7818 28.9474 32.7931 28.9699 32.7931 28.9925C32.8043 29.015 32.8043 29.0376 32.8156 29.0714C32.8269 29.094 32.8269 29.1278 32.8269 29.1616V29.1729V29.1842C32.7931 29.2293 32.7931 29.2519 32.7931 29.2857Z" fill="#E7B742"/>
<path d="M41.1379 8.60379C39.8411 9.90063 38.5442 11.1862 37.2587 12.483C36.9768 12.7649 36.661 12.9115 36.2776 12.7762C35.6912 12.5732 35.5784 11.8515 36.0633 11.3666C37.1234 10.2953 38.1947 9.2353 39.2547 8.17527C39.3562 8.07378 39.4464 7.97229 39.5141 7.89335C38.9502 7.32951 38.4089 6.78822 37.8789 6.24693C36.3904 7.73548 34.8793 9.24657 33.4133 10.7126C32.1165 9.41573 30.8647 8.164 29.5792 6.88971C29.5792 6.88971 29.613 6.83333 29.6581 6.78822C31.6654 4.78094 33.6614 2.75111 35.6912 0.766388C36.8866 -0.417681 38.8487 -0.192144 39.7734 1.18363C40.4726 2.20982 40.3711 3.55177 39.5366 4.49902C39.39 4.66818 39.2321 4.82605 39.0404 5.01776C39.7396 5.71692 40.4275 6.39353 41.1154 7.08142C41.6905 7.65654 41.6905 8.03995 41.1379 8.60379Z" fill="#E7B742"/>
<path d="M32.015 11.9416L25.2038 18.7528C23.9972 17.5462 22.7454 16.2944 21.4824 15.0314C23.7603 12.7535 26.0495 10.4756 28.3049 8.22021C29.5341 9.46067 30.7858 10.7124 32.015 11.9416Z" fill="#E7B742"/>
<path d="M23.6589 19.8018C22.7342 20.1289 21.7531 20.4784 20.7608 20.828C20.2984 20.9972 19.8361 21.1776 19.3737 21.3129C19.2271 21.358 18.979 21.3355 18.8888 21.2453C18.7873 21.1551 18.7535 20.8957 18.8099 20.7604C19.3512 19.3395 19.9037 17.9412 20.4337 16.5767C21.505 17.648 22.5876 18.7193 23.6589 19.8018Z" fill="#E7B742"/>
</svg>
