<svg width="22" height="22" viewBox="0 0 22 22" fill="none" xmlns="http://www.w3.org/2000/svg">
<path d="M11.0059 2.27467e-05C4.87668 0.0122717 -0.0364613 4.93635 0.000203886 11.0976C0.0368691 17.1241 4.8889 21.9685 10.8898 21.9991C17.0862 22.0359 22.0115 17.1118 21.9993 10.969C21.9932 4.9241 17.0434 -0.0122262 11.0059 2.27467e-05ZM12.0019 15.1336C11.9164 15.1703 11.8308 15.201 11.7331 15.2377C11.7331 15.4949 11.7331 15.7522 11.7331 16.0155C11.727 16.4687 11.4214 16.7872 11.0059 16.7872C10.5842 16.7872 10.2726 16.4687 10.2665 16.0217C10.2665 15.7705 10.2665 15.5194 10.2665 15.25C10.1442 15.1948 10.0159 15.1459 9.8937 15.0907C9.34372 14.8274 8.93429 14.417 8.67152 13.8658C8.48209 13.4739 8.62264 13.0513 8.98318 12.8675C9.36205 12.6777 9.77759 12.8186 9.99147 13.2105C10.2787 13.7433 10.7187 13.9822 11.2198 13.8658C11.7575 13.7433 12.1242 13.2595 12.0814 12.7267C12.0325 12.1387 11.5986 11.71 11.0059 11.6855C9.52093 11.6182 8.41487 10.479 8.4332 9.03975C8.45153 7.96184 9.10539 7.04929 10.1259 6.68795C10.1687 6.6757 10.2115 6.6512 10.2603 6.63283C10.2603 6.36335 10.2603 6.1 10.2603 5.83052C10.2665 5.39569 10.572 5.07721 10.9814 5.07721C11.4031 5.07109 11.7147 5.38956 11.7208 5.83665C11.727 6.11225 11.7208 6.38785 11.7208 6.66345C12.4541 6.89618 12.9858 7.34939 13.3097 8.03533C13.4869 8.40893 13.3586 8.81314 13.0163 9.003C12.6619 9.19899 12.2403 9.0765 12.0203 8.72128C12.0019 8.69678 11.9897 8.66616 11.9775 8.64166C11.6903 8.1272 11.1953 7.9006 10.6942 8.06596C10.2054 8.22519 9.88147 8.7274 9.94258 9.22348C10.0159 9.78081 10.4498 10.185 11.0303 10.2218C11.9775 10.2769 12.7047 10.7056 13.2058 11.5079C14.0246 12.8124 13.438 14.5395 12.0019 15.1336Z" fill="#E7B742"/>
</svg>
