<svg width="21" height="25" viewBox="0 0 21 25" fill="none" xmlns="http://www.w3.org/2000/svg">
<g clip-path="url(#clip0_21_2457)">
<path d="M9.88193 3.44777C4.69233 3.45814 0.532361 7.62737 0.563405 12.8441C0.59445 17.9467 4.70267 22.0485 9.78362 22.0745C15.0301 22.1056 19.2005 17.9364 19.1901 12.7352C19.1849 7.617 14.9939 3.4374 9.88193 3.44777ZM10.7253 16.2614C10.6529 16.2925 10.5804 16.3185 10.4976 16.3496C10.4976 16.5674 10.4976 16.7852 10.4976 17.0081C10.4925 17.3919 10.2338 17.6615 9.88193 17.6615C9.52492 17.6615 9.26104 17.3919 9.25587 17.0133C9.25587 16.8007 9.25587 16.5881 9.25587 16.3599C9.15239 16.3133 9.04373 16.2718 8.94025 16.2251C8.47458 16.0021 8.12792 15.6547 7.90543 15.188C7.74503 14.8561 7.86404 14.4983 8.16931 14.3427C8.4901 14.182 8.84194 14.3012 9.02303 14.6331C9.26622 15.0843 9.63875 15.2865 10.063 15.188C10.5183 15.0843 10.8288 14.6746 10.7926 14.2235C10.7512 13.7256 10.3838 13.3627 9.88193 13.3419C8.62463 13.2849 7.68812 12.3203 7.70364 11.1017C7.71916 10.1891 8.27279 9.41641 9.13686 9.11046C9.17308 9.10009 9.2093 9.07934 9.25069 9.06379C9.25069 8.83562 9.25069 8.61264 9.25069 8.38447C9.25587 8.01629 9.51457 7.74664 9.86124 7.74664C10.2182 7.74146 10.4821 8.01111 10.4873 8.38966C10.4925 8.62301 10.4873 8.85636 10.4873 9.08971C11.1082 9.28677 11.5583 9.6705 11.8326 10.2513C11.9826 10.5676 11.874 10.9099 11.5842 11.0706C11.2841 11.2366 10.9271 11.1328 10.7408 10.8321C10.7253 10.8113 10.715 10.7854 10.7046 10.7647C10.4614 10.3291 10.0423 10.1372 9.61805 10.2772C9.20413 10.412 8.9299 10.8373 8.98164 11.2573C9.04373 11.7292 9.41109 12.0714 9.90263 12.1026C10.7046 12.1492 11.3203 12.5122 11.7446 13.1915C12.4379 14.2961 11.9412 15.7584 10.7253 16.2614Z" fill="#C4C4C4"/>
</g>
<defs>
<clipPath id="clip0_21_2457">
<rect width="19.4725" height="23.4393" fill="white" transform="translate(0.563232 0.907715)"/>
</clipPath>
</defs>
</svg>
