<svg width="16" height="12" viewBox="0 0 16 12" fill="none" xmlns="http://www.w3.org/2000/svg">
<path d="M1.06667 9.06663V2.1333C0.783769 2.1333 0.512458 2.24568 0.312419 2.44572C0.112381 2.64576 0 2.91707 0 3.19997V10.6666C0 10.9495 0.112381 11.2208 0.312419 11.4209C0.512458 11.6209 0.783769 11.7333 1.06667 11.7333H6.06933C5.07032 11.0393 3.88309 10.6671 2.66667 10.6666C2.24232 10.6666 1.83535 10.4981 1.5353 10.198C1.23524 9.89795 1.06667 9.49098 1.06667 9.06663ZM14.9333 2.1333V9.06663C14.9333 9.49098 14.7648 9.89795 14.4647 10.198C14.1646 10.4981 13.7577 10.6666 13.3333 10.6666C12.1169 10.6671 10.9297 11.0393 9.93067 11.7333H14.9333C15.2162 11.7333 15.4875 11.6209 15.6876 11.4209C15.8876 11.2208 16 10.9495 16 10.6666V3.19997C16 2.91707 15.8876 2.64576 15.6876 2.44572C15.4875 2.24568 15.2162 2.1333 14.9333 2.1333Z" fill="white"/>
<path d="M2.66663 0C2.52519 0 2.38953 0.0561904 2.28951 0.15621C2.18949 0.256229 2.1333 0.391885 2.1333 0.533333V9.06667C2.1333 9.20812 2.18949 9.34377 2.28951 9.44379C2.38953 9.54381 2.52519 9.6 2.66663 9.6C4.27113 9.60167 5.82773 10.1469 7.08263 11.1467L7.46663 11.456V0.0959999C7.29561 0.0339079 7.11524 0.00144243 6.9333 0H2.66663ZM13.8666 9.06667V0.533333C13.8666 0.391885 13.8104 0.256229 13.7104 0.15621C13.6104 0.0561904 13.4748 0 13.3333 0H9.06663C8.88469 0.00144243 8.70433 0.0339079 8.5333 0.0959999V11.456L8.9173 11.1467C10.1722 10.1469 11.7288 9.60167 13.3333 9.6C13.4748 9.6 13.6104 9.54381 13.7104 9.44379C13.8104 9.34377 13.8666 9.20812 13.8666 9.06667Z" fill="white"/>
</svg>
