<svg width="33" height="39" viewBox="0 0 33 39" fill="none" xmlns="http://www.w3.org/2000/svg">
<path d="M27.5211 18.1364C26.5213 19.9256 25.5215 21.7147 24.5479 23.5039C21.8905 28.2926 19.2331 33.0549 16.5756 37.8436C16.3651 38.2383 16.0757 38.554 15.6547 38.6855H15.2074C14.4707 38.3961 14.2865 37.8436 14.3655 37.1069C14.6549 33.5285 14.8917 29.9502 15.1548 26.3455C15.2337 25.1615 15.339 23.9775 15.4179 22.7146H14.9443C12.4184 22.7146 9.89253 22.7146 7.39295 22.7146C6.68254 22.7146 6.18263 22.3988 6.13001 21.7937C6.10369 21.4779 6.20895 21.1096 6.36681 20.8201C7.65607 18.4521 8.97163 16.1104 10.2872 13.7687C12.6289 9.55888 14.9706 5.34907 17.3123 1.16557C17.5754 0.718273 17.8649 0.349915 18.4174 0.349915C19.1015 0.349915 19.5751 0.928764 19.5225 1.66548C19.2068 5.84898 18.891 10.0325 18.6016 14.216C18.549 14.9001 18.4963 15.5842 18.47 16.3209H18.9173C21.4432 16.3209 23.9691 16.3209 26.4687 16.3209C26.8633 16.3209 27.2317 16.3998 27.5211 16.7156C27.8369 17.1366 27.8369 17.5838 27.5211 18.1364Z" fill="#E7B742"/>
<path d="M32.9941 19.9781C32.7573 28.2399 26.6267 33.8968 20.6541 35.1597C21.154 34.2388 21.6539 33.3443 22.1801 32.4497C22.2327 32.3444 22.3906 32.2918 22.5222 32.2129C25.89 30.6868 28.3107 28.2135 29.7315 24.8194C30.6787 22.5829 30.9944 20.2412 30.6524 17.8206C30.1524 14.0317 28.3896 10.9533 25.3901 8.58528C24.285 7.71701 23.101 7.03291 21.7854 6.58562C21.4697 6.48038 21.3908 6.32251 21.4434 6.00677C21.5223 5.40161 21.5486 4.79645 21.6013 4.16498C27.837 5.92784 33.2046 12.1373 32.9941 19.9781Z" fill="#E7B742"/>
<path d="M11.9183 32.4498C12.0761 32.5024 12.234 32.5813 12.4182 32.6603C12.3656 33.4233 12.3129 34.16 12.2603 34.8967C6.73491 33.4233 0.946426 27.7927 0.84118 19.7151C0.735935 11.7954 6.34025 5.45435 13.2075 3.90198C12.8918 4.45452 12.576 4.98074 12.3129 5.50697C11.9446 6.29631 11.392 6.82254 10.6027 7.24352C6.81385 9.21687 4.3932 12.2953 3.44599 16.4788C1.86731 23.1882 5.47197 29.9239 11.9183 32.4498Z" fill="#E7B742"/>
</svg>
