<svg width="44" height="53" viewBox="0 0 44 53" fill="none" xmlns="http://www.w3.org/2000/svg">
<path d="M36.3711 24.2458C35.0081 26.6848 33.6452 29.1237 32.3182 31.5626C28.6956 38.0904 25.0731 44.5822 21.4506 51.1099C21.1636 51.6479 20.7691 52.0783 20.1952 52.2577H19.5855C18.5812 51.8631 18.3302 51.1099 18.4378 50.1057C18.8323 45.2278 19.1551 40.35 19.5138 35.4362C19.6214 33.8222 19.7648 32.2082 19.8724 30.4866H19.2268C15.7836 30.4866 12.3404 30.4866 8.93311 30.4866C7.96471 30.4866 7.28325 30.0562 7.21152 29.2313C7.17565 28.8009 7.31913 28.2988 7.53433 27.9042C9.29179 24.6762 11.0851 21.4841 12.8784 18.292C16.0706 12.5533 19.2627 6.81466 22.4548 1.11187C22.8135 0.502133 23.208 0 23.9612 0C24.8938 0 25.5394 0.789065 25.4676 1.79333C25.0372 7.49612 24.6068 13.1989 24.2123 18.9017C24.1406 19.8342 24.0688 20.7668 24.033 21.771H24.6427C28.0859 21.771 31.5291 21.771 34.9364 21.771C35.4744 21.771 35.9765 21.8786 36.3711 22.309C36.8015 22.8829 36.8015 23.4926 36.3711 24.2458Z" fill="#E7B742"/>
<path d="M43.8315 26.7565C43.5087 38.0186 35.1518 45.73 27.0101 47.4516C27.6915 46.1962 28.373 44.9768 29.0903 43.7573C29.1621 43.6138 29.3773 43.5421 29.5566 43.4345C34.1475 41.3542 37.4473 37.9828 39.3841 33.356C40.6753 30.3073 41.1057 27.1152 40.6394 23.8155C39.9579 18.6507 37.5549 14.4543 33.4661 11.2263C31.9597 10.0427 30.3457 9.11015 28.5523 8.50041C28.1219 8.35695 28.0143 8.14175 28.0861 7.71135C28.1937 6.88641 28.2295 6.06148 28.3013 5.20068C36.8017 7.60375 44.1185 16.0683 43.8315 26.7565Z" fill="#E7B742"/>
<path d="M15.1018 43.7573C15.317 43.8291 15.5322 43.9367 15.7833 44.0443C15.7116 45.0844 15.6398 46.0887 15.5681 47.0929C8.0361 45.0844 0.145455 37.4089 0.00198818 26.3979C-0.141478 15.602 7.49811 6.95817 16.8593 4.84204C16.4289 5.59524 15.9985 6.31257 15.6398 7.02991C15.1377 8.1059 14.3845 8.82324 13.3085 9.3971C8.1437 12.0871 4.84397 16.2835 3.55277 21.9863C1.40077 31.1323 6.31451 40.3141 15.1018 43.7573Z" fill="#E7B742"/>
</svg>
