<svg width="25" height="30" viewBox="0 0 25 30" fill="none" xmlns="http://www.w3.org/2000/svg">
<path d="M20.0443 14.2283C19.2932 15.5725 18.5421 16.9166 17.8107 18.2607C15.8144 21.8581 13.818 25.4358 11.8216 29.0333C11.6634 29.3298 11.446 29.567 11.1297 29.6658H10.7937C10.2403 29.4484 10.1019 29.0333 10.1612 28.4798C10.3786 25.7916 10.5565 23.1034 10.7542 20.3954C10.8135 19.5059 10.8925 18.6165 10.9518 17.6677H10.596C8.69848 17.6677 6.80092 17.6677 4.92312 17.6677C4.38943 17.6677 4.01387 17.4305 3.97434 16.9759C3.95457 16.7387 4.03364 16.4619 4.15224 16.2445C5.12079 14.4655 6.1091 12.7063 7.09741 10.9471C8.85661 7.78454 10.6158 4.62193 12.375 1.47909C12.5727 1.14306 12.7901 0.866333 13.2052 0.866333C13.7191 0.866333 14.0749 1.30119 14.0354 1.85465C13.7982 4.99749 13.561 8.14033 13.3436 11.2832C13.304 11.7971 13.2645 12.311 13.2447 12.8645H13.5808C15.4783 12.8645 17.3759 12.8645 19.2537 12.8645C19.5502 12.8645 19.8269 12.9238 20.0443 13.161C20.2815 13.4772 20.2815 13.8133 20.0443 14.2283Z" fill="#E7B742"/>
<path d="M24.1558 15.612C23.9779 21.8186 19.3723 26.0684 14.8854 27.0171C15.2609 26.3253 15.6365 25.6533 16.0318 24.9812C16.0714 24.9022 16.1899 24.8626 16.2888 24.8033C18.8189 23.6569 20.6374 21.7988 21.7047 19.249C22.4163 17.5689 22.6535 15.8097 22.3966 13.9912C22.021 11.1448 20.6967 8.83216 18.4433 7.05319C17.6131 6.4009 16.7236 5.88698 15.7353 5.55095C15.4981 5.47189 15.4388 5.35329 15.4784 5.11609C15.5377 4.66147 15.5574 4.20684 15.597 3.73245C20.2816 5.05679 24.3139 9.72164 24.1558 15.612Z" fill="#E7B742"/>
<path d="M8.3227 24.9813C8.4413 25.0208 8.5599 25.0801 8.69827 25.1394C8.65873 25.7126 8.61919 26.2661 8.57966 26.8195C4.42874 25.7126 0.0801609 21.4826 0.0010957 15.4144C-0.0779695 9.46471 4.13225 4.70103 9.29125 3.53482C9.05406 3.94991 8.81686 4.34524 8.6192 4.74056C8.34247 5.33355 7.92738 5.72888 7.33439 6.04514C4.48804 7.52761 2.66954 9.84027 1.95795 12.9831C0.771974 18.0235 3.47996 23.0837 8.3227 24.9813Z" fill="#E7B742"/>
</svg>
