<svg width="22" height="24" viewBox="0 0 22 24" fill="none" xmlns="http://www.w3.org/2000/svg">
<path fill-rule="evenodd" clip-rule="evenodd" d="M0.5 1.5C0.5 1.10218 0.658035 0.720644 0.93934 0.43934C1.22064 0.158035 1.60218 0 2 0H20C20.3978 0 20.7794 0.158035 21.0607 0.43934C21.342 0.720644 21.5 1.10218 21.5 1.5V6C21.4999 6.39779 21.3418 6.77926 21.0605 7.0605L14 14.121V19.5C13.9999 19.8978 13.8418 20.2793 13.5605 20.5605L10.5605 23.5605C10.3507 23.7702 10.0835 23.913 9.79255 23.9709C9.50162 24.0287 9.20007 23.999 8.92602 23.8855C8.65197 23.772 8.41772 23.5798 8.2529 23.3332C8.08807 23.0866 8.00006 22.7966 8 22.5V14.121L0.9395 7.0605C0.658176 6.77926 0.500085 6.39779 0.5 6V1.5Z" fill="#D69D2F"/>
</svg>
