<svg width="52" height="52" viewBox="0 0 52 52" fill="none" xmlns="http://www.w3.org/2000/svg">
<mask id="mask0_29_97" style="mask-type:alpha" maskUnits="userSpaceOnUse" x="0" y="0" width="52" height="52">
<rect width="51.1523" height="51.1523" fill="#E7B742"/>
</mask>
<g mask="url(#mask0_29_97)">
<path d="M43.083 36.0353L36.1739 44.6716C36.0938 44.7738 35.9915 44.8564 35.8748 44.9132C35.7581 44.97 35.63 44.9995 35.5002 44.9995C35.3704 44.9995 35.2423 44.97 35.1256 44.9132C35.0089 44.8564 34.9067 44.7738 34.8266 44.6716L27.9175 36.0353C27.7968 35.8827 27.73 35.6944 27.7275 35.4998C27.7262 35.3709 27.7559 35.2436 27.8139 35.1284C27.8839 34.9815 27.994 34.8573 28.1315 34.7702C28.269 34.6831 28.4284 34.6366 28.5912 34.6362H32.0457V27.1744C34.2898 27.9113 36.7107 27.9113 38.9548 27.1744V34.6362H42.4093C42.5721 34.6366 42.7314 34.6831 42.869 34.7702C43.0065 34.8573 43.1166 34.9815 43.1866 35.1284C43.2577 35.2737 43.2857 35.4363 43.2673 35.597C43.249 35.7577 43.185 35.9098 43.083 36.0353ZM16.5002 25.9998C14.6213 25.9998 12.7846 26.557 11.2223 27.6008C9.66006 28.6447 8.44242 30.1284 7.72339 31.8643C7.00436 33.6002 6.81623 35.5103 7.18279 37.3532C7.54935 39.196 8.45413 40.8887 9.78273 42.2173C11.1113 43.5459 12.8041 44.4507 14.6469 44.8173C16.4897 45.1838 18.3998 44.9957 20.1357 44.2767C21.8716 43.5576 23.3553 42.34 24.3992 40.7777C25.4431 39.2155 26.0002 37.3787 26.0002 35.4998C25.9986 32.9807 24.9972 30.5653 23.216 28.7841C21.4347 27.0028 19.0193 26.0014 16.5002 25.9998ZM19.0912 34.6362C19.3202 34.6362 19.5399 34.7272 19.7018 34.8891C19.8638 35.0511 19.9548 35.2708 19.9548 35.4998V38.9543C19.9548 39.1834 19.8638 39.4031 19.7018 39.565C19.5399 39.727 19.3202 39.818 19.0912 39.818H17.3639V40.6816C17.3639 40.9107 17.2729 41.1303 17.1109 41.2923C16.949 41.4543 16.7293 41.5453 16.5002 41.5453C16.2712 41.5453 16.0515 41.4543 15.8896 41.2923C15.7276 41.1303 15.6366 40.9107 15.6366 40.6816V39.818H13.9093C13.6803 39.818 13.4606 39.727 13.2987 39.565C13.1367 39.4031 13.0457 39.1834 13.0457 38.9543C13.0457 38.7253 13.1367 38.5056 13.2987 38.3437C13.4606 38.1817 13.6803 38.0907 13.9093 38.0907H18.2275V36.3634H13.9093C13.6803 36.3634 13.4606 36.2725 13.2987 36.1105C13.1367 35.9485 13.0457 35.7289 13.0457 35.4998V32.0453C13.0457 31.8162 13.1367 31.5965 13.2987 31.4346C13.4606 31.2726 13.6803 31.1816 13.9093 31.1816H15.6366V30.318C15.6366 30.0889 15.7276 29.8693 15.8896 29.7073C16.0515 29.5453 16.2712 29.4544 16.5002 29.4544C16.7293 29.4544 16.949 29.5453 17.1109 29.7073C17.2729 29.8693 17.3639 30.0889 17.3639 30.318V31.1816H19.0912C19.3202 31.1816 19.5399 31.2726 19.7018 31.4346C19.8638 31.5965 19.9548 31.8162 19.9548 32.0453C19.9548 32.2743 19.8638 32.494 19.7018 32.6559C19.5399 32.8179 19.3202 32.9089 19.0912 32.9089H14.773V34.6362H19.0912ZM24.1866 16.8712C24.1166 17.0181 24.0065 17.1423 23.869 17.2294C23.7315 17.3165 23.5721 17.363 23.4093 17.3634H19.9548V24.8253C17.7107 24.0883 15.2898 24.0883 13.0457 24.8253V17.3634H9.59116C9.42837 17.363 9.26903 17.3165 9.13151 17.2294C8.99399 17.1423 8.88388 17.0181 8.81388 16.8712C8.7428 16.7259 8.71479 16.5633 8.73315 16.4026C8.75152 16.2419 8.81549 16.0899 8.91752 15.9644L15.8266 7.328C15.9097 7.23052 16.013 7.15224 16.1293 7.09857C16.2456 7.04489 16.3722 7.01709 16.5002 7.01709C16.6283 7.01709 16.7549 7.04489 16.8712 7.09857C16.9875 7.15224 17.0908 7.23052 17.1739 7.328L24.083 15.9644C24.185 16.0899 24.249 16.2419 24.2673 16.4026C24.2857 16.5633 24.2577 16.7259 24.1866 16.8712Z" fill="#E7B742"/>
<path d="M35.5 7C33.6211 7 31.7844 7.55716 30.2221 8.60104C28.6598 9.64491 27.4422 11.1286 26.7231 12.8645C26.0041 14.6004 25.816 16.5105 26.1825 18.3534C26.5491 20.1962 27.4539 21.8889 28.7825 23.2175C30.1111 24.5461 31.8038 25.4509 33.6466 25.8175C35.4895 26.184 37.3996 25.9959 39.1355 25.2768C40.8714 24.5578 42.3551 23.3402 43.399 21.7779C44.4428 20.2156 45 18.3789 45 16.5C44.9984 13.9809 43.997 11.5655 42.2157 9.78425C40.4345 8.00301 38.0191 7.0016 35.5 7ZM38.0909 15.6364C38.32 15.6364 38.5396 15.7274 38.7016 15.8893C38.8636 16.0513 38.9545 16.2709 38.9545 16.5V19.9545C38.9545 20.1836 38.8636 20.4033 38.7016 20.5652C38.5396 20.7272 38.32 20.8182 38.0909 20.8182H36.3636V21.6818C36.3636 21.9109 36.2726 22.1305 36.1107 22.2925C35.9487 22.4545 35.7291 22.5454 35.5 22.5454C35.271 22.5454 35.0513 22.4545 34.8893 22.2925C34.7274 22.1305 34.6364 21.9109 34.6364 21.6818V20.8182H32.9091C32.68 20.8182 32.4604 20.7272 32.2984 20.5652C32.1364 20.4033 32.0455 20.1836 32.0455 19.9545C32.0455 19.7255 32.1364 19.5058 32.2984 19.3439C32.4604 19.1819 32.68 19.0909 32.9091 19.0909H37.2273V17.3636H32.9091C32.68 17.3636 32.4604 17.2726 32.2984 17.1107C32.1364 16.9487 32.0455 16.729 32.0455 16.5V13.0455C32.0455 12.8164 32.1364 12.5967 32.2984 12.4348C32.4604 12.2728 32.68 12.1818 32.9091 12.1818H34.6364V11.3182C34.6364 11.0891 34.7274 10.8695 34.8893 10.7075C35.0513 10.5455 35.271 10.4545 35.5 10.4545C35.7291 10.4545 35.9487 10.5455 36.1107 10.7075C36.2726 10.8695 36.3636 11.0891 36.3636 11.3182V12.1818H38.0909C38.32 12.1818 38.5396 12.2728 38.7016 12.4348C38.8636 12.5967 38.9545 12.8164 38.9545 13.0455C38.9545 13.2745 38.8636 13.4942 38.7016 13.6561C38.5396 13.8181 38.32 13.9091 38.0909 13.9091H33.7727V15.6364H38.0909Z" fill="#E7B742"/>
</g>
</svg>
