<svg width="35" height="41" viewBox="0 0 35 41" fill="none" xmlns="http://www.w3.org/2000/svg">
<path d="M33.698 13.2247H32.1804C32.1804 13.3371 32.1522 13.4776 32.1522 13.6181C32.096 19.0986 32.0398 24.579 31.9836 30.0313C31.9836 30.481 31.9555 30.9588 31.8712 31.4084C31.7869 31.9424 31.4496 32.1954 30.9718 32.1954C30.4097 32.1954 30.0444 31.9705 29.9039 31.4366C29.8195 31.0993 29.7633 30.7339 29.7633 30.3686C29.7633 26.2934 29.7633 22.2182 29.7633 18.143C29.7633 18.0306 29.7633 17.9463 29.7352 17.8057H27.4587V17.2718C27.4587 12.3815 27.4587 7.49129 27.4587 2.60106C27.4587 1.50498 27.1215 0.689939 26.0816 0.212158H4.38473C3.34485 0.661834 2.97949 1.47687 2.97949 2.57296C2.97949 12.8312 2.97949 23.0613 2.97949 33.3196V33.8255H27.4587V19.3796H28.2457V19.8012C28.2457 23.3705 28.2457 26.9679 28.2457 30.5372C28.2457 31.4647 28.4143 32.364 29.1169 33.0385C30.5503 34.4719 32.883 33.7411 33.3889 31.7457C33.4732 31.3522 33.5294 30.9588 33.5294 30.5653C33.5856 24.9162 33.6418 19.2391 33.698 13.59C33.698 13.4776 33.698 13.3652 33.698 13.2247ZM16.8914 30.2562C15.7953 28.7104 14.7273 27.1646 14.2214 25.3097C14.1933 25.3097 14.1652 25.3097 14.109 25.3378C14.2495 26.2653 14.3338 27.1646 14.5306 28.0921C14.7273 28.9914 15.0083 29.8908 15.2894 30.8182C13.9122 30.762 12.76 30.2562 12.0011 29.0476C11.3547 28.0078 11.1861 26.8555 11.2142 25.6751C11.2985 22.977 12.6756 20.9535 14.643 19.2391C15.0364 18.9018 15.4861 18.5927 15.9639 18.2273C15.9077 18.6489 15.8796 18.958 15.8515 19.2953C15.7391 20.813 16.3293 22.0777 17.2848 23.23C17.8469 23.9045 18.4371 24.579 18.8025 25.3659C19.6737 27.1927 18.8025 29.3568 16.8914 30.2562ZM23.6365 13.9835H7.61678V4.84944H23.6365V13.9835Z" fill="#E7B742"/>
<path d="M29.7911 35.4275H0V40.7393H29.7911V35.4275Z" fill="#E7B742"/>
<path d="M34.3441 5.46802C34.3441 5.3556 34.2035 5.21508 34.0911 5.15887C33.529 4.96214 32.9388 4.79351 32.3767 4.59678C31.0277 4.1752 29.6787 3.72553 28.2734 3.30396C28.2734 4.28762 28.2734 5.18697 28.2734 6.11443C28.2734 6.22685 28.3578 6.39548 28.4421 6.39548C28.948 6.47979 29.0042 6.78895 28.9761 7.21052C28.948 7.43536 29.0042 7.6883 29.0604 7.91314C29.2852 9.09354 29.8754 9.99289 31.0839 10.3864C31.2806 10.4426 31.365 10.555 31.3369 10.7517C31.3369 11.3138 31.3369 11.8759 31.3369 12.4661H34.3441C34.3722 12.4099 34.4003 12.3818 34.4003 12.3256C34.3722 10.0491 34.3722 7.74451 34.3441 5.46802ZM31.3369 9.59942C30.2127 9.54321 29.6225 7.88503 29.7911 6.87326C30.2408 7.04189 30.6904 7.18241 31.0839 7.35104C31.1963 7.37915 31.3087 7.54778 31.3087 7.63209C31.3369 8.3066 31.3369 8.95301 31.3369 9.59942Z" fill="#E7B742"/>
</svg>
