<svg width="35" height="41" viewBox="0 0 35 41" fill="none" xmlns="http://www.w3.org/2000/svg">
<path d="M33.698 13.0125H32.1804C32.1804 13.1249 32.1523 13.2655 32.1523 13.406C32.0961 18.8864 32.0399 24.3668 31.9836 29.8192C31.9836 30.2688 31.9555 30.7466 31.8712 31.1963C31.7869 31.7303 31.4497 31.9832 30.9719 31.9832C30.4098 31.9832 30.0444 31.7584 29.9039 31.2244C29.8196 30.8871 29.7634 30.5218 29.7634 30.1564C29.7634 26.0812 29.7634 22.006 29.7634 17.9308C29.7634 17.8184 29.7634 17.7341 29.7353 17.5936H27.4588V17.0596C27.4588 12.1694 27.4588 7.27913 27.4588 2.38891C27.4588 1.29282 27.1215 0.477781 26.0816 0H4.38476C3.34488 0.449676 2.97952 1.26471 2.97952 2.3608C2.97952 12.619 2.97952 22.8492 2.97952 33.1074V33.6133H27.4588V19.1674H28.2457V19.589C28.2457 23.1583 28.2457 26.7557 28.2457 30.325C28.2457 31.2525 28.4143 32.1519 29.117 32.8264C30.5503 34.2597 32.883 33.529 33.3889 31.5335C33.4732 31.1401 33.5294 30.7466 33.5294 30.3531C33.5856 24.7041 33.6418 19.0269 33.698 13.3779C33.698 13.2655 33.698 13.153 33.698 13.0125ZM16.8914 30.044C15.7953 28.4982 14.7273 26.9525 14.2214 25.0976C14.1933 25.0976 14.1652 25.0976 14.109 25.1257C14.2495 26.0531 14.3338 26.9525 14.5306 27.8799C14.7273 28.7793 15.0084 29.6786 15.2894 30.6061C13.9123 30.5499 12.76 30.044 12.0012 28.8355C11.3547 27.7956 11.1861 26.6433 11.2142 25.4629C11.2985 22.7649 12.6757 20.7413 14.643 19.0269C15.0365 18.6897 15.4861 18.3805 15.9639 18.0152C15.9077 18.4367 15.8796 18.7459 15.8515 19.0831C15.7391 20.6008 16.3293 21.8655 17.2848 23.0178C17.8469 23.6923 18.4371 24.3668 18.8025 25.1538C19.6738 26.9806 18.8025 29.1446 16.8914 30.044ZM23.6365 13.7713H7.61681V4.63729H23.6365V13.7713Z" fill="#E7B742"/>
<path d="M29.7911 35.2153H0V40.5271H29.7911V35.2153Z" fill="#E7B742"/>
<path d="M34.3441 5.25562C34.3441 5.1432 34.2035 5.00268 34.0911 4.94647C33.529 4.74973 32.9388 4.58111 32.3767 4.38437C31.0277 3.9628 29.6787 3.51312 28.2734 3.09155C28.2734 4.07522 28.2734 4.97457 28.2734 5.90203C28.2734 6.01445 28.3578 6.18308 28.4421 6.18308C28.948 6.26739 29.0042 6.57654 28.9761 6.99812C28.948 7.22295 29.0042 7.4759 29.0604 7.70074C29.2852 8.88113 29.8754 9.78049 31.0839 10.174C31.2806 10.2302 31.365 10.3426 31.3369 10.5393C31.3369 11.1014 31.3369 11.6635 31.3369 12.2537H34.3441C34.3722 12.1975 34.4003 12.1694 34.4003 12.1132C34.3722 9.8367 34.3722 7.53211 34.3441 5.25562ZM31.3369 9.38702C30.2127 9.33081 29.6225 7.67263 29.7911 6.66086C30.2408 6.82949 30.6904 6.97001 31.0839 7.13864C31.1963 7.16674 31.3087 7.33537 31.3087 7.41969C31.3369 8.0942 31.3369 8.74061 31.3369 9.38702Z" fill="#E7B742"/>
</svg>
