<svg width="16" height="16" viewBox="0 0 16 16" fill="none" xmlns="http://www.w3.org/2000/svg">
<path d="M8 0C6.41775 0 4.87103 0.469192 3.55544 1.34824C2.23985 2.22729 1.21447 3.47672 0.608967 4.93853C0.00346628 6.40034 -0.15496 8.00887 0.153721 9.56072C0.462403 11.1126 1.22433 12.538 2.34315 13.6569C3.46197 14.7757 4.88743 15.5376 6.43928 15.8463C7.99113 16.155 9.59966 15.9965 11.0615 15.391C12.5233 14.7855 13.7727 13.7602 14.6518 12.4446C15.5308 11.129 16 9.58225 16 8C16 5.87827 15.1571 3.84344 13.6569 2.34315C12.1566 0.842854 10.1217 0 8 0ZM8.30769 8C8.30783 8.07189 8.2828 8.14156 8.23693 8.19692L6.23693 10.6062C6.1847 10.669 6.10965 10.7085 6.02829 10.716C5.94692 10.7235 5.86591 10.6984 5.80308 10.6462C5.74024 10.5939 5.70073 10.5189 5.69323 10.4375C5.68573 10.3562 5.71085 10.2751 5.76308 10.2123L7.69231 7.88923V2.46154C7.69231 2.37993 7.72473 2.30167 7.78243 2.24397C7.84013 2.18626 7.9184 2.15385 8 2.15385C8.08161 2.15385 8.15987 2.18626 8.21757 2.24397C8.27528 2.30167 8.30769 2.37993 8.30769 2.46154V8Z" fill="white"/>
</svg>
