<svg width="16" height="17" viewBox="0 0 16 17" fill="none" xmlns="http://www.w3.org/2000/svg">
<path d="M8.69471 0.987122C8.50718 0.799651 8.25288 0.694336 7.98771 0.694336C7.72255 0.694336 7.46824 0.799651 7.28071 0.987122L0.280712 7.98712C0.0985537 8.17572 -0.00224062 8.42833 3.78026e-05 8.69052C0.00231622 8.95272 0.107485 9.20353 0.292893 9.38894C0.478301 9.57435 0.729114 9.67952 0.99131 9.6818C1.25351 9.68407 1.50611 9.58328 1.69471 9.40112L1.98771 9.10812V15.6941C1.98771 15.9593 2.09307 16.2137 2.28061 16.4012C2.46814 16.5888 2.7225 16.6941 2.98771 16.6941H4.98771C5.25293 16.6941 5.50728 16.5888 5.69482 16.4012C5.88235 16.2137 5.98771 15.9593 5.98771 15.6941V13.6941C5.98771 13.4289 6.09307 13.1746 6.28061 12.987C6.46814 12.7995 6.7225 12.6941 6.98771 12.6941H8.98771C9.25293 12.6941 9.50728 12.7995 9.69482 12.987C9.88235 13.1746 9.98771 13.4289 9.98771 13.6941V15.6941C9.98771 15.9593 10.0931 16.2137 10.2806 16.4012C10.4681 16.5888 10.7225 16.6941 10.9877 16.6941H12.9877C13.2529 16.6941 13.5073 16.5888 13.6948 16.4012C13.8824 16.2137 13.9877 15.9593 13.9877 15.6941V9.10812L14.2807 9.40112C14.4693 9.58328 14.7219 9.68407 14.9841 9.6818C15.2463 9.67952 15.4971 9.57435 15.6825 9.38894C15.8679 9.20353 15.9731 8.95272 15.9754 8.69052C15.9777 8.42833 15.8769 8.17572 15.6947 7.98712L8.69471 0.987122Z" fill="white"/>
</svg>
