<svg width="14" height="22" viewBox="0 0 14 22" fill="none" xmlns="http://www.w3.org/2000/svg">
<path d="M12.4849 20.4213C12.4727 20.3846 12.4604 20.3356 12.4482 20.2988C11.505 17.3714 10.5496 14.4439 9.60645 11.5165C9.31248 10.5978 9.00627 9.66693 8.7123 8.76052C10.3781 7.63364 10.1821 5.79633 9.31248 4.86542C8.32034 3.79978 6.63001 3.77528 5.61337 4.82868C4.68246 5.79633 4.52323 7.65813 6.17681 8.76052C6.15231 8.84626 6.12781 8.932 6.10331 9.01774C5.13566 11.9942 4.18026 14.9706 3.21261 17.9471C2.94314 18.78 2.67367 19.6007 2.41644 20.4336C2.28171 20.8745 2.51443 21.2175 2.93089 21.193C3.22486 21.1685 3.34735 20.9725 3.43309 20.7275C3.70256 19.8824 3.97203 19.0372 4.266 18.192C4.315 18.0573 4.43749 17.9103 4.55997 17.8491C5.00093 17.6041 5.46638 17.3836 5.93183 17.1509C7.1812 16.5262 8.43058 15.8893 9.71669 15.2524C9.76569 15.3871 9.80243 15.4851 9.83918 15.5831C10.2189 16.7344 10.5864 17.8981 10.9661 19.0495C11.1498 19.6129 11.3335 20.1763 11.5173 20.7398C11.6397 21.1195 11.9215 21.291 12.2277 21.1807C12.4849 21.0583 12.5951 20.7765 12.4849 20.4213ZM6.54427 11.0755C6.7525 10.4141 6.97298 9.75267 7.1812 9.09124H7.7079C8.12436 10.3774 8.54081 11.6757 8.95727 12.9741C8.93277 12.9863 8.92053 12.9986 8.89603 13.0108C8.12436 12.4351 7.35269 11.8595 6.59326 11.2838C6.55652 11.247 6.53202 11.1368 6.54427 11.0755ZM4.7682 16.5262C5.2459 15.0564 5.68686 13.6723 6.15231 12.2514C7.10771 12.9618 8.03862 13.66 9.01852 14.3827C7.59766 15.1054 6.21355 15.8035 4.7682 16.5262Z" fill="white"/>
<path d="M11.9581 11.3206C11.6151 11.6636 11.1497 11.5778 11.0149 11.1736C10.9292 10.9042 11.0639 10.7327 11.2476 10.5489C12.1173 9.71603 12.644 8.69939 12.8767 7.51126C13.4402 4.58381 11.3211 1.57062 8.36919 1.12967C5.18452 0.651964 2.37956 2.73425 1.9876 5.93117C1.76712 7.67049 2.33056 9.17709 3.54319 10.451C3.60443 10.5122 3.67792 10.5734 3.73917 10.6469C3.9474 10.8919 3.95965 11.1859 3.76367 11.3941C3.56769 11.5901 3.24922 11.6023 3.01649 11.3941C2.39181 10.8307 1.91411 10.157 1.54664 9.40981C1.10569 8.49116 0.897461 7.54801 0.897461 6.54361C0.90971 3.18745 3.49419 0.333497 6.80135 0.0272788C10.2188 -0.27894 13.2932 2.02382 13.8811 5.37998C14.2976 7.69499 13.6117 9.66704 11.9581 11.3206Z" fill="white"/>
<path d="M11.9703 7.03342C11.86 8.12356 11.3946 9.05446 10.6229 9.82613C10.3412 10.0956 10.035 10.1323 9.8145 9.91187C9.56953 9.67915 9.60628 9.37293 9.888 9.07896C10.8556 8.07456 11.1986 6.88643 10.7944 5.55132C10.4024 4.2652 9.50829 3.45679 8.18542 3.16282C6.69107 2.81985 5.17223 3.50578 4.41281 4.84089C3.66564 6.15151 3.86162 7.84184 4.90276 8.94422C4.964 9.00547 5.02525 9.05446 5.07424 9.1157C5.31922 9.37293 5.33147 9.65465 5.12324 9.88737C4.91501 10.1079 4.59654 10.1079 4.32707 9.86288C3.82487 9.38518 3.42066 8.82173 3.21243 8.1603C3.04095 7.64586 2.96746 7.10691 2.84497 6.59246C2.90621 3.99573 5.08649 1.91345 7.65873 2.04818C10.28 2.15842 12.2398 4.42444 11.9703 7.03342Z" fill="white"/>
</svg>
