<svg width="27" height="20" viewBox="0 0 27 20" fill="none" xmlns="http://www.w3.org/2000/svg">
<path d="M24.8873 5.75895C24.7288 5.66617 24.5787 5.52278 24.462 5.37939C21.9768 2.01402 18.6493 0.37772 14.5129 0.580148C11.419 0.73197 8.78371 1.96341 7.03241 4.62872C6.44865 5.52278 5.87322 5.90233 4.86414 5.79268C4.3471 5.73364 4.05521 6.04572 4.05521 6.47588C4.05521 6.92291 4.37211 7.20968 4.88916 7.20125C5.40621 7.19281 5.91492 7.16751 6.43197 7.15064C7.2826 7.1169 7.78297 7.47959 7.79965 8.13748C7.80799 8.77007 7.37433 9.10745 6.53204 9.13276C4.81411 9.18336 3.09617 9.2424 1.37823 9.30145C0.794467 9.31831 0.427529 9.68943 0.419189 10.2461C0.419189 10.7944 0.827825 11.2245 1.38657 11.2498C1.57838 11.2583 1.77853 11.2498 1.97034 11.2414C3.39639 11.1908 4.82245 11.1402 6.25684 11.098C6.8823 11.0811 7.29094 11.5197 7.25758 12.1607C7.25758 12.2451 7.2409 12.321 7.22422 12.4475C8.80039 11.2076 10.4933 10.9209 12.2029 11.9583C14.096 13.1054 14.638 14.902 14.2377 17.0865H17.0815C16.9814 15.2647 17.6152 13.8898 19.2248 13.1392C20.6675 12.4644 22.0102 12.8018 23.2944 13.9489C23.7114 13.2151 24.0784 12.5319 24.4787 11.8655C24.6037 11.6547 24.7705 11.4269 24.979 11.292C26.8554 10.0352 27.4142 7.15908 24.8873 5.75895ZM18.7995 2.76469C16.4644 2.01402 14.1543 2.14053 11.8693 3.00086C10.2932 3.59971 8.89212 4.49377 7.5578 5.57339C8.80039 3.67562 11.886 1.49951 15.1301 1.35612C18.3658 1.22117 21.3013 2.92495 22.8441 5.12636C21.6516 4.05517 20.3172 3.25389 18.7995 2.76469ZM24.3786 6.3831C25.6629 6.55179 26.4301 7.89288 25.913 9.12432C25.8463 7.91818 25.3793 7.03256 24.3786 6.3831Z" fill="#9EE74A"/>
<path d="M10.0678 11.9594C8.05802 11.951 6.37344 13.6801 6.34842 15.7718C6.3234 17.872 7.99964 19.6602 10.0178 19.6686C12.0693 19.6855 13.7456 17.9817 13.7706 15.8562C13.7873 13.7223 12.1277 11.9679 10.0678 11.9594ZM10.0428 18.8336C8.45832 18.8251 7.15735 17.4588 7.16569 15.7972C7.17403 14.1609 8.47499 12.8282 10.0595 12.8282C11.6607 12.8282 12.9533 14.1777 12.945 15.8393C12.945 17.5009 11.644 18.842 10.0428 18.8336Z" fill="#9EE74A"/>
<path d="M20.6673 13.3149C18.9577 13.3065 17.5733 14.7404 17.565 16.5285C17.5566 18.3335 18.916 19.7505 20.6423 19.7589C22.3685 19.7589 23.7445 18.3419 23.7529 16.5538C23.7529 14.7741 22.3852 13.3318 20.6673 13.3149ZM20.6339 19.0757C19.3079 19.0588 18.2238 17.9117 18.2321 16.52C18.2405 15.1283 19.3413 14.0234 20.6923 14.0403C22.0183 14.0572 23.0774 15.1789 23.0691 16.5622C23.0691 17.9455 21.9599 19.0841 20.6339 19.0757Z" fill="#9EE74A"/>
<path d="M5.281 14.0427C5.28934 14.4812 5.01413 14.8439 4.58048 14.8945C4.22188 14.9367 3.85494 14.9536 3.49634 14.9367C3.03767 14.9198 2.69575 14.5319 2.68741 14.0848C2.67907 13.6294 3.00431 13.2751 3.47967 13.2245C3.65479 13.2076 3.83826 13.2245 4.02173 13.2245V13.2076C4.18852 13.2076 4.35531 13.1908 4.5221 13.2076C4.9641 13.2329 5.27266 13.5872 5.281 14.0427Z" fill="#9EE74A"/>
<path d="M3.23781 6.44964C3.25449 6.93041 2.93759 7.16658 2.21205 7.19188C2.06194 7.20031 1.90349 7.20875 1.75338 7.20031C1.35308 7.16658 1.07788 6.86293 1.07788 6.49182C1.07788 6.11226 1.34474 5.82549 1.75338 5.78332C1.88681 5.76645 2.02858 5.78332 2.17036 5.78332C2.87087 5.74958 3.22113 5.96887 3.23781 6.44964Z" fill="#9EE74A"/>
<path d="M10.0679 13.3579C8.76696 13.3579 7.69116 14.4713 7.69116 15.8208C7.69116 17.1703 8.76696 18.2837 10.0679 18.2921C11.3772 18.2921 12.428 17.1956 12.428 15.8292C12.428 14.4544 11.3772 13.3495 10.0679 13.3579ZM11.5607 16.9004C11.1938 16.6811 10.8352 16.4365 10.4766 16.2003C10.4182 16.1666 10.3598 16.1497 10.243 16.0991C10.243 16.4365 10.243 16.7401 10.243 17.0354C10.243 17.2631 10.2764 17.4824 10.2597 17.7101C10.2514 17.8029 10.1597 17.8788 10.1096 17.9716C10.0429 17.8872 9.92615 17.7945 9.92615 17.7101C9.91781 17.3306 9.94283 16.951 9.95117 16.5799C9.95117 16.4449 9.95117 16.3184 9.95117 16.0822C9.49249 16.3943 9.12556 16.6558 8.7336 16.892C8.61685 16.9594 8.45006 16.9341 8.30828 16.951C8.38334 16.8329 8.44172 16.6727 8.55013 16.5968C8.91707 16.3606 9.30902 16.1582 9.80939 15.8798C9.37574 15.6437 9.03382 15.4665 8.70024 15.2641C8.52511 15.1545 8.11648 15.1291 8.28327 14.8339C8.45006 14.5387 8.68356 14.893 8.85869 14.9858C9.18393 15.1545 9.49249 15.3737 9.90113 15.6268C9.90113 15.1038 9.90113 14.7074 9.90113 14.3026C9.90113 14.176 9.87611 14.0495 9.90113 13.923C9.91781 13.8471 10.0012 13.7881 10.0512 13.7121C10.118 13.7881 10.2264 13.864 10.2264 13.9314C10.2264 14.311 10.193 14.6906 10.1763 15.0617C10.168 15.1966 10.1763 15.3316 10.1763 15.5846C10.5766 15.3316 10.8852 15.1291 11.1854 14.9352C11.2938 14.8677 11.3856 14.7749 11.5023 14.7327C11.6024 14.699 11.7191 14.7327 11.8276 14.7412C11.7859 14.8424 11.7692 14.9942 11.6941 15.0364C11.3605 15.2388 11.0103 15.4075 10.6767 15.593C10.5933 15.6352 10.5183 15.7027 10.3515 15.8208C10.7017 16.0063 10.9936 16.1666 11.2855 16.3268C11.4439 16.4112 11.6107 16.4871 11.7525 16.5968C11.8192 16.6474 11.8192 16.7739 11.8526 16.8751C11.7525 16.8835 11.6274 16.9426 11.5607 16.9004Z" fill="#9EE74A"/>
<path d="M20.6592 14.4716C19.575 14.4716 18.6744 15.3994 18.666 16.5381C18.666 17.6852 19.5417 18.5961 20.6425 18.5961C21.7433 18.5961 22.6356 17.6852 22.6356 16.5465C22.644 15.4247 21.7433 14.4801 20.6592 14.4716ZM21.7516 17.3562C21.4514 17.1875 21.1679 16.9851 20.8009 16.7405C20.8009 17.0357 20.8009 17.2466 20.8009 17.4574C20.8009 17.6261 20.8343 17.7948 20.8093 17.9635C20.7926 18.09 20.7175 18.2081 20.6675 18.3346C20.6175 18.2081 20.5341 18.0816 20.5257 17.9551C20.509 17.6008 20.5174 17.2381 20.5174 16.7827C20.1671 17.0188 19.8669 17.2381 19.5583 17.4237C19.4583 17.4827 19.2998 17.4659 19.1664 17.4827C19.2498 17.3731 19.3165 17.2381 19.4166 17.1707C19.7168 16.9767 20.0254 16.8164 20.434 16.5802C20.017 16.361 19.6834 16.2091 19.3665 16.0236C19.2665 15.9645 19.2081 15.8127 19.133 15.7115C19.2581 15.7284 19.3916 15.7115 19.4916 15.7621C19.8085 15.9392 20.1004 16.1332 20.4924 16.3863C20.4924 16.0995 20.4924 15.8886 20.4924 15.6778C20.4924 15.4838 20.4673 15.2813 20.484 15.0873C20.4924 14.9861 20.5758 14.8849 20.6258 14.7921C20.6842 14.9018 20.7759 15.003 20.7759 15.1126C20.7842 15.3741 20.7426 15.644 20.7342 15.9055C20.7259 16.0236 20.7342 16.1417 20.7342 16.3694C21.1595 16.091 21.4848 15.8718 21.81 15.6693C21.8851 15.6271 22.0018 15.644 22.1019 15.6271C22.0602 15.7284 22.0435 15.8717 21.9768 15.9139C21.6516 16.1164 21.3013 16.285 20.8593 16.5212C21.2513 16.7405 21.5765 16.9092 21.8767 17.1032C21.9851 17.1707 22.0435 17.3141 22.1352 17.4153C22.0102 17.3984 21.86 17.4153 21.7516 17.3562Z" fill="#9EE74A"/>
</svg>
