<svg width="84" height="120" viewBox="0 0 84 120" fill="none" xmlns="http://www.w3.org/2000/svg">
<path d="M41.7672 2.60151e-05C18.9388 -0.0247705 1.61819 17.6799 0.895455 39.0545C0.0979576 62.8839 18.9887 81.1589 41.7423 81.1341C64.7949 81.1093 82.6638 62.6607 82.5641 40.6415C82.6888 18.523 64.8946 0.0248225 41.7672 2.60151e-05ZM18.1663 68.24C17.0946 68.1408 15.8485 67.5953 15.1009 66.8266C9.2941 60.8506 5.50599 53.7836 4.4842 45.5016C4.08545 42.278 4.40945 38.9801 4.40945 35.7318C4.40945 35.5086 4.50912 35.2854 4.60881 35.0871C4.65865 34.9879 4.78328 34.8887 5.03249 34.6903C5.80507 35.5086 6.47795 36.2525 7.20068 36.9964C10.1664 40.0959 13.7302 42.3276 17.4684 44.3857C21.3812 46.5182 25.3437 48.6259 29.0322 51.1056C32.7953 53.61 35.462 57.1311 36.4589 61.6441C36.5585 62.0904 36.3591 62.8343 36.0352 63.1071C32.8203 65.9835 29.0322 67.744 24.7705 68.24C22.5774 68.4879 20.3345 68.4383 18.1663 68.24ZM70.502 64.3965C64.5955 71.5379 56.8947 75.8773 47.6986 77.3403C41.9416 78.2577 36.1598 77.9354 30.5275 76.1748C30.2284 76.0756 29.9293 75.9517 29.6303 75.8525C29.5057 75.8029 29.406 75.7285 29.0072 75.5301C32.8701 73.968 36.085 72.1578 38.951 69.6782C42.6395 66.4794 45.2562 62.5616 47.2251 58.1726C49.144 53.8828 49.6175 49.2706 50.4898 44.7329C51.4867 39.5752 53.8293 35.1366 58.1906 32.0123C61.0317 29.979 64.1968 28.7392 67.7108 28.4664C68.7326 28.392 69.7543 28.2184 71.125 28.0449C70.3275 27.0034 69.7294 26.0363 68.9818 25.2181C65.6423 21.6226 61.9538 18.4734 57.4181 16.4649C49.5677 12.9438 42.0413 13.5141 34.9137 18.3494C32.6956 19.862 30.976 21.9201 29.6552 24.251C29.4807 24.5485 29.4558 25.2181 29.6801 25.4164C31.2751 26.9786 32.9449 28.4664 34.6396 30.0534C35.3124 28.516 35.786 27.053 36.5087 25.7388C39.1504 21.0522 43.2874 18.5974 48.6207 18.2502C55.4742 17.8287 60.9819 21.0027 66.1407 25.0445C66.664 25.466 67.1376 25.9372 67.6111 26.3835C67.636 26.4083 67.6111 26.4579 67.6111 26.6315C66.1158 26.8794 64.5706 27.0778 63.0504 27.3506C56.5209 28.5904 51.8854 32.409 48.6207 38.013C46.9011 40.9638 45.954 44.1874 45.2064 47.4853C44.2344 51.8495 42.3902 55.8169 39.6738 59.3876C39.4246 59.71 39.0258 59.9579 38.5273 60.3795C38.1286 59.0157 37.8046 57.8502 37.4557 56.7344C36.4589 53.6844 34.6396 51.1304 32.4963 48.7747C28.6583 44.5097 23.7238 41.6085 19.213 38.1618C15.9981 35.707 13.157 32.9298 11.3128 29.2351C8.97012 24.5238 9.79254 19.7628 13.456 15.9938C16.7956 12.5223 20.4092 9.42269 24.7705 7.29019C29.9543 4.76095 35.4121 3.42194 41.2189 3.39714C47.3247 3.34755 53.1066 4.51299 58.4648 7.33979C69.6048 13.2166 76.558 22.2921 78.6265 34.7399C80.5953 45.8487 77.6296 55.7673 70.502 64.3965Z" fill="#E7B742"/>
<path d="M48.0419 97.0945C48.0257 98.2581 47.9931 99.4216 47.9524 100.585C47.9117 101.936 46.8295 103.026 45.5277 103.254C45.194 103.311 44.8523 103.344 44.5187 103.344C42.3787 103.352 40.2306 103.344 38.0906 103.352C37.041 103.36 36.0645 103.181 35.2997 102.367C35.2346 102.302 34.9579 102.318 34.8766 102.4C33.8757 103.441 32.2646 103.604 31.0522 102.872C30.9302 102.798 30.8 102.717 30.6942 102.611C30.206 102.131 30.2874 102.115 29.7748 102.595C29.197 103.132 28.4647 103.335 27.6999 103.344C21.0358 103.352 14.3636 103.352 7.69955 103.352C6.51157 103.352 5.70603 102.554 5.59211 101.334C5.58398 101.204 5.42938 100.992 5.33173 100.984C4.07053 100.878 2.88255 101.073 1.93868 102.017C1.26332 102.693 1.10872 103.514 1.35283 104.385C1.60507 105.296 2.26415 105.842 3.17548 106.086C3.72878 106.232 4.25767 106.126 4.76216 105.899C5.48633 105.573 5.79553 105.663 6.28374 106.37C5.64907 106.956 4.94117 107.282 4.0868 107.339C2.89882 107.412 1.88172 107.111 1.01922 106.257C-0.510507 104.743 -0.298949 101.911 1.5237 100.715C2.48385 100.073 3.50095 99.6901 4.65638 99.7227C5.23409 99.739 5.81181 99.7146 6.38952 99.7308C6.67431 99.739 6.79636 99.6332 6.78009 99.3403C6.73941 98.73 6.89401 98.1035 6.50344 97.5339C6.10473 96.948 5.5677 96.6063 4.86794 96.647C4.12748 96.6877 3.55791 97.0619 3.24057 97.7617C2.95578 98.3638 2.74422 98.4859 2.10141 98.3801C2.00377 98.3638 1.84917 98.1848 1.85731 98.0872C2.02005 96.3947 3.6881 95.1498 5.35615 95.459C7.06488 95.7682 8.00875 96.8911 8.00875 98.6161C8.00875 99.1206 8.01689 99.6169 8.00061 100.121C7.99248 100.585 7.70769 100.919 7.24389 100.935C6.78823 100.951 6.81264 101.22 6.88587 101.505C6.97537 101.855 7.25203 102.025 7.60191 102.082C7.74837 102.107 7.89484 102.099 8.0413 102.099C14.5345 102.099 21.0195 102.091 27.5127 102.107C28.5624 102.115 29.7422 101.399 29.6283 99.9912C29.5795 99.4054 29.6283 98.8114 29.6202 98.2174C29.612 97.9489 29.7178 97.8512 29.9863 97.8512C30.4664 97.8512 30.8407 98.1767 30.857 98.6649C30.8732 99.1938 30.857 99.7227 30.8651 100.26C30.8732 101.252 31.7357 102.115 32.704 102.099C33.6642 102.082 34.4941 101.236 34.4941 100.26C34.5023 98.4778 34.4941 96.6877 34.5023 94.9057C34.5023 94.7185 34.5999 94.3768 34.6487 94.3768C34.9254 94.3849 35.2671 94.3931 35.4624 94.5477C35.6414 94.6941 35.7228 95.0359 35.7309 95.2963C35.7553 96.9155 35.7391 98.5429 35.7391 100.162C35.7391 101.269 36.5446 102.082 37.6593 102.091C39.4657 102.099 41.264 102.082 43.0703 102.099C43.4121 102.099 43.5423 102.001 43.5341 101.643C43.526 100.943 43.5504 100.268 43.0459 99.682C42.4763 99.0148 41.7684 98.6649 40.9059 98.7788C39.8726 98.9253 39.1077 99.503 38.8799 100.553C38.7822 101 38.5951 101.041 38.2289 101.033C37.5454 101.016 37.4885 100.951 37.6431 100.292C37.993 98.8032 39.1158 97.8024 40.67 97.5827C42.753 97.2898 44.3641 98.6486 44.7058 100.325C44.7953 100.764 44.7628 101.236 44.7547 101.692C44.7465 102.034 44.8686 102.131 45.2103 102.05C46.2193 101.814 46.7889 101.065 46.797 99.8936C46.8051 98.2662 46.797 96.647 46.797 95.0277C46.797 94.4663 46.976 94.1896 47.3422 94.1652C47.6921 94.1408 48.0094 94.4988 48.0257 94.9952C48.0582 95.7031 48.0582 96.4029 48.0419 97.0945Z" fill="#E7B742"/>
<path d="M83.1116 98.2582C83.0953 99.1288 83.136 99.9995 83.0221 100.854C82.8593 102.009 82.1514 102.831 81.053 103.197C79.9626 103.555 78.9048 103.401 78.0505 102.563C77.7331 102.253 77.5541 102.278 77.2693 102.579C76.7811 103.091 76.1383 103.287 75.4386 103.344C74.3238 103.425 73.3637 103.14 72.6313 102.262C72.4686 102.066 72.3384 102.123 72.192 102.27C71.4108 103.116 70.4344 103.36 69.3115 103.352C65.8859 103.319 62.4522 103.303 59.0266 103.36C57.4643 103.384 55.7556 102.026 55.5522 100.268C55.3162 98.1768 56.5855 96.7041 57.9362 96.2321C58.3431 96.0938 58.4895 96.1752 58.5628 96.5901C58.6523 97.0865 58.4082 97.355 58.0176 97.5828C56.8052 98.2826 56.4147 99.617 57.0331 100.854C57.5294 101.863 58.4244 102.164 59.4416 102.188C61.0933 102.221 62.7532 102.196 64.405 102.196C66.0487 102.196 67.6842 102.213 69.3278 102.188C70.41 102.18 71.2888 101.765 71.7526 100.732C71.8909 100.431 71.9479 100.081 71.956 99.7472C71.9723 97.7537 71.9641 95.7602 71.9641 93.7748C71.9641 93.1645 72.2489 92.8553 72.7778 92.8309C73.0707 92.8147 73.2091 92.9042 73.2009 93.2296C73.1847 93.9375 73.1928 94.6454 73.1928 95.3533C73.1928 97.0051 73.1928 98.6569 73.1928 100.309C73.1928 101.35 73.9251 102.123 75.048 102.164C76.0081 102.196 76.8625 101.643 76.9927 100.667C77.0741 100.016 77.0415 99.3485 77.1066 98.6894C77.1229 98.4779 77.2124 98.1768 77.367 98.0873C77.5704 97.9734 77.8796 97.9815 78.1237 98.0222C78.1969 98.0304 78.2376 98.3477 78.2458 98.5267C78.2864 99.259 78.2376 100.008 78.3597 100.724C78.5306 101.7 79.4337 102.237 80.459 102.107C81.1994 102.009 81.8666 101.163 81.8829 100.309C81.8911 99.7635 81.8911 99.2183 81.8829 98.6732C81.8748 98.0629 82.42 97.8595 82.957 97.9978C83.0302 98.0059 83.1197 98.1605 83.1116 98.2582Z" fill="#E7B742"/>
<path d="M61.606 112.051C60.8168 110.822 59.2789 110.285 57.8387 110.741C57.5376 110.838 57.2447 110.977 56.8623 111.131C56.846 110.895 56.8297 110.741 56.8216 110.586C56.8216 109.935 56.8297 109.292 56.8135 108.641C56.7972 108.161 56.5612 107.934 56.1462 107.934C55.7557 107.942 55.5034 108.17 55.5034 108.617C55.5116 110.513 55.5116 112.417 55.5929 114.313C55.6499 115.664 56.4961 116.55 57.7166 116.99C59.0511 117.478 60.3041 117.161 61.2887 116.136C62.3384 115.045 62.436 113.336 61.606 112.051ZM58.8314 115.948C57.6841 115.94 56.8704 114.988 56.8053 114.012C56.7158 112.669 57.8794 111.839 58.8151 111.831C59.9136 111.823 60.8819 112.791 60.89 113.882C60.8981 114.964 59.9461 115.957 58.8314 115.948Z" fill="#E7B742"/>
<path d="M40.9547 113.743C40.914 112.872 40.5966 112.083 39.9538 111.497C37.9847 109.699 34.909 110.667 34.3964 113.206C34.1197 114.589 34.5754 115.72 35.6739 116.558C36.634 117.282 37.7325 117.396 38.8635 116.965C39.1727 116.843 39.4656 116.648 39.726 116.436C40.0108 116.208 40.084 115.891 39.8481 115.574C39.6202 115.264 39.3029 115.329 39.01 115.435C38.8716 115.484 38.7659 115.598 38.6357 115.671C37.5697 116.306 36.0563 115.736 35.739 114.508C35.9424 114.499 36.097 114.483 36.2516 114.483C37.586 114.483 38.9123 114.483 40.2468 114.483C40.7838 114.467 40.9791 114.272 40.9547 113.743ZM35.8041 113.181C35.9424 112.457 36.7398 111.855 37.5779 111.822C38.2939 111.798 39.3761 112.408 39.4738 113.181H35.8041Z" fill="#E7B742"/>
<path d="M48.3918 113.637C48.3755 113.539 48.343 113.434 48.3267 113.336C48.0013 111.253 45.7474 109.984 43.7945 110.822C42.5821 111.343 41.8742 112.278 41.7766 113.605C41.6789 114.947 42.1916 116.037 43.3714 116.721C44.5919 117.437 45.8206 117.364 47.0004 116.583C47.4398 116.29 47.5456 115.915 47.3096 115.574C47.1062 115.281 46.6261 115.256 46.2356 115.533C45.3975 116.127 44.3397 116.046 43.6318 115.305C43.4365 115.102 43.3063 114.841 43.1436 114.614C43.1761 114.565 43.2087 114.516 43.2412 114.467H43.7131C45.0313 114.467 46.3413 114.467 47.6595 114.467C48.2128 114.467 48.4651 114.182 48.3918 113.637ZM43.1924 113.19C43.4934 112.246 44.4129 111.814 45.1208 111.823C45.9508 111.839 46.7238 112.433 46.9109 113.19H43.1924Z" fill="#E7B742"/>
<path d="M15.9259 116.053C16.2025 116.371 16.1944 116.794 15.9096 117.046C15.6248 117.29 15.2749 117.274 14.9657 116.94C14.1927 116.094 13.436 115.223 12.663 114.377C12.5491 114.255 12.3294 114.076 12.2399 114.117C11.9714 114.231 11.6378 114.345 11.6378 114.743C11.6378 115.321 11.6378 115.899 11.6378 116.468C11.6378 116.875 11.3692 117.193 11.0356 117.209C10.6857 117.217 10.401 116.892 10.401 116.46C10.401 113.881 10.3928 111.293 10.4172 108.714C10.4172 108.486 10.5393 108.169 10.7183 108.047C11.1821 107.721 11.6378 108.039 11.6459 108.657C11.654 109.878 11.6459 111.106 11.6459 112.335V112.921C12.0283 112.693 12.3294 112.522 12.6223 112.343C13.379 111.855 14.1358 111.358 14.8925 110.87C14.982 110.813 15.0715 110.764 15.161 110.716C15.4946 110.529 15.7957 110.585 16.0235 110.895C16.2513 111.204 16.1862 111.521 15.8201 111.773C15.1529 112.237 14.4694 112.677 13.7859 113.124C13.7045 113.181 13.6231 113.238 13.4848 113.336C14.0137 113.938 14.5101 114.507 15.0064 115.069C15.3075 115.378 15.6248 115.712 15.9259 116.053Z" fill="#E7B742"/>
<path d="M82.8107 115.988C82.9653 116.167 83.0955 116.46 83.0711 116.68C83.0548 116.859 82.8026 117.119 82.6317 117.143C82.412 117.176 82.0784 117.07 81.932 116.907C81.1427 116.061 80.3941 115.166 79.613 114.304C79.5234 114.198 79.3038 114.068 79.2305 114.108C78.962 114.255 78.5877 114.32 78.604 114.759C78.6203 115.304 78.604 115.85 78.604 116.395C78.604 116.907 78.3762 117.192 77.9856 117.2C77.6276 117.2 77.3672 116.867 77.3672 116.379C77.3672 114.58 77.3672 112.782 77.3672 110.976C77.3672 110.227 77.3672 109.47 77.3672 108.722C77.3672 108.16 77.5625 107.933 78.0344 107.941C78.4494 107.949 78.6121 108.152 78.6121 108.697C78.6121 109.91 78.6121 111.114 78.6121 112.326C78.6121 112.481 78.6284 112.644 78.6365 112.888C78.84 112.782 78.9783 112.725 79.1085 112.636C80.0117 112.05 80.9148 111.456 81.818 110.87C81.9808 110.764 82.1516 110.666 82.3307 110.61C82.648 110.504 82.8677 110.658 83.0304 110.919C83.2013 111.195 83.1281 111.464 82.9002 111.627C82.3225 112.058 81.7123 112.448 81.1183 112.855C80.9148 112.994 80.7114 113.14 80.4673 113.311C81.281 114.247 82.0621 115.101 82.8107 115.988Z" fill="#E7B742"/>
<path d="M69.5557 113.759C69.5313 113.344 69.4499 112.904 69.2872 112.522C68.6118 110.976 66.9519 110.276 65.3164 110.707C63.9413 111.074 62.737 112.709 62.9811 114.393C63.2008 115.899 64.8933 117.534 66.7729 117.127C67.2692 117.022 67.7493 116.834 68.2701 116.664C68.4735 116.94 68.6606 117.29 69.1 117.16C69.5638 117.022 69.5882 116.639 69.5801 116.232C69.5638 115.41 69.6045 114.589 69.5557 113.759ZM68.3189 113.856C68.2701 115.044 67.4971 115.931 66.2359 115.923C64.9014 115.923 64.1447 114.8 64.2586 113.889C64.1447 112.872 65.0886 111.838 66.2765 111.822C67.3343 111.814 68.3677 112.831 68.3189 113.856Z" fill="#E7B742"/>
<path d="M6.59284 114.979H6.55215C6.55215 114.377 6.64166 113.759 6.53588 113.173C6.21854 111.505 4.59931 110.374 2.89058 110.594C1.31204 110.789 0.0264178 112.237 0.00200734 113.873C-0.03054 116.257 2.60579 118.088 4.98175 116.737C5.23399 116.591 5.30722 116.704 5.46996 116.875C5.63269 117.03 5.91748 117.16 6.13718 117.144C6.43824 117.119 6.59284 116.867 6.5847 116.534C6.5847 116.013 6.59284 115.5 6.59284 114.979ZM3.32997 115.931C2.23963 115.948 1.27135 114.979 1.27949 113.873C1.27949 112.758 2.2315 111.806 3.33811 111.822C4.4203 111.839 5.36418 112.799 5.3479 113.881C5.33977 114.979 4.42844 115.915 3.32997 115.931Z" fill="#E7B742"/>
<path d="M23.0781 113.613C23.0293 114.565 23.07 115.533 23.07 116.494C23.07 116.965 22.8828 117.185 22.476 117.201C22.1343 117.21 21.8413 116.909 21.8332 116.494C21.8251 115.55 21.8332 114.606 21.8251 113.662C21.8251 112.661 20.9788 111.815 20.0024 111.823C19.0504 111.831 18.2042 112.685 18.196 113.654C18.1879 114.581 18.196 115.509 18.196 116.445C18.196 116.876 17.9112 117.21 17.5695 117.201C17.1952 117.193 16.9592 116.909 16.9592 116.437C16.9592 113.841 16.9592 111.245 16.9592 108.65C16.9592 108.145 17.122 107.942 17.5369 107.934C17.9926 107.934 18.196 108.153 18.2042 108.674C18.2123 109.276 18.2042 109.886 18.2042 110.489C18.2042 110.643 18.2204 110.806 18.2367 111.026C18.6517 110.887 18.9772 110.749 19.3189 110.668C21.1741 110.187 23.1758 111.685 23.0781 113.613Z" fill="#E7B742"/>
<path d="M30.5071 113.751C30.5315 112.652 30.027 111.814 29.1645 111.204C28.0742 110.431 26.8781 110.333 25.6982 110.968C24.5347 111.586 23.9407 112.563 23.9488 113.914C23.9651 115.24 24.5591 116.216 25.6982 116.818C26.7397 117.364 27.8301 117.339 28.8716 116.753C29.1238 116.607 29.2459 116.631 29.3924 116.884C29.547 117.144 29.7911 117.25 30.1165 117.152C30.4257 117.054 30.5071 116.827 30.5152 116.542V114.996C30.5152 114.744 30.5152 114.483 30.5152 114.231C30.5071 114.068 30.5071 113.905 30.5071 113.751ZM27.228 115.94C26.1376 115.94 25.1856 114.971 25.1937 113.873C25.2019 112.758 26.1539 111.814 27.2524 111.831C28.3671 111.847 29.2703 112.783 29.2622 113.922C29.2622 114.988 28.302 115.94 27.228 115.94Z" fill="#E7B742"/>
<path d="M76.5696 116.419C76.5696 116.867 76.293 117.201 75.9513 117.201C75.5607 117.201 75.3328 116.908 75.3328 116.403C75.3328 115.533 75.341 114.662 75.3247 113.791C75.3166 113.181 75.105 112.636 74.6005 112.253C74.0147 111.806 73.38 111.676 72.6965 112.034C71.9805 112.408 71.6225 113.026 71.6143 113.824C71.598 114.678 71.6143 115.533 71.6062 116.387C71.6062 116.948 71.4353 117.184 71.0122 117.192C70.6298 117.201 70.3694 116.867 70.3694 116.354C70.3694 114.719 70.3694 113.083 70.3694 111.448C70.3694 111.082 70.4589 110.748 70.825 110.618C71.1993 110.488 71.476 110.691 71.6631 111.025C71.6713 111.049 71.712 111.049 71.7689 111.082C72.5012 110.65 73.2905 110.488 74.1611 110.667C75.4956 110.943 76.5452 112.139 76.5778 113.506C76.5859 114.475 76.5778 115.443 76.5696 116.419Z" fill="#E7B742"/>
<path d="M50.9631 117.104C50.9387 118.584 49.645 119.878 48.2292 119.862C47.7491 119.854 47.4643 119.626 47.4643 119.252C47.4562 118.894 47.7003 118.674 48.1641 118.625C49.0917 118.527 49.7263 117.795 49.7263 116.794C49.7345 114.98 49.7263 113.173 49.7263 111.359C49.7263 110.822 49.9135 110.586 50.3447 110.586C50.7028 110.586 50.9631 110.895 50.9631 111.351C50.9713 112.327 50.9631 113.296 50.9631 114.272C50.9713 115.216 50.9794 116.16 50.9631 117.104Z" fill="#E7B742"/>
<path d="M33.0051 117.168C32.6146 117.217 32.2077 117.193 31.8172 117.144C31.451 117.095 31.394 116.794 31.394 116.477C31.394 115.15 31.394 113.824 31.394 112.498C31.394 111.212 31.394 109.934 31.394 108.649C31.394 108.144 31.5649 107.941 31.9636 107.933C32.4193 107.925 32.6308 108.144 32.6308 108.665C32.6308 110.903 32.639 113.149 32.6308 115.386C32.6308 115.72 32.6146 115.98 33.0865 116.005C33.233 116.013 33.4608 116.33 33.4933 116.533C33.5503 116.859 33.3225 117.127 33.0051 117.168Z" fill="#E7B742"/>
<path d="M9.0665 117.176C8.6922 117.225 8.30164 117.217 7.91921 117.168C7.56932 117.128 7.47168 116.859 7.47168 116.517C7.47982 115.191 7.47982 113.865 7.47982 112.538V108.779C7.47982 108.144 7.61814 107.933 8.04939 107.925C8.48878 107.925 8.71661 108.226 8.71661 108.82C8.71661 111.001 8.72475 113.181 8.71661 115.362C8.71661 115.72 8.70848 115.988 9.20482 115.997C9.34315 115.997 9.55471 116.338 9.57912 116.542C9.6198 116.883 9.38383 117.136 9.0665 117.176Z" fill="#E7B742"/>
<path d="M50.963 102.644C50.963 103.254 50.4259 103.58 49.8808 103.311C49.7831 103.262 49.7343 103.043 49.7262 102.904C49.718 101.562 49.718 100.219 49.718 98.8847C49.718 97.5747 49.718 96.2647 49.718 94.9546C49.718 94.4827 49.954 94.2061 50.3364 94.2061C50.7188 94.2061 50.9548 94.4827 50.9548 94.9628C50.9711 97.5177 50.9711 100.081 50.963 102.644Z" fill="#E7B742"/>
<path d="M64.5352 98.7631C64.5271 99.0886 64.4295 99.2025 64.0959 99.1943C63.1113 99.1781 62.1186 99.1781 61.1341 99.1943C60.7923 99.2025 60.7109 99.056 60.7109 98.7468C60.7109 98.4295 60.8004 98.2749 61.1422 98.3074C61.3863 98.3237 61.6304 98.3074 61.8908 98.3074C61.8664 97.9738 61.7931 97.689 61.8338 97.4286C62.0047 96.4685 62.5092 96.0535 63.51 96.0128C63.689 96.0047 63.868 96.0291 64.0389 96.0047C64.4457 95.9559 64.5352 96.143 64.5352 96.5173C64.5352 96.8916 64.3969 97.0137 64.0389 96.9811C63.8029 96.9648 63.567 96.973 63.331 96.9811C62.9567 96.9974 62.7696 97.209 62.7533 97.5751C62.737 97.9494 62.9404 98.1772 63.3391 98.2098C63.5914 98.2261 63.8436 98.2179 64.0877 98.2423C64.3888 98.2749 64.5434 98.4132 64.5352 98.7631Z" fill="#E7B742"/>
<path d="M51.0607 109.406C51.0607 109.846 50.7841 110.139 50.3691 110.147C49.889 110.155 49.5798 109.862 49.5798 109.398C49.5798 109.007 49.8646 108.747 50.3121 108.739C50.7597 108.723 51.0607 108.991 51.0607 109.406Z" fill="#E7B742"/>
<path d="M41.8987 95.6796C41.8906 96.0783 41.5488 96.3875 41.1339 96.3631C40.7596 96.3469 40.4259 96.0051 40.4422 95.6389C40.4585 95.2402 40.8002 94.931 41.2152 94.9555C41.5977 94.9717 41.9069 95.2972 41.8987 95.6796Z" fill="#E7B742"/>
<path d="M78.3435 95.8336C78.3435 96.2811 78.1075 96.5415 77.6844 96.5415C77.2694 96.5415 76.9846 96.2729 76.9683 95.858C76.9521 95.4755 77.2857 95.1338 77.6518 95.1338C78.0424 95.1338 78.3353 95.4349 78.3435 95.8336Z" fill="#E7B742"/>
<path d="M30.0596 104.653C30.0677 105.076 29.7423 105.386 29.2947 105.378C28.9205 105.369 28.6438 105.076 28.6438 104.702C28.6438 104.271 28.9449 103.97 29.3517 103.97C29.7504 103.962 30.0515 104.263 30.0596 104.653Z" fill="#E7B742"/>
<path d="M31.8334 104.662C31.8334 105.053 31.5324 105.362 31.1418 105.37C30.735 105.378 30.4095 105.061 30.4176 104.646C30.4258 104.255 30.735 103.954 31.1337 103.954C31.5242 103.97 31.8334 104.271 31.8334 104.662Z" fill="#E7B742"/>
<path d="M80.8171 104.744C80.8171 105.061 80.4184 105.451 80.0848 105.46C79.7186 105.468 79.4094 105.142 79.4094 104.752C79.4094 104.28 79.621 104.06 80.0685 104.052C80.4998 104.044 80.809 104.337 80.8171 104.744Z" fill="#E7B742"/>
<path d="M4.37159 103.8C4.38787 104.166 4.07053 104.483 3.67996 104.491C3.20803 104.499 2.97206 104.288 2.96392 103.857C2.94765 103.393 3.18362 103.165 3.67183 103.165C4.04612 103.173 4.35532 103.45 4.37159 103.8Z" fill="#E7B742"/>
</svg>
