<svg width="39" height="39" viewBox="0 0 39 39" fill="none" xmlns="http://www.w3.org/2000/svg">
<path d="M19.1761 0.747083C8.47186 0.735455 0.350191 9.03721 0.0113008 19.0598C-0.362647 30.2334 8.49523 38.8026 19.1644 38.791C29.9738 38.7793 38.3526 30.1288 38.3059 19.8039C38.3643 9.43253 30.0206 0.75871 19.1761 0.747083ZM8.1096 32.7449C7.60711 32.6984 7.02281 32.4426 6.67224 32.0821C3.94943 29.28 2.17319 25.9663 1.69407 22.0828C1.50709 20.5713 1.65902 19.0249 1.65902 17.5017C1.65902 17.3971 1.70575 17.2925 1.7525 17.1994C1.77587 17.1529 1.83431 17.1064 1.95116 17.0134C2.31343 17.3971 2.62894 17.7459 2.96783 18.0947C4.35845 19.5481 6.02952 20.5946 7.7824 21.5596C9.61707 22.5595 11.4751 23.5478 13.2046 24.7105C14.9692 25.8849 16.2196 27.5359 16.687 29.6521C16.7338 29.8614 16.6403 30.2102 16.4884 30.3381C14.9809 31.6868 13.2046 32.5123 11.2064 32.7449C10.178 32.8611 9.12627 32.8379 8.1096 32.7449ZM32.6499 30.9427C29.8804 34.2913 26.2694 36.326 21.9573 37.012C19.2579 37.4422 16.5468 37.2911 13.9058 36.4656C13.7656 36.419 13.6253 36.3609 13.4851 36.3144C13.4267 36.2911 13.3799 36.2563 13.193 36.1632C15.0043 35.4307 16.5117 34.582 17.8556 33.4193C19.5851 31.9194 20.8121 30.0823 21.7353 28.0243C22.6351 26.0128 22.8571 23.8501 23.2662 21.7224C23.7336 19.3039 24.8321 17.2227 26.8771 15.7577C28.2093 14.8043 29.6934 14.2229 31.3411 14.095C31.8202 14.0601 32.2993 13.9787 32.9421 13.8973C32.5681 13.409 32.2876 12.9555 31.9371 12.5719C30.3712 10.8859 28.6417 9.40928 26.5148 8.46748C22.8338 6.81643 19.3046 7.08386 15.9625 9.35114C14.9225 10.0604 14.1161 11.0254 13.4968 12.1184C13.415 12.2579 13.4033 12.5718 13.5085 12.6649C14.2564 13.3974 15.0393 14.095 15.834 14.8391C16.1495 14.1183 16.3715 13.4323 16.7104 12.816C17.9491 10.6185 19.8889 9.46741 22.3897 9.30463C25.6033 9.10697 28.1859 10.5952 30.6049 12.4905C30.8503 12.6881 31.0723 12.909 31.2943 13.1183C31.306 13.13 31.2943 13.1532 31.2943 13.2346C30.5932 13.3509 29.8687 13.4439 29.1558 13.5718C26.0941 14.1531 23.9206 15.9437 22.3897 18.5714C21.5834 19.9551 21.1393 21.4666 20.7888 23.013C20.333 25.0594 19.4683 26.9197 18.1945 28.594C18.0776 28.7452 17.8907 28.8614 17.6569 29.0591C17.47 28.4196 17.3181 27.8731 17.1545 27.3499C16.687 25.9198 15.834 24.7222 14.829 23.6176C13.0294 21.6177 10.7155 20.2574 8.6004 18.6412C7.09293 17.4901 5.76075 16.1879 4.89599 14.4554C3.79752 12.2463 4.18315 10.0139 5.90098 8.24657C7.46688 6.61877 9.16133 5.16538 11.2064 4.16545C13.637 2.97949 16.1962 2.35162 18.919 2.34C21.7821 2.31674 24.4932 2.86322 27.0056 4.18871C32.2292 6.94433 35.4896 11.1999 36.4595 17.0367C37.3827 22.2456 35.9921 26.8964 32.6499 30.9427Z" fill="#E7B742"/>
</svg>
