<svg width="54" height="53" viewBox="0 0 54 53" fill="none" xmlns="http://www.w3.org/2000/svg">
<path d="M34.0371 11.1589L38.1187 38.918C36.0305 39.2292 34.5828 41.173 34.8895 43.2657L24.7961 44.745C24.4849 42.6568 22.5411 41.2091 20.453 41.5203L16.3714 13.7522C18.4641 13.4455 19.9073 11.4972 19.5961 9.40906L29.694 7.92527C30.0007 10.0179 31.9445 11.4566 34.0371 11.1589Z" fill="#65BC6A"/>
<path d="M38.5878 42.0747C38.6374 42.4219 38.3939 42.7467 38.0466 42.7963L34.8896 43.2653C34.5829 41.1727 36.0306 39.2289 38.1187 38.9177L38.5878 42.0747ZM24.7962 44.7446L21.6392 45.2136C21.2919 45.2632 20.9672 45.0197 20.9176 44.6724L20.453 41.5199C22.5412 41.2087 24.485 42.6565 24.7962 44.7446ZM32.9277 25.5004C33.3832 28.6348 31.2139 31.5528 28.0795 32.0174C24.9405 32.4774 22.027 30.3035 21.567 27.1736C21.107 24.0346 23.2763 21.1167 26.4063 20.6566C29.5452 20.1966 32.4632 22.3659 32.9277 25.5004Z" fill="#398F3E"/>
<path d="M22.8281 26.9852C22.8488 27.1259 22.9142 27.2499 23.0076 27.3433C23.1456 27.4813 23.344 27.5544 23.5515 27.5237L24.4494 27.3916C24.4756 27.4267 24.4959 27.4642 24.5247 27.4975C24.5554 27.5327 24.587 27.567 24.6194 27.5995C25.3217 28.3017 26.4613 28.3517 27.224 27.6928C27.4783 27.4727 27.6705 27.1895 27.7801 26.8725C27.8301 26.7277 27.8626 26.5771 27.8766 26.4242C27.8847 26.3646 27.8851 26.3037 27.8761 26.2433C27.8518 26.0746 27.8937 25.9064 27.9952 25.7698C28.0967 25.6331 28.2455 25.5438 28.4142 25.5195C28.5824 25.4947 28.7511 25.537 28.8877 25.6385C29.0248 25.7414 29.1132 25.8893 29.138 26.0584C29.1547 26.1707 29.1416 26.2812 29.1006 26.3854C29.0798 26.4377 29.0519 26.4873 29.019 26.532C28.8088 26.8152 28.8697 27.2143 29.1502 27.4245C29.433 27.6342 29.8321 27.576 30.0427 27.2932C30.1424 27.1593 30.224 27.0127 30.2858 26.8571C30.3287 26.7493 30.3481 26.6352 30.3702 26.522L31.1242 26.4111C31.4729 26.3601 31.7137 26.0363 31.6623 25.6872C31.6113 25.3395 31.2875 25.0978 30.9384 25.1492L30.1929 25.2588C30.0617 25.0094 29.8813 24.7875 29.649 24.6157C29.2386 24.3108 28.7344 24.1836 28.2288 24.258C27.2154 24.4073 26.5028 25.3291 26.6029 26.3385C26.5971 26.3786 26.5876 26.4179 26.5745 26.4562C26.5375 26.5626 26.4753 26.6546 26.3892 26.729C26.1231 26.9591 25.7127 26.9239 25.4899 26.6641C25.378 26.5351 25.3235 26.3705 25.3361 26.2009C25.3483 26.0309 25.4258 25.8757 25.5548 25.7648C25.8214 25.5343 25.8502 25.1311 25.6202 24.8651C25.3789 24.5904 24.9866 24.5697 24.7205 24.7997C24.334 25.1339 24.1008 25.5988 24.0643 26.1089C24.0629 26.1265 24.0665 26.1427 24.0656 26.1599L23.3675 26.2627C23.017 26.3128 22.7762 26.6366 22.8281 26.9852ZM16.3715 13.7519L19.5872 35.63L19.5827 35.6255L11.2211 19.4616C13.1018 18.492 13.8324 16.1828 12.8628 14.3022L14.9374 13.2288L16.1956 12.5748L16.3715 13.7519Z" fill="#65BC6A"/>
<path d="M19.5826 35.6255L16.5789 29.8166L14.2608 14.0586L14.1931 13.6122L14.9373 13.2288L16.1956 12.5749L16.3715 13.752L19.5826 35.6255Z" fill="#398F3E"/>
<path d="M19.8487 37.4073L8.00991 25.5685C9.50272 24.0757 9.50272 21.6493 8.00991 20.1565L10.3641 17.8022L11.221 19.4619L19.5826 35.6258L19.5871 35.6303L19.8487 37.4073Z" fill="#65BC6A"/>
<path d="M19.8487 37.4073L16.9533 34.5118L9.86803 20.8149L9.01113 19.1552L10.3641 17.8022L11.221 19.4619L19.5826 35.6258L19.5871 35.6303L19.8487 37.4073Z" fill="#29752B"/>
<path d="M33.266 45.4121L31.011 47.6671C30.763 47.9152 30.3571 47.9152 30.109 47.6671L28.747 46.3051L29.2747 46.03L32.0528 44.5958C32.4948 44.7762 32.9052 45.0513 33.266 45.4121Z" fill="#236823"/>
<path d="M35.5074 43.171L33.266 45.4125C32.9052 45.0517 32.4947 44.7766 32.0528 44.5962L34.5197 43.3198L34.5242 43.3153L34.8896 43.2657L35.5074 43.171Z" fill="#29752B"/>
<path d="M34.5197 43.3199L32.0527 44.5962L29.2746 46.0304C29.0581 45.6064 28.7649 45.2411 28.4267 44.939C28.1606 44.6999 27.8629 44.5015 27.5427 44.3436L34.5197 43.3199Z" fill="#65BC6A"/>
<path d="M29.2745 46.03L28.7468 46.3051L26.4377 47.4958C26.131 47.6581 25.7432 47.5318 25.5808 47.2252L24.336 44.8168L24.796 44.7446L27.5426 44.3433C27.8629 44.5011 28.1605 44.6995 28.4266 44.9386C28.7649 45.2407 29.058 45.6061 29.2745 46.03ZM42.7369 35.9411L40.8336 37.8443L40.2248 36.6582L39.3904 35.0481L39.3859 35.0436C39.4806 34.2183 39.8459 33.42 40.4819 32.7841L42.7369 35.0391C42.9849 35.2872 42.9849 35.6931 42.7369 35.9411Z" fill="#398F3E"/>
<path d="M39.386 35.044L36.8243 30.092L36.8198 30.0875L36.6575 28.96L40.482 32.7844C39.846 33.4204 39.4807 34.2186 39.386 35.044Z" fill="#65BC6A"/>
<path d="M25.6667 8.51594L23.4117 8.84968L23.4162 8.84517L25.3239 7.85748L25.6667 8.51594Z" fill="#398F3E"/>
<path d="M8.00985 25.5683L5.75484 23.3133C5.50679 23.0652 5.50679 22.6593 5.75484 22.4113L8.00985 20.1562C9.50266 21.6491 9.50266 24.0754 8.00985 25.5683ZM12.8626 14.3023C13.8323 16.1829 13.1017 18.4921 11.221 19.4617L10.3641 17.802L9.75522 16.6249C9.59286 16.3182 9.71914 15.9304 10.0258 15.768L12.8626 14.3023ZM34.0416 11.1543L34.0371 11.1588C31.9445 11.4564 30.0007 10.0177 29.694 7.9251L32.851 7.46508C33.1982 7.40645 33.523 7.64999 33.5726 7.99726L34.0416 11.1543ZM19.5961 9.4089C19.9073 11.497 18.464 13.4454 16.3714 13.752L15.9069 10.5995C15.8528 10.2478 16.0963 9.92304 16.4436 9.87343L19.5961 9.4089Z" fill="#398F3E"/>
<path d="M40.1708 36.6854C39.4492 37.0192 38.5742 37.831 38.0736 38.5751L36.8243 30.0918L39.386 35.0438L39.3905 35.0483L40.2249 36.6584L40.1708 36.6854Z" fill="#65BC6A"/>
<path d="M38.0736 38.575C38.5742 37.8308 39.4491 37.019 40.1707 36.6853L40.2249 36.6582L40.8337 37.8443L41.4426 39.0215C41.6049 39.3281 41.4786 39.716 41.172 39.8784L38.4705 41.272L38.1187 38.9177L38.0736 38.575ZM34.5197 43.3195L32.0527 44.5958L29.2746 46.03C29.0581 45.6061 28.7649 45.2408 28.4267 44.9386C28.1606 44.6996 27.8629 44.5011 27.5427 44.3433L34.5197 43.3195Z" fill="#398F3E"/>
<path d="M28.4267 44.9387C28.1606 44.6997 27.8629 44.5013 27.5427 44.3434L25.7117 44.614L24.7961 44.7448L24.3361 44.817L25.3283 46.7382L25.5809 47.2253C25.7432 47.532 26.1311 47.6583 26.4378 47.4959L28.7469 46.3053L28.9363 46.2061L29.2746 46.0302C29.0581 45.6062 28.7649 45.2409 28.4267 44.9387Z" fill="#29752B"/>
<path d="M39.7107 35.6664L39.3904 35.0485L39.3859 35.044C39.4085 34.823 39.4536 34.6065 39.5212 34.3945L39.7107 35.6664Z" fill="#236823"/>
<path d="M39.386 35.044L36.8243 30.092L36.8198 30.0875L36.6575 28.96L39.0793 31.3818L39.5213 34.3945C39.4537 34.6065 39.4086 34.823 39.386 35.044Z" fill="#29752B"/>
<path d="M39.2688 37.2717C39.4762 37.1094 39.6837 36.956 39.8821 36.8388L39.7107 35.6662L39.3905 35.0483L39.386 35.0438L36.8243 30.0918L37.9879 38.0024L38.0736 38.5751C38.3758 38.1286 38.8133 37.6551 39.2688 37.2717Z" fill="#398F3E"/>
<path d="M38.4615 41.1999L38.6735 41.1683L38.4705 41.2721L38.4615 41.1999Z" fill="#398F3E"/>
<path d="M40.3917 40.2708L39.9226 37.1138L39.882 36.8387C39.6836 36.956 39.4761 37.1093 39.2687 37.2717C38.8132 37.655 38.3757 38.1286 38.0735 38.5751L38.1186 38.9178L38.4614 41.1999L38.6734 41.1683L40.3917 40.2798L40.3917 40.2708Z" fill="#29752B"/>
<path d="M10 9L11.3188 12.6812L15 14L11.3188 15.3188L10 19L8.68125 15.3188L5 14L8.68125 12.6812L10 9Z" fill="#F33838"/>
<path d="M11.9697 31.4924L13.7131 37.5011L19.4621 39.9697L13.4534 41.7132L10.9848 47.4621L9.24137 41.4534L3.49242 38.9848L9.50113 37.2414L11.9697 31.4924Z" fill="#FFDC5D"/>
<circle cx="41" cy="24" r="2" fill="#FFDC5D"/>
</svg>
