<svg width="165" height="164" viewBox="0 0 165 164" fill="none" xmlns="http://www.w3.org/2000/svg">
<g filter="url(#filter0_d_29_5652)">
<circle cx="82.5" cy="75" r="67" fill="white"/>
</g>
<path d="M60.2404 128.655C38.1049 119.61 23.875 98.4018 23.875 75.0101C23.875 42.5737 50.4375 16.375 83.3245 16.375C106.092 16.375 127.279 29.4743 137.082 49.7471L132.339 51.9303C123.484 33.5289 104.195 21.3652 83.6407 21.3652C53.2835 21.6771 29.2508 45.3807 29.2508 75.0101C29.2508 96.5304 42.2158 115.868 62.1377 123.977L60.2404 128.655Z" fill="#C78C1A"/>
<path d="M83.3242 133.334V128.032C113.049 128.032 137.398 104.017 137.398 74.6992H142.774C142.457 107.136 115.895 133.334 83.3242 133.334Z" fill="#C78C1A"/>
<path d="M107.358 66.9013H97.5547V53.1782C97.5547 45.381 91.8627 39.4551 83.9572 39.4551H82.6923C74.7868 39.4551 68.7786 45.6929 68.7786 53.1782V66.9013H58.9758C57.0785 66.9013 55.1812 68.4607 55.1812 70.644V100.897C55.1812 102.769 56.7623 104.64 58.9758 104.64H107.041C108.939 104.64 110.836 103.08 110.836 100.897V70.644C110.836 68.7726 109.255 66.9013 107.358 66.9013ZM86.1708 85.9265V95.2832C86.1708 96.8426 84.9059 98.0902 83.3248 98.0902C81.7437 98.0902 80.4788 96.8426 80.4788 95.2832V85.9265C78.5815 84.9908 77.0004 82.8076 77.0004 80.3125C77.0004 76.8817 79.8464 74.0747 83.3248 74.0747C86.8032 74.0747 89.6492 76.8817 89.6492 80.3125C89.6492 82.8076 88.0681 84.9908 86.1708 85.9265ZM91.8627 66.9013H74.4706V53.4901C74.4706 49.1236 77.949 45.381 83.0086 45.381H83.9572C88.7005 45.381 91.8627 49.1236 91.8627 53.4901V66.9013Z" fill="#C78C1A"/>
<path d="M60.2404 128.655C38.1049 119.61 23.875 98.4018 23.875 75.0101C23.875 42.5737 50.4375 16.375 83.3245 16.375C106.092 16.375 127.279 29.4743 137.082 49.7471L132.339 51.9303C123.484 33.5289 104.195 21.3652 83.6407 21.3652C53.2835 21.6771 29.2508 45.3807 29.2508 75.0101C29.2508 96.5304 42.2158 115.868 62.1377 123.977L60.2404 128.655Z" fill="#C78C1A"/>
<path d="M83.3242 133.334V128.032C113.049 128.032 137.398 104.017 137.398 74.6992H142.774C142.457 107.136 115.895 133.334 83.3242 133.334Z" fill="#C78C1A"/>
<path d="M107.358 66.9013H97.5547V53.1782C97.5547 45.381 91.8627 39.4551 83.9572 39.4551H82.6923C74.7868 39.4551 68.7786 45.6929 68.7786 53.1782V66.9013H58.9758C57.0785 66.9013 55.1812 68.4607 55.1812 70.644V100.897C55.1812 102.769 56.7623 104.64 58.9758 104.64H107.041C108.939 104.64 110.836 103.08 110.836 100.897V70.644C110.836 68.7726 109.255 66.9013 107.358 66.9013ZM86.1708 85.9265V95.2832C86.1708 96.8426 84.9059 98.0902 83.3248 98.0902C81.7437 98.0902 80.4788 96.8426 80.4788 95.2832V85.9265C78.5815 84.9908 77.0004 82.8076 77.0004 80.3125C77.0004 76.8817 79.8464 74.0747 83.3248 74.0747C86.8032 74.0747 89.6492 76.8817 89.6492 80.3125C89.6492 82.8076 88.0681 84.9908 86.1708 85.9265ZM91.8627 66.9013H74.4706V53.4901C74.4706 49.1236 77.949 45.381 83.0086 45.381H83.9572C88.7005 45.381 91.8627 49.1236 91.8627 53.4901V66.9013Z" fill="#C78C1A"/>
<path d="M60.2404 128.655C38.1049 119.61 23.875 98.4018 23.875 75.0101C23.875 42.5737 50.4375 16.375 83.3245 16.375C106.092 16.375 127.279 29.4743 137.082 49.7471L132.339 51.9303C123.484 33.5289 104.195 21.3652 83.6407 21.3652C53.2835 21.6771 29.2508 45.3807 29.2508 75.0101C29.2508 96.5304 42.2158 115.868 62.1377 123.977L60.2404 128.655Z" fill="#FF3333"/>
<path d="M83.3242 133.334V128.032C113.049 128.032 137.398 104.017 137.398 74.6992H142.774C142.457 107.136 115.895 133.334 83.3242 133.334Z" fill="#FF3333"/>
<path d="M107.358 66.9013H97.5547V53.1782C97.5547 45.381 91.8627 39.4551 83.9572 39.4551H82.6923C74.7868 39.4551 68.7786 45.6929 68.7786 53.1782V66.9013H58.9758C57.0785 66.9013 55.1812 68.4607 55.1812 70.644V100.897C55.1812 102.769 56.7623 104.64 58.9758 104.64H107.041C108.939 104.64 110.836 103.08 110.836 100.897V70.644C110.836 68.7726 109.255 66.9013 107.358 66.9013ZM86.1708 85.9265V95.2832C86.1708 96.8426 84.9059 98.0902 83.3248 98.0902C81.7437 98.0902 80.4788 96.8426 80.4788 95.2832V85.9265C78.5815 84.9908 77.0004 82.8076 77.0004 80.3125C77.0004 76.8817 79.8464 74.0747 83.3248 74.0747C86.8032 74.0747 89.6492 76.8817 89.6492 80.3125C89.6492 82.8076 88.0681 84.9908 86.1708 85.9265ZM91.8627 66.9013H74.4706V53.4901C74.4706 49.1236 77.949 45.381 83.0086 45.381H83.9572C88.7005 45.381 91.8627 49.1236 91.8627 53.4901V66.9013Z" fill="#FF3333"/>
<defs>
<filter id="filter0_d_29_5652" x="0.5" y="0" width="164" height="164" filterUnits="userSpaceOnUse" color-interpolation-filters="sRGB">
<feFlood flood-opacity="0" result="BackgroundImageFix"/>
<feColorMatrix in="SourceAlpha" type="matrix" values="0 0 0 0 0 0 0 0 0 0 0 0 0 0 0 0 0 0 127 0" result="hardAlpha"/>
<feOffset dy="7"/>
<feGaussianBlur stdDeviation="7.5"/>
<feComposite in2="hardAlpha" operator="out"/>
<feColorMatrix type="matrix" values="0 0 0 0 0 0 0 0 0 0 0 0 0 0 0 0 0 0 0.07 0"/>
<feBlend mode="normal" in2="BackgroundImageFix" result="effect1_dropShadow_29_5652"/>
<feBlend mode="normal" in="SourceGraphic" in2="effect1_dropShadow_29_5652" result="shape"/>
</filter>
</defs>
</svg>
