<svg width="20" height="21" viewBox="0 0 20 21" fill="none" xmlns="http://www.w3.org/2000/svg">
<path fill-rule="evenodd" clip-rule="evenodd" d="M9.9493 0.582031C10.465 0.582031 10.9595 0.786877 11.3241 1.1515C11.6888 1.51613 11.8936 2.01067 11.8936 2.52634V8.35925H17.7265C18.2422 8.35925 18.7367 8.56409 19.1013 8.92872C19.466 9.29335 19.6708 9.78789 19.6708 10.3035C19.6708 10.8192 19.466 11.3138 19.1013 11.6784C18.7367 12.043 18.2422 12.2479 17.7265 12.2479H11.8936V18.0808C11.8936 18.5964 11.6888 19.091 11.3241 19.4556C10.9595 19.8202 10.465 20.0251 9.9493 20.0251C9.43364 20.0251 8.9391 19.8202 8.57447 19.4556C8.20984 19.091 8.005 18.5964 8.005 18.0808V12.2479H2.17209C1.65643 12.2479 1.16188 12.043 0.797257 11.6784C0.432629 11.3138 0.227783 10.8192 0.227783 10.3035C0.227783 9.78789 0.432629 9.29335 0.797257 8.92872C1.16188 8.56409 1.65643 8.35925 2.17209 8.35925H8.005V2.52634C8.005 2.01067 8.20984 1.51613 8.57447 1.1515C8.9391 0.786877 9.43364 0.582031 9.9493 0.582031Z" fill="#D69D2F"/>
</svg>
