<svg width="30" height="30" viewBox="0 0 30 30" fill="none" xmlns="http://www.w3.org/2000/svg">
<mask id="mask0_29_3241" style="mask-type:alpha" maskUnits="userSpaceOnUse" x="0" y="0" width="30" height="30">
<rect x="0.303955" y="0.706055" width="28.7147" height="28.7147" fill="#D9D9D9"/>
</mask>
<g mask="url(#mask0_29_3241)">
<path d="M25.4995 5.38036V5.77186C25.4212 6.19469 25.3429 6.61752 25.2802 7.04035C24.9827 9.04486 24.6851 11.0494 24.3876 13.0539C24.1057 14.9488 23.8238 16.8437 23.5419 18.7386C23.3384 20.0697 23.1504 21.4008 22.9468 22.7163C22.8685 23.2174 22.477 23.468 21.9916 23.2957C18.7812 22.1995 15.5865 21.1033 12.3918 20.0071C12.3918 20.0071 12.3762 20.0071 12.3448 19.9757C15.4456 16.2329 18.5463 12.5058 21.647 8.76298C21.6314 8.74732 21.6157 8.73166 21.6001 8.716C21.4591 8.84128 21.3025 8.96656 21.1616 9.09184C17.3405 12.3648 13.5037 15.6378 9.68259 18.9108C9.57297 19.0048 9.47901 19.0048 9.35372 18.9735C7.50581 18.3471 5.67356 17.705 3.82565 17.0786C3.51244 16.969 3.30886 16.781 3.2932 16.4522C3.26188 16.1233 3.4498 15.9041 3.73168 15.7475C9.18146 12.913 14.6156 10.0628 20.0654 7.21261C21.4748 6.47658 22.8999 5.74054 24.3093 5.00451C24.8887 4.72263 25.1863 4.81659 25.4995 5.38036Z" fill="#21B65C"/>
<path d="M15.7963 22.374C15.765 22.4209 15.7493 22.4523 15.7336 22.4992C14.935 23.5798 14.1519 24.6604 13.3533 25.7409C13.0714 26.1324 12.6172 26.2107 12.304 25.9132C12.1788 25.7879 12.0691 25.5843 12.0691 25.412C12.0535 24.0026 12.0535 22.5932 12.0535 21.1838C12.0535 21.1681 12.0535 21.1524 12.0691 21.1055C13.322 21.5283 14.5591 21.9511 15.7963 22.374Z" fill="#21B65C"/>
</g>
</svg>
