<svg width="15" height="15" viewBox="0 0 15 15" fill="none" xmlns="http://www.w3.org/2000/svg">
<path d="M15.0008 7.01679C14.9783 8.76199 14.3176 10.4386 13.1436 11.73C11.9696 13.0215 10.3633 13.8384 8.62817 14.0267H8.30954V12.1149H8.60905C9.81616 11.9843 10.9384 11.4318 11.7781 10.5548C12.6178 9.67781 13.121 8.53262 13.1991 7.32098C13.2772 6.10934 12.9252 4.90901 12.205 3.93149C11.4849 2.95397 10.4428 2.26199 9.26248 1.97746C8.08214 1.69293 6.83925 1.83412 5.7528 2.37616C4.66635 2.91819 3.80607 3.82628 3.32353 4.94042C2.84099 6.05456 2.76715 7.30327 3.11503 8.46652C3.46291 9.62976 4.21019 10.6329 5.22519 11.2992L5.45142 10.4389C5.4677 10.3763 5.50267 10.3201 5.55167 10.2778C5.60068 10.2355 5.66139 10.2092 5.72573 10.2023C5.79007 10.1954 5.85499 10.2082 5.91186 10.2391C5.96873 10.27 6.01484 10.3174 6.04407 10.3752L7.68821 13.536C7.71333 13.5861 7.72478 13.6419 7.72143 13.6979C7.71807 13.7538 7.70002 13.8079 7.66909 13.8546C7.6373 13.9021 7.59331 13.9402 7.54174 13.9649C7.49016 13.9896 7.4329 13.9999 7.37595 13.9948C6.43715 13.9068 5.52555 13.6314 4.69513 13.1848C3.8647 12.7382 3.13233 12.1295 2.54138 11.3947C1.95043 10.66 1.51292 9.8141 1.25475 8.90722C0.996579 8.00034 0.923 7.05088 1.03837 6.11506C1.26587 4.34752 2.15803 2.73298 3.53345 1.59976C4.90887 0.466541 6.66427 -0.100271 8.44269 0.0145836C10.2211 0.129438 11.889 0.917336 13.1072 2.21806C14.3255 3.51878 15.0026 5.23466 15.0008 7.01679ZM10.8586 7.01679C10.8586 7.58396 10.6904 8.1384 10.3753 8.60999C10.0602 9.08157 9.61232 9.44913 9.08832 9.66618C8.56432 9.88323 7.98773 9.94002 7.43145 9.82937C6.87518 9.71872 6.3642 9.4456 5.96315 9.04454C5.5621 8.64349 5.28898 8.13252 5.17833 7.57624C5.06768 7.01997 5.12447 6.44337 5.34152 5.91937C5.55856 5.39537 5.92612 4.9475 6.39771 4.63239C6.8693 4.31729 7.42374 4.1491 7.99091 4.1491C8.75147 4.1491 9.48087 4.45123 10.0187 4.98903C10.5565 5.52682 10.8586 6.25623 10.8586 7.01679ZM8.9468 5.74226H8.30954V5.42363H7.67228V5.74226H7.35365C7.26914 5.74226 7.18809 5.77583 7.12834 5.83558C7.06858 5.89534 7.03501 5.97638 7.03501 6.06089V7.01679C7.03501 7.10129 7.06858 7.18234 7.12834 7.24209C7.18809 7.30185 7.26914 7.33542 7.35365 7.33542H8.30954V7.65405H7.03501V8.29131H7.67228V8.60994H8.30954V8.29131H8.62817C8.71268 8.29131 8.79372 8.25774 8.85348 8.19799C8.91323 8.13823 8.9468 8.05719 8.9468 7.97268V7.01679C8.9468 6.93228 8.91323 6.85123 8.85348 6.79148C8.79372 6.73172 8.71268 6.69815 8.62817 6.69815H7.67228V6.37952H8.9468V5.74226Z" fill="white"/>
</svg>
