<svg width="34" height="45" viewBox="0 0 34 45" fill="none" xmlns="http://www.w3.org/2000/svg">
<path d="M20.6385 1.15605L16.8137 7.86599L12.9523 1.02808L13.1329 6.18399L16.8987 10.2919L20.6749 5.91975L20.6385 1.15605Z" fill="white"/>
<path d="M20.556 29.5936L16.8134 22.7502L12.9519 29.5898L13.1326 24.4317L16.8984 20.326L20.6742 24.6959L20.556 29.5936Z" fill="white"/>
<path d="M31.035 11.8022L24.3335 15.5837L31.3068 19.2048H26.1436L21.9069 15.5837L26.1436 11.6557L31.035 11.8022Z" fill="white"/>
<path d="M2.96654 10.728L9.44361 15.5837L2.47241 19.2048H7.63391L11.8723 15.5837L7.63391 11.6557L2.96654 10.728Z" fill="white"/>
<path d="M20.7784 19.2043L21.079 21.7986L27.4888 25.9553L23.6327 19.2043H20.7784Z" fill="white"/>
<path d="M12.9524 11.6956L12.6518 9.10129L6.24194 4.94482L10.098 11.6956H12.9524Z" fill="white"/>
<path d="M13.6193 18.428L11.0307 18.7738L6.98645 25.2551L13.6691 21.2818L13.6193 18.428Z" fill="white"/>
<path d="M20.7374 11.6557L23.3317 11.3551L27.4884 4.94531L20.7374 8.8014V11.6557Z" fill="white"/>
<path d="M19.7074 12.6699C19.7578 12.5691 16.7731 13.7181 16.7731 13.7181L14.1691 12.4661L14.9202 15.2708L14.1691 17.7737L16.9738 16.9728L19.3975 17.9891L18.4756 15.2696C18.4756 15.2696 19.6579 12.769 19.7074 12.6699Z" fill="white"/>
<path d="M3.55475 40.4644C3.12625 40.4644 2.74122 40.3899 2.39966 40.2408C2.06431 40.0856 1.80038 39.8744 1.60787 39.6074C1.41535 39.3341 1.31599 39.0205 1.30978 38.6665H2.21336C2.24441 38.9708 2.36861 39.2286 2.58597 39.4397C2.80953 39.6446 3.13246 39.7471 3.55475 39.7471C3.95841 39.7471 4.27513 39.6477 4.50491 39.449C4.7409 39.2441 4.85889 38.9833 4.85889 38.6665C4.85889 38.4181 4.79058 38.2163 4.65395 38.061C4.51733 37.9058 4.34655 37.7878 4.14161 37.7071C3.93668 37.6263 3.66033 37.5394 3.31256 37.4462C2.88406 37.3345 2.53939 37.2227 2.27856 37.1109C2.02395 36.9991 1.80349 36.8252 1.61718 36.5892C1.43709 36.347 1.34704 36.0241 1.34704 35.6204C1.34704 35.2665 1.43709 34.9529 1.61718 34.6796C1.79728 34.4064 2.04879 34.1952 2.37172 34.0462C2.70086 33.8971 3.07657 33.8226 3.49886 33.8226C4.10746 33.8226 4.60427 33.9748 4.9893 34.279C5.38054 34.5833 5.601 34.987 5.65069 35.49H4.71916C4.68811 35.2416 4.5577 35.0243 4.32792 34.838C4.09814 34.6454 3.79385 34.5492 3.41503 34.5492C3.06105 34.5492 2.77227 34.6423 2.54871 34.8286C2.32514 35.0087 2.21336 35.2634 2.21336 35.5925C2.21336 35.8285 2.27856 36.021 2.40898 36.17C2.5456 36.3191 2.71017 36.434 2.90269 36.5147C3.10141 36.5892 3.37776 36.6762 3.73174 36.7755C4.16025 36.8935 4.50491 37.0115 4.76574 37.1295C5.02656 37.2413 5.25013 37.4183 5.43643 37.6605C5.62274 37.8965 5.71589 38.2194 5.71589 38.6293C5.71589 38.946 5.63206 39.2441 5.46438 39.5235C5.29671 39.803 5.0483 40.0297 4.71916 40.2035C4.39002 40.3774 4.00189 40.4644 3.55475 40.4644ZM11.4905 35.2944V40.3992H10.6429V39.6446C10.4814 39.9055 10.2547 40.1104 9.96285 40.2594C9.67718 40.4023 9.36046 40.4737 9.01269 40.4737C8.61524 40.4737 8.25816 40.393 7.94144 40.2315C7.62472 40.0638 7.37321 39.8154 7.1869 39.4863C7.00681 39.1571 6.91676 38.7566 6.91676 38.2846V35.2944H7.75513V38.1728C7.75513 38.6758 7.88244 39.064 8.13706 39.3372C8.39167 39.6043 8.73944 39.7378 9.18037 39.7378C9.63371 39.7378 9.99079 39.5981 10.2516 39.3186C10.5124 39.0391 10.6429 38.6324 10.6429 38.0983V35.2944H11.4905ZM12.6051 37.8282C12.6051 37.3065 12.7107 36.8501 12.9218 36.4588C13.133 36.0614 13.4217 35.754 13.7881 35.5366C14.1608 35.3193 14.5768 35.2106 15.0364 35.2106C15.4338 35.2106 15.8033 35.3037 16.1449 35.49C16.4865 35.6701 16.7473 35.9092 16.9274 36.2073V33.5059H17.7844V40.3992H16.9274V39.4397C16.7597 39.744 16.5113 39.9955 16.1822 40.1942C15.853 40.3867 15.468 40.483 15.0271 40.483C14.5737 40.483 14.1608 40.3712 13.7881 40.1477C13.4217 39.9241 13.133 39.6105 12.9218 39.2068C12.7107 38.8032 12.6051 38.3436 12.6051 37.8282ZM16.9274 37.8375C16.9274 37.4524 16.8498 37.1171 16.6945 36.8314C16.5392 36.5458 16.3281 36.3284 16.0611 36.1794C15.8002 36.0241 15.5115 35.9465 15.1947 35.9465C14.878 35.9465 14.5893 36.021 14.3284 36.17C14.0676 36.3191 13.8596 36.5364 13.7043 36.8221C13.549 37.1078 13.4714 37.4431 13.4714 37.8282C13.4714 38.2194 13.549 38.561 13.7043 38.8528C13.8596 39.1385 14.0676 39.359 14.3284 39.5142C14.5893 39.6633 14.878 39.7378 15.1947 39.7378C15.5115 39.7378 15.8002 39.6633 16.0611 39.5142C16.3281 39.359 16.5392 39.1385 16.6945 38.8528C16.8498 38.561 16.9274 38.2225 16.9274 37.8375ZM18.9002 37.8282C18.9002 37.3065 19.0057 36.8501 19.2169 36.4588C19.428 36.0614 19.7168 35.754 20.0832 35.5366C20.4558 35.3193 20.8688 35.2106 21.3221 35.2106C21.7693 35.2106 22.1574 35.3068 22.4865 35.4993C22.8157 35.6919 23.061 35.9341 23.2225 36.2259V35.2944H24.0795V40.3992H23.2225V39.449C23.0548 39.7471 22.8033 39.9955 22.4679 40.1942C22.1388 40.3867 21.7537 40.483 21.3128 40.483C20.8595 40.483 20.4496 40.3712 20.0832 40.1477C19.7168 39.9241 19.428 39.6105 19.2169 39.2068C19.0057 38.8032 18.9002 38.3436 18.9002 37.8282ZM23.2225 37.8375C23.2225 37.4524 23.1448 37.1171 22.9896 36.8314C22.8343 36.5458 22.6232 36.3284 22.3561 36.1794C22.0953 36.0241 21.8065 35.9465 21.4898 35.9465C21.1731 35.9465 20.8843 36.021 20.6235 36.17C20.3627 36.3191 20.1546 36.5364 19.9994 36.8221C19.8441 37.1078 19.7665 37.4431 19.7665 37.8282C19.7665 38.2194 19.8441 38.561 19.9994 38.8528C20.1546 39.1385 20.3627 39.359 20.6235 39.5142C20.8843 39.6633 21.1731 39.7378 21.4898 39.7378C21.8065 39.7378 22.0953 39.6633 22.3561 39.5142C22.6232 39.359 22.8343 39.1385 22.9896 38.8528C23.1448 38.561 23.2225 38.2225 23.2225 37.8375ZM27.9991 35.2013C28.6202 35.2013 29.1232 35.3907 29.5082 35.7695C29.8932 36.1421 30.0858 36.6824 30.0858 37.3903V40.3992H29.2474V37.5114C29.2474 37.0022 29.1201 36.6141 28.8655 36.347C28.6108 36.0738 28.2631 35.9372 27.8222 35.9372C27.375 35.9372 27.0179 36.0769 26.7509 36.3564C26.4901 36.6358 26.3597 37.0426 26.3597 37.5766V40.3992H25.512V35.2944H26.3597V36.021C26.5273 35.7602 26.754 35.5583 27.0397 35.4155C27.3315 35.2727 27.6514 35.2013 27.9991 35.2013ZM31.9083 34.4654C31.7468 34.4654 31.6102 34.4095 31.4984 34.2977C31.3866 34.1859 31.3307 34.0493 31.3307 33.8878C31.3307 33.7263 31.3866 33.5897 31.4984 33.4779C31.6102 33.3662 31.7468 33.3103 31.9083 33.3103C32.0635 33.3103 32.1939 33.3662 32.2995 33.4779C32.4113 33.5897 32.4672 33.7263 32.4672 33.8878C32.4672 34.0493 32.4113 34.1859 32.2995 34.2977C32.1939 34.4095 32.0635 34.4654 31.9083 34.4654ZM32.3181 35.2944V40.3992H31.4705V35.2944H32.3181Z" fill="white"/>
</svg>
