<svg width="39" height="32" viewBox="0 0 39 32" fill="none" xmlns="http://www.w3.org/2000/svg">
<path d="M18.5662 2.54635L18.1542 3.72765H18.9782L18.5662 2.54635ZM18.5662 2.54635L18.1542 3.72765H18.9782L18.5662 2.54635ZM39 14.1493C37.2972 13.0468 36.4732 13.0993 35.4296 14.5168C35.0451 13.0993 34.7704 11.813 34.331 10.5792C33.9739 9.55537 33.6444 8.45283 32.9577 7.6653C32.3535 6.95652 31.2824 6.64151 30.1289 5.98523C30.1289 5.01395 30.0739 3.70139 30.1563 2.41509C30.2113 1.20755 29.7993 0.393765 28.5634 0H10.4366C9.22817 0.393765 8.76127 1.2338 8.87113 2.41509C8.92606 2.99262 8.87113 3.54389 8.87113 4.12141C8.89859 5.40771 8.95352 6.53651 7.55282 7.50779C6.64648 8.13782 6.28944 9.58162 5.85 10.6842C5.32817 11.918 4.97113 13.2305 4.53169 14.5431C3.3507 13.3618 1.67535 13.0205 1.15352 13.9918C0.219718 15.6981 2.36197 15.8294 3.07606 16.9057C1.12606 18.087 0.466901 20.0033 0 22.0246V25.6998L1.37324 32H6.59155C7.03099 31.4225 7.47042 30.845 8.15704 29.9787H30.9803C31.5296 30.74 31.969 31.37 32.4085 32H37.6268C38.5056 31.685 38.7528 31.055 38.7528 30.1887C38.7528 28.7711 38.9176 27.3798 39 25.9623V22.0246C38.2035 20.3183 37.4345 18.6382 36.6106 16.8532C37.2423 16.3281 38.1211 15.6456 39 14.9368V14.1493ZM24.1141 1.68007H24.938V4.93519H24.1141V1.68007ZM21.45 1.68007L22.1366 2.65135L22.7408 1.68007H23.6746L22.6035 3.30763L23.7296 4.90894H22.7683L22.0817 3.9114L21.4775 4.90894H20.5437L21.6423 3.25513L20.5437 1.65381H21.45V1.68007ZM18.0993 1.68007H19.0606L20.2965 4.93519H19.4176L19.2254 4.35767H17.962L17.7697 4.93519H16.8908L18.0993 1.68007ZM14.062 1.68007H16.6986V2.31009H15.7923V4.90894H14.9683V2.31009H14.062V1.68007ZM8.10211 9.89664C8.56901 8.74159 9.58521 8.24282 10.931 8.24282C17.0007 8.26907 23.0979 8.26907 29.1676 8.24282C30.5683 8.24282 31.6394 8.76784 32.0789 10.0016C32.7106 11.8392 33.15 13.7555 33.6993 15.8031H6.04225C6.75634 13.7555 7.36056 11.7867 8.10211 9.89664ZM10.4915 24.991C9.77746 25.0435 9.03592 24.991 8.29437 24.991V24.9647C7.74507 24.9647 7.19578 24.991 6.64648 24.9647C5.13592 24.886 4.17465 24.0459 4.11972 22.6021C4.11972 22.3134 4.61408 21.7621 4.8338 21.7883C6.59155 21.9459 8.37676 22.1296 10.107 22.4709C10.5739 22.5759 10.9859 23.1797 11.2606 23.6522C11.7549 24.4397 11.3979 24.9122 10.4915 24.991ZM34.7704 23.1272C34.1662 25.3585 32.3535 24.9647 30.7056 25.0172C30.1014 25.0172 29.4972 25.0697 28.9204 24.991C28.4535 24.9385 27.712 24.7547 27.657 24.4922C27.5472 24.0722 27.7669 23.4422 28.069 23.0746C28.3711 22.7071 28.9204 22.3921 29.4423 22.3134C30.843 22.0509 32.2437 21.8934 33.6444 21.7883C34.9077 21.6571 35.0725 21.9721 34.7704 23.1272ZM18.5662 2.54635L18.1542 3.72765H18.9782L18.5662 2.54635ZM18.5662 2.54635L18.1542 3.72765H18.9782L18.5662 2.54635ZM18.5662 2.54635L18.1542 3.72765H18.9782L18.5662 2.54635Z" fill="#E7B742"/>
</svg>
