<svg width="39" height="33" viewBox="0 0 39 33" fill="none" xmlns="http://www.w3.org/2000/svg">
<path d="M18.5661 3.33444L18.1541 4.51573H18.978L18.5661 3.33444ZM18.5661 3.33444L18.1541 4.51573H18.978L18.5661 3.33444ZM38.9999 14.9374C37.2971 13.8348 36.4731 13.8873 35.4295 15.3049C35.0449 13.8873 34.7703 12.601 34.3309 11.3672C33.9738 10.3435 33.6442 9.24092 32.9576 8.45338C32.3534 7.74461 31.2823 7.42959 30.1287 6.77332C30.1287 5.80203 30.0738 4.48948 30.1562 3.20318C30.2111 1.99563 29.7992 1.18185 28.5633 0.788086H10.4365C9.22805 1.18185 8.76115 2.02188 8.87101 3.20318C8.92593 3.7807 8.87101 4.33197 8.87101 4.9095C8.89847 6.1958 8.9534 7.32459 7.55269 8.29588C6.64636 8.9259 6.28931 10.3697 5.84988 11.4723C5.32805 12.7061 4.971 14.0186 4.53157 15.3312C3.35058 14.1499 1.67523 13.8086 1.1534 14.7799C0.219596 16.4862 2.36185 16.6175 3.07593 17.6937C1.12593 18.875 0.466779 20.7914 -0.00012207 22.8127V26.4878L1.37312 32.7881H6.59143C7.03086 32.2106 7.4703 31.633 8.15692 30.7668H30.9802C31.5295 31.528 31.9689 32.1581 32.4083 32.7881H37.6266C38.5055 32.4731 38.7527 31.843 38.7527 30.9768C38.7527 29.5592 38.9175 28.1679 38.9999 26.7503V22.8127C38.2034 21.1064 37.4344 19.4263 36.6104 17.6412C37.2421 17.1162 38.121 16.4337 38.9999 15.7249V14.9374ZM24.114 2.46815H24.9379V5.72328H24.114V2.46815ZM21.4499 2.46815L22.1365 3.43944L22.7407 2.46815H23.6745L22.6034 4.09571L23.7295 5.69703H22.7682L22.0816 4.69949L21.4773 5.69703H20.5435L21.6421 4.04321L20.5435 2.4419H21.4499V2.46815ZM18.0992 2.46815H19.0604L20.2964 5.72328H19.4175L19.2252 5.14576H17.9619L17.7696 5.72328H16.8907L18.0992 2.46815ZM14.0619 2.46815H16.6985V3.09818H15.7921V5.69703H14.9682V3.09818H14.0619V2.46815ZM8.10199 10.6847C8.56889 9.52968 9.58509 9.03091 10.9309 9.03091C17.0006 9.05716 23.0978 9.05716 29.1675 9.03091C30.5682 9.03091 31.6393 9.55593 32.0788 10.7897C32.7104 12.6273 33.1499 14.5436 33.6992 16.5912H6.04213C6.75622 14.5436 7.36044 12.5748 8.10199 10.6847ZM10.4914 25.7791C9.77734 25.8316 9.03579 25.7791 8.29424 25.7791V25.7528C7.74495 25.7528 7.19565 25.7791 6.64636 25.7528C5.13579 25.6741 4.17453 24.834 4.1196 23.3902C4.1196 23.1015 4.61396 22.5502 4.83368 22.5764C6.59143 22.7339 8.37664 22.9177 10.1069 23.259C10.5738 23.364 10.9858 23.9677 11.2604 24.4403C11.7548 25.2278 11.3978 25.7003 10.4914 25.7791ZM34.7703 23.9152C34.1661 26.1466 32.3534 25.7528 30.7055 25.8053C30.1013 25.8053 29.4971 25.8578 28.9203 25.7791C28.4534 25.7266 27.7118 25.5428 27.6569 25.2803C27.5471 24.8603 27.7668 24.2303 28.0689 23.8627C28.371 23.4952 28.9203 23.1802 29.4421 23.1015C30.8428 22.8389 32.2435 22.6814 33.6442 22.5764C34.9076 22.4452 35.0724 22.7602 34.7703 23.9152ZM18.5661 3.33444L18.1541 4.51573H18.978L18.5661 3.33444ZM18.5661 3.33444L18.1541 4.51573H18.978L18.5661 3.33444ZM18.5661 3.33444L18.1541 4.51573H18.978L18.5661 3.33444Z" fill="#E7B742"/>
</svg>
