<svg width="28" height="12" viewBox="0 0 28 12" fill="none" xmlns="http://www.w3.org/2000/svg">
<path d="M27.9499 9.56219C27.1002 6.85258 26.2505 4.13562 25.3924 1.42601C25.1591 0.662322 24.5926 0.295166 23.7012 0.295166C17.2281 0.295166 10.7634 0.295166 4.29032 0.295166C3.39892 0.295166 2.83242 0.669665 2.59083 1.43335C1.74941 4.0989 0.916323 6.76446 0.074907 9.43001C-0.0500558 9.8192 -0.0333941 10.1937 0.191539 10.5462C0.541435 11.0969 1.09127 11.2952 1.78273 11.2952C9.92198 11.2878 18.0612 11.2952 26.2005 11.2952C26.2921 11.2952 26.3837 11.2952 26.4754 11.2878C26.9252 11.2658 27.3168 11.1189 27.5917 10.8032C27.7583 10.6049 27.8666 10.3626 27.9999 10.135V9.65031C27.9833 9.62093 27.9583 9.5989 27.9499 9.56219ZM8.89728 4.29717V5.94203C8.89728 6.52214 8.89728 7.10224 8.89728 7.67501C8.89728 8.03482 8.76399 8.13028 8.31412 8.13028C7.88925 8.13028 7.76429 8.02748 7.76429 7.66766C7.76429 6.63963 7.76429 5.61159 7.76429 4.58355V4.29717C7.39773 4.29717 7.04783 4.29717 6.70627 4.29717C6.34804 4.29717 6.22308 4.18702 6.21475 3.88595C6.21475 3.57754 6.33138 3.46005 6.68961 3.46005C7.78095 3.46005 8.88062 3.45271 9.97196 3.46005C10.3219 3.46005 10.4468 3.57754 10.4385 3.8933C10.4385 4.17968 10.3052 4.29717 9.97196 4.30451C9.6304 4.30451 9.2805 4.29717 8.89728 4.29717ZM14.9122 8.10091C14.5373 8.22574 14.1124 8.11559 13.9874 7.85858C13.8958 7.66032 13.8042 7.45471 13.7208 7.25645C13.6709 7.13161 13.6125 7.08021 13.4459 7.08021C12.8878 7.08756 12.3379 7.08021 11.7798 7.08756C11.6964 7.08756 11.5715 7.16833 11.5298 7.24176C11.4215 7.44003 11.3549 7.64563 11.2632 7.85124C11.1466 8.11559 10.7051 8.23308 10.3552 8.10091C10.1386 8.02013 10.0886 7.82921 10.2219 7.53549C10.7551 6.33121 11.2882 5.12694 11.8131 3.93001C12.0214 3.46005 12.0214 3.46005 12.6128 3.46005C13.1877 3.46005 13.1877 3.46005 13.4043 3.93736C13.9458 5.13428 14.4956 6.33121 15.0371 7.53549C15.1871 7.83655 15.1371 8.02748 14.9122 8.10091ZM19.8607 7.9467C19.8107 8.12294 19.5858 8.11559 19.4025 8.13028C19.0359 8.16699 18.786 8.0495 18.6027 7.75578C18.3445 7.35191 18.0446 6.97007 17.7446 6.55885C17.4281 6.99209 17.1282 7.40331 16.8283 7.81453C16.6117 8.10825 16.1451 8.24043 15.7869 8.09356C15.562 8.00545 15.512 7.78515 15.6786 7.56486C16.0868 7.00678 16.495 6.4487 16.9199 5.89797C17.0365 5.75111 17.0365 5.6483 16.9199 5.50144C16.5533 5.03148 16.2034 4.55418 15.8702 4.06219C15.7869 3.9447 15.7286 3.74643 15.7952 3.65097C15.8535 3.54817 16.0701 3.49677 16.2284 3.4674C16.5783 3.40865 16.8283 3.53348 17.0032 3.82721C17.2281 4.19436 17.4947 4.53215 17.7696 4.92133C18.0446 4.52481 18.2945 4.15765 18.5527 3.79049C18.7693 3.48208 19.1526 3.36459 19.5358 3.49677C19.7774 3.57754 19.8357 3.79784 19.6607 4.04016C19.3108 4.53949 18.9526 5.03148 18.5861 5.51613C18.4611 5.67768 18.4611 5.79517 18.5861 5.95671C18.9943 6.47073 19.3858 6.99209 19.7607 7.5208C19.844 7.63095 19.894 7.81452 19.8607 7.9467ZM21.7685 7.69704C21.7685 8.04216 21.6602 8.13028 21.2269 8.13028C20.7687 8.13028 20.6604 8.04951 20.6521 7.69704C20.6521 6.42667 20.6521 5.16366 20.6521 3.8933C20.6521 3.53348 20.7604 3.45271 21.2269 3.46005C21.6602 3.46005 21.7685 3.54817 21.7685 3.8933C21.7685 4.52481 21.7685 5.16366 21.7685 5.79517C21.7685 6.42667 21.7685 7.06553 21.7685 7.69704Z" fill="black"/>
</svg>
