<svg width="15" height="15" viewBox="0 0 15 15" fill="none" xmlns="http://www.w3.org/2000/svg">
<path d="M13.1871 8.66776C12.9507 8.59846 12.698 8.55363 12.4534 8.55363C9.26599 8.54548 6.07853 8.54548 2.89108 8.54955C1.27698 8.55363 0.078625 10.0495 0.404707 11.627C0.653345 12.8212 1.68866 13.669 2.91554 13.6731C4.49704 13.6772 6.07853 13.6731 7.66003 13.6731C9.2293 13.6731 10.8026 13.6731 12.3719 13.6731C12.5105 13.6731 12.645 13.665 12.7836 13.6487C13.9697 13.5019 14.8991 12.5074 14.9928 11.3009C15.0825 10.1147 14.3203 8.99384 13.1871 8.66776ZM9.35566 12.2057C9.19669 12.2098 9.04181 12.2057 8.88284 12.2057C8.73203 12.2057 8.57714 12.2098 8.42633 12.2057C8.26736 12.2017 8.16546 12.1038 8.16138 11.9693C8.15731 11.8267 8.26736 11.7248 8.4304 11.7207C8.74018 11.7166 9.04996 11.7166 9.35974 11.7207C9.5187 11.7207 9.6206 11.8185 9.62468 11.9571C9.62875 12.1038 9.52278 12.2057 9.35566 12.2057ZM10.3624 12.2057C10.232 12.2098 10.1179 12.0998 10.1179 11.9653C10.1138 11.8308 10.2239 11.7207 10.3543 11.7207C10.4888 11.7166 10.5988 11.8267 10.6029 11.9571C10.6029 12.0916 10.4969 12.2057 10.3624 12.2057ZM11.3325 12.2057C11.198 12.2057 11.092 12.0916 11.092 11.9612C11.092 11.8267 11.2021 11.7207 11.3366 11.7207C11.4711 11.7207 11.5771 11.8308 11.5771 11.9653C11.5771 12.0998 11.467 12.2098 11.3325 12.2057ZM12.3108 12.2057C12.1803 12.2057 12.0662 12.0957 12.0662 11.9653C12.0662 11.8308 12.1763 11.7207 12.3067 11.7207C12.4412 11.7207 12.5513 11.8308 12.5513 11.9612C12.5553 12.0957 12.4453 12.2057 12.3108 12.2057Z" fill="white"/>
<path d="M14.9724 0.866153C14.8787 1.31859 14.7482 1.76288 14.626 2.20717C14.1124 4.13105 13.5947 6.05901 13.0771 7.98289C13.0648 8.02773 13.0526 8.06849 13.0485 8.08072H11.5404C11.6871 7.53453 11.8217 7.02503 11.9562 6.51553C12.482 4.55496 13.0078 2.59439 13.5336 0.63382C13.6559 0.173229 14.0064 -0.0713327 14.4181 0.0183399C14.8135 0.108012 15.0621 0.458551 14.9724 0.866153Z" fill="white"/>
<path d="M3.79995 8.08056H2.29182C2.2103 7.78709 2.1247 7.461 2.03503 7.13492C1.49291 5.09283 0.946727 3.05074 0.40054 1.01273C0.274183 0.543989 0.46168 0.164919 0.881511 0.0426378C1.31357 -0.087795 1.68041 0.140462 1.81085 0.613281C2.03095 1.43256 2.24698 2.25184 2.46709 3.07112C2.89914 4.68115 3.3312 6.28711 3.76326 7.89714C3.77549 7.94197 3.78364 7.99496 3.79995 8.08056Z" fill="white"/>
<path d="M11.524 3.16492C11.5199 3.25052 11.4792 3.35242 11.418 3.40948C11.3324 3.491 11.2183 3.46247 11.1286 3.38503C10.9819 3.25867 10.8433 3.12416 10.6925 3.00188C9.80801 2.30488 8.79308 1.97472 7.63549 1.95842C6.38007 1.98695 5.25101 2.41901 4.30538 3.31166C4.28092 3.33611 4.25646 3.36057 4.22793 3.38503C4.1138 3.47878 3.97929 3.47878 3.88555 3.38095C3.78772 3.28313 3.78365 3.12824 3.90185 3.03041C4.24016 2.75732 4.56624 2.45569 4.93716 2.23151C6.99555 0.984248 9.6735 1.30218 11.4058 2.9815C11.4588 3.03041 11.524 3.10378 11.524 3.16492Z" fill="white"/>
<path d="M10.436 4.38799C10.3748 4.55103 10.1792 4.58364 10.0324 4.46136C9.84493 4.30647 9.66559 4.13528 9.46178 4.00485C8.16153 3.16926 6.53927 3.32415 5.39799 4.37984C5.36945 4.40837 5.34092 4.43691 5.30831 4.46136C5.18603 4.56326 5.04745 4.55919 4.9537 4.45321C4.85995 4.35131 4.8681 4.21272 4.98223 4.10267C5.41021 3.67469 5.91157 3.36491 6.48629 3.17741C6.86943 3.05106 7.26481 2.98584 7.66833 2.98584C8.69957 2.99807 9.58814 3.36083 10.3381 4.07414C10.4319 4.16381 10.4849 4.26164 10.436 4.38799Z" fill="white"/>
<path d="M8.0268 7.46954C7.94121 7.51437 7.91267 7.56328 7.91675 7.65703C7.9249 7.78339 7.91675 7.90975 7.91675 8.05241H7.42763C7.42763 7.90975 7.42355 7.77524 7.42763 7.64073C7.4317 7.56328 7.41132 7.51845 7.33388 7.47769C6.99557 7.30242 6.84476 6.95596 6.94666 6.6095C7.04041 6.27934 7.36649 6.047 7.7048 6.06331C8.06756 6.08369 8.35289 6.3364 8.4181 6.69917C8.47924 7.00079 8.32028 7.31465 8.0268 7.46954Z" fill="white"/>
<path d="M9.25771 5.5537C9.14358 5.62706 9.03761 5.59446 8.93978 5.50886C8.308 4.96267 7.42758 4.87707 6.71427 5.28875C6.60422 5.34989 6.51047 5.43957 6.40857 5.51701C6.27814 5.61891 6.13955 5.61891 6.04173 5.50886C5.95206 5.40696 5.96428 5.2643 6.07841 5.15424C6.52677 4.72219 7.07296 4.53877 7.68437 4.52246C8.28762 4.54284 8.82973 4.72219 9.27402 5.15017C9.4126 5.28468 9.40445 5.46402 9.25771 5.5537Z" fill="white"/>
<path d="M4.74585 14.3944C4.7377 14.5534 4.64803 14.6471 4.48499 14.6512C4.00809 14.6553 3.5312 14.6553 3.0543 14.6512C2.89126 14.6512 2.80159 14.5534 2.79344 14.3944C2.78936 14.3251 2.79344 14.2518 2.79344 14.1743H4.74585C4.74585 14.2518 4.74585 14.3211 4.74585 14.3944Z" fill="white"/>
<path d="M12.5473 14.4432C12.5269 14.5736 12.4331 14.647 12.3027 14.647C11.8217 14.647 11.3367 14.6511 10.8557 14.647C10.7008 14.647 10.6112 14.5492 10.603 14.3983C10.5989 14.325 10.603 14.2475 10.603 14.166H12.5513C12.5513 14.2557 12.5636 14.3535 12.5473 14.4432Z" fill="white"/>
</svg>
