<svg width="135" height="134" viewBox="0 0 135 134" fill="none" xmlns="http://www.w3.org/2000/svg">
<path d="M111.425 62.4692C115.005 63.864 118.467 68.3241 118.029 74.5204C119.992 73.3222 121.812 71.6305 123.284 69.499C121.701 62.5574 116.586 58.1597 111.623 57.1879C112.053 59.1108 111.929 60.9316 111.425 62.4692Z" fill="#A7C05D"/>
<path d="M111.747 62.2777C115.237 63.7237 118.565 67.9806 118.405 73.9023C120.08 72.7795 121.626 71.2886 122.915 69.4553C121.388 62.9312 116.671 58.7157 112.006 57.6106C112.295 59.301 112.169 60.8969 111.747 62.2777Z" fill="#4E7735"/>
<path d="M114.283 59.7058C114.725 59.9347 115.136 59.9718 115.45 59.8192C117.645 61.1816 119.632 63.3118 120.971 66.0897C120.945 66.8126 121.026 67.5776 121.236 68.2176C121.451 68.8562 121.627 69.5268 121.766 70.2161C121.1 71.037 120.375 71.7755 119.615 72.4281C119.565 71.7693 119.476 71.1292 119.351 70.5118C119.228 69.9117 118.919 69.5791 118.572 69.5091C117.803 66.8273 116.315 64.6923 114.579 63.2636C114.47 62.8251 114.2 62.4148 113.833 62.1807C113.349 61.8728 112.854 61.6094 112.352 61.3892C112.508 60.631 112.582 59.818 112.556 58.9694C113.134 59.1657 113.713 59.4114 114.283 59.7058Z" fill="#A7C05D"/>
<path d="M116.387 62.6595C116.023 63.7972 116.122 65.1698 116.682 66.0593C117.238 66.9368 118.247 67.0369 118.917 65.9117C119.595 64.793 119.385 62.852 118.516 61.9595C117.652 61.0655 116.75 61.5313 116.387 62.6595Z" fill="#4E7735"/>
<path d="M119.481 67.4056C119.197 67.8318 119.111 68.5729 119.274 69.1221C119.437 69.6713 119.832 69.8362 120.18 69.4225C120.529 69.0129 120.64 68.1678 120.418 67.6045C120.191 67.0428 119.766 66.9794 119.481 67.4056Z" fill="#4E7735"/>
<path d="M114.039 61.0926C113.959 61.52 114.178 62.0391 114.549 62.308C114.92 62.5769 115.337 62.4945 115.465 62.0628C115.594 61.6311 115.347 61.0137 114.924 60.7507C114.505 60.4861 114.12 60.6652 114.039 61.0926Z" fill="#4E7735"/>
<path opacity="0.5" d="M112.243 57.3234C116.682 59.3658 120.57 64.4131 120.907 71.1755C120.015 72.0804 119.061 72.8681 118.061 73.5328C118.088 67.85 114.808 63.7831 111.42 62.4663C111.924 60.9287 112.047 59.1078 111.618 57.185C111.831 57.2234 112.039 57.2726 112.243 57.3234Z" fill="#808080"/>
<path d="M110.151 62.1516C113.296 64.3581 115.594 69.5165 113.693 75.4299C115.886 74.733 118.054 73.5267 119.989 71.8056C120.106 64.6849 116.19 59.1964 111.602 57.0693C111.561 59.0401 111.005 60.7777 110.151 62.1516Z" fill="#A7C05D"/>
<path d="M110.508 62.0417C113.556 64.2797 115.768 69.2038 114.204 74.9196C116.098 74.2302 117.954 73.1482 119.642 71.6726C119.712 64.9715 116.136 59.7543 111.87 57.5707C111.751 59.2815 111.249 60.8003 110.508 62.0417Z" fill="#4E7735"/>
<path d="M113.584 60.1461C113.959 60.4725 114.352 60.6066 114.689 60.5309C116.496 62.3806 117.917 64.9198 118.553 67.9356C118.36 68.6308 118.25 69.3941 118.305 70.0648C118.359 70.7355 118.372 71.4264 118.345 72.1321C117.502 72.77 116.626 73.3167 115.727 73.7676C115.838 73.1168 115.902 72.4742 115.926 71.8464C115.949 71.2374 115.728 70.8362 115.41 70.6874C115.3 67.8964 114.369 65.4733 113.019 63.6713C113.018 63.2198 112.855 62.7564 112.554 62.4436C112.159 62.0255 111.741 61.6524 111.306 61.3214C111.642 60.6188 111.906 59.8475 112.078 59.0205C112.598 59.3513 113.103 59.7242 113.584 60.1461Z" fill="#A7C05D"/>
<path d="M114.927 63.5181C114.302 64.5359 114.07 65.8955 114.404 66.8918C114.735 67.8801 115.69 68.2163 116.613 67.2823C117.538 66.3562 117.796 64.4223 117.162 63.3477C116.533 62.2716 115.547 62.5112 114.927 63.5181Z" fill="#4E7735"/>
<path d="M116.798 68.8668C116.42 69.2105 116.161 69.9119 116.184 70.4858C116.212 71.0583 116.558 71.3093 116.992 70.9945C117.426 70.6798 117.737 69.8869 117.654 69.2855C117.575 68.6826 117.177 68.5232 116.798 68.8668Z" fill="#4E7735"/>
<path d="M113.019 61.4349C112.841 61.8308 112.93 62.3851 113.223 62.737C113.516 63.0889 113.943 63.1066 114.173 62.7184C114.404 62.3301 114.308 61.6702 113.96 61.3162C113.616 60.9606 113.199 61.043 113.019 61.4349Z" fill="#4E7735"/>
<path opacity="0.5" d="M120.272 72.4434C118.636 73.7056 116.876 74.6344 115.096 75.2315C116.831 69.439 114.556 64.4165 111.464 62.2443C112.32 60.8744 112.876 59.1368 112.917 57.166C117.349 59.6038 120.877 65.3492 120.272 72.4434Z" fill="#808080"/>
<path d="M109.569 61.9575C112.453 64.4957 114.177 69.8717 111.643 75.5411C113.896 75.0888 116.188 74.1207 118.297 72.6242C119.189 65.5592 115.893 59.6734 111.563 57.0619C111.309 59.0171 110.569 60.6872 109.569 61.9575Z" fill="#A7C05D"/>
<path d="M109.93 61.8864C112.713 64.4441 114.38 69.5796 112.202 75.0896C114.157 74.6125 116.126 73.737 117.963 72.4547C118.764 65.8026 115.777 60.2266 111.777 57.588C111.469 59.2784 110.804 60.7356 109.93 61.8864Z" fill="#4E7735"/>
<path d="M113.199 60.3387C113.535 60.7065 113.912 60.8828 114.255 60.8457C115.849 62.8781 116.984 65.5596 117.289 68.6307C117.018 69.3004 116.83 70.0476 116.808 70.7195C116.788 71.3954 116.727 72.0821 116.623 72.7756C115.714 73.3206 114.782 73.766 113.843 74.1191C114.022 73.4834 114.158 72.8505 114.252 72.2284C114.34 71.6265 114.165 71.2037 113.862 71.0183C114.057 68.2358 113.395 65.7219 112.25 63.7803C112.301 63.3325 112.187 62.8553 111.923 62.5105C111.577 62.0519 111.201 61.6358 110.804 61.2593C111.213 60.5971 111.56 59.8633 111.825 59.0559C112.306 59.4416 112.763 59.8684 113.199 60.3387Z" fill="#A7C05D"/>
<path d="M114.164 63.8378C113.431 64.7829 113.055 66.1059 113.278 67.134C113.498 68.1502 114.415 68.5909 115.431 67.7622C116.451 66.9455 116.921 65.046 116.41 63.9123C115.895 62.7707 114.889 62.9051 114.164 63.8378Z" fill="#4E7735"/>
<path d="M115.445 69.3556C115.029 69.659 114.693 70.3254 114.662 70.8972C114.626 71.4705 114.945 71.7585 115.411 71.491C115.877 71.2274 116.274 70.4705 116.258 69.8668C116.234 69.2567 115.858 69.0577 115.445 69.3556Z" fill="#4E7735"/>
<path d="M112.497 61.5611C112.276 61.937 112.302 62.4961 112.558 62.88C112.812 63.26 113.233 63.3249 113.501 62.9635C113.773 62.6007 113.748 61.937 113.444 61.544C113.14 61.1509 112.715 61.1867 112.497 61.5611Z" fill="#4E7735"/>
<path d="M1.73657 71.4186C4.35996 82.4979 17.6831 90.9207 33.8607 87.5549C37.243 83.0671 39.3549 78.7113 40.5099 74.9082C27.5992 80.5922 16.0332 74.6442 14.3998 65.8171C11.3639 68.061 7.14008 70.1234 1.73657 71.4186Z" fill="#A7C05D"/>
<path d="M2.8999 71.8476C5.77903 82.1761 18.2772 89.873 33.4731 86.9361C36.3687 83.0671 38.2991 79.3052 39.4705 75.9394C26.9806 80.8232 15.9673 75.1969 13.9544 66.774C11.1825 68.7539 7.5032 70.5689 2.8999 71.8476Z" fill="#4E7735"/>
<path d="M13.5831 72.2687C14.1029 73.0689 15.0268 73.4814 15.9425 73.4897C19.1269 76.9628 24.2417 79.1737 30.2804 79.0664C30.6434 79.6851 31.5756 80.0729 32.9533 79.8914C34.3392 79.7099 35.7582 79.4129 37.1853 78.9922C36.3686 80.7081 35.3622 82.4983 34.133 84.3297C32.5573 84.6432 31.0064 84.8329 29.4884 84.9072C28.02 84.9814 26.3948 85.3609 24.9016 85.9219C18.0132 85.3197 12.2549 82.3498 8.61685 78.1177C8.88083 77.2268 8.71584 76.2615 8.15487 75.3871C7.40415 74.2321 6.80193 73.0029 6.35645 71.7325C8.4766 70.9158 10.3493 69.9918 11.9909 69.0101C12.3787 70.1568 12.9067 71.2458 13.5831 72.2687Z" fill="#A7C05D"/>
<path d="M15.1835 78.2076C12.9149 79.8493 12.1312 82.4562 14.5401 83.7184C16.9325 84.9971 21.2635 83.9246 23.1609 81.8374C25.0914 79.7503 24.2334 77.8529 22.2122 77.0196C20.1581 76.1947 17.4687 76.5494 15.1835 78.2076Z" fill="#4E7735"/>
<path d="M26.1062 82.6548C25.3802 83.488 25.768 84.3212 27.1374 84.3789C28.4986 84.4367 30.231 83.62 30.8745 82.7043C31.518 81.7886 30.891 81.1863 29.6206 81.2111C28.3419 81.2276 26.8322 81.8133 26.1062 82.6548Z" fill="#4E7735"/>
<path d="M10.6625 73.9512C9.70551 74.4792 9.29302 75.6176 9.96949 76.4591C10.6377 77.3006 12.0897 77.4408 12.9971 76.8303C13.9128 76.2199 13.9871 75.1474 13.3683 74.3884C12.7496 73.6295 11.6277 73.415 10.6625 73.9512Z" fill="#4E7735"/>
<path d="M82.8291 10.5184C80.0615 22.2069 66.0057 31.0929 48.9386 27.542C45.3703 22.8074 43.1423 18.2121 41.9238 14.1999C55.5444 20.1964 67.7464 13.9214 69.4696 4.60892C72.6724 6.9762 77.1285 9.15201 82.8291 10.5184Z" fill="#A7C05D"/>
<path d="M81.6018 10.9715C78.5644 21.8679 65.379 29.9881 49.3476 26.8897C46.2927 22.8079 44.2562 18.8392 43.0203 15.2883C56.197 20.4406 67.8159 14.505 69.9395 5.61897C72.8637 7.70775 76.7454 9.62246 81.6018 10.9715Z" fill="#4E7735"/>
<path d="M70.331 11.4145C69.7827 12.2587 68.808 12.6939 67.8419 12.7026C64.4825 16.3666 59.0864 18.6991 52.7157 18.586C52.3327 19.2387 51.3492 19.6478 49.8958 19.4563C48.4337 19.2648 46.9367 18.9515 45.431 18.5076C46.2927 20.3179 47.3545 22.2065 48.6512 24.1386C50.3136 24.4694 51.9498 24.6695 53.5512 24.7479C55.1003 24.8262 56.8149 25.2265 58.3902 25.8184C65.6574 25.183 71.7323 22.0499 75.5704 17.5851C75.2919 16.6451 75.4659 15.6269 76.0578 14.7043C76.8498 13.4859 77.4851 12.1891 77.9551 10.8488C75.7183 9.98715 73.7427 9.01239 72.0108 7.9767C71.6017 9.18645 71.0447 10.3353 70.331 11.4145Z" fill="#A7C05D"/>
<path d="M68.6423 17.6809C71.0356 19.4128 71.8625 22.163 69.3211 23.4946C66.7972 24.8436 62.228 23.7122 60.2262 21.5103C58.1897 19.3084 59.0948 17.3066 61.2271 16.4276C63.3942 15.5573 66.2315 15.9315 68.6423 17.6809Z" fill="#4E7735"/>
<path d="M57.1194 22.3723C57.8853 23.2513 57.4762 24.1304 56.0315 24.1913C54.5954 24.2522 52.7678 23.3906 52.0889 22.4245C51.41 21.4585 52.0715 20.8231 53.4118 20.8492C54.7608 20.8666 56.3535 21.4846 57.1194 22.3723Z" fill="#4E7735"/>
<path d="M73.4119 13.1902C74.4215 13.7472 74.8567 14.9483 74.143 15.836C73.4381 16.7237 71.9063 16.8717 70.9489 16.2276C69.9829 15.5836 69.9045 14.4522 70.5573 13.6515C71.21 12.8508 72.3937 12.6245 73.4119 13.1902Z" fill="#4E7735"/>
<path d="M95.6862 99.3388C87.8522 99.5311 81.3639 97.4164 75.3081 92.418C74.5872 95.7342 73.0012 102.03 72.2803 105.347C79.2972 112.171 88.5731 113.613 98.0412 111.354C97.3684 106.981 96.4552 103.76 95.6862 99.3388Z" fill="#FAFAFA"/>
<path d="M95.6861 99.3389C95.6861 99.3389 95.6861 99.387 95.7342 99.5311C95.7822 99.6753 95.8303 99.9156 95.8784 100.156C95.9745 100.733 96.1667 101.502 96.359 102.559C96.7915 104.626 97.5124 107.605 98.1853 111.354V111.45H98.0892C96.4551 111.835 94.6768 112.171 92.7544 112.315C90.8319 112.46 88.7653 112.508 86.6505 112.219C84.5358 111.979 82.325 111.45 80.1623 110.585C77.9995 109.72 75.8848 108.519 73.9623 106.933C73.6259 106.692 73.3375 106.452 73.0492 106.164C72.7608 105.923 72.4724 105.635 72.1841 105.395L72.136 105.347V105.299C73.1453 100.685 74.2988 96.311 75.1639 92.37L75.2119 92.1777L75.3561 92.2739C77.8553 94.3405 80.4506 95.9265 82.9018 96.9358C85.3529 97.9932 87.6598 98.5219 89.5342 98.8583C91.4567 99.1466 92.9947 99.2428 94.004 99.2908C94.5326 99.2908 94.9171 99.2908 95.2055 99.2908C95.3497 99.2908 95.4458 99.2908 95.4939 99.2908C95.6861 99.3389 95.6861 99.3389 95.6861 99.3389C95.6861 99.3389 95.638 99.3389 95.59 99.3389C95.4939 99.3389 95.3977 99.3389 95.3016 99.3389C95.0132 99.3389 94.6287 99.3389 94.1001 99.3389C93.0427 99.3389 91.5048 99.2908 89.5823 99.0025C87.6598 98.7141 85.3529 98.1854 82.9018 97.1281C80.4026 96.1188 77.8072 94.5327 75.308 92.4661L75.5003 92.418C74.6352 96.4071 73.5298 100.733 72.5205 105.395L72.4724 105.299C72.7608 105.539 73.0492 105.827 73.3375 106.067C73.6259 106.308 73.9143 106.596 74.2026 106.836C76.077 108.374 78.1917 109.576 80.3064 110.441C82.4692 111.306 84.632 111.835 86.7467 112.075C88.8614 112.315 90.928 112.315 92.8024 112.171C94.7249 111.979 96.4551 111.691 98.0892 111.306L98.0411 111.402C97.4163 107.654 96.6954 104.674 96.3109 102.607C96.1187 101.55 95.9745 100.733 95.8784 100.204C95.8303 99.9637 95.8303 99.7234 95.7822 99.5792C95.7342 99.435 95.6861 99.3389 95.6861 99.3389Z" fill="#263238"/>
<path d="M93.4275 109.768C93.3794 109.768 93.043 107.846 92.7066 105.491C92.3701 103.136 92.1298 101.165 92.2259 101.165C92.274 101.165 92.6104 103.088 92.9469 105.443C93.2352 107.798 93.4755 109.72 93.4275 109.768Z" fill="#263238"/>
<path d="M90.2072 110.153C90.1591 110.153 89.9669 108.231 89.8707 105.827C89.7266 103.424 89.6785 101.502 89.7746 101.502C89.8227 101.502 90.0149 103.424 90.1111 105.827C90.2072 108.182 90.2552 110.153 90.2072 110.153Z" fill="#263238"/>
<path d="M86.3624 109.72C86.3144 109.72 86.3624 109.239 86.3624 108.47C86.4105 107.701 86.4105 106.644 86.4585 105.443C86.4585 104.241 86.5066 103.184 86.6027 102.415C86.6508 101.646 86.7469 101.165 86.795 101.165C86.843 101.165 86.795 101.646 86.795 102.415C86.795 103.28 86.7469 104.289 86.7469 105.443C86.7469 106.644 86.6508 107.701 86.6027 108.47C86.5066 109.287 86.4105 109.768 86.3624 109.72Z" fill="#263238"/>
<path d="M84.3437 100.012C84.3918 100.012 84.3918 100.492 84.2957 101.261C84.2476 102.03 84.1034 103.088 83.8631 104.241C83.6228 105.395 83.3825 106.452 83.1902 107.173C82.998 107.942 82.8538 108.374 82.8538 108.374C82.8057 108.374 82.9019 107.894 83.0461 107.125C83.2383 106.26 83.4305 105.298 83.6228 104.145C83.8631 102.992 84.0073 101.934 84.1515 101.165C84.1995 100.492 84.2957 100.012 84.3437 100.012Z" fill="#263238"/>
<path d="M81.9409 99.0984C81.989 99.0984 81.9409 99.5309 81.7967 100.252C81.6525 100.973 81.4603 101.934 81.1719 102.943C80.8836 104.001 80.5471 104.914 80.3068 105.587C80.0665 106.26 79.8743 106.644 79.8262 106.644C79.7781 106.644 79.9223 106.211 80.1146 105.539C80.3068 104.866 80.5952 103.904 80.8836 102.895C81.1719 101.838 81.4122 100.925 81.5564 100.204C81.7967 99.4828 81.9409 99.0503 81.9409 99.0984Z" fill="#263238"/>
<path d="M79.0088 97.6088C79.0568 97.6088 79.0087 98.0413 78.8646 98.7622C78.7204 99.4832 78.5281 100.444 78.2878 101.55C78.0475 102.607 77.7592 103.616 77.5669 104.289C77.3747 104.962 77.1824 105.395 77.1824 105.395C77.1344 105.395 77.2305 104.962 77.4227 104.241C77.615 103.424 77.8553 102.511 78.0956 101.502C78.3359 100.492 78.5281 99.5312 78.7204 98.7622C78.8646 98.0413 78.9607 97.5607 79.0088 97.6088Z" fill="#263238"/>
<path d="M104.424 95.2353C96.5902 95.4276 90.1019 93.3128 84.0462 88.3145C83.3253 91.6307 81.7392 97.9268 81.0183 101.243C88.0353 108.068 97.3111 109.51 106.779 107.251C106.106 102.877 105.193 99.657 104.424 95.2353Z" fill="#FAFAFA"/>
<path d="M104.424 95.2354C104.424 95.2354 104.424 95.2834 104.472 95.4276C104.52 95.5718 104.568 95.8121 104.616 96.0524C104.713 96.6292 104.905 97.3981 105.097 98.4555C105.53 100.522 106.25 103.502 106.923 107.251V107.347H106.827C105.193 107.731 103.415 108.068 101.492 108.212C99.5699 108.356 97.5033 108.404 95.3886 108.116C93.2739 107.876 91.0631 107.347 88.9003 106.482C86.7375 105.617 84.6228 104.415 82.7004 102.829C82.3639 102.589 82.0756 102.348 81.7872 102.06C81.4988 101.82 81.2105 101.531 80.9221 101.291L80.874 101.243V101.195C81.8833 96.5811 83.0368 92.2075 83.9019 88.2665L83.95 88.0742L84.0941 88.1703C86.5933 90.237 89.1887 91.823 91.6398 92.8323C94.0909 93.8897 96.3979 94.4183 98.2723 94.7548C100.195 95.0431 101.733 95.1393 102.742 95.1873C103.271 95.1873 103.655 95.1873 103.944 95.1873C104.088 95.1873 104.184 95.1873 104.232 95.1873C104.424 95.2354 104.424 95.2354 104.424 95.2354C104.424 95.2354 104.376 95.2354 104.328 95.2354C104.232 95.2354 104.136 95.2354 104.04 95.2354C103.751 95.2354 103.367 95.2354 102.838 95.2354C101.781 95.2354 100.243 95.1873 98.3203 94.8989C96.3979 94.6106 94.0909 94.0819 91.6398 93.0245C89.1406 92.0153 86.5453 90.4292 84.0461 88.3626L84.2383 88.3145C83.3732 92.3036 82.2678 96.6292 81.2585 101.291L81.2105 101.195C81.4988 101.435 81.7872 101.724 82.0756 101.964C82.3639 102.204 82.6523 102.493 82.9407 102.733C84.8151 104.271 86.9298 105.472 89.0445 106.338C91.2072 107.203 93.37 107.731 95.4847 107.972C97.5994 108.212 99.6661 108.212 101.54 108.068C103.463 107.876 105.193 107.587 106.827 107.203L106.779 107.299C106.154 103.55 105.433 100.57 105.049 98.5036C104.857 97.4462 104.713 96.6292 104.616 96.1005C104.568 95.8602 104.568 95.6199 104.52 95.4757C104.472 95.3315 104.424 95.2354 104.424 95.2354Z" fill="#263238"/>
<path d="M102.165 105.665C102.117 105.665 101.781 103.742 101.444 101.387C101.108 99.032 100.867 97.0615 100.963 97.0615C101.012 97.0615 101.348 98.984 101.684 101.339C101.973 103.694 102.213 105.616 102.165 105.665Z" fill="#263238"/>
<path d="M98.9452 106.05C98.8971 106.05 98.7049 104.127 98.6088 101.724C98.4646 99.3209 98.4165 97.3984 98.5127 97.3984C98.5607 97.3984 98.753 99.3209 98.8491 101.724C98.9452 104.079 98.9933 106.05 98.9452 106.05Z" fill="#263238"/>
<path d="M95.1005 105.616C95.0524 105.616 95.1005 105.136 95.1005 104.367C95.1485 103.598 95.1485 102.541 95.1966 101.339C95.1966 100.137 95.2446 99.0801 95.3408 98.3111C95.3888 97.5421 95.485 97.0615 95.533 97.0615C95.5811 97.0615 95.533 97.5421 95.533 98.3111C95.533 99.1762 95.485 100.186 95.485 101.339C95.485 102.541 95.3888 103.598 95.3408 104.367C95.2446 105.184 95.1485 105.665 95.1005 105.616Z" fill="#263238"/>
<path d="M93.0818 95.9082C93.1298 95.9082 93.1298 96.3888 93.0337 97.1578C92.9856 97.9268 92.8414 98.9841 92.6011 100.138C92.3608 101.291 92.1205 102.348 91.9283 103.069C91.736 103.838 91.5918 104.271 91.5918 104.271C91.5438 104.271 91.6399 103.79 91.7841 103.021C91.9763 102.156 92.1686 101.195 92.3608 100.041C92.6011 98.888 92.7453 97.8307 92.8895 97.0617C92.9376 96.3888 93.0337 95.9082 93.0818 95.9082Z" fill="#263238"/>
<path d="M90.6785 94.9948C90.7265 94.9948 90.6785 95.4274 90.5343 96.1483C90.3901 96.8692 90.1978 97.8305 89.9095 98.8398C89.6211 99.8971 89.2847 100.81 89.0444 101.483C88.8041 102.156 88.6118 102.54 88.5638 102.54C88.5157 102.54 88.6599 102.108 88.8521 101.435C89.0444 100.762 89.3327 99.801 89.6211 98.7917C89.9095 97.7343 90.1498 96.8212 90.294 96.1002C90.5343 95.3793 90.6785 94.9468 90.6785 94.9948Z" fill="#263238"/>
<path d="M87.747 93.5053C87.7951 93.5053 87.747 93.9378 87.6028 94.6587C87.4587 95.3797 87.2664 96.3409 87.0261 97.4463C86.7858 98.5036 86.4974 99.5129 86.3052 100.186C86.1129 100.859 85.9207 101.291 85.9207 101.291C85.8726 101.291 85.9688 100.859 86.161 100.138C86.3532 99.3207 86.5936 98.4075 86.8339 97.3982C87.0742 96.3889 87.2664 95.4277 87.4587 94.6587C87.6028 93.9378 87.699 93.4572 87.747 93.5053Z" fill="#263238"/>
<path d="M71.335 15.0234H65.6035V23.9621H71.335V15.0234Z" fill="#263238"/>
<path d="M74.4233 17.6964H62.604V8.07462C66.7318 7.06493 70.6815 7.00554 74.4233 8.07462V17.6964Z" fill="#D69D2F"/>
<path d="M74.5425 8.10382C74.5425 8.10382 74.394 8.19291 74.097 8.3117C73.8 8.43049 73.3843 8.60867 72.8497 8.75715C72.3152 8.93533 71.6619 9.08382 70.9195 9.2026C70.177 9.32139 69.3752 9.41048 68.514 9.41048C67.6528 9.41048 66.851 9.35109 66.1086 9.2323C65.3662 9.11351 64.7128 8.96503 64.1783 8.78685C63.6438 8.63837 63.228 8.46018 62.931 8.3414C62.6341 8.22261 62.4856 8.13352 62.4856 8.13352C62.4856 8.10382 63.1389 8.37109 64.208 8.66806C64.7425 8.81655 65.3959 8.93533 66.1086 9.05412C66.8213 9.14321 67.6528 9.2323 68.4843 9.2323C69.3158 9.2323 70.1473 9.14321 70.8601 9.05412C71.5728 8.93533 72.2261 8.78685 72.7607 8.63837C73.8891 8.3414 74.5425 8.07413 74.5425 8.10382Z" fill="#263238"/>
<path d="M66.4944 17.6961C66.435 17.6961 66.4053 15.8549 66.4053 13.5683C66.4053 11.2816 66.4647 9.44043 66.4944 9.44043C66.5538 9.44043 66.5835 11.2816 66.5835 13.5683C66.6132 15.8252 66.5538 17.6961 66.4944 17.6961Z" fill="#263238"/>
<path d="M68.7514 17.7262C68.6921 17.7262 68.6624 15.8553 68.6624 13.5687C68.6624 11.282 68.7218 9.41113 68.7514 9.41113C68.8108 9.41113 68.8405 11.282 68.8405 13.5687C68.8405 15.885 68.8108 17.7262 68.7514 17.7262Z" fill="#263238"/>
<path d="M71.0085 17.6959C70.9491 17.6959 70.9194 15.825 70.9194 13.5384C70.9194 11.2518 70.9788 9.38086 71.0085 9.38086C71.0382 9.38086 71.0976 11.2518 71.0976 13.5384C71.0976 15.8547 71.0382 17.6959 71.0085 17.6959Z" fill="#263238"/>
<path d="M72.8791 17.6959C72.8197 17.6959 72.79 15.6766 72.79 13.2117C72.79 10.7172 72.8494 8.72754 72.8791 8.72754C72.9385 8.72754 72.9682 10.7469 72.9682 13.2117C72.9682 15.6766 72.9385 17.6959 72.8791 17.6959Z" fill="#263238"/>
<path d="M64.3864 17.6374C64.3271 17.6374 64.2974 15.618 64.2974 13.1531C64.2974 10.6586 64.3568 8.66895 64.3864 8.66895C64.4458 8.66895 64.4755 10.6883 64.4755 13.1531C64.4755 15.6477 64.4458 17.6374 64.3864 17.6374Z" fill="#263238"/>
<path d="M104.007 29.5606L101.134 26.5547L96.4537 31.0275L99.3261 34.0334L104.007 29.5606Z" fill="#263238"/>
<path d="M104.15 32.4858L98.2402 26.3089L103.289 21.498C105.902 23.1611 107.892 25.1804 109.198 27.675L104.15 32.4858Z" fill="#D69D2F"/>
<path d="M99.2205 27.3479C99.1908 27.3182 100.319 26.16 101.774 24.7642C103.23 23.3685 104.417 22.2697 104.447 22.2994C104.477 22.3291 103.348 23.4873 101.893 24.883C100.438 26.2788 99.2502 27.3776 99.2205 27.3479Z" fill="#263238"/>
<path d="M100.349 28.5363C100.319 28.5066 100.616 28.2097 101.121 27.7642C101.596 27.2891 102.279 26.6654 103.051 25.9824C103.794 25.2994 104.477 24.7054 105.011 24.2303C105.249 24.0224 105.427 23.8442 105.605 23.6958C105.754 23.577 105.813 23.5176 105.813 23.5176C105.873 23.577 104.685 24.7351 103.17 26.1309C102.398 26.8139 101.715 27.4375 101.21 27.883C100.676 28.2691 100.349 28.5363 100.349 28.5363Z" fill="#263238"/>
<path d="M101.834 30.1104C101.804 30.0807 102.131 29.7837 102.606 29.3383C103.111 28.8631 103.794 28.2395 104.566 27.5267C105.308 26.8437 105.991 26.2498 106.555 25.7449C106.793 25.5371 107.001 25.3589 107.149 25.2104C107.298 25.0916 107.357 25.0322 107.387 25.0322C107.417 25.0619 107.12 25.3589 106.645 25.834C106.14 26.3092 105.457 26.9328 104.685 27.6455C103.912 28.3286 103.2 28.9522 102.695 29.3976C102.19 29.8431 101.863 30.1104 101.834 30.1104Z" fill="#263238"/>
<path d="M103.259 31.5357C103.229 31.506 104.388 30.3478 105.843 28.9521C107.298 27.5563 108.515 26.4576 108.545 26.5169C108.575 26.5466 107.417 27.7048 105.962 29.1006C104.477 30.4666 103.289 31.5654 103.259 31.5357Z" fill="#263238"/>
<path d="M31.7235 29.0927L28.6062 31.8438L32.89 36.6979L36.0073 33.9468L31.7235 29.0927Z" fill="#263238"/>
<path d="M34.6596 29.0997L28.2451 34.742L23.6421 29.5154C25.3942 26.9912 27.5027 25.0609 30.0566 23.873L34.6596 29.0997Z" fill="#D69D2F"/>
<path d="M29.3439 33.7921C29.3142 33.8218 28.1857 32.6339 26.8494 31.1491C25.513 29.6642 24.4439 28.417 24.5033 28.3873C24.533 28.3576 25.6615 29.5454 26.9979 31.0303C28.3045 32.5151 29.3736 33.7624 29.3439 33.7921Z" fill="#263238"/>
<path d="M30.5618 32.7229C30.5321 32.7526 30.2648 32.426 29.8193 31.9211C29.3739 31.4163 28.78 30.7036 28.0969 29.9314C27.4436 29.1593 26.8794 28.4763 26.4042 27.9121C26.1963 27.6745 26.0479 27.4666 25.8994 27.2884C25.7806 27.14 25.7212 27.0806 25.7212 27.0509C25.7806 26.9915 26.9091 28.2387 28.2157 29.8127C28.869 30.5848 29.463 31.3272 29.8787 31.832C30.3242 32.3666 30.5618 32.6932 30.5618 32.7229Z" fill="#263238"/>
<path d="M32.1951 31.297C32.1654 31.3267 31.8981 31 31.4526 30.4952C31.0072 29.9903 30.3836 29.2776 29.7302 28.4758C29.0769 27.7037 28.5127 26.991 28.0375 26.4267C27.8593 26.1891 27.6812 25.9813 27.5327 25.8031C27.4139 25.6546 27.3545 25.5655 27.3545 25.5655C27.3842 25.5358 27.6812 25.8328 28.1266 26.3673C28.5721 26.8722 29.1957 27.5849 29.849 28.3867C30.5023 29.1885 31.0963 29.9012 31.5417 30.4358C31.9575 30.9406 32.1951 31.2673 32.1951 31.297Z" fill="#263238"/>
<path d="M33.6499 29.9306C33.6202 29.9603 32.5214 28.7724 31.185 27.2579C29.8487 25.7433 28.8093 24.4961 28.839 24.4664C28.8687 24.4367 29.9675 25.6245 31.3038 27.1391C32.6402 28.6536 33.7093 29.9009 33.6499 29.9306Z" fill="#263238"/>
<path d="M100.789 100.57C119.252 82.1076 119.252 52.1736 100.789 33.7109C82.3263 15.2482 52.3924 15.2482 33.9297 33.7109C15.467 52.1736 15.467 82.1076 33.9297 100.57C52.3924 119.033 82.3263 119.033 100.789 100.57Z" fill="#D69D2F"/>
<path d="M98.0803 97.8615C115.047 80.8948 115.047 53.3864 98.0803 36.4198C81.1137 19.4531 53.6053 19.4531 36.6386 36.4198C19.6719 53.3864 19.6719 80.8948 36.6386 97.8615C53.6053 114.828 81.1137 114.828 98.0803 97.8615Z" fill="white"/>
<path d="M67.3558 110.736C43.3311 110.736 23.761 91.196 23.761 67.1416C23.761 43.117 43.3311 23.5469 67.3558 23.5469C91.3804 23.5469 110.951 43.117 110.951 67.1416C110.951 91.1663 91.3804 110.736 67.3558 110.736ZM67.3558 23.8438C43.4796 23.8438 24.058 43.2655 24.058 67.1416C24.058 91.0178 43.4796 110.439 67.3558 110.439C91.2319 110.439 110.654 91.0178 110.654 67.1416C110.654 43.2655 91.2319 23.8438 67.3558 23.8438Z" fill="#263238"/>
<path d="M40.0942 49.7984C41.9057 44.1857 45.6178 40.3845 50.5178 37.1179C55.4177 33.8513 62.1292 32.6337 68.0091 33.1088V68.1213L40.0942 49.7984Z" fill="#FF725E"/>
<path d="M64.2677 67.9133L44.7273 52.7383L67.5938 63.2806L68.2768 67.2897L64.2677 67.9133Z" fill="#FCD759" fill-opacity="0.9686"/>
<g opacity="0.4">
<path d="M44.7273 52.7383L65.1289 64.7358L67.5938 63.2806L44.7273 52.7383Z" fill="#D69D2F"/>
</g>
<path d="M69.8277 71.1483C71.9065 70.2956 72.9005 67.9191 72.0478 65.8402C71.1951 63.7614 68.8186 62.7674 66.7397 63.6201C64.6608 64.4728 63.6668 66.8493 64.5196 68.9282C65.3723 71.0071 67.7488 72.0011 69.8277 71.1483Z" fill="#FAFAFA"/>
<path d="M68.2766 63.3096C68.2766 63.3393 67.9202 63.3096 67.2966 63.4878C66.673 63.6362 65.7821 64.052 65.0991 64.9726C64.7724 65.4181 64.4754 66.012 64.3566 66.6653C64.2379 67.3186 64.2676 68.0611 64.5348 68.7441C64.6536 69.1004 64.8318 69.4271 65.0694 69.7538C65.3069 70.0804 65.5742 70.3477 65.9009 70.5853C66.5542 71.0604 67.3857 71.3574 68.2469 71.3574C69.1081 71.3574 69.9396 71.0604 70.593 70.5853C70.9196 70.3477 71.2166 70.0507 71.4245 69.7538C71.662 69.4271 71.8402 69.1004 71.959 68.7441C72.2263 68.0314 72.256 67.3186 72.1372 66.6653C72.0184 66.012 71.7511 65.4477 71.3948 64.9726C70.7117 64.052 69.8208 63.6362 69.1972 63.4878C68.6627 63.3096 68.2766 63.3096 68.2766 63.3096C68.2766 63.3096 68.633 63.2502 69.2863 63.3987C69.9099 63.5472 70.8305 63.9332 71.573 64.8835C71.9293 65.3587 72.2263 65.9229 72.3748 66.6356C72.4935 67.3186 72.4935 68.0908 72.1966 68.8035C72.0778 69.1598 71.8699 69.5162 71.6323 69.8726C71.3948 70.1992 71.0978 70.4962 70.7414 70.7635C70.0584 71.2683 69.1972 71.5653 68.2766 71.5653C67.3857 71.5653 66.4948 71.2683 65.8118 70.7635C65.4554 70.5259 65.1585 70.1992 64.9209 69.8726C64.6833 69.5459 64.4754 69.1895 64.3566 68.8035C64.0894 68.0611 64.0597 67.2889 64.1785 66.6356C64.2973 65.9526 64.6239 65.3587 64.9803 64.8835C65.7227 63.9332 66.6433 63.5472 67.2669 63.3987C67.9203 63.2502 68.2766 63.3096 68.2766 63.3096Z" fill="#263238"/>
<path d="M68.2766 64.3496C69.9396 64.3496 71.3057 65.7157 71.3057 67.3787C71.3057 69.0417 69.9396 70.4077 68.2766 70.4077C66.6136 70.4077 65.2476 69.0417 65.2476 67.3787C65.2773 65.686 66.6136 64.3496 68.2766 64.3496Z" fill="#D69D2F"/>
<path d="M65.7225 107.291H65.6631L65.7819 104.024H65.871L65.7225 107.291ZM82.026 104.648L80.8084 101.619L80.8975 101.589L82.0557 104.648H82.026ZM49.6863 103.104L49.6269 103.074L51.082 100.134L51.1711 100.164L49.6863 103.104ZM95.8647 95.5906L93.5483 93.304L93.6077 93.2446L95.9241 95.5609L95.8647 95.5906ZM36.7682 92.7397L36.7088 92.6804L39.2331 90.6016L39.2628 90.661L36.7682 92.7397ZM104.863 81.6629L101.804 80.5344L101.834 80.4453L104.892 81.6035L104.863 81.6629ZM29.1659 78.0102L29.1362 77.9211L32.284 77.0896L32.3137 77.149L29.1659 78.0102ZM104.12 65.4782V65.4188L107.387 65.2109V65.3L104.12 65.4782ZM104.12 65.4188V65.3594L107.387 65.1515V65.2109L104.12 65.4188ZM31.4525 61.974L28.2156 61.4988V61.4394L31.4525 61.9443V61.974ZM100.141 50.7189L100.111 50.6595L103.022 49.145L103.051 49.2044L100.141 50.7189ZM36.7979 47.7492L34.0361 45.9971L34.0658 45.9377L36.8276 47.6898L36.7979 47.7492ZM90.4896 38.959L90.4302 38.8996L92.4793 36.3457L92.5387 36.4051L90.4896 38.959ZM47.4887 36.9396L45.7069 34.2075L45.7663 34.1778L47.5778 36.9099L47.4887 36.9396ZM76.9182 32.0991L76.8588 32.0694L77.6903 28.9215L77.7497 28.9512L76.9182 32.0991ZM61.6541 31.3864L61.1195 28.1494H61.1789L61.7135 31.3864H61.6541Z" fill="#263238"/>
<path d="M33.2543 118.709C35.8015 120.583 39.31 120.631 42.2898 119.622C45.2696 118.613 47.8649 116.738 50.4122 114.864C52.9595 113.038 55.6028 111.163 58.6307 110.346L51.5657 96.168C51.5657 96.168 44.789 98.8113 40.2712 103.954C36.6186 108.087 28.2559 106.213 28.2559 106.213L33.2543 118.709Z" fill="#FAFAFA"/>
<path d="M33.2546 118.708C33.2546 118.708 33.2065 118.66 33.1585 118.516C33.1104 118.372 33.0143 118.131 32.8701 117.891C32.6298 117.314 32.2934 116.497 31.8608 115.44C30.9957 113.277 29.6981 110.153 28.112 106.308L28.064 106.116L28.2562 106.164C29.9384 106.501 31.8608 106.645 33.8313 106.549C34.8406 106.453 35.8499 106.308 36.8592 105.972C37.8685 105.636 38.8297 105.155 39.6468 104.386C40.0313 104.001 40.4158 103.617 40.8483 103.184C41.2328 102.752 41.6654 102.367 42.0979 101.983C42.963 101.214 43.9242 100.445 44.9335 99.772C46.9521 98.3782 49.1149 97.1286 51.518 96.1193L51.6141 96.0713L51.6621 96.1674C51.9505 96.7441 52.2869 97.3689 52.5753 97.9937C54.7381 102.319 56.8047 106.501 58.7272 110.346L58.7752 110.49L58.6311 110.538C56.6605 111.066 54.8823 112.028 53.2962 113.037C51.7102 114.046 50.2684 115.152 48.8746 116.161C47.4808 117.17 46.1351 118.035 44.7894 118.708C43.4436 119.381 42.146 119.862 40.8964 120.15C39.6468 120.39 38.5414 120.438 37.5321 120.342C36.5708 120.246 35.7057 120.054 35.0809 119.766C34.4561 119.525 33.9755 119.237 33.6872 119.045C33.543 118.949 33.4468 118.852 33.3507 118.804C33.3027 118.756 33.2546 118.708 33.2546 118.708C33.2546 118.66 33.8313 119.189 35.129 119.669C35.7538 119.91 36.5708 120.102 37.5321 120.198C38.4933 120.246 39.6468 120.246 40.8483 119.958C42.0499 119.718 43.3475 119.189 44.6932 118.516C46.039 117.843 47.3847 116.93 48.7304 115.969C50.1242 114.959 51.566 113.854 53.1521 112.845C54.7381 111.835 56.5164 110.826 58.5349 110.297L58.4388 110.442C56.5164 106.645 54.4497 102.463 52.2869 98.1379C51.9505 97.5131 51.6621 96.8883 51.3738 96.3116L51.518 96.3597C49.1629 97.3689 46.9521 98.6185 44.9816 99.9643C43.9723 100.685 43.0591 101.406 42.194 102.175C41.7615 102.56 41.3289 102.944 40.9444 103.377C40.5599 103.809 40.1755 104.194 39.7429 104.578C38.8778 105.347 37.8685 105.876 36.8592 106.212C35.8499 106.549 34.7926 106.693 33.7833 106.789C31.7647 106.933 29.8422 106.741 28.1601 106.405L28.2562 106.26C29.7942 110.105 31.0438 113.229 31.9089 115.392C32.3414 116.449 32.6779 117.314 32.8701 117.891C32.9662 118.18 33.0624 118.372 33.1104 118.564C33.2065 118.612 33.2546 118.708 33.2546 118.708Z" fill="#263238"/>
<path d="M37.5316 117.795C37.4836 117.843 36.5224 115.776 35.4169 113.229C34.3115 110.682 33.4945 108.615 33.5425 108.567C33.5906 108.519 34.5518 110.586 35.6572 113.133C36.7146 115.728 37.5797 117.795 37.5316 117.795Z" fill="#263238"/>
<path d="M40.56 117.506C40.512 117.554 39.4546 115.631 38.205 113.18C36.9554 110.777 35.9942 108.807 36.0423 108.759C36.0903 108.711 37.1477 110.633 38.3973 113.084C39.6469 115.487 40.6562 117.458 40.56 117.506Z" fill="#263238"/>
<path d="M42.8669 116.594C42.8188 116.594 42.5785 116.113 42.194 115.344C41.8095 114.575 41.2809 113.47 40.6561 112.316C40.0313 111.163 39.4545 110.105 39.022 109.337C38.5894 108.568 38.3491 108.087 38.3491 108.087C38.3972 108.087 38.6856 108.519 39.1662 109.24C39.6468 109.961 40.2716 111.019 40.8964 112.172C41.5212 113.326 42.0499 114.431 42.3863 115.248C42.6747 116.065 42.8669 116.546 42.8669 116.594Z" fill="#263238"/>
<path d="M45.222 114.527C45.174 114.527 44.9337 114.094 44.453 113.421C43.9724 112.652 43.3476 111.691 42.7228 110.682C42.05 109.673 41.4252 108.711 40.9446 107.99C40.4639 107.318 40.2236 106.885 40.2236 106.837C40.2717 106.837 40.5601 107.221 41.0887 107.894C41.5694 108.567 42.2422 109.48 42.9631 110.586C43.636 111.643 44.2608 112.652 44.6453 113.373C45.0298 114.046 45.222 114.527 45.222 114.527Z" fill="#263238"/>
<path d="M47.4804 112.844C47.4323 112.844 47.0959 112.46 46.6153 111.787C46.0866 111.114 45.4138 110.153 44.6928 109.096C43.9719 108.038 43.3471 107.029 42.9146 106.308C42.482 105.587 42.2417 105.106 42.2417 105.106C42.2898 105.106 42.5781 105.539 43.0587 106.212C43.5874 106.981 44.2122 107.894 44.8851 108.951C45.606 109.961 46.2308 110.922 46.7595 111.643C47.2401 112.364 47.5285 112.796 47.4804 112.844Z" fill="#263238"/>
<path d="M49.403 111.114C49.3549 111.114 49.0185 110.729 48.5379 110.057C48.0092 109.384 47.3364 108.422 46.6154 107.365C45.8945 106.308 45.2697 105.298 44.8372 104.578C44.4046 103.857 44.1643 103.376 44.1643 103.376C44.2124 103.376 44.5007 103.809 44.9814 104.481C45.51 105.25 46.1348 106.164 46.8077 107.221C47.5286 108.23 48.1534 109.191 48.6821 109.912C49.1146 110.633 49.4511 111.066 49.403 111.114Z" fill="#263238"/>
<path d="M51.4695 109.672C51.4215 109.72 50.1719 108.038 48.682 105.923C47.1921 103.809 46.0386 102.078 46.0867 102.03C46.1347 101.982 47.3843 103.664 48.8742 105.779C50.3641 107.894 51.5176 109.624 51.4695 109.672Z" fill="#263238"/>
<path d="M53.2476 109C53.1995 109 52.9112 108.519 52.5267 107.702C52.0941 106.837 51.5654 105.731 50.9406 104.53C50.3158 103.28 49.7391 102.175 49.2585 101.406C48.8259 100.637 48.4895 100.156 48.4895 100.156C48.4895 100.156 48.874 100.541 49.4027 101.31C49.8833 102.079 50.5081 103.184 51.1329 104.434C51.7577 105.683 52.2864 106.837 52.6708 107.654C53.0553 108.471 53.2956 108.951 53.2476 109Z" fill="#263238"/>
</svg>
