<svg width="13" height="16" viewBox="0 0 13 16" fill="none" xmlns="http://www.w3.org/2000/svg">
<path d="M10.0308 11.6229C9.44722 11.6229 8.97307 12.0971 8.97307 12.7171C8.97307 13.3372 9.44722 13.8113 10.0308 13.8113H12.9851V11.6229H10.0308ZM10.0673 13.0819C9.88489 13.0819 9.70253 12.936 9.70253 12.7171C9.70253 12.4983 9.84842 12.3524 10.0673 12.3524C10.2496 12.3524 10.432 12.4983 10.432 12.7171C10.3955 12.8995 10.2496 13.0819 10.0673 13.0819ZM9.52016 2.83297L7.36826 2.10352C7.07648 2.54119 6.56586 2.7965 6.05524 2.76003L4.77869 6.51673H9.37427L10.1402 4.18247C9.739 3.85421 9.48369 3.34359 9.52016 2.83297ZM8.68129 4.07305C8.57187 4.43778 8.13419 4.65662 7.76946 4.5472C7.40473 4.43778 7.14942 4.00011 7.29532 3.63538C7.44121 3.27065 7.84241 3.05181 8.20714 3.16123C8.57187 3.27065 8.7907 3.70832 8.68129 4.07305Z" fill="white"/>
<path d="M5.76345 0.0612471L12.0003 2.1402C12.1097 2.17667 12.1827 2.24962 12.2191 2.32257C12.2556 2.39551 12.2556 2.50493 12.2556 2.61435L10.9426 6.55342H10.1767L10.9791 4.14621C11.0155 4.03679 11.0155 3.96385 10.9426 3.85443C10.9061 3.78148 10.8332 3.70854 10.7238 3.67206C10.359 3.56264 10.1402 3.12497 10.2496 2.76024C10.3226 2.57788 10.2131 2.35904 10.0308 2.28609L7.25883 1.37427C7.14942 1.3378 7.07647 1.3378 6.96705 1.41074C6.89411 1.44722 6.82116 1.52016 6.78469 1.62958C6.67527 1.99431 6.23759 2.21315 5.87286 2.10373C5.6905 2.03078 5.47166 2.1402 5.39872 2.32257L3.97628 6.58989H3.21034L5.2893 0.35303C5.36224 0.0977201 5.58108 -0.0116986 5.76345 0.0612471ZM2.04321 6.51695V3.19792C2.55383 3.05202 2.95503 2.65082 3.10093 2.1402H3.9398L2.48089 6.51695H2.04321Z" fill="white"/>
<path d="M0.693769 0.790571C0.766715 0.717625 0.839661 0.681152 0.949079 0.681152H4.414L4.15869 1.41061H2.77272C2.6633 1.41061 2.59036 1.44708 2.51741 1.52003C2.44447 1.59297 2.40799 1.66592 2.40799 1.77534C2.40799 2.17654 2.07974 2.5048 1.67854 2.5048C1.4597 2.5048 1.31381 2.65069 1.31381 2.86952V6.55329C1.0585 6.58976 0.803188 6.73565 0.584351 6.88154V1.04588C0.584351 0.936462 0.620824 0.863517 0.693769 0.790571ZM12.9851 14.9056C12.9851 15.5256 12.511 15.9998 11.8909 15.9998H1.67854C1.0585 15.9998 0.584351 15.5256 0.584351 14.9056V8.34046C0.584351 7.72042 1.0585 7.24627 1.67854 7.24627H11.8545C12.4745 7.24627 12.9487 7.72042 12.9487 8.34046V10.8936H9.99435C9.00959 10.8936 8.20718 11.696 8.20718 12.7172C8.20718 13.7384 9.00959 14.5408 9.99435 14.5408H12.9487V14.9056H12.9851Z" fill="white"/>
</svg>
