<svg width="23" height="25" viewBox="0 0 23 25" fill="none" xmlns="http://www.w3.org/2000/svg">
<path d="M4.94908 12.584C4.94908 12.8231 4.84161 13.0525 4.65032 13.2216C4.45902 13.3907 4.19957 13.4857 3.92904 13.4857H1.88992C1.61938 13.4857 1.35993 13.3907 1.16864 13.2216C0.977344 13.0525 0.869875 12.8231 0.869875 12.584C0.869875 12.3448 0.977344 12.1154 1.16864 11.9463C1.35993 11.7772 1.61938 11.6822 1.88992 11.6822H3.92904C4.19957 11.6822 4.45902 11.7772 4.65032 11.9463C4.84161 12.1154 4.94908 12.3448 4.94908 12.584ZM4.94908 6.81452C4.94908 6.57537 4.84161 6.34601 4.65032 6.1769C4.45902 6.00779 4.19957 5.91279 3.92904 5.91279H1.88992C1.61938 5.91279 1.35993 6.00779 1.16864 6.1769C0.977344 6.34601 0.869875 6.57537 0.869875 6.81452C0.869875 7.05368 0.977344 7.28304 1.16864 7.45215C1.35993 7.62126 1.61938 7.71626 1.88992 7.71626H3.92904C4.19957 7.71626 4.45902 7.62126 4.65032 7.45215C4.84161 7.28304 4.94908 7.05368 4.94908 6.81452ZM4.94908 18.3534C4.94921 18.2349 4.92291 18.1176 4.8717 18.0082C4.82048 17.8987 4.74535 17.7993 4.6506 17.7155C4.55586 17.6318 4.44336 17.5653 4.31954 17.5201C4.19573 17.4748 4.06303 17.4515 3.92904 17.4516H1.88992C1.75585 17.4515 1.62307 17.4748 1.49919 17.5201C1.37532 17.5655 1.26277 17.632 1.16802 17.7158C1.07326 17.7997 0.99815 17.8992 0.946989 18.0088C0.895828 18.1183 0.869623 18.2357 0.869875 18.3542C0.869875 18.5934 0.977344 18.8227 1.16864 18.9919C1.35993 19.161 1.61938 19.256 1.88992 19.256H3.92904C4.19957 19.256 4.45902 19.161 4.65032 18.9919C4.84161 18.8227 4.94908 18.5934 4.94908 18.3542V18.3534ZM22.8989 3.74946V21.4193C22.8989 22.1844 22.5551 22.9181 21.9432 23.4591C21.3312 24.0001 20.5012 24.304 19.6358 24.304H5.3571C4.49165 24.304 3.66165 24.0001 3.04969 23.4591C2.43772 22.9181 2.09392 22.1844 2.09392 21.4193V19.9799H3.92904C4.40861 19.9702 4.86485 19.795 5.20015 19.4917C5.53545 19.1885 5.72318 18.7813 5.72318 18.3572C5.72318 17.9331 5.53545 17.5259 5.20015 17.2226C4.86485 16.9194 4.40861 16.7442 3.92904 16.7345H2.09392V14.2071H3.93C4.41683 14.2071 4.88372 14.0361 5.22796 13.7318C5.5722 13.4275 5.7656 13.0147 5.7656 12.5844C5.7656 12.154 5.5722 11.7413 5.22796 11.437C4.88372 11.1326 4.41683 10.9617 3.93 10.9617H2.09392V8.43765H3.93C4.41683 8.43765 4.88372 8.26669 5.22796 7.96237C5.5722 7.65806 5.7656 7.24532 5.7656 6.81495C5.7656 6.38458 5.5722 5.97184 5.22796 5.66752C4.88372 5.36321 4.41683 5.19224 3.93 5.19224H2.09392V3.75285C2.09342 3.37374 2.17745 2.99826 2.34122 2.64788C2.50498 2.29749 2.74527 1.97909 3.04833 1.71086C3.3514 1.44263 3.71129 1.22984 4.10745 1.08466C4.50361 0.939474 4.92825 0.864746 5.3571 0.864747H19.6339C20.0625 0.864524 20.4871 0.938975 20.8832 1.08385C21.2793 1.22872 21.6393 1.44117 21.9425 1.70906C22.2457 1.97695 22.4863 2.29504 22.6504 2.64514C22.8145 2.99524 22.8989 3.37049 22.8989 3.74946ZM9.96022 9.41644C9.96022 9.96655 10.1447 10.5043 10.4905 10.9617C10.8362 11.4191 11.3276 11.7756 11.9025 11.9861C12.4774 12.1967 13.11 12.2517 13.7204 12.1444C14.3307 12.0371 14.8913 11.7722 15.3313 11.3832C15.7714 10.9942 16.071 10.4986 16.1924 9.95907C16.3138 9.41953 16.2515 8.86028 16.0134 8.35204C15.7752 7.8438 15.372 7.4094 14.8545 7.10378C14.3371 6.79815 13.7288 6.63502 13.1065 6.63502C12.6934 6.63502 12.2842 6.70697 11.9025 6.84675C11.5208 6.98653 11.1739 7.1914 10.8818 7.44968C10.5896 7.70796 10.3578 8.01458 10.1997 8.35204C10.0416 8.6895 9.96022 9.05118 9.96022 9.41644ZM18.0056 16.2163C18.0054 15.3967 17.637 14.6108 16.9814 14.0313C16.3258 13.4517 15.4368 13.1261 14.5097 13.1258H11.713C10.7857 13.1258 9.8964 13.4514 9.24064 14.031C8.58487 14.6105 8.21634 15.3966 8.21609 16.2163V17.4525H18.0018L18.0056 16.2163Z" fill="#E7B742"/>
</svg>
