<svg width="49" height="38" viewBox="0 0 49 38" fill="none" xmlns="http://www.w3.org/2000/svg">
<path d="M41.7774 18.8193C41.5076 19.8618 40.833 20.5486 39.7905 20.8185C38.9197 21.0392 38.0979 20.892 37.3866 20.3156C36.6139 19.6901 35.9025 19.0032 35.1176 18.4023C32.4438 16.354 29.4021 15.1643 26.066 14.8577C20.8044 14.3794 16.1191 15.8511 12.1085 19.3467C11.4707 19.8986 10.9311 20.5732 10.0603 20.8062C8.90735 21.1128 7.66859 20.6713 6.99402 19.6655C6.34398 18.6966 6.35624 17.3352 7.11667 16.4521C8.23278 15.152 9.58192 14.1095 10.9924 13.1651C14.9908 10.5036 19.4062 9.20354 24.6065 9.16675C30.6776 9.26487 36.2705 11.5094 40.9311 16.0229C41.7161 16.7955 42.0595 17.7277 41.7774 18.8193Z" fill="#E7B742"/>
<path d="M48.3759 11.1416V12.1841C48.0325 12.7115 47.7872 13.337 47.3334 13.754C46.3399 14.6739 44.8804 14.6371 43.8379 13.7785C42.8076 12.92 41.8632 11.9756 40.7961 11.1661C36.8346 8.12439 32.3579 6.30917 27.3783 5.75725C20.8165 5.03362 14.7331 6.40729 9.22615 10.0377C7.69304 11.0434 6.33163 12.2945 4.93342 13.4842C3.81731 14.4408 2.63988 14.6861 1.4747 14.0606C-0.0461494 13.2389 -0.524483 11.1538 0.677483 9.91507C1.90398 8.65178 3.25312 7.46208 4.67586 6.40729C8.56385 3.48823 12.9302 1.53811 17.7135 0.642765C26.8264 -1.06206 35.2892 0.60597 42.9548 5.86763C44.5247 6.94695 45.9474 8.2593 47.3702 9.53486C47.8362 9.9396 48.057 10.6019 48.3759 11.1416Z" fill="#E7B742"/>
<path d="M34.639 26.5095C33.6578 27.601 31.9775 27.7237 30.8124 26.718C29.7208 25.7736 28.6047 24.8905 27.2065 24.449C23.8459 23.3696 20.8287 23.9706 18.1304 26.2396C17.7011 26.5953 17.2596 26.9878 16.7567 27.1963C15.5425 27.7114 14.1566 27.2208 13.4575 26.117C12.7461 25.0131 12.8933 23.5659 13.8745 22.6215C16.5114 20.0581 19.6513 18.6108 23.343 18.4023C23.6251 18.3901 23.9072 18.3655 24.0544 18.3533C28.1999 18.4023 31.6464 19.8128 34.5164 22.5969C35.6448 23.6885 35.6816 25.3688 34.639 26.5095Z" fill="#E7B742"/>
<path d="M28.9483 33.0347C28.9483 35.6594 26.8387 37.7689 24.214 37.7812C21.5893 37.7935 19.4798 35.6839 19.4675 33.0469C19.4552 30.41 21.6139 28.2391 24.2263 28.2759C26.8633 28.3004 28.9483 30.41 28.9483 33.0347Z" fill="#E7B742"/>
</svg>
