<svg width="42" height="33" viewBox="0 0 42 33" fill="none" xmlns="http://www.w3.org/2000/svg">
<path d="M36.2822 16.5368C36.0538 17.4195 35.4826 18.0011 34.5999 18.2295C33.8626 18.4165 33.1668 18.2918 32.5645 17.8038C31.9102 17.2741 31.3079 16.6926 30.6433 16.1837C28.3794 14.4495 25.804 13.4422 22.9793 13.1825C18.5243 12.7775 14.5573 14.0237 11.1615 16.9834C10.6215 17.4507 10.1645 18.0218 9.42722 18.2192C8.45105 18.4788 7.40219 18.1049 6.83103 17.2534C6.28063 16.433 6.29102 15.2803 6.93487 14.5326C7.87989 13.4318 9.02221 12.5491 10.2165 11.7494C13.6019 9.49595 17.3404 8.39517 21.7435 8.36401C26.884 8.44709 31.6195 10.3475 35.5657 14.1691C36.2303 14.8233 36.5211 15.6126 36.2822 16.5368Z" fill="#E7B742"/>
<path d="M41.869 10.0359V10.9186C41.5783 11.3651 41.3706 11.8948 40.9863 12.2478C40.1452 13.0267 38.9094 12.9955 38.0267 12.2686C37.1543 11.5417 36.3547 10.742 35.4512 10.0567C32.097 7.48123 28.3065 5.94429 24.0903 5.47697C18.5345 4.86427 13.3836 6.02736 8.72086 9.10125C7.42277 9.9528 6.27006 11.0121 5.0862 12.0194C4.14118 12.8294 3.14425 13.0371 2.15769 12.5075C0.869983 11.8117 0.464977 10.0463 1.48268 8.99741C2.52116 7.92778 3.66348 6.92045 4.86812 6.02736C8.16009 3.55579 11.8571 1.90461 15.9071 1.14653C23.623 -0.296957 30.7885 1.11537 37.279 5.57043C38.6082 6.48429 39.8129 7.59546 41.0175 8.67548C41.4121 9.01818 41.599 9.57895 41.869 10.0359Z" fill="#E7B742"/>
<path d="M30.2381 23.048C29.4073 23.9722 27.9846 24.076 26.9981 23.2245C26.0738 22.4249 25.1288 21.6772 23.945 21.3033C21.0995 20.3895 18.5449 20.8983 16.2602 22.8195C15.8968 23.1207 15.5229 23.453 15.0971 23.6295C14.0691 24.0657 12.8956 23.6503 12.3036 22.7156C11.7013 21.781 11.8259 20.5556 12.6567 19.756C14.8894 17.5856 17.5479 16.3602 20.6738 16.1836C20.9126 16.1732 21.1515 16.1525 21.2761 16.1421C24.7861 16.1836 27.7042 17.3779 30.1343 19.7352C31.0897 20.6595 31.1208 22.0822 30.2381 23.048Z" fill="#E7B742"/>
<path d="M25.4197 28.5726C25.4197 30.795 23.6335 32.5812 21.4112 32.5916C19.1888 32.6019 17.4026 30.8158 17.3923 28.583C17.3819 26.3503 19.2096 24.5122 21.4215 24.5434C23.6543 24.5641 25.4197 26.3503 25.4197 28.5726Z" fill="#E7B742"/>
</svg>
