<svg width="30" height="34" viewBox="0 0 30 34" fill="none" xmlns="http://www.w3.org/2000/svg">
<path d="M8.89131 14.5301C8.96891 14.7336 9.08176 14.9219 9.22469 15.0862C9.57223 15.5843 9.99453 16.0259 10.4767 16.3953C12.7199 18.0761 15.4526 17.682 17.8894 16.659C18.0771 16.5796 18.277 16.4556 18.4647 16.392C18.42 16.4016 18.4678 16.3823 18.4488 16.4396L18.4186 16.481L18.4059 16.4936L17.9738 16.821C16.7504 17.682 15.2827 18.4638 13.7479 18.7275C12.1084 19.0102 10.0303 18.9721 8.60051 18.0254C8.50819 17.965 8.41616 17.911 8.33681 17.8507C8.25329 17.7795 8.16227 17.7177 8.06531 17.6664C8.16457 17.8927 8.30817 18.0969 8.48767 18.2668L8.91636 18.6288C8.98303 18.6701 9.04335 18.6891 9.03701 18.7275C9.128 18.7743 9.22264 18.8136 9.32001 18.8451C10.0046 19.2206 10.7558 19.459 11.5315 19.5472C13.7684 19.8872 16.304 19.2518 18.2104 18.1238C18.3631 18.0317 19.1731 17.5104 19.2558 17.504C19.3608 17.4531 19.9835 16.8907 20.0789 16.805C20.3555 16.5573 20.5969 16.2999 20.8383 16.0426C21.2101 15.6488 21.5611 15.2359 21.89 14.8056C21.96 14.7166 22.157 14.4052 22.2219 14.353C22.1679 14.2577 22.4158 13.889 22.4632 13.797C22.9718 12.8149 23.3093 11.7533 23.461 10.6578C23.4926 10.3971 23.5023 10.1494 23.534 9.88237C23.5627 9.63467 23.5373 9.34533 23.5499 9.08496C23.5221 9.22741 23.5062 9.37192 23.5023 9.517C23.477 9.65368 23.4483 9.80302 23.4166 9.94905C23.0908 11.1996 22.4659 12.3522 21.5958 13.3076C21.2806 13.6827 20.9341 14.0303 20.56 14.3467C20.684 14.0893 21.2018 13.53 21.2624 13.2759C21.0499 13.4346 20.8473 13.6059 20.6554 13.7888C20.4521 13.9668 20.2424 14.1129 20.0218 14.2716C18.6445 15.2646 17.0905 15.9861 15.4431 16.3974C14.3023 16.6961 12.577 16.7944 11.4238 16.4737C10.4437 16.1782 9.59825 15.5483 9.03465 14.6937L8.933 14.5697C8.92357 14.5521 8.90913 14.5378 8.89161 14.5283L8.89131 14.5301Z" fill="white"/>
<path d="M12.0083 8.00407C11.9538 8.06192 11.9156 8.13308 11.8973 8.21042C11.6867 8.71979 11.5455 9.25519 11.4776 9.80222C11.3969 10.5149 11.4324 11.236 11.5827 11.9374C12.0497 14.0662 13.311 14.5683 13.397 14.7589C14.0545 15.0268 14.7587 15.1618 15.4686 15.156C17.0893 15.0955 18.6285 14.43 19.7829 13.2908C19.9961 13.0867 20.1937 12.8669 20.374 12.6331C20.4565 12.4566 20.5544 12.2876 20.6664 12.1281C20.7632 11.9667 20.8512 11.8002 20.9301 11.6294C21.3127 10.8455 21.5126 9.98508 21.5148 9.11283C21.5178 8.76221 21.474 8.41275 21.3844 8.07375C21.3717 8.02608 21.359 7.97841 21.343 7.9229C21.3382 7.89498 21.3285 7.86812 21.3144 7.84355C21.3043 7.82118 21.2902 7.80076 21.273 7.7832C21.3844 8.72694 21.3461 9.24466 20.9744 10.0074C20.658 10.647 20.2395 11.2308 19.7353 11.7358C18.8646 12.6572 17.9402 13.3436 16.5738 13.5343C14.2893 13.852 12.2717 12.4784 11.906 10.3824C11.7976 9.78726 11.7923 9.17791 11.8901 8.58092C11.9251 8.37757 11.9823 8.19957 12.0077 8.00256L12.0083 8.00407Z" fill="white"/>
<path d="M16.921 3.19038C14.3867 3.62242 11.9832 5.31287 10.9728 7.72772C10.3467 9.10562 10.2851 10.6739 10.8012 12.0967C11.2459 13.2432 12.2406 14.3782 13.3959 14.7626C13.3382 14.6341 12.7496 14.3649 12.2282 13.5558C12.2037 13.5183 12.1797 13.4796 12.1562 13.4396C12.1327 13.4004 12.1093 13.3605 12.0867 13.3189C12.074 13.2966 12.0623 13.2743 12.0503 13.2513C12.0269 13.2079 12.0041 13.1628 11.9818 13.1162C11.9703 13.0929 11.9591 13.0697 11.9479 13.0459C11.9262 12.9991 11.9048 12.9514 11.884 12.9023C11.8838 12.9012 11.8838 12.9 11.884 12.8989C11.8731 12.8739 11.8628 12.8482 11.8538 12.8223C11.8447 12.7964 11.8325 12.7704 11.8237 12.7439C11.815 12.7173 11.8035 12.6908 11.7935 12.6636C11.7734 12.6089 11.7541 12.553 11.7356 12.4959C11.726 12.4672 11.7168 12.4382 11.7078 12.4087C11.6987 12.3791 11.6897 12.3483 11.6813 12.3181C11.6463 12.1975 11.6142 12.0718 11.5851 11.941C11.4657 11.393 11.4182 10.8317 11.4441 10.2714C11.4441 10.2412 11.4468 10.2086 11.4489 10.1776C11.451 10.1465 11.4523 10.1196 11.4544 10.0907C11.4544 10.0747 11.4564 10.0605 11.4576 10.0433C11.4588 10.0261 11.4601 10.0116 11.4616 9.99562C11.4631 9.97963 11.4644 9.96546 11.4659 9.94826C11.4674 9.93106 11.4688 9.91658 11.4703 9.90059C11.4705 9.89908 11.4705 9.89758 11.4703 9.89607C11.4733 9.8659 11.4767 9.83572 11.4803 9.80555C11.5484 9.2586 11.6895 8.72324 11.8997 8.21375C11.9186 8.13695 11.9565 8.06618 12.0101 8.00801C12.0409 7.96557 12.0645 7.91838 12.08 7.86831C12.0452 8.18279 12.0421 8.49996 12.0708 8.81506C12.1214 8.68473 12.1627 8.46237 12.2104 8.31001C12.3534 7.83676 12.563 7.3863 12.8331 6.97224C15.0763 3.43264 21.2755 3.04827 23.1213 6.88958C23.4567 7.57393 23.6068 8.33427 23.5566 9.09474C23.5439 9.35542 23.5694 9.64445 23.541 9.89215C23.5093 10.1592 23.4996 10.405 23.4676 10.6675C23.3175 11.7634 22.98 12.8253 22.4699 13.8068C22.4222 13.8988 22.1745 14.2675 22.2285 14.3628L22.7433 13.5621C23.2544 12.7137 23.6671 11.8096 23.9731 10.8676C25.4934 6.29492 22.1064 2.30729 16.921 3.19038Z" fill="white"/>
<path d="M21.8872 7.60077C21.4202 6.03764 19.698 4.89991 17.5911 5.07792C13.7848 5.39893 12.432 9.15094 13.7242 10.5303C14.0255 10.8133 14.4038 11.0009 14.8114 11.0693C15.2191 11.1377 15.6379 11.0839 16.015 10.9147C16.0657 10.8924 16.1137 10.8704 16.1659 10.8447C16.1913 10.8348 16.215 10.8208 16.236 10.8034C16.29 10.762 16.2612 10.7874 16.2899 10.746C16.2042 10.692 16.0896 10.6634 15.985 10.6127C14.1485 9.72931 14.8031 7.3591 16.4013 6.4727C17.3082 5.95691 18.3788 5.8101 19.3911 6.06269C20.0449 6.21089 20.6177 6.60289 20.9925 7.15879C21.1229 7.37179 21.164 7.56879 21.2723 7.78783C21.2736 7.78991 21.2749 7.79193 21.2764 7.79387C21.2902 7.81083 21.3025 7.8289 21.3133 7.84788C21.3286 7.87184 21.3385 7.89896 21.342 7.92723C21.358 7.97822 21.3672 8.02558 21.3832 8.07657C21.4731 8.41552 21.5169 8.765 21.5136 9.11563C21.5128 9.98805 21.3129 10.8488 20.9289 11.6322C20.909 11.6738 20.8889 11.716 20.8687 11.758C20.8653 11.7649 20.8617 11.7715 20.8583 11.7785C20.8408 11.8144 20.8233 11.85 20.8049 11.8853C20.7942 11.9066 20.7835 11.9276 20.7726 11.9484C20.7726 11.9499 20.7711 11.9511 20.7705 11.9529C20.7606 11.971 20.7509 11.9891 20.7403 12.0069L20.7171 12.0473C20.708 12.0627 20.6984 12.0775 20.6894 12.0929C20.6803 12.1083 20.6731 12.1185 20.6649 12.1312C20.5515 12.2898 20.4537 12.4589 20.3726 12.6362L20.3747 12.6347C20.7126 12.4259 21.4609 11.0116 21.6494 10.5044C22.0445 9.58866 22.128 8.56857 21.8872 7.60077ZM18.4513 16.4036C18.4511 16.4019 18.4505 16.4002 18.4496 16.3988L18.4479 16.3964H18.4459C18.2649 16.4643 18.0712 16.5822 17.8905 16.6558C15.4533 17.6789 12.7237 18.0739 10.4775 16.3922C9.99614 16.022 9.57406 15.5805 9.22576 15.0831C9.20012 15.0453 9.16547 15.001 9.12927 14.953L9.11321 14.9322L9.08316 14.8912C9.07411 14.8785 9.06437 14.8655 9.05502 14.852C9.03571 14.8245 9.0164 14.7967 8.9986 14.7684C8.99498 14.762 8.99074 14.756 8.98681 14.7497C8.97987 14.7382 8.97298 14.7265 8.96604 14.7147L8.95426 14.693C8.94973 14.6848 8.94552 14.6764 8.94129 14.6682C8.93707 14.6601 8.93108 14.6471 8.92686 14.638L8.9192 14.6197C8.91618 14.6124 8.91351 14.6049 8.9108 14.5973C8.90808 14.5898 8.90599 14.5822 8.90387 14.5753C8.90176 14.5684 8.89964 14.5608 8.89783 14.5533C8.89602 14.5457 8.89478 14.5391 8.89327 14.5315C8.89327 14.5315 8.89327 14.5294 8.89327 14.5279C8.87094 14.4422 8.63271 14.0639 8.56151 13.9245C8.44385 13.6988 8.36443 13.5145 8.26275 13.2701C7.87679 12.2271 7.67361 11.1253 7.66229 10.0132C7.63996 9.37149 7.70369 8.78045 7.69735 8.15441C7.41767 8.65313 7.2113 9.87653 7.14432 10.5786C7.05798 11.4984 7.1105 12.426 7.30004 13.3301C7.46328 14.0916 7.74078 14.824 8.1231 15.5024C9.43219 17.8123 11.5676 18.6037 14.1918 18.1574C15.8789 17.8714 17.2074 17.1437 18.4496 16.4353C18.4527 16.4251 18.4532 16.4141 18.451 16.4036H18.4513ZM18.4474 16.3958H18.4493L18.4649 16.3898C18.4401 16.3928 18.4425 16.3897 18.4476 16.3958H18.4474Z" fill="white"/>
<path d="M18.216 18.1307C16.3129 19.2587 13.7773 19.8941 11.5371 19.5541C10.7614 19.4659 10.0103 19.2275 9.32575 18.852C9.22827 18.8211 9.13368 18.7818 9.04305 18.7344C7.74361 18.35 6.94286 16.6526 6.54249 15.4268C6.30747 14.7027 6.31677 14.4894 6.16109 13.9183C6.03407 14.582 6.27544 15.8437 6.43746 16.4284C6.63196 17.1053 6.949 17.7407 7.37277 18.3032C8.08148 19.282 9.32688 20.0254 10.9884 20.27C12.6269 20.503 14.298 20.2969 15.8308 19.6727C16.4669 19.3998 17.078 19.0723 17.6576 18.6939C17.9786 18.4809 19.1383 17.7025 19.262 17.5119C19.1763 17.5173 18.3693 18.0383 18.216 18.1307ZM16.3701 0.527983C16.1921 0.353296 14.6064 0.874341 14.3714 0.966361C13.7754 1.1984 13.1994 1.47893 12.6492 1.80511C11.8638 2.26765 11.1318 2.81533 10.4664 3.43823C10.2387 3.63662 10.0322 3.85804 9.85005 4.09896C9.88837 4.08629 11.1021 3.36823 11.4792 3.19385C12.6517 2.62527 13.8582 2.12973 15.0919 1.71007C15.5812 1.54172 16.0926 1.48438 16.3373 1.04902C16.4058 0.931359 16.5008 0.655008 16.3707 0.527688L16.3701 0.527983Z" fill="white"/>
<path d="M29.4721 27.071C29.4217 26.7211 29.2346 26.4055 28.9518 26.1934C28.6689 25.9813 28.3136 25.8902 27.9636 25.9399C27.9192 26.0733 27.9509 30.0672 27.9509 30.8713V31.2239C27.9509 31.4783 27.9698 31.4813 27.9095 31.564C27.7944 31.4546 27.694 31.3306 27.6109 31.1953C26.5785 29.8512 25.4854 28.3771 24.4557 27.0773C24.103 26.6326 23.7186 25.9812 22.9529 25.9366C22.1108 25.8859 21.6754 26.4703 21.6534 27.2743C21.6437 27.6557 21.6217 32.142 21.6787 32.5264C21.703 32.7003 21.7616 32.8676 21.8512 33.0185C21.9409 33.1694 22.0599 33.301 22.201 33.4054C22.3421 33.5099 22.5026 33.5851 22.6731 33.6268C22.8437 33.6685 23.0208 33.6757 23.1942 33.6481V29.4243C23.1942 29.1636 23.1338 28.1852 23.2228 28.0262C23.3085 28.0642 23.3278 28.1215 23.3848 28.1979L26.6734 32.4842C27.0134 32.9225 27.4295 33.5803 28.1539 33.6502C29.015 33.7329 29.4567 33.1419 29.4917 32.3412C29.5038 32.0247 29.5291 27.4333 29.4721 27.071ZM17.1342 29.5148C17.0463 28.4396 16.5354 27.4432 15.7137 26.7443C15.0231 26.2254 14.1973 25.917 13.3356 25.8561C12.4739 25.7953 11.613 25.9845 10.8563 26.4012C10.4241 26.6526 10.0444 26.9849 9.73782 27.3799C9.39189 27.8519 9.14635 28.3897 9.01627 28.9602C8.88618 29.5308 8.87434 30.1219 8.9815 30.6972C9.56319 34.3068 14.3323 34.5005 14.9076 32.0889C14.966 31.8096 14.9652 31.5212 14.9056 31.2421C14.8459 30.9631 14.7286 30.6996 14.5611 30.4685C14.4404 30.6145 14.3831 31.7523 13.3157 32.1279C12.9413 32.2527 12.5388 32.2666 12.1566 32.168C11.7744 32.0693 11.4289 31.8623 11.1616 31.5718C10.9071 31.2481 10.7291 30.8709 10.641 30.4686C10.553 30.0662 10.5571 29.6492 10.6533 29.2487C11.0186 27.4152 13.0298 26.9482 14.3169 27.7046C15.934 28.6546 15.4862 30.8345 15.5839 32.3023C15.5809 32.4937 15.6191 32.6836 15.6959 32.859C15.7727 33.0345 15.8863 33.1913 16.029 33.319C16.3546 33.5699 16.7637 33.6869 17.1728 33.6463C17.1722 32.7967 17.2105 30.1626 17.1342 29.5145V29.5148ZM8.28808 33.1877C8.11973 32.1318 7.24278 32.136 6.14005 32.136C5.73335 32.136 3.1374 32.1804 2.9944 32.1043C3.00073 31.99 3.47116 31.6596 3.57586 31.5736L6.77204 28.9935C7.21784 28.674 7.62513 28.3039 7.98579 27.8907C8.0838 27.7748 8.15732 27.6401 8.20175 27.495C8.24618 27.3498 8.26066 27.1971 8.24433 27.0462C8.22799 26.8953 8.18119 26.7493 8.10673 26.617C8.03227 26.4847 7.93176 26.3689 7.81121 26.2766C7.30254 25.9302 6.50205 25.9969 5.78369 25.9969C5.43432 25.9969 1.40233 25.9746 1.17032 26.0032C1.13622 26.2145 1.15925 26.4311 1.23691 26.6306C1.31456 26.83 1.44398 27.0051 1.61197 27.1377C1.971 27.392 2.46039 27.392 2.98143 27.392L6.143 27.395L6.1514 27.3965C6.16075 27.4005 6.17326 27.4047 6.18955 27.4104L6.23389 27.4358C6.17355 27.5754 4.65138 28.7575 4.50204 28.8752C3.90798 29.3422 3.3254 29.8156 2.73527 30.2986C2.24288 30.7023 1.37214 31.309 1.08944 31.8397C0.985482 32.0324 0.939498 32.251 0.957004 32.4692C0.974509 32.6874 1.0548 32.8959 1.18814 33.0695C1.69018 33.6955 3.03729 33.5335 3.90349 33.5335H7.88178C8.31382 33.5338 8.36109 33.6355 8.28808 33.1875V33.1877Z" fill="white"/>
<path d="M20.0197 26.747C19.8985 26.4607 19.685 26.2233 19.4132 26.0724C19.1414 25.9216 18.827 25.866 18.52 25.9146V26.4006C18.523 27.8527 18.52 29.3079 18.52 30.76C18.52 31.335 18.4532 32.3487 18.6246 32.8251C18.8439 33.4478 19.4793 33.7001 20.1147 33.6512V28.9898C20.115 28.4244 20.1787 27.1908 20.0197 26.747Z" fill="white"/>
<path d="M20.2325 24.1861C20.2068 24.0644 20.1569 23.9492 20.0859 23.8472C20.0149 23.7451 19.9241 23.6584 19.819 23.592C19.7138 23.5257 19.5963 23.4811 19.4737 23.4609C19.351 23.4406 19.2256 23.4452 19.1048 23.4743C17.8814 23.789 18.3423 25.5841 19.5338 25.2981C19.6527 25.271 19.7652 25.2208 19.8646 25.1502C19.9641 25.0797 20.0487 24.9902 20.1136 24.8869C20.1785 24.7836 20.2224 24.6686 20.2428 24.5483C20.2632 24.4281 20.2597 24.305 20.2325 24.1861Z" fill="white"/>
</svg>
