<svg width="18" height="22" viewBox="0 0 18 22" fill="none" xmlns="http://www.w3.org/2000/svg">
<path d="M6.13624 22C5.61383 22 5.16754 21.815 4.79738 21.445C4.4274 21.0749 4.2424 20.6286 4.2424 20.1062V16.2784H5.81383V17.5476H16.29V4.45238H5.81383V5.72157H4.2424V1.89383C4.2424 1.37142 4.4274 0.925135 4.79738 0.554976C5.16754 0.184992 5.61383 0 6.13624 0H15.9676C16.49 0 16.9363 0.184992 17.3065 0.554976C17.6765 0.925135 17.8615 1.37142 17.8615 1.89383V20.1062C17.8615 20.6286 17.6765 21.0749 17.3065 21.445C16.9363 21.815 16.49 22 15.9676 22H6.13624ZM5.81383 19.119V20.1062C5.81383 20.1868 5.84744 20.2607 5.91467 20.3277C5.98171 20.395 6.05557 20.4286 6.13624 20.4286H15.9676C16.0483 20.4286 16.1221 20.395 16.1892 20.3277C16.2564 20.2607 16.29 20.1868 16.29 20.1062V19.119H5.81383ZM2.04241 15.8754L0.938477 14.7714L7.06705 8.64286H2.93288V7.07143H9.7424V13.881H8.17098V9.74679L2.04241 15.8754ZM5.81383 2.88095H16.29V1.89383C16.29 1.81317 16.2564 1.73931 16.1892 1.67226C16.1221 1.60504 16.0483 1.57143 15.9676 1.57143H6.13624C6.05557 1.57143 5.98171 1.60504 5.91467 1.67226C5.84744 1.73931 5.81383 1.81317 5.81383 1.89383V2.88095Z" fill="url(#paint0_linear_27_1245)"/>
<defs>
<linearGradient id="paint0_linear_27_1245" x1="1.56226" y1="-6.21899e-07" x2="29.8299" y2="27.2869" gradientUnits="userSpaceOnUse">
<stop stop-color="#FCD759" stop-opacity="0.9686"/>
<stop offset="1" stop-color="#DBA434"/>
</linearGradient>
</defs>
</svg>
