<svg width="23" height="22" viewBox="0 0 23 22" fill="none" xmlns="http://www.w3.org/2000/svg">
<path d="M10.0856 16.2105H14.7172V13.8947H10.0856V16.2105ZM10.0856 11.5789H18.1909V9.26316H10.0856V11.5789ZM6.61194 6.94737H18.1909V4.63158H6.61194V6.94737ZM6.17773 22C4.65317 22 3.35537 21.4645 2.28431 20.3934C1.21326 19.3224 0.677734 18.0246 0.677734 16.5C0.677734 15.4 0.962384 14.4158 1.53168 13.5474C2.10098 12.6789 2.84879 12.0228 3.7751 11.5789H0.822471V9.26316H7.76984V16.2105H5.45405V13.4026C4.74002 13.557 4.15142 13.9237 3.68826 14.5026C3.2251 15.0816 2.99352 15.7474 2.99352 16.5C2.99352 17.3877 3.30712 18.1404 3.93431 18.7579C4.56151 19.3754 5.30931 19.6842 6.17773 19.6842V22ZM10.0856 20.8421V18.5263H20.5067V2.31579H4.29616V6.94737H1.98037V2.31579C1.98037 1.67895 2.20712 1.13377 2.66063 0.680263C3.11414 0.226754 3.65931 0 4.29616 0H20.5067C21.1435 0 21.6887 0.226754 22.1422 0.680263C22.5957 1.13377 22.8225 1.67895 22.8225 2.31579V18.5263C22.8225 19.1632 22.5957 19.7083 22.1422 20.1618C21.6887 20.6154 21.1435 20.8421 20.5067 20.8421H10.0856Z" fill="url(#paint0_linear_31_1938)"/>
<defs>
<linearGradient id="paint0_linear_31_1938" x1="1.494" y1="-6.21899e-07" x2="29.0246" y2="34.7755" gradientUnits="userSpaceOnUse">
<stop stop-color="#FCD759" stop-opacity="0.9686"/>
<stop offset="1" stop-color="#DBA434"/>
</linearGradient>
</defs>
</svg>
