<svg width="25" height="24" viewBox="0 0 25 24" fill="none" xmlns="http://www.w3.org/2000/svg">
<mask id="mask0_31_1905" style="mask-type:alpha" maskUnits="userSpaceOnUse" x="0" y="0" width="25" height="24">
<rect x="0.25" width="24" height="24" fill="#D9D9D9"/>
</mask>
<g mask="url(#mask0_31_1905)">
<path d="M15.3056 7.38889C15.0834 6.83333 14.7547 6.39815 14.3195 6.08333C13.8843 5.76852 13.3612 5.61111 12.7501 5.61111C12.4167 5.61111 12.0927 5.65741 11.7779 5.75C11.463 5.84259 11.176 6.01852 10.9167 6.27778L9.30564 4.66667C9.5649 4.40741 9.91675 4.1713 10.3612 3.95833C10.8056 3.74537 11.213 3.61111 11.5834 3.55556V1.22222H13.8056V3.5C14.639 3.66667 15.3705 4.00463 16.0001 4.51389C16.6297 5.02315 17.1019 5.68518 17.4167 6.5L15.3056 7.38889ZM21.3612 23L16.2501 17.8889C15.9723 18.1667 15.5927 18.3935 15.1112 18.5694C14.6297 18.7454 14.1945 18.8519 13.8056 18.8889V21.2222H11.5834V18.8333C10.5464 18.5741 9.68064 18.1019 8.98619 17.4167C8.29175 16.7315 7.78712 15.8704 7.4723 14.8333L9.69453 13.9444C9.91675 14.7222 10.2917 15.3889 10.8195 15.9444C11.3473 16.5 12.0464 16.7778 12.9167 16.7778C13.2501 16.7778 13.5556 16.7361 13.8334 16.6528C14.1112 16.5694 14.3797 16.4444 14.639 16.2778L0.916748 2.55556L2.4723 1L22.9167 21.4444L21.3612 23Z" fill="url(#paint0_linear_31_1905)"/>
</g>
<defs>
<linearGradient id="paint0_linear_31_1905" x1="1.72767" y1="0.999999" x2="29.2992" y2="35.5995" gradientUnits="userSpaceOnUse">
<stop stop-color="#FCD759" stop-opacity="0.9686"/>
<stop offset="1" stop-color="#DBA434"/>
</linearGradient>
</defs>
</svg>
