<svg width="25" height="24" viewBox="0 0 25 24" fill="none" xmlns="http://www.w3.org/2000/svg">
<mask id="mask0_8_2028" style="mask-type:alpha" maskUnits="userSpaceOnUse" x="0" y="0" width="25" height="24">
<rect x="0.333252" width="24" height="24" fill="#D9D9D9"/>
</mask>
<g mask="url(#mask0_8_2028)">
<path d="M6.387 17.7254V11.1141C6.387 10.88 6.46624 10.6836 6.62473 10.5251C6.78322 10.3668 6.97954 10.2877 7.21369 10.2877C7.44803 10.2877 7.64435 10.3668 7.80265 10.5251C7.96077 10.6836 8.03984 10.88 8.03984 11.1141V17.7254C8.03984 17.9596 7.96059 18.1559 7.8021 18.3144C7.64361 18.4727 7.44729 18.5519 7.21314 18.5519C6.97881 18.5519 6.78258 18.4727 6.62446 18.3144C6.46615 18.1559 6.387 17.9596 6.387 17.7254ZM12.4474 17.7254V11.1141C12.4474 10.88 12.5266 10.6836 12.6851 10.5251C12.8436 10.3668 13.0399 10.2877 13.2741 10.2877C13.5084 10.2877 13.7047 10.3668 13.8628 10.5251C14.0211 10.6836 14.1002 10.88 14.1002 11.1141V17.7254C14.1002 17.9596 14.021 18.1559 13.8625 18.3144C13.704 18.4727 13.5077 18.5519 13.2735 18.5519C13.0392 18.5519 12.843 18.4727 12.6849 18.3144C12.5265 18.1559 12.4474 17.9596 12.4474 17.7254ZM22.6611 8.08391H3.8083C3.61216 8.08391 3.4455 8.01541 3.30832 7.8784C3.17113 7.74159 3.10254 7.57529 3.10254 7.37952V6.94924C3.10254 6.80581 3.13844 6.68212 3.21025 6.57817C3.28224 6.47441 3.377 6.39003 3.49454 6.32502L12.3986 1.96842C12.6737 1.83564 12.965 1.76925 13.2724 1.76925C13.5799 1.76925 13.872 1.83564 14.149 1.96842L23.0085 6.29747C23.1469 6.36817 23.2543 6.46707 23.3305 6.59415C23.4069 6.72142 23.4451 6.85805 23.4451 7.00405V7.30267C23.4451 7.52819 23.3713 7.71477 23.2236 7.86243C23.076 8.01008 22.8885 8.08391 22.6611 8.08391ZM7.02692 6.43107H19.5207L13.4223 3.46451C13.3727 3.4432 13.3232 3.43255 13.2738 3.43255C13.2244 3.43255 13.1749 3.4432 13.1253 3.46451L7.02692 6.43107ZM3.92896 22.4085C3.69481 22.4085 3.49858 22.3292 3.34027 22.1707C3.18178 22.0123 3.10254 21.8159 3.10254 21.5818C3.10254 21.3475 3.18178 21.1512 3.34027 20.9931C3.49858 20.8348 3.69481 20.7556 3.92896 20.7556H15.0346C15.2688 20.7556 15.4651 20.8349 15.6236 20.9934C15.7819 21.1519 15.8611 21.3482 15.8611 21.5823C15.8611 21.8167 15.7819 22.0129 15.6236 22.171C15.4651 22.3293 15.2688 22.4085 15.0346 22.4085H3.92896ZM19.3339 14.5683C19.0996 14.5683 18.9033 14.489 18.745 14.3305C18.5869 14.1722 18.5078 13.976 18.5078 13.7418V11.1141C18.5078 10.88 18.587 10.6836 18.7455 10.5251C18.904 10.3668 19.1003 10.2877 19.3345 10.2877C19.5688 10.2877 19.7651 10.3668 19.9232 10.5251C20.0815 10.6836 20.1606 10.88 20.1606 11.1141V13.7418C20.1606 13.976 20.0814 14.1722 19.9229 14.3305C19.7644 14.489 19.5681 14.5683 19.3339 14.5683ZM18.0205 20.3003V18.3293C18.0205 18.1475 18.0674 17.9738 18.1612 17.8084C18.2553 17.6429 18.3927 17.5178 18.5736 17.4332L21.646 15.8969C21.7767 15.8192 21.9239 15.7803 22.0876 15.7803C22.251 15.7803 22.3991 15.8192 22.5319 15.8969L25.6042 17.4332C25.7851 17.5178 25.9226 17.6429 26.0166 17.8084C26.1105 17.9738 26.1574 18.1475 26.1574 18.3293V20.3003C26.1574 21.58 25.8258 22.6779 25.1627 23.5941C24.4993 24.5102 23.5971 25.2083 22.4559 25.6885C22.4217 25.7056 22.2994 25.7325 22.0889 25.7692C22.0452 25.7692 21.9216 25.7417 21.7182 25.6866C20.5795 25.2077 19.6786 24.5102 19.0152 23.5941C18.3521 22.6779 18.0205 21.58 18.0205 20.3003ZM21.2901 20.8617L20.6777 20.2493C20.5477 20.1193 20.3954 20.0553 20.221 20.0573C20.0465 20.0595 19.8908 20.1291 19.7538 20.2661C19.6168 20.4031 19.5483 20.5571 19.5483 20.7281C19.5483 20.8991 19.6168 21.0531 19.7538 21.1901L20.5928 22.0292C20.7921 22.2284 21.0245 22.328 21.2901 22.328C21.5556 22.328 21.788 22.2284 21.9873 22.0292L24.4134 19.6199C24.5434 19.4899 24.6102 19.3376 24.6136 19.1631C24.6173 18.9887 24.5506 18.8329 24.4134 18.6959C24.2764 18.5589 24.1225 18.4933 23.9517 18.499C23.7807 18.5047 23.6267 18.5703 23.4897 18.6959L21.2901 20.8617Z" fill="url(#paint0_linear_8_2028)"/>
</g>
<defs>
<linearGradient id="paint0_linear_8_2028" x1="3.95235" y1="1.76925" x2="34.2779" y2="38.3262" gradientUnits="userSpaceOnUse">
<stop stop-color="#FCD759" stop-opacity="0.9686"/>
<stop offset="1" stop-color="#DBA434"/>
</linearGradient>
</defs>
</svg>
