<svg width="48" height="49" viewBox="0 0 48 49" fill="none" xmlns="http://www.w3.org/2000/svg">
<rect y="0.359375" width="48" height="48" rx="24" fill="#003649"/>
<path d="M24.5346 24.0167C24.9161 23.5733 25.1983 23.0643 25.3811 22.4896C25.5639 21.9148 25.6553 21.3223 25.6553 20.712C25.6553 20.1016 25.5639 19.5091 25.3811 18.9344C25.1983 18.3596 24.9161 17.8506 24.5346 17.4073C25.3219 17.5043 25.9756 17.8675 26.4958 18.4969C27.0158 19.1264 27.2758 19.8647 27.2758 20.712C27.2758 21.5594 27.0158 22.2978 26.4958 22.9271C25.9756 23.5564 25.3219 23.9196 24.5346 24.0167ZM29.2415 31.3594V29.1119C29.2415 28.5897 29.1421 28.0929 28.9432 27.6215C28.7443 27.15 28.4621 26.7455 28.0966 26.4078C28.784 26.6522 29.4167 26.982 29.9948 27.3971C30.573 27.8122 30.862 28.3838 30.862 29.1119V31.3594H29.2415ZM30.862 25.0778V23.162H29.0689V21.7252H30.862V19.8094H32.2069V21.7252H34V23.162H32.2069V25.0778H30.862ZM20.7242 24.0646C19.8613 24.0646 19.1225 23.7363 18.5079 23.0799C17.8935 22.4232 17.5862 21.6339 17.5862 20.712C17.5862 19.79 17.8935 19.0008 18.5079 18.3443C19.1225 17.6877 19.8613 17.3594 20.7242 17.3594C21.5871 17.3594 22.3258 17.6877 22.9403 18.3443C23.5549 19.0008 23.8622 19.79 23.8622 20.712C23.8622 21.6339 23.5549 22.4232 22.9403 23.0799C22.3258 23.7363 21.5871 24.0646 20.7242 24.0646ZM14 31.3594V29.2298C14 28.7607 14.1192 28.3263 14.3577 27.9265C14.5962 27.5268 14.9149 27.2195 15.3137 27.0046C16.1999 26.5405 17.094 26.1924 17.9957 25.9602C18.8974 25.7281 19.8069 25.6121 20.7242 25.6121C21.6414 25.6121 22.5509 25.7281 23.4527 25.9602C24.3543 26.1924 25.2482 26.5405 26.1345 27.0046C26.5333 27.2195 26.852 27.5268 27.0904 27.9265C27.3291 28.3263 27.4484 28.7607 27.4484 29.2298V31.3594H14ZM20.7242 22.6278C21.2173 22.6278 21.6394 22.4402 21.9906 22.065C22.3417 21.6898 22.5173 21.2388 22.5173 20.712C22.5173 20.1851 22.3417 19.7341 21.9906 19.359C21.6394 18.9838 21.2173 18.7962 20.7242 18.7962C20.2311 18.7962 19.809 18.9838 19.4578 19.359C19.1067 19.7341 18.9311 20.1851 18.9311 20.712C18.9311 21.2388 19.1067 21.6898 19.4578 22.065C19.809 22.4402 20.2311 22.6278 20.7242 22.6278ZM15.3448 29.9225H26.1036V29.2298C26.1036 29.0358 26.051 28.8562 25.9458 28.6909C25.8406 28.5259 25.6977 28.3911 25.5172 28.2867C24.7448 27.8802 23.9573 27.5723 23.1545 27.3628C22.3517 27.1535 21.5416 27.0489 20.7242 27.0489C19.9067 27.0489 19.0966 27.1535 18.2938 27.3628C17.491 27.5723 16.7034 27.8802 15.931 28.2867C15.7505 28.3911 15.6077 28.5259 15.5026 28.6909C15.3974 28.8562 15.3448 29.0358 15.3448 29.2298V29.9225Z" fill="url(#paint0_linear_22_1639)"/>
<defs>
<linearGradient id="paint0_linear_22_1639" x1="14.7372" y1="17.3594" x2="30.0527" y2="44.8156" gradientUnits="userSpaceOnUse">
<stop stop-color="#FCD759" stop-opacity="0.9686"/>
<stop offset="1" stop-color="#DBA434"/>
</linearGradient>
</defs>
</svg>
