<svg width="26" height="28" viewBox="0 0 26 28" fill="none" xmlns="http://www.w3.org/2000/svg">
<path d="M7.38974 27.125C6.79911 27.125 6.39394 26.8553 6.17421 26.316C5.95449 25.7764 6.0522 25.2992 6.46734 24.8843L22.8229 8.47802C23.2378 8.06288 23.7151 7.96761 24.2546 8.19219C24.794 8.41653 25.0636 8.82401 25.0636 9.41463V25.3582C25.0636 25.8536 24.893 26.2719 24.5518 26.6131C24.2105 26.9544 23.7922 27.125 23.2969 27.125H7.38974ZM19.9595 24.9375H22.8761V11.5208L19.9595 14.4375V24.9375ZM9.82406 14.7346C9.30611 14.7346 8.85876 14.5463 8.48203 14.1695C8.10529 13.7928 7.91692 13.3456 7.91692 12.8279C7.91692 12.3099 8.10529 11.8626 8.48203 11.4858C8.85876 11.1091 9.30611 10.9207 9.82406 10.9207C10.342 10.9207 10.7894 11.1091 11.1661 11.4858C11.5428 11.8626 11.7312 12.3099 11.7312 12.8279C11.7312 13.3456 11.5428 13.7928 11.1661 14.1695C10.7894 14.5463 10.342 14.7346 9.82406 14.7346ZM9.85213 8.17797C9.19224 8.17797 8.52663 8.27847 7.85531 8.47948C7.18399 8.68049 6.55022 8.99415 5.95401 9.42047C5.71265 9.57748 5.45173 9.65599 5.17125 9.65599C4.891 9.65599 4.64515 9.55026 4.43369 9.3388C4.23196 9.13707 4.13717 8.89826 4.14932 8.6224C4.16147 8.34677 4.28057 8.12292 4.50661 7.95083C5.31453 7.36191 6.17458 6.91785 7.08677 6.61865C7.9992 6.31944 8.92099 6.16984 9.85213 6.16984C10.7833 6.16984 11.698 6.31483 12.5964 6.60479C13.4947 6.89451 14.3383 7.3291 15.1273 7.90854C15.3536 8.08062 15.4774 8.30691 15.4988 8.5874C15.5204 8.86788 15.4256 9.11373 15.2144 9.32495C15.003 9.53616 14.7571 9.64177 14.4769 9.64177C14.1964 9.64177 13.9355 9.56326 13.6941 9.40625C13.1071 8.98941 12.4827 8.68049 11.8209 8.47948C11.159 8.27847 10.5028 8.17797 9.85213 8.17797ZM9.85213 2.92797C8.51168 2.92797 7.18751 3.14854 5.87963 3.58969C4.57175 4.03108 3.35696 4.69109 2.23526 5.56974C2.00897 5.75665 1.75182 5.85618 1.4638 5.86833C1.17602 5.88049 0.926401 5.78096 0.714942 5.56974C0.503727 5.35852 0.412581 5.11498 0.441505 4.83911C0.470672 4.56349 0.598276 4.32748 0.824317 4.13109C2.14265 3.03175 3.57303 2.21424 5.11546 1.67854C6.6579 1.14285 8.23678 0.875 9.85213 0.875C11.4675 0.875 13.0478 1.14285 14.5932 1.67854C16.1383 2.21424 17.5728 3.03175 18.8967 4.13109C19.1228 4.32748 19.2504 4.56349 19.2795 4.83911C19.3085 5.11498 19.2173 5.35852 19.0061 5.56974C18.7946 5.78096 18.545 5.88049 18.2572 5.86833C17.9692 5.85618 17.7121 5.75665 17.4858 5.56974C16.3641 4.69109 15.1465 4.03108 13.833 3.58969C12.5195 3.14854 11.1926 2.92797 9.85213 2.92797Z" fill="url(#paint0_linear_17_712)"/>
<defs>
<linearGradient id="paint0_linear_17_712" x1="1.34405" y1="0.874999" x2="34.6487" y2="40.0856" gradientUnits="userSpaceOnUse">
<stop stop-color="#FCD759" stop-opacity="0.9686"/>
<stop offset="1" stop-color="#DBA434"/>
</linearGradient>
</defs>
</svg>
