<svg width="25" height="18" viewBox="0 0 25 18" fill="none" xmlns="http://www.w3.org/2000/svg">
<path d="M6.14436 11.1286H14.0547C14.3554 11.1286 14.581 11.0348 14.7314 10.8473C14.8818 10.6597 14.957 10.4533 14.957 10.2284C14.957 10.0034 14.8818 9.79634 14.7314 9.60726C14.581 9.41837 14.3554 9.32393 14.0547 9.32393H6.14436C5.88871 9.32393 5.67446 9.41045 5.50161 9.5835C5.32857 9.75654 5.24205 9.97089 5.24205 10.2265C5.24205 10.4824 5.32857 10.6967 5.50161 10.8693C5.67446 11.0421 5.88871 11.1286 6.14436 11.1286ZM6.14436 6.31621H10.9567C11.2124 6.31621 11.4266 6.22969 11.5995 6.05664C11.7725 5.8836 11.859 5.66925 11.859 5.41359C11.859 5.15774 11.7725 4.94349 11.5995 4.77084C11.4266 4.598 11.2124 4.51158 10.9567 4.51158H6.14436C5.88871 4.51158 5.67446 4.5981 5.50161 4.77115C5.32857 4.94419 5.24205 5.15854 5.24205 5.4142C5.24205 5.67005 5.32857 5.8843 5.50161 6.05695C5.67446 6.22979 5.88871 6.31621 6.14436 6.31621ZM2.90535 15.6401C2.30722 15.6401 1.7952 15.4272 1.36931 15.0013C0.943415 14.5754 0.730469 14.0634 0.730469 13.4653V2.17488C0.730469 1.57675 0.943415 1.06473 1.36931 0.638839C1.7952 0.212946 2.30722 0 2.90535 0H21.4143C22.0124 0 22.5244 0.212946 22.9503 0.638839C23.3762 1.06473 23.5891 1.57675 23.5891 2.17488V4.14133C23.5891 4.39699 23.5026 4.61134 23.3296 4.78438C23.1565 4.95722 22.9422 5.04365 22.6865 5.04365C22.4307 5.04365 22.2164 4.95722 22.0438 4.78438C21.8709 4.61134 21.7845 4.39699 21.7845 4.14133V2.17488C21.7845 2.0668 21.7498 1.97808 21.6804 1.9087C21.6111 1.83932 21.5223 1.80463 21.4143 1.80463H2.90535C2.79727 1.80463 2.70855 1.83932 2.63917 1.9087C2.56979 1.97808 2.5351 2.0668 2.5351 2.17488V13.4653C2.5351 13.5733 2.56979 13.6621 2.63917 13.7314C2.70855 13.8008 2.79727 13.8355 2.90535 13.8355H10.8295C11.0851 13.8355 11.2995 13.922 11.4725 14.0951C11.6454 14.2681 11.7318 14.4825 11.7318 14.7381C11.7318 14.994 11.6454 15.2082 11.4725 15.3809C11.2995 15.5537 11.0851 15.6401 10.8295 15.6401H2.90535ZM24.4635 7.97286C24.5561 8.0663 24.6024 8.16907 24.6024 8.28115C24.6024 8.39324 24.5556 8.49611 24.462 8.58975L23.4502 9.60154L21.9232 8.07452L22.9353 7.06303C23.0291 6.96919 23.1323 6.92227 23.2448 6.92227C23.357 6.92227 23.4595 6.96859 23.5521 7.06122L24.4635 7.97286ZM22.7515 10.3234L15.3432 17.7317C15.2533 17.8211 15.1522 17.8882 15.0397 17.9329C14.9272 17.9776 14.8109 18 14.6908 18H14.0108C13.8872 18 13.7793 17.9537 13.6868 17.861C13.5942 17.7686 13.5479 17.6607 13.5479 17.5374V16.8571C13.5479 16.7372 13.5703 16.621 13.6152 16.5085C13.66 16.396 13.727 16.2947 13.8165 16.2047L21.2245 8.79638L22.7515 10.3234Z" fill="url(#paint0_linear_8_2038)"/>
<defs>
<linearGradient id="paint0_linear_8_2038" x1="1.6104" y1="-5.08826e-07" x2="22.044" y2="34.0072" gradientUnits="userSpaceOnUse">
<stop stop-color="#FCD759" stop-opacity="0.9686"/>
<stop offset="1" stop-color="#DBA434"/>
</linearGradient>
</defs>
</svg>
