<svg width="24" height="18" viewBox="0 0 24 18" fill="none" xmlns="http://www.w3.org/2000/svg">
<path d="M23.4001 2.1693V15.8307C23.4001 16.4369 23.1901 16.95 22.7701 17.37C22.3501 17.79 21.837 18 21.2308 18H2.7694C2.1632 18 1.6501 17.79 1.2301 17.37C0.810098 16.95 0.600098 16.4369 0.600098 15.8307V2.1693C0.600098 1.5631 0.810098 1.05 1.2301 0.63C1.6501 0.21 2.1632 0 2.7694 0H21.2308C21.837 0 22.3501 0.21 22.7701 0.63C23.1901 1.05 23.4001 1.5631 23.4001 2.1693ZM2.4001 4.6848H21.6001V2.1693C21.6001 2.0769 21.5616 1.9923 21.4846 1.9155C21.4078 1.8385 21.3232 1.8 21.2308 1.8H2.7694C2.677 1.8 2.5924 1.8385 2.5156 1.9155C2.4386 1.9923 2.4001 2.0769 2.4001 2.1693V4.6848ZM2.4001 8.5152V15.8307C2.4001 15.9231 2.4386 16.0077 2.5156 16.0845C2.5924 16.1615 2.677 16.2 2.7694 16.2H21.2308C21.3232 16.2 21.4078 16.1615 21.4846 16.0845C21.5616 16.0077 21.6001 15.9231 21.6001 15.8307V8.5152H2.4001Z" fill="url(#paint0_linear_8_2047)"/>
<defs>
<linearGradient id="paint0_linear_8_2047" x1="1.44051" y1="-5.08826e-07" x2="22.3022" y2="33.1606" gradientUnits="userSpaceOnUse">
<stop stop-color="#FCD759" stop-opacity="0.9686"/>
<stop offset="1" stop-color="#DBA434"/>
</linearGradient>
</defs>
</svg>
