<svg width="48" height="49" viewBox="0 0 48 49" fill="none" xmlns="http://www.w3.org/2000/svg">
<rect y="0.359375" width="48" height="48" rx="24" fill="#003649"/>
<path d="M23.3164 31.4792L28.3338 24.2378C28.3804 24.1632 28.3851 24.0861 28.3476 24.0067C28.3102 23.9272 28.2448 23.8874 28.1515 23.8874H24.0652L26.6173 15.0252C26.6547 14.9131 26.636 14.808 26.5612 14.7098C26.4863 14.6116 26.3929 14.5625 26.2808 14.5625H19.6705C19.5398 14.5625 19.4322 14.6045 19.3479 14.6886C19.2638 14.7727 19.2217 14.8803 19.2217 15.0113V25.7804C19.2217 25.9114 19.2638 26.0189 19.3479 26.103C19.4322 26.1871 19.5398 26.2292 19.6705 26.2292H23.3164V31.4792ZM30.5938 24.7905L22.9379 35.899C22.8013 36.099 22.6317 36.2308 22.429 36.2942C22.226 36.3579 22.0245 36.3579 21.8245 36.2942C21.6245 36.2308 21.4585 36.1148 21.3265 35.9464C21.1947 35.7782 21.1289 35.5745 21.1289 35.3354V28.4167H19.6705C18.9433 28.4167 18.3222 28.1591 17.8072 27.6441C17.2919 27.1288 17.0342 26.5076 17.0342 25.7804V15.0113C17.0342 14.2841 17.2919 13.6628 17.8072 13.1476C18.3222 12.6325 18.9433 12.375 19.6705 12.375H26.7292C27.4511 12.375 28.0372 12.6484 28.4876 13.1953C28.9383 13.7422 29.0711 14.3475 28.8861 15.0113L26.9622 21.6999H28.9532C29.7441 21.6999 30.3289 22.0491 30.7076 22.7474C31.0863 23.4457 31.0483 24.1267 30.5938 24.7905Z" fill="url(#paint0_linear_17_7243)"/>
<defs>
<linearGradient id="paint0_linear_17_7243" x1="17.5478" y1="12.375" x2="46.8898" y2="33.7785" gradientUnits="userSpaceOnUse">
<stop stop-color="#FCD759" stop-opacity="0.9686"/>
<stop offset="1" stop-color="#DBA434"/>
</linearGradient>
</defs>
</svg>
