<svg width="15" height="24" viewBox="0 0 15 24" fill="none" xmlns="http://www.w3.org/2000/svg">
<path d="M6.56632 19.1207L11.5837 11.8793C11.6304 11.8047 11.635 11.7277 11.5976 11.6482C11.5601 11.5687 11.4948 11.529 11.4014 11.529H7.31517L9.86725 2.66667C9.90468 2.55462 9.88597 2.4495 9.81111 2.3513C9.73625 2.25311 9.64279 2.20401 9.53074 2.20401H2.92048C2.78972 2.20401 2.68217 2.24606 2.59783 2.33016C2.51373 2.41425 2.47168 2.52181 2.47168 2.65281V13.4219C2.47168 13.5529 2.51373 13.6604 2.59783 13.7445C2.68217 13.8286 2.78972 13.8707 2.92048 13.8707H6.56632V19.1207ZM13.8438 12.432L6.18788 23.5405C6.05128 23.7406 5.88163 23.8723 5.67892 23.9357C5.47597 23.9994 5.27447 23.9994 5.07444 23.9357C4.8744 23.8723 4.7084 23.7564 4.57642 23.5879C4.44468 23.4197 4.37882 23.216 4.37882 22.9769V16.0582H2.92048C2.19326 16.0582 1.57213 15.8007 1.0571 15.2856C0.541819 14.7703 0.28418 14.1491 0.28418 13.4219V2.65281C0.28418 1.92559 0.541819 1.30434 1.0571 0.789062C1.57213 0.274027 2.19326 0.01651 2.92048 0.01651H9.97918C10.7011 0.01651 11.2872 0.289947 11.7376 0.836822C12.1882 1.3837 12.321 1.98903 12.1361 2.65281L10.2121 9.34146H12.2031C12.994 9.34146 13.5788 9.69061 13.9575 10.3889C14.3362 11.0872 14.2983 11.7682 13.8438 12.432Z" fill="url(#paint0_linear_17_708)"/>
<defs>
<linearGradient id="paint0_linear_17_708" x1="0.797699" y1="0.0165093" x2="30.1397" y2="21.42" gradientUnits="userSpaceOnUse">
<stop stop-color="#FCD759" stop-opacity="0.9686"/>
<stop offset="1" stop-color="#DBA434"/>
</linearGradient>
</defs>
</svg>
