<svg width="48" height="49" viewBox="0 0 48 49" fill="none" xmlns="http://www.w3.org/2000/svg">
<rect y="0.359375" width="48" height="48" rx="24" fill="#5A00CF"/>
<path d="M18.7816 22.0204C18.8454 22.1879 18.9383 22.3427 19.0559 22.478C19.342 22.888 19.6895 23.2514 20.0864 23.5554C21.9325 24.9386 24.1814 24.6144 26.1869 23.7724C26.3413 23.7071 26.5059 23.605 26.6603 23.5526C26.6236 23.5606 26.6629 23.5447 26.6472 23.5919L26.6224 23.6259L26.612 23.6363L26.2564 23.9057C25.2495 24.6143 24.0416 25.2577 22.7785 25.4747C21.4292 25.7074 19.7189 25.6761 18.5422 24.8969C18.4663 24.8473 18.3905 24.8028 18.3252 24.7532C18.2565 24.6946 18.1816 24.6437 18.1018 24.6014C18.1835 24.7877 18.3016 24.9557 18.4494 25.0956L18.8022 25.3935C18.8571 25.4275 18.9067 25.4432 18.9015 25.4747C18.9764 25.5133 19.0542 25.5456 19.1344 25.5716C19.6978 25.8805 20.316 26.0768 20.9544 26.1493C22.7953 26.4292 24.8821 25.9063 26.4511 24.9779C26.5767 24.9021 27.2434 24.4731 27.3114 24.4679C27.3978 24.4259 27.9103 23.9631 27.9888 23.8925C28.2165 23.6887 28.4151 23.4769 28.6138 23.2651C28.9198 22.941 29.2086 22.6012 29.4793 22.2471C29.5369 22.1738 29.6991 21.9176 29.7524 21.8746C29.708 21.7962 29.9121 21.4927 29.951 21.417C30.3697 20.6088 30.6474 19.7351 30.7722 18.8334C30.7983 18.6189 30.8063 18.4151 30.8323 18.1953C30.8559 17.9915 30.835 17.7533 30.8454 17.5391C30.8225 17.6563 30.8095 17.7752 30.8063 17.8946C30.7854 18.0071 30.7618 18.13 30.7357 18.2502C30.4676 19.2794 29.9533 20.2279 29.2372 21.0143C28.9778 21.323 28.6926 21.609 28.3847 21.8694C28.4868 21.6576 28.9129 21.1973 28.9628 20.9882C28.788 21.1187 28.6212 21.2597 28.4633 21.4103C28.2959 21.5568 28.1234 21.677 27.9418 21.8076C26.8083 22.6248 25.5294 23.2186 24.1736 23.5571C23.2348 23.8029 21.8148 23.8839 20.8658 23.6199C20.0592 23.3767 19.3634 22.8583 18.8995 22.155L18.8159 22.0529C18.8081 22.0385 18.7962 22.0266 18.7818 22.0189L18.7816 22.0204Z" fill="white"/>
<path d="M21.3467 16.6495C21.3019 16.6972 21.2705 16.7557 21.2555 16.8194C21.0821 17.2386 20.9659 17.6792 20.91 18.1294C20.8436 18.716 20.8728 19.3094 20.9965 19.8866C21.3809 21.6386 22.4189 22.0518 22.4897 22.2087C23.0308 22.4292 23.6103 22.5402 24.1945 22.5355C25.5284 22.4857 26.7951 21.938 27.7452 21.0005C27.9207 20.8325 28.0832 20.6516 28.2316 20.4592C28.2995 20.3139 28.3801 20.1748 28.4723 20.0435C28.5519 19.9107 28.6244 19.7737 28.6893 19.6331C29.0041 18.988 29.1687 18.2799 29.1705 17.562C29.173 17.2735 29.1369 16.9859 29.0632 16.7069C29.0528 16.6677 29.0423 16.6284 29.0291 16.5827C29.0251 16.5598 29.0172 16.5377 29.0056 16.5174C28.9972 16.499 28.9857 16.4822 28.9715 16.4678C29.0631 17.2445 29.0317 17.6705 28.7258 18.2982C28.4654 18.8247 28.121 19.3051 27.706 19.7207C26.9894 20.4791 26.2286 21.0439 25.1041 21.2009C23.224 21.4623 21.5635 20.3318 21.2626 18.6069C21.1734 18.1171 21.169 17.6156 21.2495 17.1243C21.2783 16.9569 21.3254 16.8104 21.3463 16.6483L21.3467 16.6495Z" fill="white"/>
<path d="M25.3899 12.6885C23.3042 13.0441 21.3262 14.4353 20.4946 16.4227C19.9794 17.5567 19.9287 18.8474 20.3534 20.0183C20.7194 20.9619 21.538 21.896 22.4888 22.2123C22.4414 22.1065 21.9569 21.8851 21.5278 21.2191C21.5076 21.1883 21.4879 21.1565 21.4685 21.1235C21.4492 21.0912 21.4299 21.0585 21.4113 21.0242C21.4009 21.0058 21.3913 20.9874 21.3814 20.9686C21.3622 20.9328 21.3434 20.8957 21.325 20.8573C21.3156 20.8382 21.3063 20.8191 21.2971 20.7995C21.2792 20.761 21.2616 20.7218 21.2445 20.6813C21.2444 20.6804 21.2444 20.6795 21.2445 20.6786C21.2356 20.658 21.2271 20.6368 21.2196 20.6155C21.2122 20.5941 21.2021 20.5728 21.1949 20.5509C21.1877 20.5291 21.1782 20.5072 21.1701 20.4849C21.1535 20.4399 21.1376 20.3938 21.1224 20.3468C21.1145 20.3232 21.1069 20.2994 21.0995 20.2751C21.092 20.2507 21.0846 20.2254 21.0777 20.2006C21.0489 20.1013 21.0225 19.9978 20.9985 19.8902C20.9003 19.4392 20.8612 18.9772 20.8825 18.5161C20.8825 18.4913 20.8847 18.4645 20.8865 18.4389C20.8882 18.4133 20.8892 18.3912 20.891 18.3674C20.891 18.3542 20.8926 18.3426 20.8936 18.3284C20.8946 18.3143 20.8957 18.3023 20.8969 18.2892C20.8981 18.276 20.8992 18.2643 20.9004 18.2502C20.9017 18.236 20.9028 18.2241 20.9041 18.211C20.9042 18.2097 20.9042 18.2085 20.9041 18.2072C20.9065 18.1824 20.9093 18.1576 20.9123 18.1327C20.9683 17.6826 21.0844 17.242 21.2575 16.8227C21.273 16.7595 21.3042 16.7013 21.3483 16.6534C21.3736 16.6185 21.3931 16.5796 21.4059 16.5384C21.3772 16.7972 21.3747 17.0583 21.3982 17.3176C21.4399 17.2103 21.4739 17.0273 21.5132 16.9019C21.6308 16.5125 21.8034 16.1417 22.0256 15.801C23.8717 12.8879 28.9736 12.5716 30.4927 15.7329C30.7687 16.2961 30.8922 16.9219 30.8509 17.5478C30.8405 17.7623 30.8614 18.0002 30.8381 18.204C30.812 18.4238 30.804 18.6261 30.7777 18.8421C30.6541 19.744 30.3764 20.618 29.9565 21.4257C29.9173 21.5014 29.7135 21.8048 29.758 21.8833L30.1816 21.2243C30.6022 20.5261 30.9418 19.7821 31.1937 19.0068C32.4449 15.2435 29.6574 11.9618 25.3899 12.6885Z" fill="white"/>
<path d="M29.477 16.3179C29.0927 15.0315 27.6753 14.0952 25.9414 14.2417C22.8089 14.5059 21.6955 17.5937 22.759 18.7289C23.007 18.9618 23.3182 19.1162 23.6537 19.1725C23.9892 19.2288 24.3339 19.1845 24.6443 19.0453C24.686 19.0269 24.7255 19.0088 24.7684 18.9877C24.7893 18.9795 24.8089 18.968 24.8261 18.9536C24.8706 18.9196 24.8469 18.9405 24.8705 18.9065C24.8 18.862 24.7057 18.8384 24.6195 18.7967C23.1081 18.0697 23.6469 16.119 24.9622 15.3895C25.7086 14.9651 26.5896 14.8442 27.4227 15.0521C27.9609 15.1741 28.4323 15.4967 28.7407 15.9542C28.848 16.1295 28.8818 16.2916 28.971 16.4719C28.972 16.4736 28.9731 16.4753 28.9744 16.4769C28.9857 16.4908 28.9958 16.5057 29.0047 16.5213C29.0173 16.541 29.0254 16.5633 29.0283 16.5866C29.0415 16.6286 29.0491 16.6676 29.0623 16.7095C29.1362 16.9885 29.1723 17.2761 29.1696 17.5647C29.1689 18.2826 29.0043 18.991 28.6884 19.6357C28.672 19.67 28.6554 19.7047 28.6388 19.7393C28.636 19.745 28.633 19.7504 28.6303 19.7561C28.6159 19.7857 28.6014 19.815 28.5863 19.844C28.5775 19.8616 28.5687 19.8789 28.5597 19.8959C28.5597 19.8972 28.5585 19.8982 28.558 19.8997C28.5498 19.9146 28.5419 19.9295 28.5332 19.9441L28.514 19.9774C28.5066 19.99 28.4987 20.0022 28.4912 20.0149C28.4838 20.0275 28.4778 20.036 28.4711 20.0464C28.3778 20.1769 28.2973 20.3161 28.2306 20.4621L28.2323 20.4608C28.5103 20.289 29.1262 19.125 29.2813 18.7076C29.6065 17.9539 29.6752 17.1144 29.477 16.3179ZM26.6493 23.5626C26.6492 23.5611 26.6487 23.5598 26.6479 23.5586L26.6466 23.5566H26.6449C26.4959 23.6125 26.3365 23.7096 26.1878 23.7701C24.182 24.6121 21.9356 24.9372 20.087 23.5531C19.6908 23.2485 19.3435 22.8852 19.0568 22.4758C19.0357 22.4447 19.0072 22.4082 18.9774 22.3688L18.9642 22.3516L18.9395 22.3178C18.932 22.3074 18.924 22.2967 18.9163 22.2856C18.9004 22.263 18.8845 22.2401 18.8699 22.2168C18.8669 22.2116 18.8634 22.2066 18.8602 22.2014C18.8545 22.192 18.8488 22.1823 18.8431 22.1726L18.8334 22.1547C18.8296 22.148 18.8262 22.1411 18.8227 22.1343C18.8192 22.1276 18.8143 22.117 18.8108 22.1095L18.8045 22.0944C18.802 22.0884 18.7998 22.0822 18.7976 22.076C18.7954 22.0698 18.7936 22.0636 18.7919 22.0579C18.7902 22.0522 18.7884 22.046 18.7869 22.0398C18.7854 22.0335 18.7844 22.0281 18.7832 22.0219C18.7832 22.0219 18.7832 22.0201 18.7832 22.0189C18.7648 21.9484 18.5687 21.637 18.5101 21.5223C18.4133 21.3366 18.3479 21.1849 18.2643 20.9837C17.9466 20.1253 17.7794 19.2186 17.7701 18.3034C17.7517 17.7752 17.8042 17.2888 17.799 16.7736C17.5688 17.184 17.3989 18.1909 17.3438 18.7687C17.2728 19.5256 17.316 20.289 17.472 21.0331C17.6063 21.6598 17.8347 22.2625 18.1493 22.8209C19.2267 24.7219 20.9841 25.3732 23.1438 25.0059C24.5323 24.7705 25.6256 24.1717 26.6479 23.5887C26.6505 23.5802 26.6509 23.5712 26.6491 23.5626H26.6493ZM26.6461 23.5561H26.6476L26.6605 23.5512C26.6401 23.5536 26.6421 23.5511 26.6463 23.5561H26.6461Z" fill="white"/>
<path d="M26.4557 24.9838C24.8894 25.9122 22.8027 26.4351 20.959 26.1553C20.3206 26.0827 19.7025 25.8865 19.1391 25.5775C19.0589 25.552 18.981 25.5197 18.9065 25.4807C17.837 25.1643 17.178 23.7674 16.8485 22.7586C16.6551 22.1626 16.6628 21.9871 16.5346 21.5171C16.4301 22.0633 16.6287 23.1017 16.7621 23.5829C16.9222 24.14 17.1831 24.6629 17.5318 25.1258C18.1151 25.9313 19.14 26.5431 20.5074 26.7445C21.8559 26.9362 23.2312 26.7666 24.4927 26.2529C25.0162 26.0283 25.5191 25.7588 25.9961 25.4474C26.2603 25.2721 27.2147 24.6315 27.3165 24.4746C27.246 24.479 26.5818 24.9078 26.4557 24.9838ZM24.9366 10.497C24.7901 10.3533 23.485 10.7821 23.2916 10.8578C22.8011 11.0488 22.3271 11.2796 21.8743 11.5481C21.2279 11.9288 20.6255 12.3795 20.0779 12.8921C19.8905 13.0554 19.7205 13.2376 19.5706 13.4359C19.6021 13.4255 20.601 12.8345 20.9114 12.691C21.8763 12.2231 22.8693 11.8153 23.8846 11.4699C24.2873 11.3313 24.7082 11.2841 24.9095 10.9258C24.9659 10.829 25.0441 10.6016 24.9371 10.4968L24.9366 10.497Z" fill="white"/>
<path d="M35.7206 32.803C35.6792 32.515 35.5251 32.2552 35.2924 32.0807C35.0596 31.9062 34.7671 31.8312 34.4791 31.8721C34.4426 31.9818 34.4687 35.2688 34.4687 35.9305V36.2208C34.4687 36.4301 34.4843 36.4326 34.4346 36.5006C34.3398 36.4106 34.2573 36.3086 34.1889 36.1972C33.3392 35.091 32.4396 33.8778 31.5921 32.8082C31.3019 32.4422 30.9856 31.9061 30.3554 31.8693C29.6624 31.8276 29.304 32.3086 29.2859 32.9703C29.278 33.2841 29.2598 36.9763 29.3068 37.2927C29.3267 37.4358 29.3749 37.5735 29.4487 37.6977C29.5225 37.8219 29.6204 37.9302 29.7366 38.0161C29.8527 38.1021 29.9848 38.164 30.1251 38.1983C30.2655 38.2326 30.4113 38.2386 30.554 38.2159V34.7397C30.554 34.5251 30.5042 33.7199 30.5775 33.589C30.648 33.6203 30.6639 33.6675 30.7109 33.7303L33.4173 37.2579C33.6971 37.6187 34.0396 38.16 34.6358 38.2176C35.3444 38.2856 35.7079 37.7992 35.7367 37.1402C35.7467 36.8798 35.7675 33.1012 35.7206 32.803ZM25.5666 34.8142C25.4943 33.9293 25.0739 33.1093 24.3977 32.534C23.8293 32.107 23.1496 31.8532 22.4405 31.8031C21.7313 31.753 21.0228 31.9088 20.4 32.2517C20.0444 32.4587 19.7318 32.7321 19.4796 33.0572C19.1949 33.4456 18.9928 33.8882 18.8857 34.3578C18.7787 34.8273 18.7689 35.3138 18.8571 35.7872C19.3358 38.7579 23.2607 38.9173 23.7342 36.9327C23.7822 36.7028 23.7816 36.4654 23.7325 36.2357C23.6834 36.0061 23.5869 35.7892 23.4491 35.599C23.3498 35.7192 23.3026 36.6556 22.4241 36.9647C22.1159 37.0674 21.7847 37.0789 21.4702 36.9977C21.1557 36.9165 20.8713 36.7461 20.6513 36.5071C20.4418 36.2406 20.2953 35.9302 20.2229 35.5991C20.1504 35.268 20.1538 34.9247 20.2329 34.5952C20.5336 33.0862 22.1888 32.7019 23.2481 33.3244C24.5789 34.1063 24.2104 35.9002 24.2908 37.1082C24.2883 37.2658 24.3198 37.4221 24.383 37.5664C24.4462 37.7108 24.5396 37.8399 24.6571 37.945C24.9251 38.1514 25.2618 38.2478 25.5984 38.2144C25.5979 37.5152 25.6295 35.3473 25.5666 34.8139V34.8142ZM18.2864 37.837C18.1479 36.9679 17.4262 36.9714 16.5186 36.9714C16.1839 36.9714 14.0475 37.0079 13.9298 36.9453C13.935 36.8512 14.3222 36.5793 14.4083 36.5086L17.0388 34.3851C17.4056 34.1222 17.7408 33.8176 18.0376 33.4776C18.1183 33.3822 18.1788 33.2713 18.2154 33.1519C18.252 33.0324 18.2639 32.9068 18.2504 32.7826C18.237 32.6583 18.1985 32.5382 18.1372 32.4293C18.0759 32.3204 17.9932 32.2251 17.894 32.1492C17.4753 31.8641 16.8166 31.919 16.2254 31.919C15.9378 31.919 12.6195 31.9006 12.4286 31.9242C12.4005 32.0981 12.4195 32.2763 12.4834 32.4405C12.5473 32.6046 12.6538 32.7487 12.7921 32.8578C13.0876 33.0671 13.4903 33.0671 13.9191 33.0671L16.5211 33.0696L16.528 33.0709C16.5357 33.0741 16.546 33.0776 16.5594 33.0823L16.5959 33.1031C16.5462 33.2181 15.2935 34.1909 15.1706 34.2878C14.6817 34.6721 14.2022 35.0617 13.7165 35.4593C13.3113 35.7915 12.5947 36.2908 12.362 36.7275C12.2765 36.8861 12.2386 37.066 12.2531 37.2456C12.2675 37.4252 12.3335 37.5968 12.4433 37.7396C12.8564 38.2549 13.9651 38.1215 14.678 38.1215H17.9521C18.3076 38.1218 18.3465 38.2054 18.2864 37.8367V37.837Z" fill="white"/>
<path d="M27.9414 32.5361C27.8416 32.3005 27.6659 32.1051 27.4422 31.9809C27.2185 31.8568 26.9598 31.811 26.7071 31.851V32.251C26.7096 33.4461 26.7071 34.6436 26.7071 35.8387C26.7071 36.312 26.6522 37.1462 26.7932 37.5383C26.9737 38.0508 27.4966 38.2584 28.0196 38.2181V34.3819C28.0198 33.9166 28.0722 32.9013 27.9414 32.5361Z" fill="white"/>
<path d="M28.1165 30.4283C28.0953 30.3282 28.0543 30.2334 27.9958 30.1494C27.9374 30.0654 27.8627 29.994 27.7761 29.9394C27.6896 29.8848 27.5929 29.8481 27.492 29.8315C27.391 29.8148 27.2879 29.8186 27.1884 29.8426C26.1815 30.1015 26.5609 31.5789 27.5414 31.3435C27.6393 31.3212 27.7319 31.2799 27.8137 31.2218C27.8956 31.1637 27.9652 31.0901 28.0186 31.0051C28.072 30.9201 28.1082 30.8254 28.125 30.7264C28.1417 30.6275 28.1388 30.5262 28.1165 30.4283Z" fill="white"/>
</svg>
