<svg width="24" height="22" viewBox="0 0 24 22" fill="none" xmlns="http://www.w3.org/2000/svg">
<path d="M11.0039 22C9.48224 22 8.05224 21.7113 6.71391 21.1339C5.37557 20.5565 4.21141 19.7729 3.22141 18.7831C2.23141 17.7933 1.4477 16.6293 0.870301 15.2912C0.292704 13.953 0.00390625 12.5233 0.00390625 11.002C0.00390625 9.48055 0.292704 8.05046 0.870301 6.71174C1.4477 5.37302 2.23141 4.20856 3.22141 3.21837C4.21141 2.22818 5.37557 1.44418 6.71391 0.866395C8.05224 0.288798 9.48224 0 11.0039 0C13.7072 0 16.0642 0.850956 18.0749 2.55287C20.0856 4.25478 21.3269 6.38463 21.799 8.94242C21.5022 8.80888 21.1995 8.70775 20.8909 8.63905C20.5823 8.57035 20.263 8.52973 19.933 8.51718C19.5515 7.13813 18.8887 5.91163 17.9446 4.83768C17.0005 3.76354 15.8449 2.95408 14.4776 2.40929V2.89474C14.4776 3.53158 14.2508 4.07675 13.7973 4.53026C13.3438 4.98377 12.7986 5.21053 12.1618 5.21053H9.84601V7.52632C9.84601 7.85439 9.73505 8.12939 9.51312 8.35132C9.29119 8.57325 9.01619 8.68421 8.68812 8.68421H6.37233V11H13.3197C13.5183 11 13.7034 11.0475 13.8752 11.1424C14.0468 11.2376 14.1845 11.3704 14.2883 11.541C13.9818 12.0437 13.7475 12.5744 13.5854 13.1328C13.4231 13.6911 13.342 14.268 13.342 14.8633C13.342 15.9975 13.6351 17.0596 14.2214 18.0498C14.8079 19.0398 15.4032 19.9587 16.0075 20.8065C15.2458 21.1925 14.4475 21.4878 13.6126 21.6926C12.7776 21.8975 11.908 22 11.0039 22ZM9.84601 20.2053V17.9474C9.20917 17.9474 8.66399 17.7206 8.21049 17.2671C7.75698 16.8136 7.53022 16.2684 7.53022 15.6316V14.4737L1.97233 8.91579C1.91443 9.26316 1.86136 9.61053 1.81312 9.9579C1.76487 10.3053 1.74075 10.6526 1.74075 11C1.74075 13.3351 2.50785 15.3807 4.04206 17.1368C5.57627 18.893 7.51092 19.9158 9.84601 20.2053ZM19.6881 22C19.5901 22 19.5037 21.971 19.429 21.9129C19.3542 21.8548 19.3018 21.7821 19.2719 21.6949C19.0596 21.0268 18.766 20.4052 18.391 19.8301C18.0162 19.2548 17.6106 18.691 17.174 18.1387C16.7985 17.6667 16.489 17.1557 16.2457 16.6057C16.0022 16.0557 15.8804 15.4732 15.8804 14.8584C15.8804 13.8092 16.2522 12.913 16.9957 12.1701C17.7393 11.4271 18.637 11.0556 19.689 11.0556C20.7409 11.0556 21.6384 11.4274 22.3814 12.1709C23.1244 12.9143 23.4959 13.8118 23.4959 14.8633C23.4959 15.472 23.372 16.0492 23.1242 16.5949C22.8764 17.1409 22.5691 17.6555 22.2022 18.1387C21.773 18.6984 21.3684 19.2642 20.9884 19.8362C20.6083 20.4082 20.3136 21.0278 20.1044 21.6949C20.0745 21.7821 20.0221 21.8548 19.9472 21.9129C19.8725 21.971 19.7862 22 19.6881 22ZM19.6881 19.2969C19.9033 18.9316 20.1341 18.5886 20.3805 18.2681C20.627 17.9474 20.8675 17.6237 21.1022 17.2972C21.3724 16.9387 21.6088 16.5565 21.8114 16.1509C22.014 15.7452 22.1154 15.3161 22.1154 14.8633C22.1154 14.1894 21.8792 13.6165 21.407 13.1444C20.935 12.6722 20.362 12.4361 19.6881 12.4361C19.0142 12.4361 18.4413 12.6722 17.9692 13.1444C17.497 13.6165 17.2609 14.1894 17.2609 14.8633C17.2609 15.3161 17.3622 15.7452 17.5648 16.1509C17.7675 16.5565 18.0039 16.9387 18.274 17.2972C18.528 17.6237 18.7734 17.9492 19.0102 18.2736C19.247 18.598 19.4729 18.9391 19.6881 19.2969ZM19.7214 16.0881C19.3785 16.0881 19.0887 15.9697 18.8521 15.7329C18.6153 15.4961 18.4969 15.2062 18.4969 14.8633C18.4969 14.5204 18.6153 14.2305 18.8521 13.9937C19.0887 13.7569 19.3785 13.6386 19.7214 13.6386C20.0643 13.6386 20.3542 13.7569 20.591 13.9937C20.8278 14.2305 20.9462 14.5204 20.9462 14.8633C20.9462 15.2062 20.8278 15.4961 20.591 15.7329C20.3542 15.9697 20.0643 16.0881 19.7214 16.0881Z" fill="url(#paint0_linear_27_1226)"/>
<defs>
<linearGradient id="paint0_linear_27_1226" x1="0.869826" y1="-6.21899e-07" x2="27.9854" y2="36.335" gradientUnits="userSpaceOnUse">
<stop stop-color="#FCD759" stop-opacity="0.9686"/>
<stop offset="1" stop-color="#DBA434"/>
</linearGradient>
</defs>
</svg>
