<svg width="29" height="18" viewBox="0 0 29 18" fill="none" xmlns="http://www.w3.org/2000/svg">
<path d="M15.4009 8.55941C15.9249 7.98939 16.3125 7.33492 16.5638 6.59598C16.8148 5.85703 16.9403 5.09521 16.9403 4.31049C16.9403 3.52578 16.8148 2.76395 16.5638 2.02501C16.3125 1.28607 15.9249 0.63159 15.4009 0.0615785C16.4824 0.186377 17.3804 0.653347 18.0949 1.46249C18.8092 2.27183 19.1664 3.22117 19.1664 4.31049C19.1664 5.40002 18.8092 6.34935 18.0949 7.1585C17.3804 7.96764 16.4824 8.43461 15.4009 8.55941ZM21.3903 18C21.5451 17.7174 21.6631 17.4165 21.7444 17.0976C21.8259 16.7786 21.8666 16.4557 21.8666 16.1289V15.1104C21.8666 14.439 21.73 13.8002 21.4568 13.1941C21.1836 12.588 20.796 12.0678 20.2939 11.6337C21.2381 11.948 22.1073 12.3719 22.9014 12.9056C23.6956 13.4393 24.0927 14.1742 24.0927 15.1104V16.1289C24.0927 16.6482 23.9107 17.09 23.5468 17.4541C23.1828 17.818 22.7412 18 22.2219 18H21.3903ZM24.0927 7.46054H22.5532C22.2915 7.46054 22.0722 7.37197 21.8952 7.19483C21.7181 7.01769 21.6295 6.79826 21.6295 6.53655C21.6295 6.27464 21.7181 6.05532 21.8952 5.87859C22.0722 5.70165 22.2915 5.61318 22.5532 5.61318H24.0927V4.07372C24.0927 3.81201 24.1812 3.59269 24.3584 3.41576C24.5355 3.23862 24.755 3.15005 25.017 3.15005C25.2787 3.15005 25.498 3.23862 25.6749 3.41576C25.8517 3.59269 25.94 3.81201 25.94 4.07372V5.61318H27.4795C27.7412 5.61318 27.9606 5.70175 28.1378 5.8789C28.3147 6.05604 28.4032 6.27546 28.4032 6.53717C28.4032 6.79908 28.3147 7.01841 28.1378 7.19514C27.9606 7.37207 27.7412 7.46054 27.4795 7.46054H25.94V9C25.94 9.26171 25.8515 9.48103 25.6743 9.65797C25.4972 9.83511 25.2777 9.92368 25.016 9.92368C24.7541 9.92368 24.5348 9.83511 24.3581 9.65797C24.1811 9.48103 24.0927 9.26171 24.0927 9V7.46054ZM10.1667 8.62098C8.98131 8.62098 7.9665 8.19897 7.12226 7.35493C6.27823 6.51069 5.85621 5.49588 5.85621 4.31049C5.85621 3.12511 6.27823 2.1104 7.12226 1.26636C7.9665 0.42212 8.98131 0 10.1667 0C11.3521 0 12.3668 0.42212 13.2108 1.26636C14.0551 2.1104 14.4772 3.12511 14.4772 4.31049C14.4772 5.49588 14.0551 6.51069 13.2108 7.35493C12.3668 8.19897 11.3521 8.62098 10.1667 8.62098ZM0.929932 16.1289V15.2619C0.929932 14.6589 1.09373 14.1003 1.42133 13.5864C1.74893 13.0724 2.18665 12.6773 2.73449 12.401C3.95189 11.8043 5.17997 11.3567 6.41873 11.0583C7.65728 10.7598 8.9066 10.6106 10.1667 10.6106C11.4266 10.6106 12.6759 10.7598 13.9147 11.0583C15.1532 11.3567 16.3812 11.8043 17.5986 12.401C18.1464 12.6773 18.5842 13.0724 18.9118 13.5864C19.2396 14.1003 19.4035 14.6589 19.4035 15.2619V16.1289C19.4035 16.6482 19.2215 17.09 18.8576 17.4541C18.4936 17.818 18.0519 18 17.5324 18H2.80099C2.28148 18 1.83975 17.818 1.47582 17.4541C1.1119 17.09 0.929932 16.6482 0.929932 16.1289ZM10.1667 6.77363C10.8441 6.77363 11.4239 6.53245 11.9063 6.05008C12.3887 5.56772 12.6298 4.98785 12.6298 4.31049C12.6298 3.63313 12.3887 3.05327 11.9063 2.5709C11.4239 2.08854 10.8441 1.84735 10.1667 1.84735C9.48934 1.84735 8.90947 2.08854 8.42711 2.5709C7.94474 3.05327 7.70356 3.63313 7.70356 4.31049C7.70356 4.98785 7.94474 5.56772 8.42711 6.05008C8.90947 6.53245 9.48934 6.77363 10.1667 6.77363ZM2.77729 16.1526H17.5561V15.2619C17.5561 15.0125 17.4839 14.7816 17.3394 14.5692C17.1949 14.3569 16.9986 14.1837 16.7507 14.0494C15.6897 13.5268 14.6078 13.1309 13.5052 12.8616C12.4023 12.5925 11.2895 12.4579 10.1667 12.4579C9.04371 12.4579 7.93089 12.5925 6.82822 12.8616C5.72535 13.1309 4.64342 13.5268 3.58242 14.0494C3.33447 14.1837 3.13834 14.3569 2.99404 14.5692C2.84954 14.7816 2.77729 15.0125 2.77729 15.2619V16.1526Z" fill="url(#paint0_linear_8_2051)"/>
<defs>
<linearGradient id="paint0_linear_8_2051" x1="1.9426" y1="-5.08826e-07" x2="20.9317" y2="36.3708" gradientUnits="userSpaceOnUse">
<stop stop-color="#FCD759" stop-opacity="0.9686"/>
<stop offset="1" stop-color="#DBA434"/>
</linearGradient>
</defs>
</svg>
