<svg width="29" height="24" viewBox="0 0 29 24" fill="none" xmlns="http://www.w3.org/2000/svg">
<path d="M5.42709 19.4681C4.99713 19.229 4.66013 18.9062 4.4161 18.4998C4.17208 18.0934 4.05006 17.6376 4.05006 17.1322V10.8053L1.13923 9.19563C0.899819 9.05903 0.724089 8.8929 0.612041 8.69724C0.499749 8.50183 0.443604 8.28454 0.443604 8.04537C0.443604 7.8062 0.499749 7.58903 0.612041 7.39386C0.724089 7.19844 0.899819 7.03244 1.13923 6.89584L12.2736 0.829173C12.4712 0.719312 12.6748 0.638617 12.8843 0.587089C13.0938 0.535804 13.3088 0.510162 13.5292 0.510162C13.7497 0.510162 13.9647 0.535804 14.1742 0.587089C14.3837 0.638617 14.5875 0.71919 14.7856 0.828808L27.3608 7.67277C27.5851 7.79429 27.7572 7.9586 27.877 8.16568C27.9966 8.37301 28.0564 8.59662 28.0564 8.83652V17.4407C28.0564 17.7506 27.9515 18.0104 27.7418 18.2202C27.532 18.4297 27.2722 18.5344 26.9623 18.5344C26.6522 18.5344 26.3925 18.4297 26.1832 18.2202C25.9737 18.0104 25.8689 17.7506 25.8689 17.4407V9.25724L23.0084 10.8053V17.1322C23.0084 17.6376 22.8864 18.0934 22.6424 18.4998C22.3983 18.9062 22.0613 19.229 21.6314 19.4681L14.7885 23.1676C14.5885 23.2796 14.3837 23.3614 14.1742 23.4129C13.9647 23.4642 13.7497 23.4898 13.5292 23.4898C13.3088 23.4898 13.0938 23.4642 12.8843 23.4129C12.6748 23.3614 12.47 23.2796 12.27 23.1676L5.42709 19.4681ZM13.3608 13.3573C13.4264 13.3948 13.4849 13.4135 13.5362 13.4135C13.5877 13.4135 13.6461 13.3948 13.7115 13.3573L23.505 8.04573L13.7115 2.74797C13.6461 2.71054 13.5877 2.69183 13.5362 2.69183C13.4849 2.69183 13.4264 2.71054 13.3608 2.74797L3.5535 8.04573L13.3608 13.3573ZM13.3469 21.2743C13.4123 21.3117 13.4731 21.3304 13.5292 21.3304C13.5854 21.3304 13.6461 21.3117 13.7115 21.2743L20.6105 17.5471C20.6854 17.5005 20.7391 17.4468 20.7717 17.386C20.8045 17.3252 20.8209 17.2481 20.8209 17.1545V11.9719L14.8107 15.2729C14.6107 15.3849 14.4033 15.4667 14.1884 15.5182C13.9733 15.5698 13.7536 15.5955 13.5292 15.5955C13.3049 15.5955 13.0852 15.5698 12.8701 15.5182C12.6552 15.4667 12.4478 15.3849 12.2477 15.2729L6.23756 11.9719V17.1545C6.23756 17.2293 6.25397 17.3019 6.28678 17.3721C6.31935 17.4421 6.37307 17.5005 6.44793 17.5471L13.3469 21.2743Z" fill="url(#paint0_linear_17_716)"/>
<defs>
<linearGradient id="paint0_linear_17_716" x1="1.46142" y1="0.510162" x2="28.6781" y2="41.5506" gradientUnits="userSpaceOnUse">
<stop stop-color="#FCD759" stop-opacity="0.9686"/>
<stop offset="1" stop-color="#DBA434"/>
</linearGradient>
</defs>
</svg>
