<svg width="21" height="18" viewBox="0 0 21 18" fill="none" xmlns="http://www.w3.org/2000/svg">
<path d="M5.20494 18L4.16011 16.9552L10.6584 10.4416L14.1287 13.9119L19.2599 8.78075L20.3201 9.84094L14.1287 16.0169L10.6584 12.5466L5.20494 18ZM2.13887 16.856C1.63799 16.856 1.21402 16.6825 0.866989 16.3355C0.519953 15.9884 0.346436 15.5645 0.346436 15.0636V1.79244C0.346436 1.29155 0.519953 0.867589 0.866989 0.520554C1.21402 0.173518 1.63799 0 2.13887 0H15.41C15.9109 0 16.3349 0.173518 16.6819 0.520554C17.0289 0.867589 17.2025 1.29155 17.2025 1.79244V5.95687H1.83373V15.0636C1.83373 15.1399 1.86554 15.2098 1.92917 15.2733C1.99262 15.3369 2.06253 15.3687 2.13887 15.3687V16.856ZM1.83373 4.46957H15.7152V1.79244C15.7152 1.71609 15.6833 1.64619 15.6197 1.58273C15.5563 1.51911 15.4864 1.4873 15.41 1.4873H2.13887C2.06253 1.4873 1.99262 1.51911 1.92917 1.58273C1.86554 1.64619 1.83373 1.71609 1.83373 1.79244V4.46957Z" fill="url(#paint0_linear_8_2043)"/>
<defs>
<linearGradient id="paint0_linear_8_2043" x1="1.08267" y1="-5.08826e-07" x2="23.0121" y2="30.5367" gradientUnits="userSpaceOnUse">
<stop stop-color="#FCD759" stop-opacity="0.9686"/>
<stop offset="1" stop-color="#DBA434"/>
</linearGradient>
</defs>
</svg>
