<svg width="28" height="18" viewBox="0 0 28 18" fill="none" xmlns="http://www.w3.org/2000/svg">
<path d="M3.34923 18C2.64977 18 2.05773 17.7577 1.57311 17.2731C1.0885 16.7885 0.846191 16.1964 0.846191 15.497V2.50304C0.846191 1.80358 1.0885 1.21154 1.57311 0.726923C2.05773 0.242308 2.64977 0 3.34923 0H24.6508C25.3503 0 25.9423 0.242308 26.427 0.726923C26.9116 1.21154 27.1539 1.80358 27.1539 2.50304V15.497C27.1539 16.1964 26.9116 16.7885 26.427 17.2731C25.9423 17.7577 25.3503 18 24.6508 18H3.34923ZM3.34923 15.9231H24.6508C24.7575 15.9231 24.8551 15.8787 24.9437 15.7898C25.0325 15.7012 25.077 15.6036 25.077 15.497V2.50304C25.077 2.39642 25.0325 2.29881 24.9437 2.21019C24.8551 2.12135 24.7575 2.07692 24.6508 2.07692H3.34923C3.24261 2.07692 3.145 2.12135 3.05638 2.21019C2.96754 2.29881 2.92311 2.39642 2.92311 2.50304V15.497C2.92311 15.6036 2.96754 15.7012 3.05638 15.7898C3.145 15.8787 3.24261 15.9231 3.34923 15.9231ZM21.8283 12.6744H19.1923C18.9544 12.6744 18.7573 12.7525 18.6011 12.9088C18.4449 13.065 18.3668 13.2621 18.3668 13.5C18.3668 13.7379 18.4449 13.935 18.6011 14.0912C18.7573 14.2475 18.9544 14.3256 19.1923 14.3256H22.2278C22.5845 14.3256 22.8823 14.2062 23.1212 13.9673C23.36 13.7285 23.4795 13.4307 23.4795 13.0739V10.0385C23.4795 9.80054 23.4013 9.60346 23.2451 9.44723C23.0889 9.291 22.8918 9.21288 22.6539 9.21288C22.416 9.21288 22.2189 9.291 22.0627 9.44723C21.9064 9.60346 21.8283 9.80054 21.8283 10.0385V12.6744ZM14 12.7277C15.0295 12.7277 15.9082 12.3638 16.636 11.636C17.3638 10.9081 17.7278 10.0295 17.7278 9C17.7278 7.97054 17.3638 7.09188 16.636 6.36404C15.9082 5.63619 15.0295 5.27227 14 5.27227C12.9706 5.27227 12.0919 5.63619 11.3641 6.36404C10.6362 7.09188 10.2723 7.97054 10.2723 9C10.2723 10.0295 10.6362 10.9081 11.3641 11.636C12.0919 12.3638 12.9706 12.7277 14 12.7277ZM6.17177 5.32558H8.80773C9.04565 5.32558 9.24273 5.24746 9.39896 5.09123C9.55519 4.935 9.63331 4.73792 9.63331 4.5C9.63331 4.26208 9.55519 4.065 9.39896 3.90877C9.24273 3.75254 9.04565 3.67442 8.80773 3.67442H5.77231C5.41554 3.67442 5.11773 3.79385 4.87888 4.03269C4.64004 4.27154 4.52061 4.56935 4.52061 4.92612V7.96154C4.52061 8.19946 4.59873 8.39654 4.75496 8.55277C4.91119 8.709 5.10827 8.78712 5.34619 8.78712C5.58411 8.78712 5.78119 8.709 5.93742 8.55277C6.09365 8.39654 6.17177 8.19946 6.17177 7.96154V5.32558Z" fill="url(#paint0_linear_8_2034)"/>
<defs>
<linearGradient id="paint0_linear_8_2034" x1="1.8159" y1="-5.08826e-07" x2="21.2689" y2="35.6786" gradientUnits="userSpaceOnUse">
<stop stop-color="#FCD759" stop-opacity="0.9686"/>
<stop offset="1" stop-color="#DBA434"/>
</linearGradient>
</defs>
</svg>
